<?xml version="1.0" standalone="no"?>
<!DOCTYPE svg PUBLIC "-//W3C//DTD SVG 1.1//EN" "http://www.w3.org/Graphics/SVG/1.1/DTD/svg11.dtd" >
<svg xmlns="http://www.w3.org/2000/svg">
<metadata></metadata>
<defs>
<font id="SensibilityItalic" horiz-adv-x="1042" >
<font-face units-per-em="2048" ascent="1638" descent="-410" />
<missing-glyph horiz-adv-x="479" />
<glyph horiz-adv-x="0" />
<glyph horiz-adv-x="2048" />
<glyph unicode=" "  horiz-adv-x="479" />
<glyph unicode="&#x09;" horiz-adv-x="479" />
<glyph unicode="&#xa0;" horiz-adv-x="479" />
<glyph unicode="!" horiz-adv-x="526" d="M156 98q0 52 34 87.5t84 35.5t85.5 -35.5t35.5 -87.5q0 -49 -35.5 -83.5t-85.5 -34.5t-84 34t-34 84zM211 367l115 1019h213l-142 -1036z" />
<glyph unicode="&#x22;" horiz-adv-x="886" d="M303 1034l53 518h181l-76 -518h-158zM678 1034l55 518h178l-73 -518h-160z" />
<glyph unicode="#" horiz-adv-x="1314" d="M94 412l25 145h262l108 289h-303l27 143h326l145 397h154l-144 -397h240l143 397h156l-143 -397h235l-25 -143h-262l-104 -289h295l-23 -145h-323l-152 -412h-156l150 412h-238l-151 -412h-154l150 412h-238zM539 557h239l105 289h-240z" />
<glyph unicode="$" horiz-adv-x="1024" d="M104 119l95 153q50 -35 79.5 -53.5t84 -39.5t102.5 -21q91 0 152 54t61 146q0 51 -27 95.5t-70.5 78t-96 66.5t-105 69.5t-96 78.5t-70.5 101t-27 130q0 152 93.5 257.5t246.5 127.5l19 143h178l-21 -151q120 -25 238 -111q-7 -18 -42 -77.5t-42 -75.5q-53 35 -78.5 51 t-80.5 36.5t-103 20.5q-91 0 -151 -48.5t-60 -139.5q0 -53 27.5 -97.5t71 -77.5t96.5 -65.5t106 -69t96.5 -78t71 -103.5t27.5 -136q0 -159 -94 -264t-246 -127l-27 -180h-176l24 184q-131 26 -256 123z" />
<glyph unicode="%" horiz-adv-x="1771" d="M254 981q0 167 106.5 284t264.5 117q132 0 216.5 -87t84.5 -232q0 -163 -108.5 -280t-266.5 -117q-130 0 -213.5 87t-83.5 228zM403 983q0 -89 46 -139.5t110 -50.5q93 0 154 77t61 185q0 89 -45.5 143.5t-110.5 54.5q-94 0 -154.5 -80.5t-60.5 -189.5zM492 0l858 1354 h172l-863 -1354h-167zM1073 291q0 169 106 285t265 116q131 0 216 -86.5t85 -232.5q0 -163 -109 -280.5t-266 -117.5q-131 0 -214 88t-83 228zM1223 295q0 -91 45 -142t110 -51q93 0 154 77.5t61 185.5q0 89 -46 143.5t-111 54.5q-94 0 -153.5 -79t-59.5 -189z" />
<glyph unicode="&#x26;" horiz-adv-x="1382" d="M102 406q0 158 95.5 269t267.5 154q-133 88 -133 254q0 134 116 232t287 98q177 0 316 -108q-44 -87 -78 -148q-124 86 -240 86q-91 0 -144.5 -53.5t-53.5 -126.5q0 -64 46 -119.5t134 -75.5l-31 -149q-14 2 -41 2q-145 0 -241.5 -80t-96.5 -217q0 -120 90 -198.5 t254 -78.5q147 0 238.5 68.5t91.5 167.5q0 94 -49 154q-123 -16 -123 -105q0 -27 18 -76l-139 -41q-45 70 -45 144q0 60 29.5 103.5t76.5 67t104 40t114.5 28.5t104.5 25.5t76.5 38t29.5 59.5q0 34 -23 51t-59 17q-40 0 -82 -17q-19 47 -45 125q75 37 170 37q93 0 160 -54.5 t67 -148.5q0 -49 -20 -89.5t-57 -69.5t-78 -49t-93 -37q58 -81 58 -185q0 -118 -72.5 -214.5t-195.5 -149.5t-269 -53q-236 0 -385.5 116.5t-149.5 305.5z" />
<glyph unicode="'" horiz-adv-x="512" d="M303 1034l53 518h181l-76 -518h-158z" />
<glyph unicode="(" horiz-adv-x="548" d="M125 360q0 289 93.5 573.5t293.5 631.5l145 -49l-2 -7q-187 -343 -270.5 -612t-83.5 -545q0 -338 123 -692l-158 -35q-141 375 -141 735z" />
<glyph unicode=")" horiz-adv-x="548" d="M41 -326l2 7q181 318 267.5 594.5t86.5 562.5q0 348 -123 694l160 33q139 -378 139 -736q0 -290 -93 -574t-294 -630z" />
<glyph unicode="*" horiz-adv-x="1038" d="M229 1059l271 98l-244 178l84 113l225 -197q9 105 21 301h143l-45 -319q86 38 260 121l55 -135l-272 -97l244 -180l-82 -111l-227 191l-23 -301h-141q24 183 45 321l-258 -114z" />
<glyph unicode="+" horiz-adv-x="1280" d="M178 459l19 149h438l55 455h156l-55 -455h436l-19 -149h-436l-55 -455h-156l55 455h-438z" />
<glyph unicode="," horiz-adv-x="546" d="M74 -258l166 487l200 -16l-213 -498z" />
<glyph unicode="-" horiz-adv-x="542" d="M59 446l21 172h455l-21 -172h-455z" />
<glyph unicode="." horiz-adv-x="524" d="M147 98q0 52 34.5 87.5t84.5 35.5t85.5 -35.5t35.5 -87.5q0 -51 -35.5 -86t-85.5 -35t-84.5 35t-34.5 86z" />
<glyph unicode="/" horiz-adv-x="874" d="M-47 -160l956 1712h185l-959 -1712h-182z" />
<glyph unicode="0" horiz-adv-x="1099" d="M111 438q0 162 70.5 298t196.5 216t279 80q193 0 319 -129t126 -344q0 -155 -72.5 -289t-201 -214.5t-281.5 -80.5q-190 0 -313 128.5t-123 334.5zM311 440q0 -144 71.5 -222.5t176.5 -78.5q148 0 243 120t95 292q0 143 -71.5 229t-176.5 86q-150 0 -244 -125.5 t-94 -300.5z" />
<glyph unicode="1" horiz-adv-x="704" d="M66 0l20 162h203l86 692q-106 -16 -207 -23q4 26 10 80t10 80q24 3 114.5 14t170 21.5t111.5 15.5l-109 -880h201l-21 -162h-589z" />
<glyph unicode="2" horiz-adv-x="933" d="M57 0q5 62 15 133q31 24 91 65.5t77 53.5t64.5 44t82.5 57t84.5 62.5t85 73t69 76t51 83t17.5 83.5q0 58 -40.5 98.5t-108.5 40.5q-128 0 -266 -84l-64 146q78 47 175 76.5t188 29.5q147 0 235 -76.5t88 -205.5q0 -51 -16.5 -101t-41.5 -91.5t-66.5 -86t-78 -76.5 t-90 -71t-89 -62t-88.5 -57t-75 -49h543l-18 -162h-824z" />
<glyph unicode="3" horiz-adv-x="817" d="M8 -141h21q269 0 399.5 84t130.5 213q0 83 -50 126.5t-136 43.5h-170v149l149 10q106 6 186 69.5t80 156.5q0 159 -182 159q-118 0 -256 -69l-43 143q162 88 348 88q140 0 233 -74t93 -217q0 -106 -71.5 -197.5t-182.5 -133.5q86 -19 144.5 -85.5t58.5 -170.5 q0 -94 -37.5 -170t-100.5 -127.5t-149 -86t-180 -50t-197 -15.5q-51 0 -88 2v152z" />
<glyph unicode="4" horiz-adv-x="1083" d="M49 2l4 46q4 45 8 67l641 889h234l-107 -842h215l-18 -160h-213q-34 -262 -41 -330h-180q37 291 41 330h-584zM268 158h381l80 628q-75 -95 -187 -247.5t-191 -262t-83 -118.5z" />
<glyph unicode="5" horiz-adv-x="815" d="M10 -170q551 82 551 344q0 40 -14.5 71t-42.5 50t-59.5 31.5t-75.5 18t-79.5 7.5t-82.5 2h-90l108 652h625q-3 -32 -23 -166h-442l-59 -332q432 -33 432 -328q0 -94 -40 -171t-107.5 -131t-164 -94.5t-201 -64.5t-227.5 -38z" />
<glyph unicode="6" horiz-adv-x="1005" d="M129 426q0 170 64 326.5t175.5 277.5t262 210.5t325.5 135.5l45 -162q-222 -56 -391.5 -190t-240.5 -315q154 120 315 120q132 0 221.5 -92t89.5 -258q0 -138 -61.5 -254t-171.5 -184t-244 -68q-171 0 -280 121t-109 332zM324 420q0 -132 60 -206.5t153 -74.5 q120 0 192 97.5t72 234.5q0 102 -51 152.5t-134 50.5q-64 0 -139.5 -34t-140.5 -93q-12 -44 -12 -127z" />
<glyph unicode="7" horiz-adv-x="890" d="M37 -281q436 728 696 1125h-586l21 162h801l-15 -127q-139 -208 -351.5 -560t-395.5 -671z" />
<glyph unicode="8" horiz-adv-x="1026" d="M119 303q0 242 319 391q-95 57 -148.5 125.5t-53.5 167.5q0 164 128.5 275.5t303.5 111.5q100 0 183 -36t136 -110.5t53 -174.5q0 -116 -71 -197.5t-221 -153.5q125 -64 184 -143t59 -188q0 -114 -67 -206t-175 -141t-231 -49q-173 0 -286 85t-113 243zM305 328 q0 -97 65 -147t160 -50q106 0 189.5 67t83.5 169q0 85 -53 140t-172 111q-55 -23 -97 -46.5t-85 -58.5t-66.5 -82t-24.5 -103zM416 993q0 -39 14.5 -71t45 -58.5t61 -45t79.5 -42.5q123 53 184.5 110.5t61.5 147.5q0 89 -59.5 137t-145.5 48q-96 0 -168.5 -64.5 t-72.5 -161.5z" />
<glyph unicode="9" horiz-adv-x="1005" d="M121 -207q222 56 391 190.5t240 315.5q-152 -121 -314 -121q-132 0 -221.5 90.5t-89.5 253.5q0 136 60.5 252.5t171.5 187t247 70.5q170 0 278.5 -120t108.5 -332q0 -170 -64 -326t-175.5 -277t-262 -210.5t-325.5 -135.5zM322 537q0 -104 50.5 -154.5t133.5 -50.5 q64 0 139.5 35t140.5 94q13 48 13 125q0 133 -59.5 207.5t-151.5 74.5q-121 0 -193.5 -97t-72.5 -234z" />
<glyph unicode=":" horiz-adv-x="522" d="M154 98q0 52 34 87.5t84 35.5t85.5 -35.5t35.5 -87.5q0 -51 -35.5 -86t-85.5 -35t-84 35t-34 86zM244 831q0 51 34 86t84 35t85.5 -35t35.5 -86t-35.5 -85.5t-85.5 -34.5t-84 34.5t-34 85.5z" />
<glyph unicode=";" horiz-adv-x="546" d="M72 -256l168 485l200 -16l-211 -498zM270 831q0 51 34.5 86t84.5 35t84.5 -35t34.5 -86t-34.5 -85.5t-84.5 -34.5t-84.5 34.5t-34.5 85.5z" />
<glyph unicode="&#x3c;" horiz-adv-x="1280" d="M207 483l16 117l1008 404l-21 -173l-741 -292l670 -297l-23 -166z" />
<glyph unicode="=" horiz-adv-x="1280" d="M158 260l20 152h1020l-20 -152h-1020zM207 655l20 156h1020l-20 -156h-1020z" />
<glyph unicode="&#x3e;" horiz-adv-x="1280" d="M158 72l22 174l742 295l-670 293l18 167l912 -405l-15 -117z" />
<glyph unicode="?" horiz-adv-x="923" d="M242 1290q178 123 389 123q96 0 174.5 -34.5t130 -111t51.5 -184.5q0 -59 -20.5 -113t-68 -112t-93.5 -103.5t-127 -117.5q-74 -65 -106.5 -127.5t-43.5 -155.5l-172 15q2 115 37.5 201t114.5 159q23 22 69 60t76 65.5t63 64t49.5 76t16.5 80.5q0 72 -50.5 114t-123.5 42 q-80 0 -145 -21t-158 -69zM305 98q0 52 34.5 87.5t84.5 35.5t85.5 -35.5t35.5 -87.5q0 -51 -35.5 -86t-85.5 -35t-84.5 35t-34.5 86z" />
<glyph unicode="@" horiz-adv-x="1697" d="M188 590q0 158 47 294t126 231.5t183 164t219.5 101t233.5 32.5q104 0 200.5 -25t181 -78t147 -128t99 -182.5t36.5 -235.5q0 -90 -28 -178.5t-79.5 -163.5t-135 -121.5t-185.5 -46.5q-65 0 -118.5 30t-78.5 81q-48 -54 -108 -82.5t-111 -28.5q-117 0 -190.5 79 t-73.5 214q0 98 35.5 187.5t95.5 154t142 103t171 38.5q126 0 265 -55l-82 -486q-2 -8 -2 -24q0 -70 86 -70q99 0 165 105.5t66 259.5q0 125 -41 224.5t-111 160t-158 92t-188 31.5q-93 0 -184 -27t-173.5 -83.5t-145.5 -134.5t-100.5 -188.5t-37.5 -238.5q0 -94 23.5 -181 t73 -163.5t121 -133t173.5 -89.5t224 -33q121 0 227 35.5t219 103.5l68 -129q-109 -72 -244 -114t-274 -42q-154 0 -283.5 41t-219.5 111t-153 164.5t-93 201.5t-30 222zM719 545q0 -69 33.5 -109.5t78.5 -40.5q79 0 136.5 56t70.5 133l52 284q-51 21 -99 21 q-121 0 -196.5 -103.5t-75.5 -240.5z" />
<glyph unicode="A" horiz-adv-x="1247" d="M8 0q26 54 191 393.5t273.5 559.5t170.5 339l-16 94l196 17l353 -1403l-213 -10l-93 375h-487q-139 -305 -166 -375zM453 520h385q-11 43 -65.5 276.5t-63.5 266.5q-36 -70 -256 -543z" />
<glyph unicode="B" horiz-adv-x="1026" d="M102 0l170 1386h291q196 0 313 -94t117 -256q0 -113 -65.5 -206.5t-177.5 -135.5q101 -33 156 -111.5t55 -181.5t-41.5 -181.5t-114.5 -125.5t-164 -70.5t-197 -23.5h-342zM319 164h144q126 0 211.5 63.5t85.5 180.5q0 106 -65.5 158t-182.5 52h-137zM393 766h135 q114 0 186 73.5t72 180.5q0 91 -56 146t-167 55h-112z" />
<glyph unicode="C" horiz-adv-x="1077" d="M129 600q0 115 28.5 230.5t86.5 220t138 185t192.5 128t240.5 47.5q195 0 322 -78l-60 -157q-127 57 -252 57q-115 0 -209.5 -53.5t-154 -143.5t-91.5 -201.5t-32 -232.5q0 -207 92.5 -327.5t257.5 -120.5q115 0 258 59l41 -152q-176 -86 -334 -86q-243 0 -383.5 169.5 t-140.5 455.5z" />
<glyph unicode="D" horiz-adv-x="1226" d="M104 0l170 1386h291q292 0 461.5 -167.5t169.5 -450.5q0 -155 -49 -293t-139.5 -244.5t-230 -168.5t-308.5 -62h-365zM324 170h155q101 0 185.5 34t142.5 91.5t99 134.5t60 161.5t19 174.5q0 202 -110 325t-310 123h-114z" />
<glyph unicode="E" horiz-adv-x="935" d="M104 0l170 1386h684q-15 -131 -22 -172h-483l-54 -436h414l-22 -172h-414l-53 -436h528q-1 -25 -18 -170h-730z" />
<glyph unicode="F" horiz-adv-x="878" d="M104 0l170 1386h684l-22 -172h-483l-56 -469h414l-23 -170h-413l-72 -575h-199z" />
<glyph unicode="G" horiz-adv-x="1245" d="M131 598q0 117 29 233t88.5 221t142 185.5t198.5 128t249 47.5q186 0 348 -88q-5 -15 -30 -79.5t-30 -82.5q-155 72 -295 72q-96 0 -178 -36.5t-139 -98t-97.5 -143.5t-59.5 -173t-19 -186q0 -213 89.5 -332t260.5 -119q141 0 238 43q20 122 47 334h-281l25 172h467 l-78 -606q-217 -115 -434 -115q-252 0 -396.5 168t-144.5 455z" />
<glyph unicode="H" horiz-adv-x="1236" d="M102 -2l172 1388h199l-76 -614h572l75 614h201l-172 -1388h-199l74 610h-571l-76 -610h-199z" />
<glyph unicode="I" horiz-adv-x="466" d="M102 -2l172 1388h201l-172 -1388h-201z" />
<glyph unicode="J" horiz-adv-x="755" d="M33 29l65 170q78 -35 144 -35q80 0 132.5 54t65.5 159l107 848h-197l29 161h389l-123 -1011q-24 -195 -134.5 -296.5t-262.5 -101.5q-108 0 -215 52z" />
<glyph unicode="K" horiz-adv-x="1124" d="M96 -2l172 1388h203l-76 -616q128 122 316 316.5t295 310.5l219 -19q-45 -46 -264 -272.5t-324 -327.5q9 -17 118.5 -218t194.5 -355t113 -199l-217 -18q-82 143 -359 659l-122 -106l-66 -543h-203z" />
<glyph unicode="L" horiz-adv-x="868" d="M102 0l170 1386h201l-151 -1216h471l-23 -170h-668z" />
<glyph unicode="M" horiz-adv-x="1658" d="M57 0l381 1288l-22 98q20 0 100 4.5t100 4.5l232 -994l465 985h182q1 -33 9 -254t20 -550.5t20 -579.5l-198 -10q-5 197 -19.5 585t-15.5 429l-422 -881h-166l-197 881l-272 -1016z" />
<glyph unicode="N" horiz-adv-x="1284" d="M111 -2l159 1253l-53 117l199 31l561 -1032l125 1019h190l-170 -1382l-159 -12l-541 999l-123 -993h-188z" />
<glyph unicode="O" horiz-adv-x="1417" d="M131 600q0 116 29.5 232t89 220.5t140.5 185t193 128t238 47.5q133 0 240.5 -47.5t177.5 -131t107.5 -196.5t37.5 -245q0 -116 -29.5 -232.5t-89 -222t-141.5 -186.5t-194.5 -129t-239.5 -48q-134 0 -241 48t-176 132.5t-105.5 198t-36.5 246.5zM338 602 q0 -203 92 -325.5t262 -122.5q90 0 168.5 34.5t135.5 94.5t98 140.5t61.5 172.5t20.5 190q0 67 -12.5 131t-40.5 122.5t-68.5 102t-100.5 69.5t-133 26q-113 0 -206 -54t-152.5 -144t-92 -203t-32.5 -234z" />
<glyph unicode="P" horiz-adv-x="1017" d="M102 -2l172 1388h316q211 0 326.5 -107t115.5 -288q0 -199 -147 -324.5t-373 -125.5q-75 0 -143 10l-70 -553h-197zM387 707q58 -7 141 -7q126 0 213.5 77t87.5 208q0 103 -62.5 171.5t-178.5 68.5h-137z" />
<glyph unicode="Q" horiz-adv-x="1423" d="M129 600q0 116 29.5 232t89 220.5t140.5 185t193 128t238 47.5q134 0 242 -48.5t177.5 -133t106.5 -196.5t37 -242q0 -110 -28.5 -219.5t-84.5 -210.5t-151 -178.5t-217 -112.5q77 -6 253 -12t228 -11l-22 -160q-514 22 -801 111q-209 64 -319.5 215.5t-110.5 384.5z M336 602q0 -203 92 -323.5t264 -120.5q112 0 205 52.5t152.5 140.5t92 200t32.5 235q0 67 -12.5 131t-40.5 122.5t-68.5 102t-100.5 69.5t-133 26q-113 0 -206 -54t-152.5 -144t-92 -203t-32.5 -234z" />
<glyph unicode="R" horiz-adv-x="1026" d="M102 -2l172 1388h289q196 0 312 -100.5t116 -273.5q0 -154 -96.5 -271.5t-251.5 -152.5q112 -229 318 -582q-74 -6 -211 -14q-39 65 -85 150t-75 140t-81.5 158t-68.5 133q-23 2 -71 2q-55 -457 -70 -577h-197zM389 721q54 -4 94 -4q136 0 222 76.5t86 207.5 q0 103 -63.5 163.5t-164.5 60.5h-112z" />
<glyph unicode="S" horiz-adv-x="933" d="M74 123q6 10 25.5 43t36.5 61.5t24 42.5q45 -31 68.5 -45.5t64 -34t80.5 -28t86 -8.5q90 0 153.5 58t63.5 153q0 52 -27.5 98.5t-71 82t-96.5 71t-106 74.5t-96.5 83t-71 105.5t-27.5 134.5q0 162 116.5 276.5t301.5 114.5q182 0 354 -125q-14 -27 -44 -73.5t-44 -73.5 q-159 104 -266 104q-96 0 -160.5 -58t-64.5 -143q0 -52 28 -96t72 -77.5t98 -67t108 -72t98 -83.5t72 -111.5t28 -147.5q0 -176 -120.5 -286.5t-295.5 -110.5q-210 0 -387 139z" />
<glyph unicode="T" horiz-adv-x="1024" d="M172 1212l23 174h915l-20 -174h-359l-149 -1212h-203l151 1212h-358z" />
<glyph unicode="U" horiz-adv-x="1222" d="M156 401q0 51 6 103l110 882h201l-113 -909q-2 -33 -2 -63q0 -120 61.5 -193.5t182.5 -73.5q273 0 313 324l113 915h203l-117 -923q-31 -242 -161.5 -366t-358.5 -124q-211 0 -324.5 114t-113.5 314z" />
<glyph unicode="V" horiz-adv-x="1196" d="M156 1380l213 13q26 -143 65.5 -326.5t102.5 -460.5t71 -311l506 1098l211 -13l-674 -1398l-162 -11q-247 1000 -333 1409z" />
<glyph unicode="W" horiz-adv-x="1732" d="M158 1380l209 13q28 -189 78 -560.5t75 -537.5l359 926l-23 157l201 8q27 -164 83.5 -578t73.5 -523l435 1110l204 -15q-29 -82 -224.5 -554.5t-350.5 -825.5l-197 -12q-44 236 -153 942q-8 -22 -94 -245.5t-173.5 -448.5t-91.5 -236l-194 -12q-35 211 -73 454.5 t-82.5 536t-61.5 401.5z" />
<glyph unicode="X" horiz-adv-x="1165" d="M4 8q55 68 278 364t244 324l-350 682l209 21l270 -535q68 86 221.5 294.5t178.5 240.5l211 -21l-525 -678l375 -700l-221 -10q-17 31 -126.5 242.5t-156.5 295.5l-403 -540z" />
<glyph unicode="Y" horiz-adv-x="1087" d="M141 1380l215 15q101 -258 256 -588q216 306 392 586l225 -13l-535 -757l-78 -625h-202l78 623q-258 541 -351 759z" />
<glyph unicode="Z" horiz-adv-x="1128" d="M70 0l12 98q31 48 376 549t392 567h-629l21 172h915l-10 -83l-782 -1133h655l-21 -170h-929z" />
<glyph unicode="[" horiz-adv-x="546" d="M45 -352l234 1904h364l-18 -149h-191l-196 -1602h190l-18 -153h-365z" />
<glyph unicode="\" horiz-adv-x="874" d="M160 1552h184l537 -1706h-185z" />
<glyph unicode="]" horiz-adv-x="546" d="M45 -352l18 151h189l199 1604h-189l17 149h364l-233 -1904h-365z" />
<glyph unicode="^" horiz-adv-x="1206" d="M131 471l576 895h112l369 -895h-193l-258 666l-418 -666h-188z" />
<glyph unicode="_" horiz-adv-x="1198" d="M-35 -291l21 152h1192l-19 -152h-1194z" />
<glyph unicode="a" d="M100 352q0 192 76 347t209 242t297 87q157 0 283 -59l-93 -750q0 -1 -1 -14t-1 -23q0 -20 7.5 -32.5t19.5 -12.5q40 0 143 68l43 -107q-58 -50 -129 -85.5t-135 -35.5q-70 0 -94.5 54.5t-24.5 165.5q-166 -220 -348 -220q-116 0 -184 103t-68 272zM291 373 q0 -103 31.5 -167.5t87.5 -64.5q122 0 297 230q12 98 67 473q-62 24 -121 24q-111 0 -195 -71.5t-125.5 -182.5t-41.5 -241z" />
<glyph unicode="b" horiz-adv-x="989" d="M119 80l182 1470l188 4l-94 -720q179 198 312 198q55 0 104 -22.5t89 -67.5t63.5 -120t23.5 -171q0 -129 -38 -249.5t-107.5 -216t-176 -153t-233.5 -57.5q-189 0 -313 105zM313 195q53 -56 140 -56q90 0 160 49t109 127t58 163.5t19 170.5q0 110 -40.5 162.5t-94.5 52.5 q-110 0 -287 -209z" />
<glyph unicode="c" horiz-adv-x="761" d="M102 406q0 118 37.5 229t104.5 199.5t170 142t225 53.5q118 0 217 -55l-55 -154q-84 41 -168 41q-107 0 -186 -65t-116.5 -163t-37.5 -210q0 -136 51 -209.5t139 -73.5q117 0 242 88l43 -125q-75 -60 -162 -94.5t-166 -34.5q-156 0 -247 121.5t-91 309.5z" />
<glyph unicode="d" horiz-adv-x="1044" d="M102 362q0 179 65 330t193.5 245.5t296.5 94.5q57 0 129 -16l62 532l188 6l-166 -1351q0 -3 -1 -10t-1 -13q0 -17 8.5 -30t20.5 -13q17 0 42.5 11.5t58 31.5t42.5 25l43 -107q-141 -118 -264 -118q-68 0 -96.5 44t-28.5 128q0 26 2 38q-71 -94 -159 -153.5t-185 -59.5 q-77 0 -135 53t-86.5 139.5t-28.5 192.5zM293 367q0 -53 10 -101.5t38 -86.5t69 -38q127 0 301 230l63 473q-70 24 -135 24q-111 0 -190.5 -69.5t-117.5 -181t-38 -250.5z" />
<glyph unicode="e" horiz-adv-x="870" d="M98 403q0 133 45.5 251.5t119 199.5t168.5 128.5t194 47.5q125 0 195.5 -74t70.5 -180q0 -308 -600 -393q4 -119 63 -182.5t144 -63.5q130 0 268 109l49 -123q-78 -71 -169.5 -108.5t-180.5 -37.5q-158 0 -262.5 110t-104.5 316zM289 520q44 4 92 13t109 28.5t107.5 45.5 t79 68t32.5 93q0 46 -30 77.5t-81 31.5q-61 0 -116 -33t-93.5 -86t-64 -114.5t-35.5 -123.5z" />
<glyph unicode="f" horiz-adv-x="557" d="M-68 -373l15 154h30q155 0 195 317l88 758h-141l18 133l142 15l22 172q23 186 117.5 286.5t243.5 100.5q41 0 86 -9l-19 -157q-12 2 -53 2q-82 0 -126 -43.5t-56 -143.5l-27 -208h186l-20 -148h-187l-90 -762q-28 -239 -129 -355t-260 -116q-11 0 -35 4z" />
<glyph unicode="g" horiz-adv-x="968" d="M23 -174q0 139 253 242q-69 38 -69 100q0 46 26 79.5t101 88.5q-85 38 -139 111.5t-54 187.5q0 171 120 283t304 112q124 0 228 -74l219 66l43 -145l-164 -48q33 -71 33 -141q0 -151 -111.5 -259.5t-308.5 -121.5q-50 -27 -73 -48t-23 -46q0 -34 47 -39l182 -16 q146 -13 216.5 -69t70.5 -146q0 -78 -47 -141t-123.5 -101t-169 -58t-189.5 -20q-177 0 -274.5 55.5t-97.5 147.5zM211 -139q0 -86 231 -86q142 0 217.5 40t75.5 97q0 73 -143 88q-145 10 -168 12q-99 -36 -156 -75.5t-57 -75.5zM324 641q0 -96 49 -143t125 -47 q96 0 166.5 62.5t70.5 182.5q0 92 -51 140.5t-129 48.5q-99 0 -165 -74t-66 -170z" />
<glyph unicode="h" horiz-adv-x="1056" d="M111 -4l190 1552l188 6l-92 -723q178 199 330 199q111 0 173.5 -84t62.5 -213q0 -48 -9 -131l-49 -403q-2 -10 -2 -31q0 -14 8.5 -22.5t22.5 -8.5q30 0 137 66l43 -109q-60 -50 -133 -83.5t-129 -33.5q-69 0 -102 45.5t-33 120.5q0 22 4 68l49 412q4 27 4 73 q0 85 -29.5 128.5t-78.5 43.5q-62 0 -140.5 -60.5t-146.5 -145.5l-80 -666h-188z" />
<glyph unicode="i" horiz-adv-x="489" d="M127 145q0 9 1 26l1 17l98 811l189 7l-101 -805l-1 -5q0 -5 -0.5 -12.5t-0.5 -13.5q0 -33 33 -33q17 0 37.5 7.5t34.5 15.5t36.5 22.5t32.5 20.5l41 -117q-151 -111 -256 -111q-71 0 -108 46t-37 124zM248 1325q0 49 33.5 83t80.5 34q50 0 83.5 -34t33.5 -83 q0 -50 -34 -84.5t-83 -34.5q-47 0 -80.5 35t-33.5 84z" />
<glyph unicode="j" horiz-adv-x="430" d="M-63 -242q73 27 121.5 82.5t58.5 139.5l127 1019l188 7l-123 -998q-40 -315 -313 -385zM262 1325q0 49 34.5 83t82.5 34t81.5 -34t33.5 -83t-34 -84t-81 -35q-48 0 -82.5 35t-34.5 84z" />
<glyph unicode="k" horiz-adv-x="925" d="M111 -2l190 1550l195 6q-18 -146 -39.5 -310.5t-48 -363t-41.5 -309.5q186 160 481 451l133 -104l-410 -367q106 -255 154 -333q51 -82 88 -83q41 0 109 47l49 -108q-111 -97 -221 -97q-34 0 -68 21t-65.5 63t-57.5 83.5t-55.5 105t-46.5 104t-41 101.5l-62 -43l-55 -414 h-188z" />
<glyph unicode="l" horiz-adv-x="493" d="M127 145q0 9 1 26l1 17l166 1360l188 6l-166 -1353l-1 -5q0 -5 -0.5 -12.5t-0.5 -13.5q0 -33 31 -33q25 0 55.5 15t87.5 51l39 -117q-151 -111 -254 -111q-72 0 -109.5 46.5t-37.5 123.5z" />
<glyph unicode="m" horiz-adv-x="1638" d="M113 -2l123 1001l174 7l-19 -177q44 44 73 70.5t76 61.5t94 52t95 17q86 0 141.5 -55.5t77.5 -145.5q97 97 181.5 149t170.5 52q114 0 179 -84.5t65 -210.5q0 -59 -10 -131l-49 -405q0 -7 -1 -17t-1 -14q0 -13 9.5 -22t23.5 -9q30 0 137 66l39 -111q-61 -48 -133.5 -81.5 t-131.5 -33.5q-62 0 -96.5 40.5t-34.5 109.5q0 17 3.5 42.5t3.5 31.5l49 424q4 50 4 71q0 85 -30 128.5t-79 43.5q-39 0 -78.5 -17t-78.5 -51t-65.5 -63t-63.5 -73l-80 -666h-187l76 627q4 23 4 71q0 85 -29.5 128.5t-78.5 43.5q-62 0 -143 -64t-142 -140l-82 -666h-186z " />
<glyph unicode="n" horiz-adv-x="1054" d="M113 -2l120 1003l177 7l-19 -177q96 100 174 149.5t164 49.5q110 0 172 -82.5t62 -210.5q0 -57 -9 -131l-49 -407q-2 -10 -2 -31q0 -13 8.5 -22t20.5 -9q32 0 139 66l39 -111q-61 -48 -132.5 -81.5t-129.5 -33.5q-66 0 -98.5 41t-32.5 99q0 30 4 76l49 432q4 25 4 71 q0 86 -28.5 129t-79.5 43q-111 0 -283 -204l-84 -666h-186z" />
<glyph unicode="o" horiz-adv-x="987" d="M100 416q0 164 70 305.5t190.5 226t262.5 84.5q168 0 267 -120.5t99 -321.5q0 -164 -69.5 -306t-190 -226.5t-262.5 -84.5q-168 0 -267.5 121t-99.5 322zM297 412q0 -138 56 -208.5t136 -70.5q126 0 215 130t89 331q0 137 -56 206.5t-137 69.5q-125 0 -214 -129.5 t-89 -328.5z" />
<glyph unicode="p" horiz-adv-x="1009" d="M78 -354l162 1355l170 7l-21 -199q85 105 176 164t174 59q51 0 97 -20.5t86.5 -63.5t65 -121t24.5 -182q0 -144 -46.5 -270t-123.5 -212.5t-179.5 -136t-213.5 -49.5q-68 0 -138 25l-45 -356h-188zM326 164q17 -11 55.5 -19t71.5 -8q110 0 195 69t129 183t44 252 q0 115 -40.5 170t-94.5 55q-59 0 -136.5 -52.5t-164.5 -160.5z" />
<glyph unicode="q" horiz-adv-x="1017" d="M102 354q0 146 46.5 273.5t124.5 215t180.5 137.5t212.5 50q169 0 323 -63l-162 -1321h-188l72 526q-87 -95 -172.5 -147t-155.5 -52q-117 0 -199 97t-82 284zM291 356q0 -110 40.5 -162.5t94.5 -52.5q121 0 299 195l66 508q-46 22 -129 22q-111 0 -197 -70t-130 -185.5 t-44 -254.5z" />
<glyph unicode="r" horiz-adv-x="620" d="M106 0l125 1001l170 7l-24 -230q48 73 138 151t171 107l25 -178q-178 -71 -281 -186q-39 -44 -53.5 -80.5t-26.5 -126.5l-57 -465h-187z" />
<glyph unicode="s" horiz-adv-x="712" d="M80 76l61 139q119 -82 219 -82q62 0 106 38t44 101q0 41 -26.5 73t-77.5 65q-16 11 -60.5 38.5t-65 41.5t-54 43t-49.5 53.5t-29 61t-13 77.5q0 131 91 218t235 87q80 0 160.5 -30t128.5 -68l-74 -135q-43 29 -102.5 52t-110.5 23q-63 0 -105.5 -31t-42.5 -93 q0 -40 25.5 -72.5t77.5 -67.5q16 -10 55 -34.5t57 -37t49.5 -36t47.5 -43t34 -46.5t25.5 -58t7.5 -66q0 -132 -93 -222t-239 -90q-85 0 -161 29.5t-121 71.5z" />
<glyph unicode="t" horiz-adv-x="632" d="M119 856l20 131l160 17l35 282l190 19l-39 -301h211l-22 -148h-207l-72 -596q-6 -48 -6 -67q0 -50 47 -50q39 0 156 62l37 -123q-59 -41 -133 -71.5t-134 -30.5q-84 0 -124.5 43.5t-40.5 119.5q0 14 1 33.5t1 20.5l80 659h-160z" />
<glyph unicode="u" horiz-adv-x="1048" d="M131 268q0 41 8 115l76 621h186q-55 -468 -77 -631q-5 -58 -5 -68q0 -83 31.5 -127.5t83.5 -44.5q58 0 121.5 44t157.5 151l82 676h188l-98 -801q0 -1 -1 -11.5t-1 -17.5q0 -39 30 -39q7 0 14.5 1t15.5 4t14.5 5.5t16.5 8t15.5 8.5t16.5 10t16 10.5t17 11.5t16 11 q3 -12 21.5 -53.5t21.5 -53.5q-144 -123 -258 -123q-66 0 -97 44.5t-34 140.5q-72 -86 -157.5 -135.5t-160.5 -49.5q-119 0 -189.5 74.5t-70.5 218.5z" />
<glyph unicode="v" horiz-adv-x="921" d="M133 993l186 23q30 -119 90.5 -382.5t84.5 -359.5q143 286 350 742l186 -25l-506 -1009h-137q-38 141 -135.5 534.5t-118.5 476.5z" />
<glyph unicode="w" horiz-adv-x="1456" d="M135 1001l191 19q112 -552 157 -744l258 586l-26 123l188 21q3 -20 71 -357.5t77 -380.5l331 748l181 -25l-471 -1009h-146q-7 26 -76.5 335.5t-74.5 335.5l-293 -671h-133q-98 407 -234 1019z" />
<glyph unicode="x" horiz-adv-x="954" d="M61 29l390 485l-269 473l176 41l209 -366l295 364l164 -53l-373 -465l279 -483l-178 -43l-217 376l-310 -383z" />
<glyph unicode="y" horiz-adv-x="915" d="M35 -356l39 153q27 -6 57 -6q129 0 225 193l29 57q-56 227 -258 952l199 25l182 -733q50 104 168 370t164 363l190 -25l-522 -1083q-71 -147 -167.5 -217t-199.5 -70q-64 0 -106 21z" />
<glyph unicode="z" horiz-adv-x="851" d="M76 0l8 102l553 756h-447l21 146h682l-12 -103l-551 -745h465l-17 -156h-702z" />
<glyph unicode="{" horiz-adv-x="542" d="M135 -195l8 76l88 502q9 61 9 74q0 70 -56 137q63 54 86.5 95.5t38.5 127.5l94 526q19 106 70 154.5t141 48.5h172l-26 -149h-47q-62 0 -98.5 -22t-47.5 -83l-92 -510q-14 -76 -36 -114t-77 -74q30 -27 43 -52t13 -61q0 -34 -8 -73l-88 -504q-5 -30 -5 -35 q0 -37 23.5 -53.5t71.5 -16.5h65l-26 -151h-166q-75 0 -112.5 43t-37.5 114z" />
<glyph unicode="|" horiz-adv-x="606" d="M184 -160l301 1702h177l-300 -1702h-178z" />
<glyph unicode="}" horiz-adv-x="530" d="M-33 -352l25 153h63q16 0 29.5 1t25 6t19.5 7.5t16 13t12.5 15t10 20.5t8 23t7.5 29.5t7 32t7 37.5l73 417q14 76 37 114.5t78 72.5q-29 25 -42.5 50t-14.5 60q0 37 8 78l63 355q3 16 12 57.5t14 73.5t5 57q0 76 -111 76h-47l27 149h131q98 0 141 -29.5t43 -111.5 q0 -25 -2 -39l-98 -553q-8 -49 -8 -90t11.5 -68.5t45.5 -64.5q-57 -47 -81.5 -89.5t-37.5 -103.5l-77 -426q-8 -42 -14 -69t-17 -64.5t-22 -61.5t-28.5 -50.5t-38 -42t-49.5 -25.5t-63 -10h-168z" />
<glyph unicode="~" horiz-adv-x="1189" d="M182 467q53 108 137.5 174t182.5 66q55 0 112 -23t97 -51t89.5 -51t90.5 -23q85 0 186 150l113 -72q-51 -108 -134.5 -174t-181.5 -66q-59 0 -117.5 23t-97.5 50t-88 50t-90 23q-87 0 -190 -148z" />
<glyph unicode="&#xa1;" horiz-adv-x="526" d="M106 -352l142 1005l184 -16l-113 -989h-213zM252 911q0 51 35.5 86t85.5 35t84.5 -35t34.5 -86t-35 -87t-84 -36q-50 0 -85.5 36t-35.5 87z" />
<glyph unicode="&#xa2;" horiz-adv-x="858" d="M111 426q0 136 54 260.5t159.5 216t242.5 117.5l27 209h162l-27 -201q82 -11 164 -53q-5 -18 -27 -82.5t-24 -69.5q-80 39 -170 39q-108 0 -193.5 -61t-130.5 -159t-45 -210q0 -128 65 -206.5t177 -78.5q94 0 213 46l33 -152q-82 -35 -191 -53l-25 -203h-159l22 203 q-143 14 -235 130t-92 308z" />
<glyph unicode="&#xa3;" horiz-adv-x="1024" d="M76 541l20 161h193l88 334q48 183 155.5 280t268.5 97q145 0 282 -70q-34 -89 -67 -161q-134 55 -225 55q-96 0 -147 -55.5t-83 -175.5l-80 -304h289l-20 -161h-306q-46 -195 -108 -381h594l-19 -160h-829q0 1 -1 5t-1 5q101 252 168 531h-172z" />
<glyph unicode="&#xa4;" horiz-adv-x="1024" d="M63 135l189 170q-42 63 -45 158q-9 133 69 244l-124 145l112 104l127 -147q88 57 205 57q125 0 207 -63l170 153l98 -104l-176 -160q43 -106 26.5 -209.5t-81.5 -185.5l141 -162l-113 -104l-143 170q-82 -45 -184 -45q-112 0 -191 47l-190 -172zM375 459q3 -74 45 -123 t121 -49q66 0 118.5 38.5t79.5 101t23 132.5q-3 75 -45.5 125.5t-118.5 50.5q-65 0 -118 -39.5t-81 -103t-24 -133.5z" />
<glyph unicode="&#xa5;" horiz-adv-x="1175" d="M188 297l17 143h340l18 150h-338l19 147h282l-305 639h205l258 -551l383 551h213l-461 -639h291l-18 -147h-334l-19 -150h334l-18 -143h-334l-35 -297h-194l34 297h-338z" />
<glyph unicode="&#xa6;" horiz-adv-x="606" d="M193 -154l83 676h179l-84 -676h-178zM319 877l82 673h179l-82 -673h-179z" />
<glyph unicode="&#xa7;" horiz-adv-x="1189" d="M233 -281l72 150q81 -40 137.5 -57t128.5 -17q85 0 145 53.5t60 133.5q0 100 -117 161q-31 16 -87 40t-96.5 41t-89.5 48.5t-79.5 67t-52 91.5t-21.5 126q0 123 57.5 232t160.5 190q-80 89 -80 213q0 149 114 259t279 110q92 0 166 -24t166 -71l-72 -151q-12 6 -40 19.5 t-41 19t-38.5 15.5t-44 14.5t-45 8t-53.5 3.5q-84 0 -146.5 -54.5t-62.5 -134.5q0 -101 117 -162q32 -17 88 -41t97 -41.5t89.5 -48.5t80 -66t52.5 -91t21 -125q0 -241 -217 -422q77 -86 77 -211q0 -97 -50.5 -182t-140 -137t-196.5 -52q-180 0 -338 92zM412 584 q0 -44 15 -80t36 -59t59 -45t68.5 -34.5t80 -32.5t79.5 -34q73 49 120.5 133t47.5 172q0 46 -15.5 82.5t-37.5 60t-60 45.5t-69 34t-79 31t-77 32q-73 -49 -120.5 -132t-47.5 -173z" />
<glyph unicode="&#xa9;" horiz-adv-x="1636" d="M176 692q0 136 46 261t133.5 226.5t229 162.5t316.5 61q141 0 260.5 -40t203.5 -108.5t143 -159.5t87.5 -193t28.5 -210t-28.5 -211t-88 -195t-143.5 -161t-203.5 -109.5t-259.5 -40.5t-259.5 40.5t-204 109.5t-144.5 161t-88.5 195t-28.5 211zM322 692q0 -89 23 -173 t70.5 -158.5t115 -130.5t163 -88.5t207.5 -32.5t207 32.5t162.5 88.5t115 130.5t70.5 158.5t23 173q0 87 -22.5 169.5t-70.5 156t-115 128.5t-162.5 87.5t-207.5 32.5q-113 0 -209 -32.5t-163 -87.5t-114.5 -128.5t-70 -156t-22.5 -169.5zM467 676q0 92 30 178t84.5 154 t139.5 109.5t186 41.5q109 0 230 -53l-41 -131q-105 43 -195 43q-82 0 -146.5 -49t-98 -126t-33.5 -165q0 -142 82 -229t219 -87q73 0 174 48l35 -127h6q-124 -62 -230 -62q-199 0 -320.5 129t-121.5 326z" />
<glyph unicode="&#xaa;" horiz-adv-x="745" d="M160 1065q0 205 118 339t291 134h15q100 0 190 -43l-57 -483q-8 -54 -8 -70q0 -18 10 -18t23 4.5t22.5 9.5t29 16.5t29.5 16.5l35 -84q-42 -37 -93 -62.5t-97 -25.5q-99 0 -99 127q-105 -129 -225 -129q-85 0 -134.5 74t-49.5 194zM309 1077q0 -66 19.5 -108.5 t52.5 -42.5q86 0 199 155l47 320q-37 12 -76 12q-75 0 -131.5 -48.5t-83.5 -124t-27 -163.5z" />
<glyph unicode="&#xab;" horiz-adv-x="1083" d="M166 543l434 448l100 -102l-321 -357l246 -360l-125 -78zM575 539l437 452l104 -102l-330 -359l242 -358l-127 -78z" />
<glyph unicode="&#xac;" horiz-adv-x="1280" d="M203 459l18 153h985l-59 -485h-166l41 332h-819z" />
<glyph unicode="&#xad;" horiz-adv-x="542" d="M59 446l21 172h455l-21 -172h-455z" />
<glyph unicode="&#xae;" horiz-adv-x="1636" d="M176 692q0 136 46 261t133.5 226.5t229 162.5t316.5 61q141 0 260.5 -40t203.5 -108.5t143 -159.5t87.5 -193t28.5 -210t-28.5 -211t-88 -195t-143.5 -161t-203.5 -109.5t-259.5 -40.5t-259.5 40.5t-204 109.5t-144.5 161t-88.5 195t-28.5 211zM322 692q0 -89 23 -173 t70.5 -158.5t115 -130.5t163 -88.5t207.5 -32.5t207 32.5t162.5 88.5t115 130.5t70.5 158.5t23 173q0 87 -22.5 169.5t-70.5 156t-115 128.5t-162.5 87.5t-207.5 32.5q-113 0 -209 -32.5t-163 -87.5t-114.5 -128.5t-70 -156t-22.5 -169.5zM653 240v907h242q145 0 221 -67.5 t76 -186.5q0 -95 -54 -168.5t-147 -99.5q102 -170 240 -365l-154 -31q-90 124 -237 377l-39 2v-368h-148zM801 721h78q68 0 112.5 46t44.5 120q0 63 -37.5 101t-99.5 38h-98v-305z" />
<glyph unicode="&#xb0;" horiz-adv-x="923" d="M285 1112q0 71 25.5 129t68 94t95.5 55t110 19q120 0 210.5 -79t90.5 -218q0 -140 -90.5 -219.5t-210.5 -79.5q-121 0 -210 79.5t-89 219.5zM438 1112q0 -70 42.5 -109.5t103.5 -39.5q60 0 103.5 40t43.5 109t-43.5 109.5t-103.5 40.5t-103 -40.5t-43 -109.5z" />
<glyph unicode="&#xb1;" horiz-adv-x="1280" d="M129 6l16 150h1020l-16 -150h-1020zM209 705l18 147h437l53 442h155l-53 -442h438l-18 -147h-436l-55 -441h-156l55 441h-438z" />
<glyph unicode="&#xb2;" horiz-adv-x="856" d="M160 604l10 111q120 92 258 217q50 45 85.5 81t76 84.5t61.5 97.5t21 95q0 54 -32.5 87.5t-88.5 33.5q-89 0 -213 -92l-76 111q153 120 320 120q112 0 184 -68.5t72 -183.5q0 -63 -26 -128t-63 -117.5t-98 -113.5t-109.5 -102.5t-119.5 -97.5h385l-16 -135h-631z" />
<glyph unicode="&#xb3;" horiz-adv-x="743" d="M174 670l57 116q95 -57 185 -57q83 0 139.5 46t56.5 120q0 52 -38.5 88.5t-96.5 36.5h-149l6 127l143 4q76 1 120 44.5t44 107.5q0 53 -35 84.5t-90 31.5q-92 0 -194 -57l-52 117q55 37 131 58.5t140 21.5q116 0 192 -67.5t76 -170.5q0 -77 -44.5 -141t-117.5 -97 q58 -22 93.5 -77t35.5 -127q0 -87 -52.5 -154.5t-130 -101t-161.5 -33.5q-142 0 -258 80z" />
<glyph unicode="&#xb5;" horiz-adv-x="1069" d="M68 -352q85 535 112 758l72 600h188l-71 -596q-4 -36 -4 -56q0 -96 49 -152.5t145 -56.5q107 0 169.5 70.5t76.5 194.5l72 596h188l-84 -703q0 -4 -6 -51.5t-6 -61.5q0 -27 15.5 -41t41.5 -14q27 0 78 19l20 -115q-34 -26 -82.5 -41.5t-89.5 -15.5q-140 0 -153 145 q-60 -78 -123 -115t-141 -37q-81 0 -139.5 34.5t-98.5 113.5l-41 -475h-188z" />
<glyph unicode="&#xb6;" horiz-adv-x="1216" d="M150 911q0 205 153.5 340t386.5 135h645l-20 -155h-146l-196 -1585h-170l196 1585h-180l-194 -1585h-170l106 864q-99 2 -179 36.5t-129.5 91t-76 126.5t-26.5 147z" />
<glyph unicode="&#xb7;" horiz-adv-x="524" d="M205 692q0 51 34.5 86t84.5 35t84 -35t34 -86t-34 -86t-84 -35t-84.5 35t-34.5 86z" />
<glyph unicode="&#xb9;" horiz-adv-x="608" d="M178 604q15 111 17 137h182l84 650q-139 -13 -183 -19h-4l23 135l352 43l-102 -809h174l-16 -137h-527z" />
<glyph unicode="&#xba;" horiz-adv-x="864" d="M250 1108q0 174 110 304t261 130q122 0 192 -85t70 -226q0 -176 -109 -306t-260 -130q-122 0 -193 85.5t-71 227.5zM403 1106q0 -92 36.5 -138t90.5 -46q81 0 140 87.5t59 221.5q0 92 -35.5 138t-87.5 46q-84 0 -143.5 -87.5t-59.5 -221.5z" />
<glyph unicode="&#xbb;" horiz-adv-x="1083" d="M94 195l328 358l-242 360l127 78l326 -444l-436 -453zM508 197l321 354l-245 362l125 78l333 -448l-434 -449z" />
<glyph unicode="&#xbc;" horiz-adv-x="1708" d="M168 604q12 90 16 137h183l84 650q-139 -13 -183 -19h-4l23 135l352 43l-102 -809h174l-17 -137h-526zM401 0l971 1536h172l-973 -1536h-170zM1008 225q4 35 16 105l469 600h180l-69 -572h149l-18 -133h-148q-18 -163 -26 -225h-156l29 225h-426zM1200 358h250l47 377z " />
<glyph unicode="&#xbd;" horiz-adv-x="1777" d="M162 604q12 90 16 137h182l84 650q-140 -13 -182 -19h-2.5h-1.5l23 135l352 43l-103 -809h175l-17 -137h-526zM395 0l971 1536h172l-973 -1536h-170zM1096 0q2 37 10 111q149 115 283 237q44 40 76 74t68 79.5t55.5 93t19.5 91.5q0 54 -32.5 87.5t-88.5 33.5 q-89 0 -213 -92l-76 110q155 121 320 121q112 0 184 -68.5t72 -183.5q0 -63 -26 -128t-63 -117.5t-98 -113.5t-109.5 -102.5t-119.5 -97.5h385l-17 -135h-630z" />
<glyph unicode="&#xbe;" horiz-adv-x="1755" d="M172 670q10 19 28.5 57.5t28.5 58.5q95 -57 185 -57q83 0 139.5 46t56.5 120q0 52 -38.5 88.5t-96.5 36.5h-149l6 127q43 0 70 0.5t62.5 4t57.5 9.5t46.5 17.5t37.5 28t22 41t9 55.5q0 51 -34 83.5t-89 32.5q-93 0 -195 -57l-51 117q55 37 131 58.5t140 21.5 q114 0 188.5 -67t79.5 -171q0 -77 -44.5 -141t-117.5 -97q58 -22 93.5 -77t35.5 -127q0 -87 -52.5 -154.5t-130 -101t-161.5 -33.5q-142 0 -258 80zM442 0l973 1536h170l-973 -1536h-170zM1049 225q4 35 16 105l469 600h180l-69 -572h149l-18 -133h-148q-18 -163 -26 -225 h-158l31 225h-426zM1241 358h248q9 64 25.5 191t25.5 190z" />
<glyph unicode="&#xbf;" horiz-adv-x="923" d="M68 -59q0 47 15.5 93t37 82.5t66.5 85t81 82t103 93.5q74 65 106 127t43 155l172 -14q-2 -116 -37 -201.5t-114 -158.5q-24 -23 -68.5 -59t-74.5 -62.5t-61.5 -61.5t-48 -73.5t-16.5 -79.5q0 -71 49.5 -107.5t124.5 -36.5q79 0 145 21t159 70l63 -150 q-178 -123 -389 -123q-71 0 -133.5 18.5t-113 55.5t-80 100t-29.5 144zM504 911q0 51 35.5 86t85.5 35t84 -35t34 -86q0 -52 -34 -87.5t-84 -35.5t-85.5 35.5t-35.5 87.5z" />
<glyph unicode="&#xc0;" horiz-adv-x="1247" d="M-35 0q26 54 191 393.5t273.5 559.5t170.5 339l-16 94l196 17l353 -1403l-213 -10l-93 375h-487q-139 -305 -166 -375zM410 520h385q-11 43 -65.5 276.5t-63.5 266.5q-36 -70 -256 -543zM414 1815h227l115 -318h-164z" />
<glyph unicode="&#xc1;" horiz-adv-x="1247" d="M-35 0q26 54 191 393.5t273.5 559.5t170.5 339l-16 94l196 17l353 -1403l-213 -10l-93 375h-487q-139 -305 -166 -375zM410 520h385q-11 43 -65.5 276.5t-63.5 266.5q-36 -70 -256 -543zM645 1497l193 318h229l-258 -318h-164z" />
<glyph unicode="&#xc2;" horiz-adv-x="1247" d="M-35 0q26 54 191 393.5t273.5 559.5t170.5 339l-16 94l196 17l353 -1403l-213 -10l-93 375h-487q-139 -305 -166 -375zM410 520h385q-11 43 -65.5 276.5t-63.5 266.5q-36 -70 -256 -543zM444 1497l228 318h194l150 -318l-150 -2l-112 188l-160 -192z" />
<glyph unicode="&#xc3;" horiz-adv-x="1247" d="M-35 0q26 54 191 393.5t273.5 559.5t170.5 339l-16 94l196 17l353 -1403l-213 -10l-93 375h-487q-139 -305 -166 -375zM410 520h385q-11 43 -65.5 276.5t-63.5 266.5q-36 -70 -256 -543zM410 1516q10 105 64.5 177t148.5 72q42 0 83 -15.5t67.5 -34.5t56.5 -34.5 t51 -15.5q58 0 67 107h133q-14 -120 -68 -188t-149 -68q-41 0 -79 16t-61.5 36t-52.5 36t-55 16t-42.5 -18t-22 -36.5t-10.5 -49.5h-131z" />
<glyph unicode="&#xc4;" horiz-adv-x="1247" d="M-35 0q26 54 191 393.5t273.5 559.5t170.5 339l-16 94l196 17l353 -1403l-213 -10l-93 375h-487q-139 -305 -166 -375zM410 520h385q-11 43 -65.5 276.5t-63.5 266.5q-36 -70 -256 -543zM432 1640q0 44 31 74.5t74 30.5t73.5 -30.5t30.5 -74.5q0 -43 -31 -75.5t-73 -32.5 t-73.5 32.5t-31.5 75.5zM817 1640q0 44 30.5 74.5t72.5 30.5q43 0 73.5 -30.5t30.5 -74.5q0 -43 -31 -75.5t-73 -32.5q-41 0 -72 32.5t-31 75.5z" />
<glyph unicode="&#xc5;" horiz-adv-x="1247" d="M-35 0q26 54 191 393.5t273.5 559.5t170.5 339l-16 94l196 17l353 -1403l-213 -10l-93 375h-487q-139 -305 -166 -375zM410 520h385q-11 43 -65.5 276.5t-63.5 266.5q-36 -70 -256 -543zM481 1645q0 89 61.5 142.5t143.5 53.5q83 0 142 -52.5t59 -143.5 q-3 -90 -64.5 -143.5t-144.5 -53.5q-80 0 -138.5 53t-58.5 144zM586 1640q0 -46 28 -73t68 -27q39 0 68.5 29t29.5 76t-27.5 74.5t-66.5 27.5q-40 0 -70 -28.5t-30 -78.5z" />
<glyph unicode="&#xc6;" horiz-adv-x="1658" d="M-4 2l981 1384h745q-7 -41 -22 -172h-486l-53 -436h389l-22 -172h-389l-54 -436h519l-21 -170h-719l45 379h-422l-268 -391zM588 530h340l76 600z" />
<glyph unicode="&#xc7;" horiz-adv-x="1077" d="M129 600q0 115 28.5 230.5t86.5 220t138 185t192.5 128t240.5 47.5q195 0 322 -78l-60 -157q-127 57 -252 57q-115 0 -209.5 -53.5t-154 -143.5t-91.5 -201.5t-32 -232.5q0 -207 92.5 -327.5t257.5 -120.5q115 0 258 59l41 -152q-159 -76 -305 -84l-27 -47 q166 -21 166 -137q0 -83 -66.5 -126.5t-172.5 -43.5q-134 0 -213 43l53 101q72 -35 147 -35q90 0 90 59q0 11 -5.5 20.5t-17.5 16t-23 11t-30.5 8t-30 5t-32.5 4t-28 3.5l65 125q-202 32 -315 196t-113 420z" />
<glyph unicode="&#xc8;" horiz-adv-x="944" d="M104 0l170 1386h684q-15 -131 -22 -172h-483l-54 -436h414l-22 -172h-414l-53 -436h528q-1 -25 -18 -170h-730zM414 1815h229l113 -318h-162z" />
<glyph unicode="&#xc9;" horiz-adv-x="944" d="M104 0l170 1386h684q-15 -131 -22 -172h-483l-54 -436h414l-22 -172h-414l-53 -436h528q-1 -25 -18 -170h-730zM571 1495l191 317h229l-258 -317h-162z" />
<glyph unicode="&#xca;" horiz-adv-x="944" d="M104 0l170 1386h684q-15 -131 -22 -172h-483l-54 -436h414l-22 -172h-414l-53 -436h528q-1 -25 -18 -170h-730zM350 1497l228 318h194l150 -318l-152 -2l-111 188l-161 -192z" />
<glyph unicode="&#xcb;" horiz-adv-x="944" d="M104 0l170 1386h684q-15 -131 -22 -172h-483l-54 -436h414l-22 -172h-414l-53 -436h528q-1 -25 -18 -170h-730zM340 1640q0 43 31 74t75 31q41 0 72 -31t31 -74q0 -44 -31 -76t-72 -32q-44 0 -75 32t-31 76zM735 1640q0 43 31 74t74 31q42 0 72 -31t30 -74 q0 -44 -29.5 -76t-72.5 -32t-74 32t-31 76z" />
<glyph unicode="&#xcc;" horiz-adv-x="466" d="M104 -4l172 1390h203l-172 -1390h-203zM137 1815h228l114 -318h-164z" />
<glyph unicode="&#xcd;" horiz-adv-x="466" d="M104 -4l172 1390h203l-172 -1390h-203zM309 1497l193 318h229l-258 -318h-164z" />
<glyph unicode="&#xce;" horiz-adv-x="466" d="M104 -4l172 1390h203l-172 -1390h-203zM119 1497l227 318h195l149 -318l-149 -2l-113 188l-160 -192z" />
<glyph unicode="&#xcf;" horiz-adv-x="466" d="M104 -4l172 1390h203l-172 -1390h-203zM104 1645q0 44 31 74t76 30q43 0 72.5 -30t29.5 -74q0 -43 -30 -76t-72 -33q-44 0 -75.5 33t-31.5 76zM500 1645q0 44 30.5 74t73.5 30t74 -30t31 -74q0 -43 -31.5 -76t-73.5 -33t-73 33t-31 76z" />
<glyph unicode="&#xd0;" horiz-adv-x="1236" d="M39 621l20 157h138l75 608h320q285 0 445.5 -158t160.5 -431q0 -118 -28 -231t-87.5 -216t-145 -180.5t-209 -123.5t-269.5 -46h-355l74 621h-139zM322 170h161q96 1 178.5 37t141 97t100.5 141t62 169t20 181q0 198 -108.5 308.5t-309.5 110.5h-116l-54 -436h201 l-18 -157h-203z" />
<glyph unicode="&#xd1;" horiz-adv-x="1284" d="M111 -2l159 1253l-53 117l199 31l561 -1032l125 1019h190l-170 -1382l-159 -12l-541 999l-123 -993h-188zM473 1511q11 109 67.5 181.5t151.5 72.5q43 0 84 -16.5t66.5 -36.5t54 -36.5t49.5 -16.5q31 0 46.5 32t19.5 76h133q-14 -120 -68 -188t-149 -68q-40 0 -77.5 16.5 t-61 36t-52.5 36t-55 16.5q-16 0 -28.5 -6.5t-19.5 -14.5t-13.5 -25t-9 -27t-7.5 -32h-131z" />
<glyph unicode="&#xd2;" horiz-adv-x="1417" d="M131 600q0 116 29.5 232t89 220.5t140.5 185t193 128t238 47.5q133 0 240.5 -47.5t177.5 -131t107.5 -196.5t37.5 -245q0 -116 -29.5 -232.5t-89 -222t-141.5 -186.5t-194.5 -129t-239.5 -48q-134 0 -241 48t-176 132.5t-105.5 198t-36.5 246.5zM338 602 q0 -203 92 -325.5t262 -122.5q90 0 168.5 34.5t135.5 94.5t98 140.5t61.5 172.5t20.5 190q0 67 -12.5 131t-40.5 122.5t-68.5 102t-100.5 69.5t-133 26q-113 0 -206 -54t-152.5 -144t-92 -203t-32.5 -234zM594 1815h229l115 -318h-164z" />
<glyph unicode="&#xd3;" horiz-adv-x="1417" d="M131 600q0 116 29.5 232t89 220.5t140.5 185t193 128t238 47.5q133 0 240.5 -47.5t177.5 -131t107.5 -196.5t37.5 -245q0 -116 -29.5 -232.5t-89 -222t-141.5 -186.5t-194.5 -129t-239.5 -48q-134 0 -241 48t-176 132.5t-105.5 198t-36.5 246.5zM338 602 q0 -203 92 -325.5t262 -122.5q90 0 168.5 34.5t135.5 94.5t98 140.5t61.5 172.5t20.5 190q0 67 -12.5 131t-40.5 122.5t-68.5 102t-100.5 69.5t-133 26q-113 0 -206 -54t-152.5 -144t-92 -203t-32.5 -234zM758 1495l190 317h230l-258 -317h-162z" />
<glyph unicode="&#xd4;" horiz-adv-x="1417" d="M131 600q0 116 29.5 232t89 220.5t140.5 185t193 128t238 47.5q133 0 240.5 -47.5t177.5 -131t107.5 -196.5t37.5 -245q0 -116 -29.5 -232.5t-89 -222t-141.5 -186.5t-194.5 -129t-239.5 -48q-134 0 -241 48t-176 132.5t-105.5 198t-36.5 246.5zM338 602 q0 -203 92 -325.5t262 -122.5q90 0 168.5 34.5t135.5 94.5t98 140.5t61.5 172.5t20.5 190q0 67 -12.5 131t-40.5 122.5t-68.5 102t-100.5 69.5t-133 26q-113 0 -206 -54t-152.5 -144t-92 -203t-32.5 -234zM553 1497l227 318h195l149 -318l-151 -2l-111 188l-162 -192z" />
<glyph unicode="&#xd5;" horiz-adv-x="1417" d="M131 600q0 116 29.5 232t89 220.5t140.5 185t193 128t238 47.5q133 0 240.5 -47.5t177.5 -131t107.5 -196.5t37.5 -245q0 -116 -29.5 -232.5t-89 -222t-141.5 -186.5t-194.5 -129t-239.5 -48q-134 0 -241 48t-176 132.5t-105.5 198t-36.5 246.5zM338 602 q0 -203 92 -325.5t262 -122.5q90 0 168.5 34.5t135.5 94.5t98 140.5t61.5 172.5t20.5 190q0 67 -12.5 131t-40.5 122.5t-68.5 102t-100.5 69.5t-133 26q-113 0 -206 -54t-152.5 -144t-92 -203t-32.5 -234zM553 1513q10 109 66.5 181.5t150.5 72.5q55 0 104 -26t86.5 -52 t63.5 -26q32 0 48 31.5t20 74.5h133q-14 -120 -68 -188t-149 -68q-40 0 -77.5 16.5t-61.5 36t-53 36t-54 16.5q-16 0 -28.5 -6.5t-19.5 -14.5t-13.5 -25t-9 -27t-7.5 -32h-131z" />
<glyph unicode="&#xd6;" horiz-adv-x="1417" d="M131 600q0 116 29.5 232t89 220.5t140.5 185t193 128t238 47.5q133 0 240.5 -47.5t177.5 -131t107.5 -196.5t37.5 -245q0 -116 -29.5 -232.5t-89 -222t-141.5 -186.5t-194.5 -129t-239.5 -48q-134 0 -241 48t-176 132.5t-105.5 198t-36.5 246.5zM338 602 q0 -203 92 -325.5t262 -122.5q90 0 168.5 34.5t135.5 94.5t98 140.5t61.5 172.5t20.5 190q0 67 -12.5 131t-40.5 122.5t-68.5 102t-100.5 69.5t-133 26q-113 0 -206 -54t-152.5 -144t-92 -203t-32.5 -234zM551 1645q0 44 31 75t75 31q43 0 73 -31t30 -75q0 -43 -30.5 -76 t-72.5 -33q-44 0 -75 33t-31 76zM946 1645q0 44 31 75t74 31t73.5 -31t30.5 -75q0 -43 -31 -76t-73 -33t-73.5 33t-31.5 76z" />
<glyph unicode="&#xd7;" horiz-adv-x="1280" d="M193 178l401 361l-313 356l112 104l312 -360l399 360l96 -104l-401 -363l313 -354l-113 -104l-311 360l-399 -360z" />
<glyph unicode="&#xd8;" horiz-adv-x="1386" d="M115 20l135 166q-119 162 -119 414q0 116 29.5 232t89 220.5t140.5 185t193 128t238 47.5q196 0 338 -104l117 145l121 -86l-133 -166q120 -168 120 -409q0 -116 -29.5 -232.5t-89 -222t-141.5 -186.5t-194.5 -129t-239.5 -48q-196 0 -336 105l-123 -154zM338 602 q6 -140 53 -240l645 795q-90 80 -215 80q-113 0 -206 -54t-152.5 -144t-92 -203t-32.5 -234zM477 229q84 -75 215 -75q90 0 168.5 34.5t135.5 94.5t98 140.5t61.5 172.5t20.5 190q0 135 -54 240z" />
<glyph unicode="&#xd9;" horiz-adv-x="1222" d="M156 401q0 10 6 103l110 882h201l-113 -909q-2 -33 -2 -63q0 -120 61.5 -193.5t182.5 -73.5q273 0 313 324l113 915h203l-117 -923q-31 -242 -161.5 -366t-358.5 -124q-211 0 -324.5 114t-113.5 314zM504 1815h229l115 -318h-164z" />
<glyph unicode="&#xda;" horiz-adv-x="1222" d="M156 401q0 10 6 103l110 882h201l-113 -909q-2 -33 -2 -63q0 -120 61.5 -193.5t182.5 -73.5q273 0 313 324l113 915h203l-117 -923q-31 -242 -161.5 -366t-358.5 -124q-211 0 -324.5 114t-113.5 314zM680 1497l192 318h230l-258 -318h-164z" />
<glyph unicode="&#xdb;" horiz-adv-x="1222" d="M156 401q0 10 6 103l110 882h201l-113 -909q-2 -33 -2 -63q0 -120 61.5 -193.5t182.5 -73.5q273 0 313 324l113 915h203l-117 -923q-31 -242 -161.5 -366t-358.5 -124q-211 0 -324.5 114t-113.5 314zM473 1497l227 318h195l149 -318l-149 -2l-113 188l-159 -192z" />
<glyph unicode="&#xdc;" horiz-adv-x="1191" d="M156 401q0 10 6 103l110 882h201l-113 -909q-2 -33 -2 -63q0 -120 61.5 -193.5t182.5 -73.5q273 0 313 324l113 915h203l-117 -923q-31 -242 -161.5 -366t-358.5 -124q-211 0 -324.5 114t-113.5 314zM477 1640q0 44 31 74.5t74 30.5t73.5 -30.5t30.5 -74.5 q0 -43 -31 -75.5t-73 -32.5t-73.5 32.5t-31.5 75.5zM872 1640q0 44 30.5 74.5t72.5 30.5q43 0 73.5 -30.5t30.5 -74.5q0 -43 -31 -75.5t-73 -32.5q-41 0 -72 32.5t-31 75.5z" />
<glyph unicode="&#xdd;" horiz-adv-x="1087" d="M141 1380l215 15q101 -258 256 -588q216 306 392 586l225 -13l-535 -757l-78 -627h-202l78 625q-258 541 -351 759zM623 1495l190 317h229l-258 -317h-161z" />
<glyph unicode="&#xde;" horiz-adv-x="1077" d="M102 0l170 1386h201l-33 -256h164q197 0 315.5 -110.5t118.5 -290.5q0 -192 -140.5 -320t-367.5 -128h-194l-33 -281h-201zM356 446h189q124 0 204 78.5t80 200.5q0 107 -65 173.5t-174 66.5h-170z" />
<glyph unicode="&#xdf;" horiz-adv-x="1060" d="M-113 -369l21 162q13 -4 33 -4q67 0 111.5 60.5t56.5 162.5l143 1178q15 119 81 204t156 123.5t193 38.5q86 0 154 -27t109.5 -73t63 -103t21.5 -122q0 -71 -28 -133t-67.5 -103.5t-79 -76.5t-67.5 -68t-28 -62q0 -26 22.5 -54.5t56 -54t73 -59.5t73 -69t56 -84 t22.5 -102q0 -182 -119 -281.5t-305 -99.5q-128 0 -246 65l60 152q96 -49 172 -49q115 0 178 59.5t63 159.5q0 44 -30.5 84.5t-74 74t-87.5 69t-74.5 83.5t-30.5 102q0 41 20 78.5t50 65t65.5 60t65.5 62t50 73t20 91.5q0 83 -48 130t-122 47q-86 0 -152 -58t-78 -155 l-145 -1166q-24 -193 -118 -290t-228 -97q-8 0 -62 6z" />
<glyph unicode="&#xe0;" d="M100 352q0 192 76 347t209 242t297 87q157 0 283 -59l-93 -750q0 -1 -1 -14t-1 -23q0 -20 7.5 -32.5t19.5 -12.5q40 0 143 68l43 -107q-58 -50 -129 -85.5t-135 -35.5q-70 0 -94.5 54.5t-24.5 165.5q-166 -220 -348 -220q-116 0 -184 103t-68 272zM291 373 q0 -103 31.5 -167.5t87.5 -64.5q122 0 297 230q12 98 67 473q-62 24 -121 24q-111 0 -195 -71.5t-125.5 -182.5t-41.5 -241zM410 1452h229l113 -317h-162z" />
<glyph unicode="&#xe1;" d="M100 352q0 192 76 347t209 242t297 87q157 0 283 -59l-93 -750q0 -1 -1 -14t-1 -23q0 -20 7.5 -32.5t19.5 -12.5q40 0 143 68l43 -107q-58 -50 -129 -85.5t-135 -35.5q-70 0 -94.5 54.5t-24.5 165.5q-166 -220 -348 -220q-116 0 -184 103t-68 272zM291 373 q0 -103 31.5 -167.5t87.5 -64.5q122 0 297 230q12 98 67 473q-62 24 -121 24q-111 0 -195 -71.5t-125.5 -182.5t-41.5 -241zM561 1135l191 317h229l-258 -317h-162z" />
<glyph unicode="&#xe2;" d="M100 352q0 192 76 347t209 242t297 87q157 0 283 -59l-93 -750q0 -1 -1 -14t-1 -23q0 -20 7.5 -32.5t19.5 -12.5q40 0 143 68l43 -107q-58 -50 -129 -85.5t-135 -35.5q-70 0 -94.5 54.5t-24.5 165.5q-166 -220 -348 -220q-116 0 -184 103t-68 272zM291 373 q0 -103 31.5 -167.5t87.5 -64.5q122 0 297 230q12 98 67 473q-62 24 -121 24q-111 0 -195 -71.5t-125.5 -182.5t-41.5 -241zM356 1135l230 317h194l150 -317h-152l-112 186l-160 -191q-122 5 -150 5z" />
<glyph unicode="&#xe3;" d="M100 352q0 192 76 347t209 242t297 87q157 0 283 -59l-93 -750q0 -1 -1 -14t-1 -23q0 -20 7.5 -32.5t19.5 -12.5q40 0 143 68l43 -107q-58 -50 -129 -85.5t-135 -35.5q-70 0 -94.5 54.5t-24.5 165.5q-166 -220 -348 -220q-116 0 -184 103t-68 272zM291 373 q0 -103 31.5 -167.5t87.5 -64.5q122 0 297 230q12 98 67 473q-62 24 -121 24q-111 0 -195 -71.5t-125.5 -182.5t-41.5 -241zM332 1157q10 105 65 177.5t148 72.5q41 0 82 -16t68 -35t57 -35t51 -16q58 0 67 106h134q-14 -119 -68.5 -187.5t-149.5 -68.5q-40 0 -77.5 16.5 t-61 37t-52.5 37t-54 16.5q-16 0 -28.5 -7t-19.5 -14.5t-13.5 -25.5t-9 -26.5t-7.5 -31.5h-131z" />
<glyph unicode="&#xe4;" d="M100 352q0 192 76 347t209 242t297 87q157 0 283 -59l-93 -750q0 -1 -1 -14t-1 -23q0 -20 7.5 -32.5t19.5 -12.5q40 0 143 68l43 -107q-58 -50 -129 -85.5t-135 -35.5q-70 0 -94.5 54.5t-24.5 165.5q-166 -220 -348 -220q-116 0 -184 103t-68 272zM291 373 q0 -103 31.5 -167.5t87.5 -64.5q122 0 297 230q12 98 67 473q-62 24 -121 24q-111 0 -195 -71.5t-125.5 -182.5t-41.5 -241zM367 1298q0 43 30.5 74t73.5 31t73.5 -31t30.5 -74q0 -44 -30.5 -76t-73.5 -32t-73.5 32t-30.5 76zM762 1298q0 43 30.5 74t73.5 31q41 0 72 -31 t31 -74q0 -44 -31 -76t-72 -32q-43 0 -73.5 32t-30.5 76z" />
<glyph unicode="&#xe5;" d="M100 352q0 192 76 347t209 242t297 87q157 0 283 -59l-93 -750q0 -1 -1 -14t-1 -23q0 -20 7.5 -32.5t19.5 -12.5q40 0 143 68l43 -107q-58 -50 -129 -85.5t-135 -35.5q-70 0 -94.5 54.5t-24.5 165.5q-166 -220 -348 -220q-116 0 -184 103t-68 272zM291 373 q0 -103 31.5 -167.5t87.5 -64.5q122 0 297 230q12 98 67 473q-62 24 -121 24q-111 0 -195 -71.5t-125.5 -182.5t-41.5 -241zM444 1290q0 89 61.5 143t143.5 54t141.5 -53.5t59.5 -143.5q-3 -91 -64.5 -144.5t-144.5 -53.5q-80 0 -138.5 53t-58.5 145zM549 1286 q0 -47 27.5 -73.5t66.5 -26.5q41 0 70 27.5t30 76.5q0 47 -27.5 75t-66.5 28q-41 0 -70.5 -28.5t-29.5 -78.5z" />
<glyph unicode="&#xe6;" horiz-adv-x="1413" d="M100 352q0 143 46 269t125.5 215.5t191.5 141.5t239 52q159 0 269 -45q92 45 192 45q121 0 192.5 -68t71.5 -186q0 -157 -151 -257t-447 -140q3 -109 56 -174.5t129 -65.5q62 0 139 34.5t145 88.5l50 -125q-81 -72 -181 -116t-186 -44q-112 0 -191.5 58.5t-117.5 159.5 q-160 -218 -324 -218q-116 0 -182 103.5t-66 271.5zM291 373q0 -105 27.5 -169.5t82.5 -64.5q48 0 113 64t123 159v31q0 134 46.5 257t129.5 212q-74 17 -115 17q-124 0 -218 -71.5t-141.5 -185.5t-47.5 -249zM827 514q194 20 307 89t113 159q0 56 -29.5 86.5t-80.5 30.5 q-99 0 -193.5 -102.5t-116.5 -262.5z" />
<glyph unicode="&#xe7;" horiz-adv-x="761" d="M102 406q0 118 37.5 229t104.5 199.5t170 142t225 53.5q118 0 217 -55l-55 -154q-84 41 -168 41q-107 0 -186 -65t-116.5 -163t-37.5 -210q0 -136 51 -209.5t139 -73.5q117 0 242 88l43 -125q-112 -103 -276 -116l-31 -58q166 -21 166 -147q0 -76 -61 -118t-163 -42 q-134 0 -213 43l54 101q95 -35 147 -35q36 0 56 13.5t20 37.5q0 16 -8.5 28.5t-20 19.5t-32 12t-35 7t-40 4.5t-36.5 4.5l70 133q-124 27 -193.5 139.5t-69.5 274.5z" />
<glyph unicode="&#xe8;" horiz-adv-x="870" d="M98 403q0 133 45.5 251.5t119 199.5t168.5 128.5t194 47.5q125 0 195.5 -74t70.5 -180q0 -308 -600 -393q4 -119 63 -182.5t144 -63.5q130 0 268 109l49 -123q-78 -71 -169.5 -108.5t-180.5 -37.5q-158 0 -262.5 110t-104.5 316zM289 520q44 4 92 13t109 28.5t107.5 45.5 t79 68t32.5 93q0 46 -30 77.5t-81 31.5q-61 0 -116 -33t-93.5 -86t-64 -114.5t-35.5 -123.5zM379 1452h227l115 -317h-164z" />
<glyph unicode="&#xe9;" horiz-adv-x="870" d="M98 403q0 133 45.5 251.5t119 199.5t168.5 128.5t194 47.5q125 0 195.5 -74t70.5 -180q0 -308 -600 -393q4 -119 63 -182.5t144 -63.5q130 0 268 109l49 -123q-78 -71 -169.5 -108.5t-180.5 -37.5q-158 0 -262.5 110t-104.5 316zM289 520q44 4 92 13t109 28.5t107.5 45.5 t79 68t32.5 93q0 46 -30 77.5t-81 31.5q-61 0 -116 -33t-93.5 -86t-64 -114.5t-35.5 -123.5zM514 1135l191 317h229l-258 -317h-162z" />
<glyph unicode="&#xea;" horiz-adv-x="870" d="M98 403q0 133 45.5 251.5t119 199.5t168.5 128.5t194 47.5q125 0 195.5 -74t70.5 -180q0 -308 -600 -393q4 -119 63 -182.5t144 -63.5q130 0 268 109l49 -123q-78 -71 -169.5 -108.5t-180.5 -37.5q-158 0 -262.5 110t-104.5 316zM289 520q44 4 92 13t109 28.5t107.5 45.5 t79 68t32.5 93q0 46 -30 77.5t-81 31.5q-61 0 -116 -33t-93.5 -86t-64 -114.5t-35.5 -123.5zM334 1135l227 317h195l149 -317h-149l-113 186l-160 -191z" />
<glyph unicode="&#xeb;" horiz-adv-x="870" d="M98 403q0 133 45.5 251.5t119 199.5t168.5 128.5t194 47.5q125 0 195.5 -74t70.5 -180q0 -308 -600 -393q4 -119 63 -182.5t144 -63.5q130 0 268 109l49 -123q-78 -71 -169.5 -108.5t-180.5 -37.5q-158 0 -262.5 110t-104.5 316zM289 520q44 4 92 13t109 28.5t107.5 45.5 t79 68t32.5 93q0 46 -30 77.5t-81 31.5q-61 0 -116 -33t-93.5 -86t-64 -114.5t-35.5 -123.5zM315 1298q0 43 31 74t74 31t73.5 -31t30.5 -74q0 -44 -30.5 -76t-73.5 -32t-74 32t-31 76zM711 1298q0 43 30.5 74t73.5 31q41 0 72 -31t31 -74q0 -44 -31 -76t-72 -32 q-43 0 -73.5 32t-30.5 76z" />
<glyph unicode="&#xec;" horiz-adv-x="489" d="M78 1452h229l113 -317h-162zM127 145q0 2 1 21.5t1 21.5l98 811l189 7l-101 -805q0 -2 -1 -10t-1 -15q0 -15 8.5 -27t24.5 -12q18 0 41.5 10.5t59.5 32t40 23.5l41 -117q-3 -2 -21.5 -14.5t-23.5 -16t-22.5 -15t-24.5 -15t-23.5 -13t-26 -13t-25 -9.5t-27.5 -8.5 t-26.5 -4.5t-28.5 -2q-75 0 -112.5 45.5t-39.5 124.5z" />
<glyph unicode="&#xed;" horiz-adv-x="489" d="M127 145q0 2 1 21.5t1 21.5l98 811l189 7l-101 -805q0 -2 -1 -10t-1 -15q0 -15 8.5 -27t24.5 -12q18 0 41.5 10.5t59.5 32t40 23.5l41 -117q-3 -2 -21.5 -14.5t-23.5 -16t-22.5 -15t-24.5 -15t-23.5 -13t-26 -13t-25 -9.5t-27.5 -8.5t-26.5 -4.5t-28.5 -2 q-75 0 -112.5 45.5t-39.5 124.5zM244 1135l192 317h230l-258 -317h-164z" />
<glyph unicode="&#xee;" horiz-adv-x="489" d="M47 1135l227 317h195l149 -317h-149l-113 186l-159 -191zM127 145q0 2 1 21.5t1 21.5l98 811l189 7l-101 -805q0 -2 -1 -10t-1 -15q0 -15 8.5 -27t24.5 -12q18 0 41.5 10.5t59.5 32t40 23.5l41 -117q-3 -2 -21.5 -14.5t-23.5 -16t-22.5 -15t-24.5 -15t-23.5 -13t-26 -13 t-25 -9.5t-27.5 -8.5t-26.5 -4.5t-28.5 -2q-75 0 -112.5 45.5t-39.5 124.5z" />
<glyph unicode="&#xef;" horiz-adv-x="489" d="M63 1298q0 43 31.5 74t75.5 31q41 0 71.5 -31t30.5 -74q0 -44 -30.5 -76t-71.5 -32q-44 0 -75.5 32t-31.5 76zM127 145q0 39 2 43l98 811l189 7l-101 -805q0 -2 -1 -10t-1 -15q0 -15 8.5 -27t24.5 -12q18 0 41.5 10.5t59.5 32t40 23.5l39 -117q-53 -37 -78 -53.5 t-76.5 -37t-95.5 -20.5q-75 0 -112 45.5t-37 124.5zM459 1298q0 43 30.5 74t73.5 31t73 -31t30 -74q0 -44 -30 -76t-73 -32t-73.5 32t-30.5 76z" />
<glyph unicode="&#xf0;" horiz-adv-x="1105" d="M141 438q0 100 33.5 198.5t94 179t155.5 131t207 50.5q85 0 147.5 -31.5t112.5 -103.5q-22 229 -158 361l-205 -113l-75 109l161 86q-61 35 -120 50.5t-162 24.5l39 154q232 -2 415 -127l183 102l69 -114l-145 -78q184 -219 184 -602q0 -121 -21 -230.5t-65 -202.5 t-105.5 -161.5t-148 -107t-188.5 -38.5q-100 0 -179.5 40t-128.5 106t-74.5 147.5t-25.5 169.5zM336 436q0 -80 21.5 -145t73.5 -109.5t128 -44.5q71 0 131.5 38.5t99.5 99.5t60.5 134.5t21.5 145.5q0 121 -55.5 203t-167.5 82q-72 0 -132.5 -36t-99 -94.5t-60 -130 t-21.5 -143.5z" />
<glyph unicode="&#xf1;" d="M113 -2l120 1003l177 7l-19 -177q96 100 174 149.5t164 49.5q110 0 172 -82.5t62 -210.5q0 -57 -9 -131l-49 -407q-2 -10 -2 -31q0 -13 8.5 -22t20.5 -9q32 0 139 66l39 -111q-61 -48 -132.5 -81.5t-129.5 -33.5q-66 0 -98.5 41t-32.5 99q0 30 4 76l49 432q4 25 4 71 q0 86 -28.5 129t-79.5 43q-111 0 -283 -204l-84 -666h-186zM301 1157q11 109 67.5 180.5t151.5 71.5q55 0 104 -26t86.5 -52t63.5 -26q31 0 46.5 31.5t19.5 74.5h133q-14 -119 -68 -187.5t-149 -68.5q-40 0 -77.5 16.5t-61 37t-52.5 37t-55 16.5q-65 0 -78 -105h-131z" />
<glyph unicode="&#xf2;" horiz-adv-x="995" d="M109 416q0 164 69.5 305.5t189.5 226t261 84.5q169 0 268.5 -120.5t99.5 -321.5q0 -164 -69.5 -306t-190 -226.5t-262.5 -84.5q-169 0 -267.5 121t-98.5 322zM303 412q0 -138 57 -208.5t138 -70.5q125 0 214 130t89 331q0 137 -56.5 206.5t-136.5 69.5 q-126 0 -215.5 -129t-89.5 -329zM387 1452h227l115 -317h-164z" />
<glyph unicode="&#xf3;" horiz-adv-x="995" d="M109 416q0 164 69.5 305.5t189.5 226t261 84.5q169 0 268.5 -120.5t99.5 -321.5q0 -164 -69.5 -306t-190 -226.5t-262.5 -84.5q-169 0 -267.5 121t-98.5 322zM303 412q0 -138 57 -208.5t138 -70.5q125 0 214 130t89 331q0 137 -56.5 206.5t-136.5 69.5 q-126 0 -215.5 -129t-89.5 -329zM557 1135l193 317h227l-256 -317h-164z" />
<glyph unicode="&#xf4;" horiz-adv-x="995" d="M109 416q0 164 69.5 305.5t189.5 226t261 84.5q169 0 268.5 -120.5t99.5 -321.5q0 -164 -69.5 -306t-190 -226.5t-262.5 -84.5q-169 0 -267.5 121t-98.5 322zM303 412q0 -138 57 -208.5t138 -70.5q125 0 214 130t89 331q0 137 -56.5 206.5t-136.5 69.5 q-126 0 -215.5 -129t-89.5 -329zM344 1135l227 317h195l149 -317h-151l-111 186l-161 -191z" />
<glyph unicode="&#xf5;" horiz-adv-x="995" d="M109 416q0 164 69.5 305.5t189.5 226t261 84.5q169 0 268.5 -120.5t99.5 -321.5q0 -164 -69.5 -306t-190 -226.5t-262.5 -84.5q-169 0 -267.5 121t-98.5 322zM303 412q0 -138 57 -208.5t138 -70.5q125 0 214 130t89 331q0 137 -56.5 206.5t-136.5 69.5 q-126 0 -215.5 -129t-89.5 -329zM317 1157q10 108 67 180t151 72q43 0 83.5 -16.5t66 -35.5t54 -35.5t49.5 -16.5q32 0 48 31.5t20 74.5h133q-14 -119 -68 -187.5t-149 -68.5q-40 0 -77.5 16.5t-61.5 37t-53 37t-54 16.5q-16 0 -28.5 -7t-19 -14t-13.5 -26t-8.5 -26 t-7.5 -32h-132z" />
<glyph unicode="&#xf6;" horiz-adv-x="995" d="M109 416q0 164 69.5 305.5t189.5 226t261 84.5q169 0 268.5 -120.5t99.5 -321.5q0 -164 -69.5 -306t-190 -226.5t-262.5 -84.5q-169 0 -267.5 121t-98.5 322zM303 412q0 -138 57 -208.5t138 -70.5q125 0 214 130t89 331q0 137 -56.5 206.5t-136.5 69.5 q-126 0 -215.5 -129t-89.5 -329zM352 1298q0 43 31.5 74t75.5 31q42 0 72 -31t30 -74q0 -44 -29.5 -76t-72.5 -32q-44 0 -75.5 32t-31.5 76zM748 1298q0 43 30.5 74t73.5 31t73.5 -31t30.5 -74q0 -44 -30.5 -76t-73.5 -32t-73.5 32t-30.5 76z" />
<glyph unicode="&#xf7;" horiz-adv-x="1280" d="M180 459l19 149h1030l-19 -149h-1030zM545 156q0 46 33 79t79 33q47 0 81 -33t34 -79q0 -47 -34 -80t-81 -33q-46 0 -79 33t-33 80zM635 911q0 47 33 81t80 34q46 0 79 -34t33 -81q0 -46 -33 -79t-79 -33q-47 0 -80 33t-33 79z" />
<glyph unicode="&#xf8;" horiz-adv-x="987" d="M68 14l100 125q-68 112 -68 279q0 163 70 305t191 226.5t262 84.5q127 0 217 -71l80 100q4 -4 46.5 -36.5t53.5 -41.5l-98 -119q67 -110 67 -274t-69.5 -306t-190 -226.5t-262.5 -84.5q-123 0 -213 68l-84 -104zM291 412q0 -64 14 -107l422 518q-56 56 -127 56 q-126 0 -217.5 -132.5t-91.5 -334.5zM367 180q47 -53 122 -53q127 0 218.5 132.5t91.5 336.5q0 58 -15 102z" />
<glyph unicode="&#xf9;" horiz-adv-x="1038" d="M131 268q0 41 8 115l76 621h186q-55 -468 -77 -631q-5 -58 -5 -68q0 -83 31.5 -127.5t83.5 -44.5q58 0 121.5 44t157.5 151l82 676h188l-98 -801q0 -1 -1 -11.5t-1 -17.5q0 -39 30 -39q7 0 14.5 1t15.5 4t14.5 5.5t16.5 8t15.5 8.5t16.5 10t16 10.5t17 11.5t16 11 q3 -12 21.5 -53.5t21.5 -53.5q-144 -123 -258 -123q-66 0 -97 44.5t-34 140.5q-72 -86 -157.5 -135.5t-160.5 -49.5q-119 0 -189.5 74.5t-70.5 218.5zM381 1452h229l115 -317h-164z" />
<glyph unicode="&#xfa;" horiz-adv-x="1038" d="M131 268q0 41 8 115l76 621h186q-55 -468 -77 -631q-5 -58 -5 -68q0 -83 31.5 -127.5t83.5 -44.5q58 0 121.5 44t157.5 151l82 676h188l-98 -801q0 -1 -1 -11.5t-1 -17.5q0 -39 30 -39q7 0 14.5 1t15.5 4t14.5 5.5t16.5 8t15.5 8.5t16.5 10t16 10.5t17 11.5t16 11 q3 -12 21.5 -53.5t21.5 -53.5q-144 -123 -258 -123q-66 0 -97 44.5t-34 140.5q-72 -86 -157.5 -135.5t-160.5 -49.5q-119 0 -189.5 74.5t-70.5 218.5zM514 1135l191 317h229l-256 -317h-164z" />
<glyph unicode="&#xfb;" horiz-adv-x="1038" d="M131 268q0 41 8 115l76 621h186q-55 -468 -77 -631q-5 -58 -5 -68q0 -83 31.5 -127.5t83.5 -44.5q58 0 121.5 44t157.5 151l82 676h188l-98 -801q0 -1 -1 -11.5t-1 -17.5q0 -39 30 -39q7 0 14.5 1t15.5 4t14.5 5.5t16.5 8t15.5 8.5t16.5 10t16 10.5t17 11.5t16 11 q3 -12 21.5 -53.5t21.5 -53.5q-144 -123 -258 -123q-66 0 -97 44.5t-34 140.5q-72 -86 -157.5 -135.5t-160.5 -49.5q-119 0 -189.5 74.5t-70.5 218.5zM330 1135l229 317h195l149 -317h-151l-113 186l-160 -186h-149z" />
<glyph unicode="&#xfc;" horiz-adv-x="1038" d="M131 268q0 41 8 115l76 621h186q-55 -468 -77 -631q-5 -58 -5 -68q0 -83 31.5 -127.5t83.5 -44.5q58 0 121.5 44t157.5 151l82 676h188l-98 -801q0 -1 -1 -11.5t-1 -17.5q0 -39 30 -39q7 0 14.5 1t15.5 4t14.5 5.5t16.5 8t15.5 8.5t16.5 10t16 10.5t17 11.5t16 11 q3 -12 21.5 -53.5t21.5 -53.5q-144 -123 -258 -123q-66 0 -97 44.5t-34 140.5q-72 -86 -157.5 -135.5t-160.5 -49.5q-119 0 -189.5 74.5t-70.5 218.5zM330 1298q0 43 30.5 74t73.5 31t74 -31t31 -74q0 -44 -31 -76t-74 -32t-73.5 32t-30.5 76zM725 1298q0 43 30.5 74 t71.5 31q43 0 74 -31t31 -74q0 -44 -31 -76t-74 -32q-41 0 -71.5 32t-30.5 76z" />
<glyph unicode="&#xfd;" horiz-adv-x="915" d="M37 -356l39 153q27 -6 57 -6q129 0 225 193l27 57q-56 227 -258 952l199 25l182 -733q50 104 168 370t164 363l190 -25l-520 -1083q-71 -147 -167.5 -217t-199.5 -70q-64 0 -106 21zM510 1135l192 317h228l-256 -317h-164z" />
<glyph unicode="&#xfe;" horiz-adv-x="1005" d="M78 -352l227 1900l189 6l-93 -739q80 102 167 160.5t163 58.5q54 0 101.5 -20.5t89 -64t66 -122t24.5 -182.5q0 -144 -46.5 -270t-123.5 -212.5t-179.5 -136t-213.5 -49.5q-65 0 -138 25l-45 -354h-188zM326 164q17 -11 55.5 -19t71.5 -8q110 0 195 69.5t129 183.5 t44 251q0 116 -40 170.5t-95 54.5q-59 0 -136.5 -52.5t-164.5 -160.5z" />
<glyph unicode="&#xff;" horiz-adv-x="915" d="M35 -356l39 153q27 -6 57 -6q129 0 225 193l29 57q-56 227 -258 952l199 25l182 -733q50 104 168 370t164 363l190 -25l-522 -1083q-71 -147 -167.5 -217t-199.5 -70q-64 0 -106 21zM309 1298q0 43 31 74t74 31t73.5 -31t30.5 -74q0 -44 -30.5 -76t-73.5 -32t-74 32 t-31 76zM705 1298q0 43 30.5 74t71.5 31q43 0 73.5 -31t30.5 -74q0 -44 -30.5 -76t-73.5 -32q-41 0 -71.5 32t-30.5 76z" />
<glyph unicode="&#x152;" horiz-adv-x="1679" d="M129 602q0 114 30 228.5t89.5 217t141.5 181.5t195 125.5t240 46.5q94 0 191 -17v2h708l-22 -172h-506l-53 -436h397l-22 -172h-398l-53 -436h524q-2 -25 -5 -53.5t-7 -63t-6 -53.5h-727q-18 -1 -53 -4.5t-62.5 -5.5t-50.5 -2q-256 0 -403.5 166t-147.5 448zM338 604 q0 -213 93 -328.5t261 -115.5q108 0 174 12l129 1036q-75 21 -164 21q-114 0 -209 -52.5t-156 -140.5t-94.5 -199.5t-33.5 -232.5z" />
<glyph unicode="&#x153;" horiz-adv-x="1558" d="M100 418q0 164 70 305.5t190.5 225t262.5 83.5q222 0 305 -219q75 103 181 161t210 58q120 0 189 -68.5t69 -187.5q0 -313 -596 -393q3 -123 61.5 -184.5t145.5 -61.5q130 0 268 109l49 -123q-78 -71 -172 -108.5t-184 -37.5q-105 0 -187 52.5t-122 154.5 q-70 -98 -165.5 -153.5t-207.5 -55.5q-168 0 -267.5 121t-99.5 322zM297 412q0 -137 56 -207t136 -70q126 0 215 129.5t89 329.5q0 138 -56 208t-137 70q-125 0 -214 -130t-89 -330zM977 520q196 20 308 86.5t112 155.5q0 57 -27.5 87t-77.5 30q-100 0 -196.5 -100.5 t-118.5 -258.5z" />
<glyph unicode="&#x178;" horiz-adv-x="1087" d="M141 1380l215 15q101 -258 256 -588q216 306 392 586l225 -13l-535 -757l-78 -627h-202l78 625q-258 541 -351 759zM389 1651q0 43 31.5 73.5t75.5 30.5q43 0 72.5 -30.5t29.5 -73.5q0 -45 -30 -77t-72 -32q-44 0 -75.5 32.5t-31.5 76.5zM784 1651q0 43 31 73.5t74 30.5 t73.5 -30.5t30.5 -73.5q0 -44 -30.5 -76.5t-73.5 -32.5t-74 32.5t-31 76.5z" />
<glyph unicode="&#x2000;" horiz-adv-x="920" />
<glyph unicode="&#x2001;" horiz-adv-x="1841" />
<glyph unicode="&#x2002;" horiz-adv-x="920" />
<glyph unicode="&#x2003;" horiz-adv-x="1841" />
<glyph unicode="&#x2004;" horiz-adv-x="613" />
<glyph unicode="&#x2005;" horiz-adv-x="460" />
<glyph unicode="&#x2006;" horiz-adv-x="306" />
<glyph unicode="&#x2007;" horiz-adv-x="306" />
<glyph unicode="&#x2008;" horiz-adv-x="230" />
<glyph unicode="&#x2009;" horiz-adv-x="368" />
<glyph unicode="&#x200a;" horiz-adv-x="102" />
<glyph unicode="&#x2010;" horiz-adv-x="542" d="M59 446l21 172h455l-21 -172h-455z" />
<glyph unicode="&#x2011;" horiz-adv-x="542" d="M59 446l21 172h455l-21 -172h-455z" />
<glyph unicode="&#x2012;" horiz-adv-x="542" d="M59 446l21 172h455l-21 -172h-455z" />
<glyph unicode="&#x2013;" horiz-adv-x="1046" d="M78 455l18 159h944l-20 -159h-942z" />
<glyph unicode="&#x2014;" horiz-adv-x="2004" d="M78 455l18 159h1903l-19 -159h-1902z" />
<glyph unicode="&#x2018;" horiz-adv-x="528" d="M223 1075l205 479l154 -20l-164 -471z" />
<glyph unicode="&#x2019;" horiz-adv-x="466" d="M211 1079l162 469l192 -10l-205 -483z" />
<glyph unicode="&#x201a;" horiz-adv-x="528" d="M72 -242l164 467l202 -10l-211 -485z" />
<glyph unicode="&#x201c;" horiz-adv-x="845" d="M233 1073l207 483l152 -20l-164 -471zM584 1073l194 481l154 -18l-154 -471z" />
<glyph unicode="&#x201d;" horiz-adv-x="843" d="M231 1079l154 471l195 -10l-195 -481zM573 1079l164 471l193 -10l-205 -483z" />
<glyph unicode="&#x201e;" horiz-adv-x="843" d="M53 -242l166 467l191 -10l-209 -485zM399 -242l166 467l189 -10l-207 -485z" />
<glyph unicode="&#x2022;" horiz-adv-x="673" d="M141 516q0 108 68.5 189t187.5 81q121 0 187.5 -78t66.5 -184q0 -108 -67 -186t-187 -78q-122 0 -189 75.5t-67 180.5z" />
<glyph unicode="&#x2026;" horiz-adv-x="1572" d="M156 98q0 51 34.5 87t83.5 36t84 -36t35 -87t-34.5 -86t-84.5 -35t-84 35t-34 86zM680 98q0 51 35 87t84 36t84 -36t35 -87t-34.5 -86t-84.5 -35t-84.5 35t-34.5 86zM1204 98q0 51 35 87t84 36t84 -36t35 -87t-34.5 -86t-84.5 -35t-84.5 35t-34.5 86z" />
<glyph unicode="&#x202f;" horiz-adv-x="368" />
<glyph unicode="&#x2039;" horiz-adv-x="681" d="M168 539l438 452l105 -96l-330 -358l244 -359l-129 -84z" />
<glyph unicode="&#x203a;" horiz-adv-x="681" d="M96 190l330 359l-244 358l131 84l326 -444l-436 -453z" />
<glyph unicode="&#x205f;" horiz-adv-x="460" />
<glyph unicode="&#x20ac;" horiz-adv-x="1435" d="M121 467l67 143h148q4 90 14 146h-196l65 145h166q37 107 97 197t139.5 159.5t182.5 109t218 40.5q230 0 416 -162l-76 -164q-162 152 -348 152q-142 0 -250.5 -92.5t-167.5 -239.5h678l-66 -145h-657q-8 -43 -12 -146h600l-68 -143h-516q29 -148 119.5 -237t238.5 -89 q63 0 130 18.5t103.5 35.5t92.5 47l43 -144q-201 -121 -371 -121q-124 0 -225 37.5t-169.5 105t-110.5 155t-58 192.5h-227z" />
<glyph unicode="&#x2122;" horiz-adv-x="1183" d="M141 559q0 90 15 185t44.5 192t79 182t113 151.5t152 105t190.5 38.5q92 0 167.5 -32t126.5 -86.5t85.5 -128.5t50 -155.5t15.5 -170.5q0 -111 -20.5 -226.5t-67.5 -231t-114.5 -204.5t-170.5 -145t-227 -56q-91 0 -166 33.5t-125 90t-84 132.5t-49 157.5t-15 168.5z M346 543q0 -48 6 -97t23 -104.5t43 -98t70.5 -70.5t101.5 -28q65 0 120.5 28.5t94 75.5t68.5 111t48 129.5t29.5 137t16 129t4.5 108.5q0 189 -66.5 284t-175.5 95q-84 0 -152 -48.5t-110 -123t-70 -170.5t-39.5 -185t-11.5 -173z" />
<glyph unicode="&#xe000;" horiz-adv-x="1024" d="M0 0v1024h1024v-1024h-1024z" />
</font>
</defs>
</svg>
