<?xml version="1.0" standalone="no"?>
<!DOCTYPE svg PUBLIC "-//W3C//DTD SVG 1.1//EN" "http://www.w3.org/Graphics/SVG/1.1/DTD/svg11.dtd" >
<svg xmlns="http://www.w3.org/2000/svg">
<metadata></metadata>
<defs>
<font id="SensibilityThinItalic" horiz-adv-x="526" >
<font-face units-per-em="2048" ascent="1638" descent="-410" />
<missing-glyph horiz-adv-x="479" />
<glyph horiz-adv-x="0" />
<glyph horiz-adv-x="2048" />
<glyph unicode=" "  horiz-adv-x="479" />
<glyph unicode="&#x09;" horiz-adv-x="479" />
<glyph unicode="&#xa0;" horiz-adv-x="479" />
<glyph unicode="!" d="M164 25q0 14 9 24t26 10q16 0 25 -10.5t9 -23.5t-9 -24t-25 -11q-17 0 -26 10.5t-9 24.5zM215 289l133 1095h41l-135 -1099z" />
<glyph unicode="&#x22;" horiz-adv-x="679" d="M311 1047l62 507h41l-62 -507h-41zM582 1047l61 507h41l-61 -507h-41z" />
<glyph unicode="#" horiz-adv-x="1280" d="M100 453l15 41h288l148 399h-354l14 41h354l172 452h43l-172 -452h316l172 452h43l-172 -452h278l-14 -41h-279l-147 -399h344l-14 -41h-344l-168 -453h-43l168 453h-316l-168 -453h-43l168 453h-289zM446 494h316l147 399h-315z" />
<glyph unicode="$" horiz-adv-x="1024" d="M143 139l25 31q145 -138 305 -150l80 650q-54 27 -90.5 48.5t-79 56.5t-68 72t-42.5 91t-17 117q0 82 34 150.5t89 111t121.5 65.5t134.5 23h8l16 125h41l-16 -127q132 -12 281 -111l-21 -35q-53 32 -85 49.5t-81.5 35t-97.5 22.5l-84 -670h2q57 -28 91 -47t80.5 -53 t72 -67.5t44.5 -83.5t19 -109q0 -153 -113.5 -253.5t-275.5 -100.5h-8l-19 -162h-40l20 164q-185 16 -326 157zM297 1055q0 -67 19.5 -120.5t59 -94t80.5 -68t103 -59.5l80 653q-83 0 -160 -36.5t-129.5 -109.5t-52.5 -165zM516 18q143 0 245.5 90.5t102.5 225.5 q0 48 -15.5 90.5t-39.5 73.5t-61.5 60.5t-73 50t-82.5 42.5z" />
<glyph unicode="%" horiz-adv-x="1822" d="M281 1001q0 107 43 198t126.5 148.5t190.5 57.5q132 0 213.5 -88t81.5 -232q0 -100 -44.5 -190t-129.5 -147.5t-191 -57.5q-131 0 -210.5 87.5t-79.5 223.5zM322 1001q0 -118 68 -194t181 -76q94 0 169.5 51.5t115 132t39.5 170.5q0 126 -70 202.5t-184 76.5 q-95 0 -169 -51.5t-112 -133.5t-38 -178zM510 0l868 1386h45l-868 -1386h-45zM1049 293q0 107 43 198t126.5 148t190.5 57q132 0 213.5 -87.5t81.5 -231.5q0 -100 -44.5 -190t-129.5 -147.5t-191 -57.5q-131 0 -210.5 87.5t-79.5 223.5zM1090 293q0 -118 68 -194t181 -76 q94 0 169.5 51.5t115 132t39.5 170.5q0 126 -70 202t-184 76q-95 0 -169 -51t-112 -133t-38 -178z" />
<glyph unicode="&#x26;" horiz-adv-x="1288" d="M145 385q0 91 37.5 174t106.5 141q98 79 241 88q-80 36 -127 117.5t-47 175.5q0 150 98.5 237t239.5 87q172 0 303 -125l-28 -29q-116 113 -275 113q-125 0 -211 -75.5t-86 -207.5q0 -102 66.5 -186.5t185.5 -108.5l-6 -41q-51 7 -82 7q-89 0 -162 -31.5t-118.5 -84 t-70 -117.5t-24.5 -134q0 -88 34 -159t92 -114t130 -66t152 -23q81 0 157 23t138.5 66t100.5 112.5t38 154.5q0 70 -30 132.5t-85 100.5q-48 -11 -82.5 -24t-67.5 -32.5t-50 -49t-17 -66.5q0 -55 47 -155l-36 -15q-52 107 -52 170q0 29 6 53.5t20.5 44t28 34t40 27.5 t44 21.5t52.5 18t53 14t57 13.5q41 9 59.5 13.5t54.5 15t53.5 19t42.5 23.5t37 31t21 39.5t9 50.5q0 40 -32.5 79.5t-98.5 39.5q-44 0 -103 -21l-16 37q63 25 119 25q46 0 81.5 -17t54 -43.5t27.5 -52t9 -47.5q0 -26 -6 -49.5t-15 -41t-26 -34t-31 -27.5t-40 -22.5 t-43 -18.5t-48.5 -15.5t-48.5 -12.5l-51 -12q104 -91 104 -246q0 -95 -41.5 -172.5t-110 -125.5t-151.5 -73.5t-172 -25.5q-88 0 -167 25.5t-143 73.5t-101.5 127t-37.5 177z" />
<glyph unicode="'" horiz-adv-x="409" d="M311 1034l64 520h41l-64 -520h-41z" />
<glyph unicode="(" horiz-adv-x="434" d="M129 385q0 575 377 1169h49q-385 -595 -385 -1167q0 -334 137 -739h-43q-135 382 -135 737z" />
<glyph unicode=")" horiz-adv-x="434" d="M33 -352q385 597 385 1161q0 359 -137 745h43q135 -376 135 -743q0 -575 -377 -1163h-49z" />
<glyph unicode="*" horiz-adv-x="987" d="M367 1020l305 121l24 8v2q-56 46 -158 131t-128 107l24 32q24 -20 126 -107t157 -134h2v24l43 350h43l-45 -356l-4 -24h2q62 27 178 75l145 60l17 -41l-303 -121l-27 -8v-2q55 -46 158 -131t129 -107l-25 -33l-262 224l-18 18h-2q-9 -73 -25.5 -207t-20.5 -168h-45 l48 357l4 24h-2q-62 -27 -178.5 -75t-145.5 -60z" />
<glyph unicode="+" horiz-adv-x="1290" d="M231 514l7 41h483l90 506h41l-90 -506h483l-6 -41h-483l-90 -506h-41l90 506h-484z" />
<glyph unicode="," horiz-adv-x="382" d="M51 -352l152 411h43l-152 -411h-43z" />
<glyph unicode="-" d="M68 514l4 41h440l-4 -41h-440z" />
<glyph unicode="." horiz-adv-x="528" d="M164 25q0 14 9 24t26 10q16 0 25 -10.5t9 -23.5t-9 -24t-25 -11q-17 0 -26 10.5t-9 24.5z" />
<glyph unicode="/" horiz-adv-x="823" d="M-47 -160l958 1714h45l-960 -1714h-43z" />
<glyph unicode="0" horiz-adv-x="1089" d="M119 430q0 115 37 221.5t103 188.5t166 131t218 49q191 0 307.5 -127t116.5 -336q0 -108 -38.5 -211.5t-106 -184.5t-169 -130t-218.5 -49q-189 0 -302.5 126t-113.5 322zM160 430q0 -177 102.5 -292t272.5 -115q108 0 201.5 45.5t156 121t98 171t35.5 196.5 q0 190 -105.5 306t-277.5 116q-109 0 -201 -45.5t-153 -121.5t-95 -175t-34 -207z" />
<glyph unicode="1" horiz-adv-x="673" d="M86 0l6 41h236l114 942q-236 -37 -268 -41l-4 41q89 11 319 49l-120 -991h215l-6 -41h-492z" />
<glyph unicode="2" horiz-adv-x="927" d="M61 0l7 41q8 4 176 104q56 33 103.5 63.5t109 74t111 84.5t99.5 92.5t84 100t55 104t21 108.5q0 98 -67 158.5t-182 60.5q-156 0 -330 -94l-19 37q176 98 349 98q138 0 214 -70t76 -190q0 -88 -52.5 -181t-128 -168t-182.5 -153.5t-190.5 -128.5t-177.5 -100h703l-4 -41 h-775z" />
<glyph unicode="3" horiz-adv-x="815" d="M20 -307l5 41q27 -2 73 -2q298 0 452.5 108.5t154.5 292.5q0 104 -65.5 175t-180.5 71l-211 -8l4 41l201 8q64 2 121.5 30.5t95.5 71.5t60 95.5t22 103.5q0 55 -17 99.5t-45 73.5t-67.5 48.5t-82 28t-89.5 8.5q-160 0 -295 -57l-15 36q141 62 308 62q68 0 127 -15.5 t109 -48.5t79 -93t29 -142q0 -106 -72.5 -197t-175.5 -121q91 -22 144.5 -93t53.5 -177q0 -201 -164 -321.5t-479 -120.5q-53 0 -80 2z" />
<glyph unicode="4" horiz-adv-x="1091" d="M47 0l4 41l785 983h32l-120 -983h251l-6 -41h-250l-41 -326l-43 -8l43 334h-655zM102 41h605l110 895z" />
<glyph unicode="5" horiz-adv-x="806" d="M27 -293q82 8 162.5 25t170 50.5t156 78.5t110.5 114.5t44 153.5q0 285 -426 285h-105l101 583h579l-6 -41h-543l-80 -501h46q228 0 351.5 -79.5t123.5 -246.5q0 -78 -31 -144t-86 -113.5t-121.5 -84.5t-146 -61t-150.5 -38.5t-143 -21.5z" />
<glyph unicode="6" horiz-adv-x="995" d="M139 426q0 134 45 262t123 234.5t183.5 197.5t227.5 157t253 107l10 -41q-131 -39 -252 -106t-225 -157.5t-182.5 -210t-116.5 -253.5q88 103 200 157t222 54q105 0 180 -50.5t109 -129t34 -174.5q0 -89 -30.5 -174.5t-87 -157t-147 -115.5t-200.5 -44q-148 0 -247 111.5 t-99 332.5zM180 426q0 -103 24.5 -182.5t67.5 -126.5t96.5 -70.5t116.5 -23.5q99 0 182 40.5t134.5 106t79.5 144t28 159.5q0 86 -30 155t-95.5 113.5t-156.5 44.5q-112 0 -231.5 -63t-205.5 -176q-10 -51 -10 -121z" />
<glyph unicode="7" horiz-adv-x="870" d="M88 -340q262 451 795 1296h-738l7 41h788l-4 -30q-539 -851 -813 -1327z" />
<glyph unicode="8" horiz-adv-x="1034" d="M115 293q0 48 13 90.5t32 75.5t53 65t65 54t79 47t83 41t90 39q-65 36 -110.5 67.5t-89.5 74t-66 94.5t-22 112q0 83 37 149.5t97 106t130.5 60t144.5 20.5q139 0 243.5 -81.5t104.5 -213.5q0 -64 -21.5 -117.5t-54 -91.5t-86.5 -74t-101.5 -59t-117.5 -52 q46 -26 72 -41.5t66 -42t62.5 -46.5t50.5 -49.5t42.5 -57.5t24.5 -64t10 -75q0 -78 -41 -144.5t-107.5 -108.5t-148 -65.5t-166.5 -23.5q-100 0 -180.5 30.5t-134 102.5t-53.5 178zM156 293q0 -70 27 -123.5t73.5 -84.5t103.5 -46.5t123 -15.5q105 0 199.5 34t158.5 104.5 t64 162.5q0 56 -18.5 100t-64 87t-100.5 79t-149 90q-46 -19 -68.5 -29t-65 -30t-65.5 -33t-58 -35t-54 -40.5t-42.5 -44.5t-35 -51.5t-20 -57.5t-8.5 -66zM283 1053q0 -38 10.5 -72t33 -64t45.5 -54t62 -50.5t68 -44.5t76 -45q70 28 116.5 50t101 56.5t86.5 69.5t54 85.5 t22 109.5q0 115 -91.5 184.5t-215.5 69.5q-52 0 -103.5 -11t-99.5 -34.5t-84.5 -57.5t-58.5 -83.5t-22 -108.5z" />
<glyph unicode="9" horiz-adv-x="993" d="M139 -336q131 39 252 105t225.5 155.5t182.5 208t116 252.5q-88 -103 -200 -157t-221 -54q-105 0 -180 50.5t-109.5 129t-34.5 174.5q0 89 30.5 175t87 157.5t147 115.5t200.5 44q148 0 247 -112t99 -333q0 -166 -68.5 -321.5t-184.5 -276t-264.5 -212t-313.5 -142.5z M211 528q0 -133 73.5 -223t209.5 -90q111 0 230 63.5t206 176.5q10 51 10 120q0 103 -24.5 182.5t-67.5 127t-96.5 71t-116.5 23.5q-80 0 -149.5 -26.5t-119 -71.5t-85.5 -103t-53 -122t-17 -128z" />
<glyph unicode=":" d="M164 25q0 14 9 24t26 10q16 0 25 -10.5t9 -23.5t-9 -24t-25 -11q-17 0 -26 10.5t-9 24.5zM272 928q0 13 8.5 23t24.5 10t25.5 -10.5t11.5 -24.5q-2 -14 -10.5 -24.5t-24.5 -10.5t-25.5 11t-9.5 26z" />
<glyph unicode=";" d="M51 -352l150 411h43l-150 -411h-43zM272 928q0 13 8.5 23t24.5 10t25.5 -10.5t11.5 -24.5q-2 -14 -10.5 -24.5t-24.5 -10.5t-25.5 11t-9.5 26z" />
<glyph unicode="&#x3c;" horiz-adv-x="1290" d="M276 455l9 53l962 395l-6 -45l-922 -379l828 -381l-6 -41z" />
<glyph unicode="=" horiz-adv-x="1290" d="M205 324l6 41h1006l-7 -41h-1005zM252 709l6 41h1006l-7 -41h-1005z" />
<glyph unicode="&#x3e;" horiz-adv-x="1290" d="M207 57l6 45l922 379l-828 381l6 41l865 -397l-9 -53z" />
<glyph unicode="?" horiz-adv-x="894" d="M313 1294q183 111 363 111q138 0 223.5 -73t85.5 -204q0 -39 -8 -75.5t-17.5 -64t-32.5 -59.5t-37 -50t-49 -49.5t-50.5 -44.5t-57.5 -48q-56 -45 -98 -87.5t-85 -99t-70 -125t-36 -144.5l-41 4q10 81 39 154t74.5 133t89.5 104.5t103 93.5q42 34 62.5 51t54 48.5t50 55 t35 56.5t26 69.5t7.5 77.5q0 113 -73.5 174.5t-194.5 61.5q-163 0 -338 -104zM377 25q0 14 9 24t26 10q16 0 25 -10.5t9 -23.5t-9 -24t-25 -11q-17 0 -26 10.5t-9 24.5z" />
<glyph unicode="@" horiz-adv-x="1658" d="M180 623q0 118 31 230.5t95.5 213.5t156 176.5t221.5 119.5t283 44q134 0 245 -36t185.5 -96.5t125.5 -141.5t74 -168.5t23 -180.5q0 -96 -27 -182.5t-69.5 -147t-94 -105.5t-101 -67t-89.5 -22q-93 0 -131 40t-43 112q0 41 12 75q-97 -116 -189 -171.5t-163 -55.5 q-96 0 -155.5 73t-59.5 187q0 96 40 188.5t108 163t163.5 113.5t200.5 43q127 0 240 -45l-132 -444q-24 -84 -24 -127q3 -52 32 -81.5t101 -29.5q37 0 81 20t90 61.5t83.5 97.5t61.5 135.5t24 168.5q0 87 -21.5 168.5t-69.5 157.5t-117.5 132.5t-173.5 90t-230 33.5 q-145 0 -268.5 -42t-210 -113.5t-148 -166.5t-90.5 -202t-29 -219q0 -109 28 -212.5t85.5 -195t139.5 -159.5t197.5 -108t250.5 -40q149 0 264.5 34t236.5 111l21 -33q-128 -81 -248.5 -117t-273.5 -36q-144 0 -266.5 42t-209 114.5t-147.5 169t-90 205.5t-29 225zM551 516 q0 -84 43.5 -149.5t128.5 -65.5q71 0 167 64t208 204l112 392q-95 26 -186 26q-129 0 -239 -67.5t-172 -176t-62 -227.5z" />
<glyph unicode="A" horiz-adv-x="1161" d="M23 2l671 1331l-12 43l41 13l367 -1387l-43 -6l-138 520v2h-581v-2l-262 -520zM348 559h551l-2 2l-186 715l-361 -715z" />
<glyph unicode="B" horiz-adv-x="950" d="M123 0l170 1386h256q88 0 160.5 -28t117.5 -74t69 -103t24 -118q0 -147 -84.5 -240t-223.5 -127q125 -22 198 -116.5t73 -204.5q0 -92 -35.5 -165t-96 -118t-137 -68.5t-161.5 -23.5h-330zM168 41h281q78 0 147.5 20.5t125 60t88 105t32.5 148.5q0 72 -36 138.5 t-113 112.5t-179 46h-268zM252 713h258q48 0 98 13t98.5 42t87 69t62 98.5t23.5 127.5q0 113 -88 198t-240 85h-219z" />
<glyph unicode="C" horiz-adv-x="1048" d="M141 594q0 107 25.5 218.5t79 218t129 189.5t184 134t234.5 51q169 0 319 -96l-25 -37q-149 92 -294 92q-115 0 -215.5 -45.5t-171.5 -122t-122.5 -176t-76.5 -208.5t-25 -218q0 -113 26.5 -214t79 -182.5t139 -129.5t196.5 -48q145 0 321 93l17 -37q-174 -96 -338 -96 q-98 0 -179.5 34t-136.5 92.5t-93 137.5t-55.5 167t-17.5 183z" />
<glyph unicode="D" horiz-adv-x="1189" d="M123 0l168 1386h233q286 0 460.5 -168.5t174.5 -457.5q0 -121 -30.5 -233t-92 -207.5t-146.5 -167t-201 -112t-249 -40.5h-317zM168 41h272q126 0 235.5 38t189.5 105.5t137.5 158t86.5 196.5t29 221q0 271 -163.5 428.5t-430.5 157.5h-196z" />
<glyph unicode="E" horiz-adv-x="888" d="M123 0l170 1386h637l-6 -40h-596l-76 -627h473l-6 -41h-473l-78 -637h616l-6 -41h-655z" />
<glyph unicode="F" horiz-adv-x="841" d="M123 0l170 1386h639l-6 -40h-598l-80 -648h473l-6 -41h-471l-80 -657h-41z" />
<glyph unicode="G" horiz-adv-x="1206" d="M141 594q0 107 26.5 218.5t81.5 218t132 190t186.5 134t235.5 50.5q86 0 179 -25.5t169 -74.5l-21 -37q-74 45 -163.5 70.5t-163.5 25.5q-115 0 -216.5 -45.5t-174 -122t-125.5 -176t-79 -208.5t-26 -218q0 -89 17.5 -172t54 -156.5t88.5 -128t127 -86t164 -31.5 q83 0 185 30t190 91l55 451h-369l6 41h408l-61 -512q-96 -72 -210.5 -106.5t-203.5 -34.5q-99 0 -181.5 34t-139 92.5t-96 137t-57.5 167t-18 183.5z" />
<glyph unicode="H" horiz-adv-x="1140" d="M123 0l170 1386h41l-84 -673h772l84 673h41l-170 -1386h-41l82 672h-772l-82 -672h-41z" />
<glyph unicode="I" horiz-adv-x="327" d="M121 -4l172 1390h41l-172 -1390h-41z" />
<glyph unicode="J" horiz-adv-x="675" d="M49 27l14 36q90 -43 170 -43q110 0 186 89.5t97 259.5l119 977h-254l6 40h295l-125 -1017q-24 -192 -109.5 -290.5t-214.5 -98.5q-94 0 -184 47z" />
<glyph unicode="K" horiz-adv-x="966" d="M119 0l170 1386h41l-90 -722l79 69q265 231 707 660l47 -11q-370 -364 -606 -573q263 -491 451 -805l-44 -8q-164 278 -438 786l-203 -174l-73 -608h-41z" />
<glyph unicode="L" horiz-adv-x="835" d="M123 0l170 1386h41l-166 -1345h596l-6 -41h-635z" />
<glyph unicode="M" horiz-adv-x="1585" d="M82 2l401 1344l-10 38l41 7q29 -115 56.5 -226t57 -239.5t48 -208.5t55 -241.5t51.5 -229.5l584 1140h45q1 -39 23 -576t30 -808l-41 -4q-5 240 -18 568.5t-23 537.5l-10 209l-586 -1145h-26l-258 1110l-381 -1280z" />
<glyph unicode="N" horiz-adv-x="1230" d="M131 0l166 1335l-25 41l39 17l723 -1323l162 1316h41l-170 -1386l-37 -4l-702 1284l-156 -1280h-41z" />
<glyph unicode="O" horiz-adv-x="1335" d="M143 547q0 161 38 301t103 240.5t151 173t183 108t197 35.5q96 0 183 -35t157.5 -102t112 -176.5t41.5 -247.5q0 -199 -59 -366t-156 -274.5t-219 -167t-252 -59.5q-94 0 -178.5 34.5t-152.5 102t-108.5 179.5t-40.5 254zM184 547q0 -132 37 -236t99.5 -166.5 t139.5 -94.5t163 -32q96 0 189.5 35t175.5 105.5t144.5 168t99 231t36.5 286.5q0 103 -25 189t-68.5 146.5t-101.5 102.5t-123 62t-135 20q-94 0 -185 -33.5t-171.5 -102t-142 -164t-97 -229.5t-35.5 -288z" />
<glyph unicode="P" horiz-adv-x="921" d="M121 0l170 1386h287q92 0 163.5 -29.5t113 -79.5t62.5 -111t21 -130q0 -181 -135.5 -303.5t-333.5 -122.5q-81 0 -231 23l-76 -633h-41zM244 670q135 -19 225 -19q110 0 205.5 43t159 132.5t63.5 209.5q0 60 -18.5 114t-55.5 98.5t-100 71t-145 26.5h-252z" />
<glyph unicode="Q" horiz-adv-x="1347" d="M143 547q0 161 38 301t103 240.5t151 173t183 108t197 35.5q54 0 106 -11t101 -34t92 -56t79 -79.5t61.5 -102.5t40 -127t14.5 -151q0 -158 -37 -295.5t-101 -238.5t-149.5 -174t-183.5 -110.5t-201 -39.5q252 -52 680 -78l-6 -41q-131 8 -240 18t-234.5 27.5t-234.5 46 t-190 66.5q-123 61 -196 192.5t-73 329.5zM184 547q0 -106 24.5 -194.5t66 -149.5t98 -103.5t119.5 -62t131 -19.5q96 0 189.5 35t175.5 105.5t144.5 168t99 231t36.5 286.5q0 103 -25 189t-68.5 146.5t-101.5 102.5t-123 62t-135 20q-94 0 -185 -33.5t-171.5 -102 t-142 -164t-97 -229.5t-35.5 -288z" />
<glyph unicode="R" horiz-adv-x="935" d="M127 0l168 1386h250q92 0 164 -31t114.5 -82.5t64 -112t21.5 -124.5q0 -151 -115 -264.5t-307 -126.5q231 -422 369 -643l-43 -4q-197 314 -373 645h-194l-78 -643h-41zM250 684h196q97 0 178.5 29.5t133.5 78.5t81 112t29 132q0 56 -19 109t-56.5 99t-102 74t-145.5 28 h-213z" />
<glyph unicode="S" horiz-adv-x="897" d="M100 139l23 31q71 -66 166 -108t203 -42q141 0 234 89t93 225q0 61 -22.5 111.5t-66.5 89.5t-87.5 65.5t-105.5 56.5q-42 20 -69.5 34.5t-65 38t-62 44.5t-51.5 51.5t-42.5 63t-25.5 75.5t-10 91q0 83 30.5 151t81.5 110.5t114.5 65.5t131.5 23q165 0 351 -115l-23 -35 q-174 109 -328 109q-126 0 -221.5 -85.5t-95.5 -223.5q0 -43 9 -80t22 -66t37.5 -56.5t46.5 -46.5t57 -41t61.5 -36t67.5 -35q57 -28 91 -47t80.5 -53t72 -67.5t44.5 -83.5t19 -109q0 -155 -104 -254.5t-264 -99.5q-218 0 -392 159z" />
<glyph unicode="T" horiz-adv-x="980" d="M193 1346l6 40h876l-6 -40h-418l-164 -1346h-41l164 1346h-417z" />
<glyph unicode="U" horiz-adv-x="1173" d="M176 383q0 53 4 82l113 921h41l-113 -921q-6 -41 -6 -80q0 -175 98.5 -270t251.5 -95q83 0 158 25.5t137.5 75.5t105.5 132.5t56 188.5l117 944h41l-117 -944q-14 -117 -60.5 -207.5t-114.5 -145t-149.5 -82t-173.5 -27.5q-169 0 -279 105t-110 298z" />
<glyph unicode="V" horiz-adv-x="1091" d="M162 1384l41 5q103 -464 325 -1354l662 1356l41 -7l-684 -1400l-43 -7q-266 1064 -342 1407z" />
<glyph unicode="W" horiz-adv-x="1677" d="M170 1384l41 5q31 -220 84.5 -551t90.5 -552l38 -220l524 1241l-10 75l41 4q9 -67 52.5 -334t96 -582.5t66.5 -403.5l567 1323l41 -5l-594 -1380l-43 -8l-204 1241l-523 -1233l-43 -8q-142 853 -225 1388z" />
<glyph unicode="X" horiz-adv-x="1103" d="M16 2l570 692q-77 133 -219 378.5t-179 309.5l45 7l379 -658l2 -2l543 660l47 -7l-569 -692l2 -2l397 -686l-45 -4l-381 659l-542 -659z" />
<glyph unicode="Y" horiz-adv-x="1019" d="M152 1384l45 5l364 -771l555 771l47 -5l-585 -811l-70 -573h-41l70 573z" />
<glyph unicode="Z" horiz-adv-x="1112" d="M90 0l4 37l983 1309h-790l6 40h846l-6 -36l-986 -1309h842l-6 -41h-893z" />
<glyph unicode="[" d="M88 -352l238 1898h317l-6 -41h-277l-225 -1816h277l-6 -41h-318z" />
<glyph unicode="\" horiz-adv-x="731" d="M199 1552h41l532 -1706h-41z" />
<glyph unicode="]" horiz-adv-x="491" d="M53 -352l6 41h277l223 1816h-276l6 41h317l-235 -1898h-318z" />
<glyph unicode="^" horiz-adv-x="1134" d="M190 469l574 917h33l350 -917h-47l-330 858l-534 -858h-46z" />
<glyph unicode="_" horiz-adv-x="1173" d="M-37 -240l2 41h1172l-4 -41h-1170z" />
<glyph unicode="a" horiz-adv-x="983" d="M109 338q0 132 38 254.5t105 217.5t168 151.5t219 56.5q109 0 250 -66l-94 -714q-7 -58 -7 -95q0 -123 56 -123q66 0 157 121l31 -26q-103 -135 -190 -135q-94 0 -94 163q0 29 8 99q-206 -262 -387 -262q-118 0 -189 93t-71 265zM150 338q0 -151 60.5 -234.5t158.5 -83.5 q174 0 393 291l82 617q-122 49 -205 49q-109 0 -202 -53t-155 -142t-97 -204t-35 -240z" />
<glyph unicode="b" horiz-adv-x="933" d="M127 88l182 1466h41l-100 -806q102 135 207.5 202.5t204.5 67.5q121 0 195.5 -93.5t74.5 -265.5q0 -151 -45 -280.5t-120 -215.5t-170 -134.5t-196 -48.5q-146 0 -274 108zM170 102q109 -82 231 -82q93 0 181 45.5t157 126.5t110.5 203t41.5 264q0 151 -63.5 234.5 t-165.5 83.5q-98 0 -207.5 -76t-212.5 -223z" />
<glyph unicode="c" horiz-adv-x="745" d="M115 371q0 148 40.5 272.5t109 205t156 125t183.5 44.5q121 0 223 -57l-20 -37q-100 53 -203 53q-88 0 -168.5 -41.5t-143 -117t-99.5 -192t-37 -255.5q0 -164 80 -257.5t186 -93.5q87 0 154 31.5t153 108.5l27 -31q-90 -83 -163.5 -116t-170.5 -33q-58 0 -111.5 25 t-98 72t-71 123t-26.5 171z" />
<glyph unicode="d" horiz-adv-x="1005" d="M109 338q0 161 46 292t124.5 214.5t179 128.5t211.5 45q102 0 202 -41l76 577h41l-174 -1316q-6 -49 -6 -93q0 -122 57 -122q68 0 158 120l31 -26q-103 -135 -191 -135q-96 0 -96 163q0 21 8 95q-199 -260 -397 -260q-121 0 -195.5 93t-74.5 265zM150 338 q0 -151 63.5 -234.5t165.5 -83.5q95 0 198.5 74t206.5 221l82 619q-90 43 -196 43q-103 0 -196 -42.5t-165.5 -121t-115.5 -202t-43 -273.5z" />
<glyph unicode="e" horiz-adv-x="808" d="M109 389q0 122 31.5 227t82.5 177.5t116 124t132 76t131 24.5q100 0 163.5 -55t63.5 -152q0 -85 -59 -155t-159.5 -116.5t-216 -76t-244.5 -43.5v-31q0 -164 81.5 -266.5t202.5 -102.5q71 0 155.5 46.5t153.5 130.5l31 -27q-76 -92 -168 -141t-172 -49q-139 0 -232 113 t-93 296zM152 459q120 13 229.5 40.5t202.5 70t148.5 105t55.5 136.5q0 79 -52.5 122.5t-133.5 43.5q-69 0 -141.5 -33t-138 -95t-112.5 -164t-58 -226z" />
<glyph unicode="f" horiz-adv-x="430" d="M-76 -367l4 41q1 0 10.5 -1t16.5 -1q77 0 126 65.5t62 188.5l119 1030h-168l6 41h166l33 277q15 135 91.5 213t193.5 78q24 0 65 -9l-10 -38q-18 6 -55 6q-99 0 -164.5 -69.5t-79.5 -184.5l-33 -273h217l-6 -41h-215l-119 -1034q-17 -144 -77 -217.5t-152 -73.5 q-7 0 -18.5 1t-12.5 1z" />
<glyph unicode="g" horiz-adv-x="917" d="M25 -170q0 76 74 134t223 114q-89 31 -89 94q0 41 35.5 72.5t108.5 62.5q-106 30 -165.5 112t-59.5 204q0 75 24.5 144t72 126t127.5 91t181 34q103 0 186 -57l224 53v-41l-187 -43q94 -87 94 -242q0 -76 -25.5 -145t-75.5 -125t-131.5 -89.5t-184.5 -33.5h-15 q-63 -15 -115.5 -48.5t-52.5 -68.5q0 -28 30.5 -48.5t88.5 -27.5l166 -20q152 -19 219.5 -63.5t67.5 -135.5q0 -84 -65.5 -144.5t-165.5 -88t-220 -27.5q-168 0 -269 57.5t-101 149.5zM66 -170q0 -73 89.5 -119.5t239.5 -46.5q110 0 200.5 22t150 73t59.5 124t-60 107.5 t-190 50.5l-166 20h-2l-8 -2q-156 -53 -234.5 -107t-78.5 -122zM193 623q0 -122 68 -204.5t196 -82.5q93 0 166.5 30t118.5 80.5t68.5 112t23.5 129.5q0 122 -72 205.5t-211 83.5q-89 0 -159.5 -30.5t-112.5 -81.5t-64 -113t-22 -129z" />
<glyph unicode="h" horiz-adv-x="1034" d="M143 0l195 1554h41l-103 -813q98 119 204.5 198t197.5 79q101 0 164 -82.5t63 -235.5q0 -35 -10 -120l-51 -385q-4 -36 -4 -72q0 -103 55 -103q32 0 74.5 31.5t87.5 89.5l30 -26q-103 -135 -192 -135q-45 0 -70.5 37t-25.5 106q0 46 8 108l47 353q10 82 10 116 q0 132 -52.5 204.5t-133.5 72.5q-89 0 -198.5 -87t-211.5 -216l-84 -674h-41z" />
<glyph unicode="i" horiz-adv-x="405" d="M164 123q0 46 8 108l92 766h41l-96 -802q-4 -36 -4 -72q0 -48 17 -75.5t44 -27.5q32 0 74.5 31.5t87.5 89.5l31 -26q-103 -135 -193 -135q-46 0 -74 37t-28 106zM295 1366q0 14 9 24.5t26 10.5q16 0 25.5 -11t9.5 -24t-9.5 -24t-25.5 -11q-17 0 -26 10.5t-9 24.5z" />
<glyph unicode="j" horiz-adv-x="389" d="M-168 -336q249 47 283 318l123 1015h41l-123 -1020q-21 -164 -100 -246t-216 -108zM268 1366q0 14 9 24.5t26 10.5q16 0 25.5 -11t9.5 -24t-9.5 -24t-25.5 -11q-17 0 -26 10.5t-9 24.5z" />
<glyph unicode="k" horiz-adv-x="815" d="M121 0l190 1554h41l-137 -1120q116 99 316 283.5t313 294.5l28 -29l-477 -438q143 -293 209 -412q61 -113 109 -113q37 0 108 68l29 -29q-82 -79 -137 -79q-40 0 -74 32t-72 101q-82 145 -202 403l-156 -135l-47 -381h-41z" />
<glyph unicode="l" horiz-adv-x="405" d="M164 123q0 46 8 108l162 1323h41l-166 -1359q-4 -36 -4 -72q0 -103 55 -103q32 0 74.5 31.5t87.5 89.5l31 -26q-103 -135 -193 -135q-45 0 -70.5 37t-25.5 106z" />
<glyph unicode="m" horiz-adv-x="1658" d="M143 0l127 997h41l-35 -256q98 119 204.5 198t197.5 79q92 0 152.5 -69.5t72.5 -200.5q232 270 397 270q101 0 163.5 -82.5t62.5 -235.5q0 -35 -10 -120l-52 -385q-4 -36 -4 -72q0 -49 15 -76t41 -27q32 0 74 31t87 90l31 -26q-103 -135 -192 -135q-45 0 -71 37t-26 106 q0 46 8 108l48 353q10 82 10 116q0 132 -52 204.5t-133 72.5q-85 0 -187.5 -79.5t-203.5 -201.5l-92 -696h-41l78 584q12 98 12 116q0 132 -53 204.5t-135 72.5q-89 0 -198.5 -87t-211.5 -216l-84 -674h-41z" />
<glyph unicode="n" horiz-adv-x="1038" d="M143 0l127 997h41l-35 -256q98 119 204.5 198t197.5 79q101 0 164 -82.5t63 -235.5q0 -35 -10 -120l-51 -385q-4 -36 -4 -72q0 -103 55 -103q32 0 74.5 31.5t87.5 89.5l30 -26q-103 -135 -192 -135q-45 0 -70.5 37t-25.5 106q0 46 8 108l47 353q10 82 10 116 q0 132 -52.5 204.5t-133.5 72.5q-89 0 -198.5 -87t-211.5 -216l-84 -674h-41z" />
<glyph unicode="o" horiz-adv-x="954" d="M115 412q0 113 37 222t101.5 194t159.5 137.5t203 52.5q166 0 252 -118t86 -312q0 -113 -37 -222t-101.5 -195t-159.5 -138.5t-203 -52.5q-166 0 -252 119t-86 313zM156 412q0 -175 76 -283.5t221 -108.5q99 0 186 49.5t146.5 129.5t93.5 182t34 207q0 175 -76 282 t-221 107q-99 0 -186 -49t-146.5 -128.5t-93.5 -181t-34 -206.5z" />
<glyph unicode="p" horiz-adv-x="944" d="M92 -352l180 1349h41l-30 -235q96 126 196 191t195 65q121 0 195.5 -93.5t74.5 -265.5q0 -129 -30 -240t-83 -190.5t-124 -136.5t-153.5 -84.5t-170.5 -27.5q-98 0 -201 36l-49 -368h-41zM186 55q92 -35 197 -35q103 0 196 42.5t165.5 121t115.5 202t43 273.5 q0 151 -63.5 234.5t-165.5 83.5q-95 0 -198 -73.5t-204 -217.5z" />
<glyph unicode="q" horiz-adv-x="944" d="M115 338q0 132 38 254.5t105 217.5t168 151.5t219 56.5q109 0 250 -66l-168 -1304h-41l76 594q-206 -262 -387 -262q-118 0 -189 93t-71 265zM156 338q0 -151 60.5 -234.5t158.5 -83.5q176 0 395 291l80 617q-122 49 -205 49q-109 0 -202 -53t-155 -142t-97 -204 t-35 -240z" />
<glyph unicode="r" horiz-adv-x="544" d="M115 0l125 997h41l-43 -340q19 45 61 101q111 135 322 258l18 -37q-46 -28 -75 -46.5t-75 -51t-77 -60t-68 -67.5t-60 -78.5t-42 -87.5t-25 -101l-61 -487h-41z" />
<glyph unicode="s" horiz-adv-x="700" d="M92 90l25 31q55 -46 122.5 -73.5t131.5 -27.5q108 0 183 61t75 165q0 31 -7 56.5t-25 47.5t-32.5 36.5t-46.5 33t-48 26.5t-56 27q-57 27 -93.5 48.5t-75.5 55t-58 79t-19 102.5q0 80 44.5 141t110 90t138.5 29q143 0 268 -90l-27 -35q-33 24 -59.5 39.5t-76.5 30 t-105 14.5q-98 0 -175 -59t-77 -158q0 -58 25.5 -102.5t66 -73.5t90 -54t98.5 -50t89.5 -54.5t66 -74.5t25.5 -103q0 -125 -87 -196.5t-212 -71.5q-70 0 -146.5 30t-132.5 80z" />
<glyph unicode="t" horiz-adv-x="534" d="M131 956l6 41h154l33 277l43 8l-35 -285h258l-6 -41h-258l-84 -675q-13 -107 -13 -140q0 -121 82 -121q40 0 97 33.5t112 89.5l29 -28q-61 -62 -125.5 -98.5t-112.5 -36.5q-59 0 -91 42.5t-32 118.5q0 43 13 142l84 673h-154z" />
<glyph unicode="u" horiz-adv-x="989" d="M135 297q0 36 10 121l78 579h41l-78 -583q-10 -82 -10 -117q0 -132 52.5 -204.5t133.5 -72.5q89 0 198.5 87.5t211.5 216.5l84 673h41l-96 -759q-6 -49 -6 -95q0 -123 55 -123q67 0 158 121l30 -26q-103 -135 -190 -135q-94 0 -94 163q0 43 10 113q-98 -118 -204.5 -197 t-197.5 -79q-101 0 -164 82t-63 235z" />
<glyph unicode="v" horiz-adv-x="839" d="M137 993l41 8q187 -754 246 -958l483 963l37 -17l-508 -1009h-39q-41 144 -260 1013z" />
<glyph unicode="w" horiz-adv-x="1431" d="M145 997l41 4q129 -601 217 -960l385 901l-12 51l41 6l221 -958l459 969l39 -11l-483 -1019h-41l-209 901l-385 -901h-37q-32 123 -65.5 265t-54 231.5t-60.5 269t-56 251.5z" />
<glyph unicode="x" horiz-adv-x="892" d="M84 0l424 516q-53 93 -152 263.5t-125 215.5l45 6l259 -448l2 -2l370 450l47 -6l-397 -483l2 -2l293 -506l-45 -4l-277 479l-397 -483z" />
<glyph unicode="y" horiz-adv-x="837" d="M29 -352l12 37q60 -21 90 -21q63 0 106.5 41t88.5 129l86 166q-226 778 -279 995l41 4q58 -227 264 -946l467 951l41 -9l-581 -1177q-49 -101 -104.5 -148t-135.5 -47q-40 0 -96 25z" />
<glyph unicode="z" horiz-adv-x="890" d="M78 0l6 39l752 917h-623l6 41h676l-6 -39l-750 -917h645l-6 -41h-700z" />
<glyph unicode="{" horiz-adv-x="409" d="M154 -231q0 7 1 22t1 25l69 565q4 46 4 63q0 92 -57 146q49 35 71 81.5t33 129.5l76 602q10 83 57 117t142 34h27l-7 -41h-26q-72 0 -108.5 -25t-45.5 -93l-74 -594q-11 -89 -30 -133.5t-66 -81.5q47 -56 47 -142q0 -36 -4 -82l-69 -565q-2 -10 -2 -28q6 -80 100 -80h53 l-6 -41h-53q-127 0 -133 121z" />
<glyph unicode="|" horiz-adv-x="495" d="M207 -145l209 1699h41l-209 -1699h-41z" />
<glyph unicode="}" horiz-adv-x="409" d="M-23 -352l7 41h24q72 0 108.5 25t45.5 93l69 568q11 88 30.5 132t68.5 81q-24 30 -36.5 67t-12.5 64q0 59 6 110l69 545q4 46 4 56q0 83 -100 83h-53l6 41h47q62 0 100.5 -30t38.5 -90q0 -24 -6 -82l-69 -557q-5 -50 -5 -76q6 -85 60 -133q-50 -35 -73 -81.5t-34 -129.5 l-69 -576q-10 -83 -57.5 -117t-141.5 -34h-27z" />
<glyph unicode="~" horiz-adv-x="1173" d="M178 475q53 82 129.5 134.5t161.5 52.5q43 0 88.5 -14t71.5 -28t71 -40q37 -22 59 -33t54 -22t59 -11q77 0 189 135l29 -26q-122 -150 -224 -150q-42 0 -84.5 15t-78 37t-71.5 44t-79.5 37t-87.5 15q-72 0 -139 -47t-111 -119z" />
<glyph unicode="&#xa1;" d="M164 -352l133 1075l39 -4l-131 -1071h-41zM317 983q0 13 9.5 24t25.5 11q17 0 26 -10.5t9 -24.5t-9 -24.5t-26 -10.5q-16 0 -25.5 11t-9.5 24z" />
<glyph unicode="&#xa2;" horiz-adv-x="843" d="M137 434q0 105 34.5 207.5t96 185.5t156 136t205.5 57l24 180h43l-24 -180q104 -5 213 -59l-15 -37q-109 50 -202 55l-119 -959q95 2 244 66l18 -37q-147 -66 -268 -69v-5l-21 -163h-43l23 172l-2 -4q-158 10 -260.5 125t-102.5 329zM178 432q0 -194 93.5 -298 t234.5 -114l119 959q-103 -4 -189.5 -54t-141.5 -127.5t-85.5 -172.5t-30.5 -193z" />
<glyph unicode="&#xa3;" horiz-adv-x="1024" d="M94 0q112 279 201 608h-170l4 41h174l111 406q96 350 372 350q117 0 258 -64l-20 -36q-121 59 -238 59q-131 0 -209 -80.5t-120 -232.5l-111 -402h424l-4 -41h-428q-84 -312 -184 -567h770l-9 -41h-821z" />
<glyph unicode="&#xa4;" horiz-adv-x="1431" d="M-35 57l228 207q-51 69 -60 161.5t21 179t88 149.5l-168 194l32 25l164 -191q105 88 240 88q71 0 136 -25.5t110 -72.5l227 205l29 -33l-228 -207q48 -70 54.5 -160t-24 -173.5t-87.5 -145.5l176 -205l-31 -24l-174 200q-107 -92 -241 -92q-44 0 -86.5 10.5t-80.5 31.5 t-67 50l-227 -204zM172 442q6 -121 88 -192.5t195 -71.5q102 0 184 58t123.5 146.5t36.5 184.5q-6 122 -89 192t-198 70q-104 0 -185 -57t-120.5 -145t-34.5 -185z" />
<glyph unicode="&#xa5;" horiz-adv-x="1155" d="M207 362l4 41h397l29 230h-397l6 41h368l-356 712h49l357 -712l518 712h49l-520 -712h366l-6 -41h-393l-29 -230h393l-4 -41h-393l-43 -362h-41l43 362h-397z" />
<glyph unicode="&#xa6;" horiz-adv-x="493" d="M207 -158l82 676h41l-82 -676h-41zM334 872l84 674h41l-84 -674h-41z" />
<glyph unicode="&#xa7;" horiz-adv-x="1173" d="M238 -291l18 35q118 -74 297 -74q48 0 93.5 9t87 28.5t72.5 48t49.5 71t18.5 93.5q0 35 -9.5 67.5t-22.5 57t-37.5 50t-43.5 41.5t-52.5 36.5t-52.5 31t-55 28.5q-17 10 -26 14q-1 0 -2 1q-33 17 -51 26.5t-50.5 28t-51 31.5t-46 34.5t-44 40t-35.5 44.5t-29 52t-17 58 t-7 67q0 88 45 159q60 99 221 211q-60 48 -91.5 101.5t-31.5 136.5q0 129 102.5 209t253.5 80q83 0 172.5 -22.5t151.5 -57.5l-18 -35q-142 74 -304 74q-59 0 -114 -14.5t-101 -43.5t-74 -78t-28 -112q0 -73 31 -124.5t92 -96.5q47 -36 191.5 -114.5t201.5 -127.5 q113 -102 113 -248q0 -51 -16 -99t-40 -84.5t-61 -73t-69.5 -61.5t-73.5 -52q120 -100 120 -236q0 -70 -30 -126.5t-80.5 -92t-114.5 -54t-135 -18.5q-196 0 -317 80zM283 629q0 -109 71 -189q15 -16 34 -32t36.5 -28t42 -27t41 -24t45 -24.5t43.5 -23.5q122 -70 166 -99 q30 21 47.5 33t48 36t48.5 43t41 47t36 54.5t22 60.5t9 70q0 129 -99 215q-28 26 -67.5 53t-69 44t-78.5 43q-99 54 -161 94q-48 -34 -80.5 -59t-72.5 -65.5t-64 -80.5q-39 -65 -39 -141z" />
<glyph unicode="&#xa9;" horiz-adv-x="1636" d="M211 694q0 108 28 210t87.5 193t143 159.5t203.5 108.5t261 40t260 -40t203 -108.5t143 -159.5t87 -193t28 -210t-28.5 -211t-87.5 -195t-143 -161t-203 -109.5t-259 -40.5t-259.5 40.5t-203.5 109.5t-143.5 161t-88 195t-28.5 211zM252 694q0 -102 27 -199.5t83 -184 t135.5 -151.5t192 -103t244.5 -38t244.5 38t191.5 103t135 152t82.5 184t26.5 199t-26.5 198t-82.5 182t-135 150.5t-191.5 102t-244.5 37.5q-133 0 -246 -37.5t-192 -102t-135 -150.5t-82.5 -182t-26.5 -198zM461 672q0 98 33 192t92.5 168.5t151.5 120t200 45.5 q137 0 248 -72l-21 -32q-99 63 -227 63q-99 0 -183 -42t-138.5 -110.5t-84.5 -155t-30 -177.5q0 -196 119.5 -323.5t318.5 -127.5q54 0 116 15t109 43l21 -37q-50 -30 -117 -46t-129 -16q-144 0 -254 64.5t-167.5 175.5t-57.5 252z" />
<glyph unicode="&#xaa;" horiz-adv-x="722" d="M158 1063q0 127 47.5 238t138 181t203.5 70q89 0 190 -49l-67 -512q-4 -46 -4 -61q0 -41 10 -63.5t26 -22.5q40 0 105 84l29 -27q-73 -98 -136 -98q-35 0 -55 32t-20 95q0 27 2 43q-137 -170 -279 -170q-86 0 -138 67.5t-52 192.5zM199 1063q0 -104 41 -161.5t108 -57.5 q66 0 141.5 51t145.5 149l57 435q-71 32 -145 32q-101 0 -182 -64t-123.5 -166t-42.5 -218z" />
<glyph unicode="&#xab;" horiz-adv-x="937" d="M164 543l397 418l31 -29l-375 -393l277 -394l-37 -20zM477 543l397 418l31 -29l-375 -393l277 -394l-37 -20z" />
<glyph unicode="&#xac;" horiz-adv-x="1290" d="M211 555l6 41h985l-59 -487h-41l53 446h-944z" />
<glyph unicode="&#xad;" d="M68 514l4 41h440l-4 -41h-440z" />
<glyph unicode="&#xae;" horiz-adv-x="1636" d="M195 694q0 108 28 210t87.5 193t143 159.5t203.5 108.5t261 40t260 -40t202.5 -108.5t142.5 -159.5t87 -193t28 -210t-28 -211t-87.5 -195t-143 -161t-202.5 -109.5t-259 -40.5t-259.5 40.5t-203.5 109.5t-143.5 161t-88 195t-28.5 211zM236 694q0 -102 27 -199.5 t83 -184t135.5 -151.5t192 -103t244.5 -38t244 38t191 103t135 152t82.5 184t26.5 199t-26.5 198t-82 182t-134.5 150.5t-191.5 102t-244.5 37.5q-133 0 -246 -37.5t-192 -102t-135 -150.5t-82.5 -182t-26.5 -198zM649 221v967h291q155 0 237.5 -75.5t82.5 -205.5 q0 -65 -23 -122.5t-77 -104.5t-132 -66q100 -160 229 -393h-47l-223 387h-297v-387h-41zM690 649h307q79 0 150.5 75.5t71.5 182.5q0 111 -72.5 175.5t-206.5 64.5h-250v-498z" />
<glyph unicode="&#xb0;" horiz-adv-x="768" d="M190 1112q0 127 81.5 199.5t191.5 72.5t193 -72.5t83 -199.5q0 -128 -82.5 -200t-193.5 -72q-110 0 -191.5 72.5t-81.5 199.5zM231 1112q0 -108 69.5 -169.5t162.5 -61.5q94 0 164.5 61t70.5 170q0 108 -70.5 169.5t-164.5 61.5q-93 0 -162.5 -61.5t-69.5 -169.5z" />
<glyph unicode="&#xb1;" horiz-adv-x="1290" d="M139 0l2 41h1008l-2 -41h-1008zM219 655l4 41h484l63 506h41l-63 -506h483l-4 -41h-484l-63 -505h-41l63 505h-483z" />
<glyph unicode="&#xb2;" horiz-adv-x="718" d="M158 582l6 41q195 146 274 213q326 278 326 460q0 87 -58 144t-157 57q-134 0 -262 -106l-25 28q140 119 287 119q120 0 189 -68t69 -172q0 -46 -18 -96t-43 -93t-70.5 -95t-81 -88t-96 -87.5t-94 -77.5t-96 -74.5t-81.5 -63.5h510l-6 -41h-573z" />
<glyph unicode="&#xb3;" horiz-adv-x="649" d="M145 647l19 33q102 -64 219 -64q119 0 193.5 63.5t74.5 172.5q0 89 -55 145t-158 56h-137l2 41h135q117 0 176.5 59.5t59.5 140.5q0 95 -58 146t-145 51q-116 0 -229 -70l-23 35q122 76 252 76q106 0 175 -60.5t69 -177.5q0 -79 -49 -141t-131 -80q74 -21 115.5 -81.5 t41.5 -139.5q0 -126 -86.5 -201.5t-220.5 -75.5q-120 0 -240 72z" />
<glyph unicode="&#xb5;" horiz-adv-x="1081" d="M74 -352l184 1349h41l-78 -583q-10 -82 -10 -117q0 -132 52.5 -204.5t133.5 -72.5q89 0 198.5 87.5t211.5 216.5l84 673h41l-96 -759q-7 -58 -7 -95q0 -123 56 -123q65 0 157 123l31 -26q-105 -137 -190 -137q-95 0 -95 163q0 36 11 113q-98 -118 -204.5 -197t-197.5 -79 q-77 0 -132.5 48.5t-78.5 141.5l-71 -522h-41z" />
<glyph unicode="&#xb6;" horiz-adv-x="968" d="M147 920q0 135 74.5 241.5t202 164.5t283.5 58h380l-6 -41h-131l-209 -1695h-41l209 1695h-190l-209 -1695h-41l100 825q-88 5 -164.5 37.5t-134 88.5t-90.5 139t-33 182zM188 920q0 -173 102 -283.5t285 -122.5l103 829q-76 -4 -147 -22.5t-133.5 -53.5t-109 -83.5 t-73.5 -116.5t-27 -147z" />
<glyph unicode="&#xb7;" horiz-adv-x="528" d="M301 696q0 14 9 24.5t26 10.5q16 0 25.5 -11t9.5 -24t-9.5 -23.5t-25.5 -10.5q-17 0 -26 10t-9 24z" />
<glyph unicode="&#xb9;" horiz-adv-x="612" d="M182 582l6 41h222l104 860q-205 -39 -244 -43v41q39 4 112 17t126 24l53 10l-110 -909h223l-6 -41h-486z" />
<glyph unicode="&#xba;" horiz-adv-x="878" d="M258 1114q0 109 48 209.5t136 165.5t193 65q125 0 191.5 -86.5t66.5 -226.5q0 -109 -48 -209.5t-135.5 -165.5t-191.5 -65q-125 0 -192.5 86.5t-67.5 226.5zM299 1114q0 -121 57.5 -196.5t161.5 -75.5q92 0 170 58.5t121 150t43 190.5q0 121 -56.5 196.5t-160.5 75.5 q-93 0 -171.5 -59t-121.5 -150t-43 -190z" />
<glyph unicode="&#xbb;" horiz-adv-x="937" d="M176 154l375 393l-279 393l37 21l295 -418l-399 -418zM489 154l375 393l-278 393l37 21l295 -418l-400 -418z" />
<glyph unicode="&#xbc;" horiz-adv-x="1734" d="M182 582l6 41h222l104 860q-174 -35 -250 -43l6 41q39 4 112 17t126 24l53 10l-110 -909h223l-6 -41h-486zM338 -4l1186 1530h51l-1186 -1530h-51zM903 231l6 41l514 662h43l-80 -662h189l-6 -41h-189l-26 -231h-41l26 231h-436zM961 272h385l71 588z" />
<glyph unicode="&#xbd;" horiz-adv-x="1734" d="M182 582l6 41h222l104 860q-205 -39 -244 -43v41q39 4 112 17t126 24l53 10l-110 -909h223l-6 -41h-486zM338 -4l1186 1530h51l-1186 -1530h-51zM1059 0l6 41q197 147 280 219q320 274 320 455q0 87 -58 143.5t-157 56.5q-134 0 -262 -106l-25 29q139 118 287 118 q120 0 189 -67.5t69 -171.5q0 -41 -12.5 -84t-38.5 -86t-53.5 -82t-71.5 -82.5t-78 -76.5t-86.5 -76t-83.5 -68t-83.5 -65t-72.5 -56h510l-6 -41h-573z" />
<glyph unicode="&#xbe;" horiz-adv-x="1734" d="M121 647l18 33q102 -64 219 -64q119 0 194 64t75 172q0 89 -55 145t-158 56h-138l3 41h135q117 0 176 59.5t59 140.5q0 95 -58 146t-145 51q-116 0 -229 -70l-22 35q122 76 251 76q106 0 175 -60.5t69 -177.5q0 -79 -49 -141t-131 -80q74 -21 116 -81.5t42 -139.5 q0 -125 -87 -201t-221 -76q-119 0 -239 72zM338 -4l1186 1530h51l-1186 -1530h-51zM903 231l6 41l514 662h43l-80 -662h189l-6 -41h-189l-26 -231h-41l26 231h-436zM961 272h385l71 588z" />
<glyph unicode="&#xbf;" horiz-adv-x="894" d="M74 -100q0 39 8 75.5t17.5 64t32.5 59.5t37 50t49 49.5t50.5 44.5t57.5 48q59 47 98.5 85t83 93t69.5 120.5t35 141.5l41 -4q-10 -81 -38 -151t-74.5 -128.5t-87.5 -98.5t-103 -91q-42 -34 -62.5 -51t-54 -48.5t-50 -55t-35 -56.5t-26 -69.5t-7.5 -77.5 q0 -113 73.5 -174.5t194.5 -61.5q162 0 338 105l24 -35q-183 -111 -362 -111q-138 0 -223.5 73t-85.5 204zM610 987q0 13 9.5 24t25.5 11q17 0 26 -10.5t9 -24.5t-9 -24.5t-26 -10.5q-16 0 -25.5 11t-9.5 24z" />
<glyph unicode="&#xc0;" horiz-adv-x="1161" d="M23 2l671 1331l-12 43l41 13l367 -1387l-43 -6l-138 520v2h-581v-2l-262 -520zM348 559h551l-2 2l-186 715l-361 -715zM500 1817h47l147 -318h-43z" />
<glyph unicode="&#xc1;" horiz-adv-x="1161" d="M23 2l671 1331l-12 43l41 13l367 -1387l-43 -6l-138 520v2h-581v-2l-262 -520zM348 559h551l-2 2l-186 715l-361 -715zM731 1503l205 318h49l-205 -318h-49z" />
<glyph unicode="&#xc2;" horiz-adv-x="1161" d="M23 2l671 1331l-12 43l41 13l367 -1387l-43 -6l-138 520v2h-581v-2l-262 -520zM348 559h551l-2 2l-186 715l-361 -715zM545 1501l227 318h45l146 -318h-43l-127 279l-197 -279h-51z" />
<glyph unicode="&#xc3;" horiz-adv-x="1161" d="M23 2l671 1331l-12 43l41 13l367 -1387l-43 -6l-138 520v2h-581v-2l-262 -520zM348 559h551l-2 2l-186 715l-361 -715zM473 1567q22 180 154 180q40 0 78.5 -22.5t64 -50t59 -50t64.5 -22.5q95 0 111 143h40q-23 -182 -153 -182q-40 0 -78.5 22.5t-64 50t-59 50 t-64.5 22.5q-93 0 -111 -141h-41z" />
<glyph unicode="&#xc4;" horiz-adv-x="1161" d="M23 2l671 1331l-12 43l41 13l367 -1387l-43 -6l-138 520v2h-581v-2l-262 -520zM348 559h551l-2 2l-186 715l-361 -715zM526 1657q0 13 9.5 24t25.5 11q17 0 26 -10.5t9 -24.5t-9 -24.5t-26 -10.5q-16 0 -25.5 11t-9.5 24zM922 1657q0 13 9 24t25 11q17 0 26 -10.5 t9 -24.5t-9 -24.5t-26 -10.5q-16 0 -25 11t-9 24z" />
<glyph unicode="&#xc5;" horiz-adv-x="1161" d="M23 2l671 1331l-12 43l41 13l367 -1387l-43 -6l-138 520v2h-581v-2l-262 -520zM348 559h551l-2 2l-186 715l-361 -715zM602 1659q0 63 46.5 109.5t109.5 46.5t109 -46.5t46 -109.5t-46 -109.5t-109 -46.5t-109.5 46.5t-46.5 109.5zM643 1659q0 -47 34 -81t81 -34t80.5 34 t33.5 81t-33.5 81t-80.5 34t-81 -34t-34 -81z" />
<glyph unicode="&#xc6;" horiz-adv-x="1581" d="M6 2l975 1358l2 26h639l-6 -40h-598l-76 -627h473l-6 -41h-473l-78 -637h617l-7 -41h-655l57 483h-473l-346 -485zM428 524h449l94 756z" />
<glyph unicode="&#xc7;" horiz-adv-x="1048" d="M141 594q0 107 25.5 218.5t79 218t129 189.5t184 134t234.5 51q169 0 319 -96l-25 -37q-149 92 -294 92q-115 0 -215.5 -45.5t-171.5 -122t-122.5 -176t-76.5 -208.5t-25 -218q0 -113 26.5 -214t79 -182.5t139 -129.5t196.5 -48q145 0 321 93l17 -37q-158 -89 -324 -96 l-31 -56q82 -15 139.5 -51.5t57.5 -101.5t-51 -100.5t-134 -35.5q-87 0 -182 39l15 37q87 -35 165 -35q146 0 146 95q0 30 -22 54t-54 37t-63.5 21.5t-53.5 11.5l-22 3l45 84q-114 6 -202.5 59.5t-141.5 139.5t-80 191t-27 222z" />
<glyph unicode="&#xc8;" horiz-adv-x="888" d="M123 0l170 1386h637l-6 -40h-596l-76 -627h473l-6 -41h-473l-78 -637h616l-6 -41h-655zM506 1819h47l147 -318h-43z" />
<glyph unicode="&#xc9;" horiz-adv-x="888" d="M123 0l170 1386h637l-6 -40h-596l-76 -627h473l-6 -41h-473l-78 -637h616l-6 -41h-655zM614 1497l205 318h49l-204 -318h-50z" />
<glyph unicode="&#xca;" horiz-adv-x="888" d="M123 0l170 1386h637l-6 -40h-596l-76 -627h473l-6 -41h-473l-78 -637h616l-6 -41h-655zM401 1501l228 318h45l145 -318h-43l-127 279l-196 -279h-52z" />
<glyph unicode="&#xcb;" horiz-adv-x="888" d="M123 0l170 1386h637l-6 -40h-596l-76 -627h473l-6 -41h-473l-78 -637h616l-6 -41h-655zM422 1661q0 13 9.5 24t25.5 11q17 0 26 -10.5t9 -24.5t-9 -24.5t-26 -10.5q-16 0 -25.5 11t-9.5 24zM817 1661q0 13 9.5 24t25.5 11q17 0 26 -10.5t9 -24.5t-9 -24.5t-26 -10.5 q-16 0 -25.5 11t-9.5 24z" />
<glyph unicode="&#xcc;" horiz-adv-x="327" d="M121 -4l172 1390h41l-172 -1390h-41zM158 1821h47l147 -318h-43z" />
<glyph unicode="&#xcd;" horiz-adv-x="327" d="M121 -4l172 1390h41l-172 -1390h-41zM313 1503l205 318h49l-205 -318h-49z" />
<glyph unicode="&#xce;" horiz-adv-x="327" d="M121 -4l172 1390h41l-172 -1390h-41zM137 1501l228 318h45l145 -318h-43l-127 279l-197 -279h-51z" />
<glyph unicode="&#xcf;" horiz-adv-x="327" d="M115 1659q0 13 9.5 24t25.5 11q17 0 25.5 -10.5t8.5 -24.5t-8.5 -24.5t-25.5 -10.5q-16 0 -25.5 11t-9.5 24zM121 -4l172 1390h41l-172 -1390h-41zM510 1659q0 13 9.5 24t25.5 11q17 0 26 -10.5t9 -24.5t-9 -24.5t-26 -10.5q-16 0 -25.5 11t-9.5 24z" />
<glyph unicode="&#xd0;" horiz-adv-x="1189" d="M84 686l6 41h121l80 659h233q286 0 460.5 -168.5t174.5 -457.5q0 -121 -30.5 -233t-92 -207.5t-146.5 -167t-201 -112t-249 -40.5h-317l82 686h-121zM168 41h272q126 0 235.5 38t189.5 105.5t137.5 158t86.5 196.5t29 221q0 271 -163.5 428.5t-430.5 157.5h-196l-76 -619 h307l-6 -41h-307z" />
<glyph unicode="&#xd1;" horiz-adv-x="1290" d="M131 0l166 1335l-25 41l39 17l723 -1323l162 1316h41l-170 -1386l-37 -4l-702 1284l-156 -1280h-41zM528 1567q22 180 154 180q40 0 78.5 -22.5t64 -50t59 -50t64.5 -22.5q95 0 111 143h41q-23 -182 -154 -182q-40 0 -78.5 22.5t-64 50t-59 50t-64.5 22.5 q-93 0 -111 -141h-41z" />
<glyph unicode="&#xd2;" horiz-adv-x="1335" d="M143 547q0 161 38 301t103 240.5t151 173t183 108t197 35.5q96 0 183 -35t157.5 -102t112 -176.5t41.5 -247.5q0 -199 -59 -366t-156 -274.5t-219 -167t-252 -59.5q-94 0 -178.5 34.5t-152.5 102t-108.5 179.5t-40.5 254zM184 547q0 -132 37 -236t99.5 -166.5 t139.5 -94.5t163 -32q96 0 189.5 35t175.5 105.5t144.5 168t99 231t36.5 286.5q0 103 -25 189t-68.5 146.5t-101.5 102.5t-123 62t-135 20q-94 0 -185 -33.5t-171.5 -102t-142 -164t-97 -229.5t-35.5 -288zM694 1821h47l148 -318h-43z" />
<glyph unicode="&#xd3;" horiz-adv-x="1335" d="M143 547q0 161 38 301t103 240.5t151 173t183 108t197 35.5q96 0 183 -35t157.5 -102t112 -176.5t41.5 -247.5q0 -199 -59 -366t-156 -274.5t-219 -167t-252 -59.5q-94 0 -178.5 34.5t-152.5 102t-108.5 179.5t-40.5 254zM184 547q0 -132 37 -236t99.5 -166.5 t139.5 -94.5t163 -32q96 0 189.5 35t175.5 105.5t144.5 168t99 231t36.5 286.5q0 103 -25 189t-68.5 146.5t-101.5 102.5t-123 62t-135 20q-94 0 -185 -33.5t-171.5 -102t-142 -164t-97 -229.5t-35.5 -288zM834 1503l204 318h49l-204 -318h-49z" />
<glyph unicode="&#xd4;" horiz-adv-x="1335" d="M143 547q0 161 38 301t103 240.5t151 173t183 108t197 35.5q96 0 183 -35t157.5 -102t112 -176.5t41.5 -247.5q0 -199 -59 -366t-156 -274.5t-219 -167t-252 -59.5q-94 0 -178.5 34.5t-152.5 102t-108.5 179.5t-40.5 254zM184 547q0 -132 37 -236t99.5 -166.5 t139.5 -94.5t163 -32q96 0 189.5 35t175.5 105.5t144.5 168t99 231t36.5 286.5q0 103 -25 189t-68.5 146.5t-101.5 102.5t-123 62t-135 20q-94 0 -185 -33.5t-171.5 -102t-142 -164t-97 -229.5t-35.5 -288zM639 1501l227 318h45l146 -318h-43l-127 279l-197 -279h-51z" />
<glyph unicode="&#xd5;" horiz-adv-x="1335" d="M143 547q0 161 38 301t103 240.5t151 173t183 108t197 35.5q96 0 183 -35t157.5 -102t112 -176.5t41.5 -247.5q0 -199 -59 -366t-156 -274.5t-219 -167t-252 -59.5q-94 0 -178.5 34.5t-152.5 102t-108.5 179.5t-40.5 254zM184 547q0 -132 37 -236t99.5 -166.5 t139.5 -94.5t163 -32q96 0 189.5 35t175.5 105.5t144.5 168t99 231t36.5 286.5q0 103 -25 189t-68.5 146.5t-101.5 102.5t-123 62t-135 20q-94 0 -185 -33.5t-171.5 -102t-142 -164t-97 -229.5t-35.5 -288zM551 1569q22 180 154 180q40 0 78.5 -22.5t64 -50t59 -50 t64.5 -22.5q94 0 110 143h41q-23 -182 -153 -182q-40 0 -78.5 22.5t-64.5 50t-59.5 50t-64.5 22.5q-92 0 -110 -141h-41z" />
<glyph unicode="&#xd6;" horiz-adv-x="1335" d="M143 547q0 161 38 301t103 240.5t151 173t183 108t197 35.5q96 0 183 -35t157.5 -102t112 -176.5t41.5 -247.5q0 -199 -59 -366t-156 -274.5t-219 -167t-252 -59.5q-94 0 -178.5 34.5t-152.5 102t-108.5 179.5t-40.5 254zM184 547q0 -132 37 -236t99.5 -166.5 t139.5 -94.5t163 -32q96 0 189.5 35t175.5 105.5t144.5 168t99 231t36.5 286.5q0 103 -25 189t-68.5 146.5t-101.5 102.5t-123 62t-135 20q-94 0 -185 -33.5t-171.5 -102t-142 -164t-97 -229.5t-35.5 -288zM600 1667q0 13 9.5 24t25.5 11q17 0 26 -10.5t9 -24.5t-9 -24.5 t-26 -10.5q-16 0 -25.5 11t-9.5 24zM995 1667q0 13 9.5 24t25.5 11q17 0 26 -10.5t9 -24.5t-9 -24.5t-26 -10.5q-16 0 -25.5 11t-9.5 24z" />
<glyph unicode="&#xd7;" horiz-adv-x="1290" d="M176 92l498 449h-2l-385 442l32 25l381 -441v-2l496 447l29 -33l-494 -447l385 -444l-31 -25l-383 443l-495 -447z" />
<glyph unicode="&#xd8;" horiz-adv-x="1335" d="M129 0l125 156h2q-113 149 -113 391q0 161 38 301t103 240.5t151 173t183 108t197 35.5q95 0 184 -35t156 -102v2l113 139l32 -25l-118 -145q127 -150 127 -395q0 -199 -59 -366t-156 -274.5t-219 -167t-252 -59.5q-207 0 -340 148l-121 -150zM184 547q0 -221 99 -357 l843 1045h2q-126 129 -313 129q-94 0 -185 -33.5t-171.5 -102t-142 -164t-97 -229.5t-35.5 -288zM309 158q60 -69 142 -104.5t172 -35.5q96 0 189.5 35t175.5 105.5t144.5 168t99 231t36.5 286.5q0 220 -113 360z" />
<glyph unicode="&#xd9;" horiz-adv-x="1173" d="M176 383q0 53 4 82l113 921h41l-113 -921q-6 -41 -6 -80q0 -175 98.5 -270t251.5 -95q83 0 158 25.5t137.5 75.5t105.5 132.5t56 188.5l117 944h41l-117 -944q-14 -117 -60.5 -207.5t-114.5 -145t-149.5 -82t-173.5 -27.5q-169 0 -279 105t-110 298zM588 1821h47 l147 -318h-43z" />
<glyph unicode="&#xda;" horiz-adv-x="1173" d="M176 383q0 53 4 82l113 921h41l-113 -921q-6 -41 -6 -80q0 -175 98.5 -270t251.5 -95q83 0 158 25.5t137.5 75.5t105.5 132.5t56 188.5l117 944h41l-117 -944q-14 -117 -60.5 -207.5t-114.5 -145t-149.5 -82t-173.5 -27.5q-169 0 -279 105t-110 298zM709 1499l204 318h50 l-205 -318h-49z" />
<glyph unicode="&#xdb;" horiz-adv-x="1173" d="M176 383q0 53 4 82l113 921h41l-113 -921q-6 -41 -6 -80q0 -175 98.5 -270t251.5 -95q83 0 158 25.5t137.5 75.5t105.5 132.5t56 188.5l117 944h41l-117 -944q-14 -117 -60.5 -207.5t-114.5 -145t-149.5 -82t-173.5 -27.5q-169 0 -279 105t-110 298zM549 1501l227 318h45 l146 -318h-43l-127 279l-197 -279h-51z" />
<glyph unicode="&#xdc;" horiz-adv-x="1173" d="M176 383q0 53 4 82l113 921h41l-113 -921q-6 -41 -6 -80q0 -175 98.5 -270t251.5 -95q83 0 158 25.5t137.5 75.5t105.5 132.5t56 188.5l117 944h41l-117 -944q-14 -117 -60.5 -207.5t-114.5 -145t-149.5 -82t-173.5 -27.5q-169 0 -279 105t-110 298zM522 1657 q0 13 9.5 24t25.5 11q17 0 26 -10.5t9 -24.5t-9 -24.5t-26 -10.5q-16 0 -25.5 11t-9.5 24zM918 1657q0 13 9 24t25 11q17 0 26 -10.5t9 -24.5t-9 -24.5t-26 -10.5q-16 0 -25 11t-9 24z" />
<glyph unicode="&#xdd;" horiz-adv-x="1019" d="M152 1384l45 5l364 -771l555 771l47 -5l-585 -811l-70 -573h-41l70 573zM674 1501l205 318h49l-205 -318h-49z" />
<glyph unicode="&#xde;" horiz-adv-x="901" d="M121 0l170 1386h41l-37 -286h170q99 0 179 -32.5t129 -86t75 -118.5t26 -134q0 -120 -65 -217t-170.5 -149t-228.5 -52h-211l-37 -311h-41zM205 352h205q110 0 205 43t157 131t62 203q0 62 -23.5 120t-67.5 105.5t-116 76t-162 28.5h-174z" />
<glyph unicode="&#xdf;" horiz-adv-x="1044" d="M-100 -371l4 41q24 -4 43 -4q61 0 100 49.5t53 163.5l174 1378q18 144 124 225t237 81q124 0 209.5 -72.5t85.5 -204.5q0 -43 -9.5 -83.5t-23.5 -71t-39 -61.5t-45 -51.5t-53 -45.5t-52.5 -38t-52.5 -34q-8 -5 -24.5 -15.5t-24 -15.5t-20 -13.5t-18 -13.5t-13.5 -13 t-11.5 -14.5t-6 -14.5t-2.5 -17q0 -21 24.5 -47t48 -42t62.5 -40q45 -26 73 -44.5t67 -51.5t62 -65t39.5 -79t16.5 -100q0 -150 -112 -242.5t-275 -92.5q-69 0 -148 22t-139 59l20 37q58 -35 131.5 -56.5t135.5 -21.5q147 0 246.5 80.5t99.5 212.5q0 48 -14.5 89.5 t-33.5 69.5t-55.5 58t-61.5 45.5t-71 42.5q-41 25 -61.5 39t-47 36t-37.5 44t-11 47q0 22 9.5 41.5t33 39.5t42 32.5t56.5 36.5q38 23 58.5 36.5t56 40.5t55.5 51.5t42 59t32 76t10 88.5q0 113 -73.5 174.5t-180.5 61.5q-72 0 -140 -30.5t-119 -93.5t-61 -145l-174 -1378 q-18 -140 -66 -195t-128 -55q-15 0 -47 4z" />
<glyph unicode="&#xe0;" horiz-adv-x="983" d="M109 338q0 132 38 254.5t105 217.5t168 151.5t219 56.5q109 0 250 -66l-94 -714q-7 -58 -7 -93q0 -122 56 -122q67 0 157 120l31 -26q-103 -135 -190 -135q-94 0 -94 163q0 23 8 97q-206 -262 -387 -262q-118 0 -189 93t-71 265zM150 338q0 -151 60.5 -234.5t158.5 -83.5 q174 0 393 291l82 617q-122 49 -205 49q-109 0 -202 -53t-155 -142t-97 -204t-35 -240zM524 1452h47l148 -317h-43z" />
<glyph unicode="&#xe1;" horiz-adv-x="983" d="M109 338q0 132 38 254.5t105 217.5t168 151.5t219 56.5q109 0 250 -66l-94 -714q-7 -58 -7 -93q0 -122 56 -122q67 0 157 120l31 -26q-103 -135 -190 -135q-94 0 -94 163q0 23 8 97q-206 -262 -387 -262q-118 0 -189 93t-71 265zM150 338q0 -151 60.5 -234.5t158.5 -83.5 q174 0 393 291l82 617q-122 49 -205 49q-109 0 -202 -53t-155 -142t-97 -204t-35 -240zM612 1135l205 317h49l-204 -317h-50z" />
<glyph unicode="&#xe2;" horiz-adv-x="983" d="M109 338q0 132 38 254.5t105 217.5t168 151.5t219 56.5q109 0 250 -66l-94 -714q-7 -58 -7 -93q0 -122 56 -122q67 0 157 120l31 -26q-103 -135 -190 -135q-94 0 -94 163q0 23 8 97q-206 -262 -387 -262q-118 0 -189 93t-71 265zM150 338q0 -151 60.5 -234.5t158.5 -83.5 q174 0 393 291l82 617q-122 49 -205 49q-109 0 -202 -53t-155 -142t-97 -204t-35 -240zM436 1135l228 317h45l145 -317h-43l-127 278l-197 -278h-51z" />
<glyph unicode="&#xe3;" horiz-adv-x="983" d="M109 338q0 132 38 254.5t105 217.5t168 151.5t219 56.5q109 0 250 -66l-94 -714q-7 -58 -7 -93q0 -122 56 -122q67 0 157 120l31 -26q-103 -135 -190 -135q-94 0 -94 163q0 23 8 97q-206 -262 -387 -262q-118 0 -189 93t-71 265zM150 338q0 -151 60.5 -234.5t158.5 -83.5 q174 0 393 291l82 617q-122 49 -205 49q-109 0 -202 -53t-155 -142t-97 -204t-35 -240zM373 1192q22 180 153 180q40 0 78.5 -22.5t64.5 -50t59.5 -50t64.5 -22.5q94 0 110 143h41q-23 -182 -153 -182q-40 0 -78.5 22.5t-64.5 50t-59.5 50t-64.5 22.5q-92 0 -110 -141h-41z " />
<glyph unicode="&#xe4;" horiz-adv-x="983" d="M109 338q0 132 38 254.5t105 217.5t168 151.5t219 56.5q109 0 250 -66l-94 -714q-7 -58 -7 -93q0 -122 56 -122q67 0 157 120l31 -26q-103 -135 -190 -135q-94 0 -94 163q0 23 8 97q-206 -262 -387 -262q-118 0 -189 93t-71 265zM150 338q0 -151 60.5 -234.5t158.5 -83.5 q174 0 393 291l82 617q-122 49 -205 49q-109 0 -202 -53t-155 -142t-97 -204t-35 -240zM440 1366q0 13 9.5 24t25.5 11q17 0 26 -10.5t9 -24.5t-9 -24.5t-26 -10.5q-16 0 -25.5 11t-9.5 24zM836 1366q0 13 9 24t25 11q17 0 26 -10.5t9 -24.5t-9 -24.5t-26 -10.5 q-16 0 -25 11t-9 24z" />
<glyph unicode="&#xe5;" horiz-adv-x="983" d="M109 338q0 132 38 254.5t105 217.5t168 151.5t219 56.5q109 0 250 -66l-94 -714q-7 -58 -7 -93q0 -122 56 -122q67 0 157 120l31 -26q-103 -135 -190 -135q-94 0 -94 163q0 23 8 97q-206 -262 -387 -262q-118 0 -189 93t-71 265zM150 338q0 -151 60.5 -234.5t158.5 -83.5 q174 0 393 291l82 617q-122 49 -205 49q-109 0 -202 -53t-155 -142t-97 -204t-35 -240zM551 1280q0 63 46.5 109.5t109.5 46.5t109 -46.5t46 -109.5t-46 -109.5t-109 -46.5t-109.5 46.5t-46.5 109.5zM592 1280q0 -47 34 -81t81 -34t80.5 34t33.5 81t-33.5 81t-80.5 34 t-81 -34t-34 -81z" />
<glyph unicode="&#xe6;" horiz-adv-x="1318" d="M113 334q0 150 46.5 279t126.5 217t188.5 138t230.5 50q141 0 237 -41q87 41 170 41q100 0 163.5 -55t63.5 -152q0 -85 -59.5 -155t-159.5 -116.5t-216 -76t-245 -43.5v-31q0 -164 82 -266.5t203 -102.5q71 0 155.5 46.5t153.5 130.5l31 -27q-76 -92 -168 -141t-172 -49 q-97 0 -174 56.5t-117 156.5q-148 -213 -305 -213q-77 0 -131.5 49t-79 127.5t-24.5 177.5zM154 334q0 -137 50 -225.5t144 -88.5q145 0 289 218q-19 71 -19 151q0 200 78.5 343.5t200.5 219.5q-82 25 -192 25q-113 0 -214 -47t-175.5 -129.5t-118 -204t-43.5 -262.5z M662 459q120 13 229.5 40.5t202.5 70t148.5 105t55.5 136.5q0 79 -52.5 122.5t-133.5 43.5q-69 0 -141.5 -33t-138 -95t-112.5 -164t-58 -226z" />
<glyph unicode="&#xe7;" horiz-adv-x="745" d="M115 373q0 148 40.5 271.5t109 203.5t156 124t183.5 44q119 0 223 -58l-20 -36q-100 53 -203 53q-88 0 -168.5 -41t-143 -115.5t-99.5 -190.5t-37 -255q0 -164 80 -256t186 -92q87 0 154.5 31t152.5 108l27 -31q-84 -77 -153.5 -111t-156.5 -38l-32 -60q82 -15 139 -51.5 t57 -101.5t-51 -100.5t-133 -35.5q-87 0 -182 39l14 37q87 -35 166 -35q145 0 145 95q0 30 -22 54t-53.5 37t-63.5 21.5t-54 11.5l-22 3l47 88q-55 4 -105 30t-91 72t-65.5 120t-24.5 165z" />
<glyph unicode="&#xe8;" horiz-adv-x="808" d="M109 389q0 122 31.5 227t82.5 177.5t116 124t132 76t131 24.5q100 0 163.5 -55t63.5 -152q0 -85 -59 -155t-159.5 -116.5t-216 -76t-244.5 -43.5v-31q0 -164 81.5 -266.5t202.5 -102.5q71 0 155.5 46.5t153.5 130.5l31 -27q-76 -92 -168 -141t-172 -49q-139 0 -232 113 t-93 296zM152 459q120 13 229.5 40.5t202.5 70t148.5 105t55.5 136.5q0 79 -52.5 122.5t-133.5 43.5q-69 0 -141.5 -33t-138 -95t-112.5 -164t-58 -226zM496 1452h47l147 -317h-43z" />
<glyph unicode="&#xe9;" horiz-adv-x="808" d="M109 389q0 122 31.5 227t82.5 177.5t116 124t132 76t131 24.5q100 0 163.5 -55t63.5 -152q0 -85 -59 -155t-159.5 -116.5t-216 -76t-244.5 -43.5v-31q0 -164 81.5 -266.5t202.5 -102.5q71 0 155.5 46.5t153.5 130.5l31 -27q-76 -92 -168 -141t-172 -49q-139 0 -232 113 t-93 296zM152 459q120 13 229.5 40.5t202.5 70t148.5 105t55.5 136.5q0 79 -52.5 122.5t-133.5 43.5q-69 0 -141.5 -33t-138 -95t-112.5 -164t-58 -226zM563 1135l205 317h49l-205 -317h-49z" />
<glyph unicode="&#xea;" horiz-adv-x="808" d="M109 389q0 122 31.5 227t82.5 177.5t116 124t132 76t131 24.5q100 0 163.5 -55t63.5 -152q0 -85 -59 -155t-159.5 -116.5t-216 -76t-244.5 -43.5v-31q0 -164 81.5 -266.5t202.5 -102.5q71 0 155.5 46.5t153.5 130.5l31 -27q-76 -92 -168 -141t-172 -49q-139 0 -232 113 t-93 296zM152 459q120 13 229.5 40.5t202.5 70t148.5 105t55.5 136.5q0 79 -52.5 122.5t-133.5 43.5q-69 0 -141.5 -33t-138 -95t-112.5 -164t-58 -226zM408 1135l227 317h45l145 -317h-43l-127 278l-196 -278h-51z" />
<glyph unicode="&#xeb;" horiz-adv-x="851" d="M109 389q0 122 31.5 227t82.5 177.5t116 124t132 76t131 24.5q100 0 163.5 -55t63.5 -152q0 -85 -59 -155t-159.5 -116.5t-216 -76t-244.5 -43.5v-31q0 -164 81.5 -266.5t202.5 -102.5q71 0 155.5 46.5t153.5 130.5l31 -27q-76 -92 -168 -141t-172 -49q-139 0 -232 113 t-93 296zM152 459q120 13 229.5 40.5t202.5 70t148.5 105t55.5 136.5q0 79 -52.5 122.5t-133.5 43.5q-69 0 -141.5 -33t-138 -95t-112.5 -164t-58 -226zM459 1366q0 13 9.5 24t25.5 11q17 0 25.5 -10.5t8.5 -24.5t-8.5 -24.5t-25.5 -10.5q-16 0 -25.5 11t-9.5 24zM854 1366 q0 13 9.5 24t25.5 11q17 0 26 -10.5t9 -24.5t-9 -24.5t-26 -10.5q-16 0 -25.5 11t-9.5 24z" />
<glyph unicode="&#xec;" horiz-adv-x="409" d="M109 1452h47l147 -317h-43zM137 123q0 46 8 108l93 766h41l-97 -802q-4 -36 -4 -72q0 -103 55 -103q32 0 74.5 31.5t87.5 89.5l31 -26q-103 -135 -193 -135q-45 0 -70.5 37t-25.5 106z" />
<glyph unicode="&#xed;" horiz-adv-x="409" d="M137 123q0 46 8 108l93 766h41l-97 -802q-4 -36 -4 -72q0 -103 55 -103q32 0 74.5 31.5t87.5 89.5l31 -26q-103 -135 -193 -135q-45 0 -70.5 37t-25.5 106zM262 1135l205 317h49l-205 -317h-49z" />
<glyph unicode="&#xee;" horiz-adv-x="409" d="M86 1135l227 317h45l146 -317h-43l-127 278l-197 -278h-51zM137 123q0 46 8 108l93 766h41l-97 -802q-4 -36 -4 -72q0 -103 55 -103q32 0 74.5 31.5t87.5 89.5l31 -26q-103 -135 -193 -135q-45 0 -70.5 37t-25.5 106z" />
<glyph unicode="&#xef;" horiz-adv-x="409" d="M74 1366q0 13 9.5 24t25.5 11q17 0 25.5 -10.5t8.5 -24.5t-8.5 -24.5t-25.5 -10.5q-16 0 -25.5 11t-9.5 24zM137 123q0 46 8 108l93 766h41l-97 -802q-4 -36 -4 -72q0 -103 55 -103q32 0 74.5 31.5t87.5 89.5l31 -26q-103 -135 -193 -135q-45 0 -70.5 37t-25.5 106z M469 1366q0 13 9.5 24t25.5 11q17 0 26 -10.5t9 -24.5t-9 -24.5t-26 -10.5q-16 0 -25.5 11t-9.5 24z" />
<glyph unicode="&#xf0;" horiz-adv-x="1099" d="M145 459q0 113 39.5 215.5t108 177.5t167 119.5t210.5 44.5q74 0 136.5 -23t106 -63t72.5 -85t47 -97q-9 200 -82.5 365t-199.5 265l-271 -135l-20 35l256 127q-122 83 -275 98l4 41q177 -21 312 -119l223 113l20 -35l-208 -104q134 -114 207 -295t73 -399q0 -74 -9 -146 t-28.5 -144.5t-48.5 -136t-72 -119t-96 -95t-122.5 -62t-149.5 -22.5q-57 0 -107.5 14t-90.5 39t-73.5 60t-57 76.5t-39.5 89.5t-24 98t-8 102zM186 459q0 -55 10 -108.5t29 -102.5t49.5 -90.5t69 -72.5t90.5 -48t111 -17q86 0 158.5 29t124 77.5t91 116.5t63 141.5 t36.5 156.5q6 35 6 65q0 28 -6 62q-7 35 -19.5 68.5t-32 69t-48 65.5t-63.5 53.5t-83 37t-102 13.5q-103 0 -193.5 -40.5t-154 -110t-100 -164.5t-36.5 -201z" />
<glyph unicode="&#xf1;" horiz-adv-x="1019" d="M123 0l127 997h41l-35 -256q98 119 204 198t197 79q101 0 164.5 -82.5t63.5 -235.5q0 -26 -11 -120l-51 -385q-4 -36 -4 -72q0 -103 55 -103q32 0 74.5 31.5t87.5 89.5l31 -26q-103 -135 -193 -135q-45 0 -70.5 37t-25.5 106q0 46 8 108l48 353q10 82 10 116 q0 132 -52.5 204.5t-134.5 72.5q-89 0 -198 -87t-211 -216l-84 -674h-41zM352 1192q22 180 154 180q40 0 78.5 -22.5t64 -50t59 -50t64.5 -22.5q95 0 111 143h41q-23 -182 -154 -182q-40 0 -78.5 22.5t-64 50t-59 50t-64.5 22.5q-93 0 -111 -141h-41z" />
<glyph unicode="&#xf2;" horiz-adv-x="954" d="M115 412q0 113 37 222t101.5 194t159.5 137.5t203 52.5q166 0 252 -118t86 -312q0 -113 -37 -222t-101.5 -195t-159.5 -138.5t-203 -52.5q-166 0 -252 119t-86 313zM156 412q0 -175 76 -283.5t221 -108.5q99 0 186 49.5t146.5 129.5t93.5 182t34 207q0 175 -76 282 t-221 107q-99 0 -186 -49t-146.5 -128.5t-93.5 -181t-34 -206.5zM463 1452h47l147 -317h-43z" />
<glyph unicode="&#xf3;" horiz-adv-x="954" d="M115 412q0 113 37 222t101.5 194t159.5 137.5t203 52.5q166 0 252 -118t86 -312q0 -113 -37 -222t-101.5 -195t-159.5 -138.5t-203 -52.5q-166 0 -252 119t-86 313zM156 412q0 -175 76 -283.5t221 -108.5q99 0 186 49.5t146.5 129.5t93.5 182t34 207q0 175 -76 282 t-221 107q-99 0 -186 -49t-146.5 -128.5t-93.5 -181t-34 -206.5zM612 1135l205 317h49l-204 -317h-50z" />
<glyph unicode="&#xf4;" horiz-adv-x="954" d="M115 412q0 113 37 222t101.5 194t159.5 137.5t203 52.5q166 0 252 -118t86 -312q0 -113 -37 -222t-101.5 -195t-159.5 -138.5t-203 -52.5q-166 0 -252 119t-86 313zM156 412q0 -175 76 -283.5t221 -108.5q99 0 186 49.5t146.5 129.5t93.5 182t34 207q0 175 -76 282 t-221 107q-99 0 -186 -49t-146.5 -128.5t-93.5 -181t-34 -206.5zM422 1135l227 317h45l146 -317h-43l-127 278l-197 -278h-51z" />
<glyph unicode="&#xf5;" horiz-adv-x="954" d="M115 412q0 113 37 222t101.5 194t159.5 137.5t203 52.5q166 0 252 -118t86 -312q0 -113 -37 -222t-101.5 -195t-159.5 -138.5t-203 -52.5q-166 0 -252 119t-86 313zM156 412q0 -175 76 -283.5t221 -108.5q99 0 186 49.5t146.5 129.5t93.5 182t34 207q0 175 -76 282 t-221 107q-99 0 -186 -49t-146.5 -128.5t-93.5 -181t-34 -206.5zM336 1192q22 180 153 180q40 0 78.5 -22.5t64.5 -50t59.5 -50t64.5 -22.5q94 0 110 143h41q-23 -182 -153 -182q-40 0 -78.5 22.5t-64.5 50t-59.5 50t-64.5 22.5q-92 0 -110 -141h-41z" />
<glyph unicode="&#xf6;" horiz-adv-x="954" d="M115 412q0 113 37 222t101.5 194t159.5 137.5t203 52.5q166 0 252 -118t86 -312q0 -113 -37 -222t-101.5 -195t-159.5 -138.5t-203 -52.5q-166 0 -252 119t-86 313zM156 412q0 -175 76 -283.5t221 -108.5q99 0 186 49.5t146.5 129.5t93.5 182t34 207q0 175 -76 282 t-221 107q-99 0 -186 -49t-146.5 -128.5t-93.5 -181t-34 -206.5zM399 1366q0 13 9.5 24t25.5 11q17 0 26 -10.5t9 -24.5t-9 -24.5t-26 -10.5q-16 0 -25.5 11t-9.5 24zM795 1366q0 13 9 24t25 11q17 0 26 -10.5t9 -24.5t-9 -24.5t-26 -10.5q-16 0 -25 11t-9 24z" />
<glyph unicode="&#xf7;" horiz-adv-x="1290" d="M231 514l5 41h1007l-4 -41h-1008zM629 152q0 14 9 24t26 10q16 0 25 -10.5t9 -23.5t-9 -24t-25 -11q-17 0 -26 10.5t-9 24.5zM764 918q0 14 9 24t26 10q16 0 25.5 -10.5t9.5 -23.5t-9.5 -24t-25.5 -11q-17 0 -26 10.5t-9 24.5z" />
<glyph unicode="&#xf8;" horiz-adv-x="954" d="M104 2l89 109q-78 112 -78 301q0 113 37 222t101.5 194t159.5 137.5t203 52.5q147 0 234 -96v2l80 98l33 -25l-86 -106h-3q80 -115 80 -303q0 -113 -37 -222t-101.5 -195t-159.5 -138.5t-203 -52.5q-148 0 -236 98v-2l-80 -99zM156 412q0 -166 65 -269v2l600 744 q-75 88 -205 88q-99 0 -186 -49t-146.5 -128.5t-93.5 -181t-34 -206.5zM246 111q78 -91 207 -91q99 0 186 49.5t146.5 129.5t93.5 182t34 207q0 165 -65 268l-602 -743v-2z" />
<glyph unicode="&#xf9;" horiz-adv-x="989" d="M135 297q0 36 10 121l78 579h41l-78 -583q-10 -82 -10 -117q0 -132 52.5 -204.5t133.5 -72.5q89 0 198.5 87.5t211.5 216.5l84 673h41l-96 -759q-6 -49 -6 -93q0 -122 55 -122q68 0 158 120l30 -26q-103 -135 -190 -135q-94 0 -94 163q0 41 10 111q-98 -118 -204.5 -197 t-197.5 -79q-101 0 -164 82t-63 235zM436 1452h47l148 -317h-43z" />
<glyph unicode="&#xfa;" horiz-adv-x="989" d="M135 297q0 36 10 121l78 579h41l-78 -583q-10 -82 -10 -117q0 -132 52.5 -204.5t133.5 -72.5q89 0 198.5 87.5t211.5 216.5l84 673h41l-96 -759q-6 -49 -6 -93q0 -122 55 -122q68 0 158 120l30 -26q-103 -135 -190 -135q-94 0 -94 163q0 41 10 111q-98 -118 -204.5 -197 t-197.5 -79q-101 0 -164 82t-63 235zM537 1135l204 317h50l-205 -317h-49z" />
<glyph unicode="&#xfb;" horiz-adv-x="989" d="M135 297q0 36 10 121l78 579h41l-78 -583q-10 -82 -10 -117q0 -132 52.5 -204.5t133.5 -72.5q89 0 198.5 87.5t211.5 216.5l84 673h41l-96 -759q-6 -49 -6 -93q0 -122 55 -122q68 0 158 120l30 -26q-103 -135 -190 -135q-94 0 -94 163q0 41 10 111q-98 -118 -204.5 -197 t-197.5 -79q-101 0 -164 82t-63 235zM360 1135l228 317h45l145 -317h-43l-127 278l-196 -278h-52z" />
<glyph unicode="&#xfc;" horiz-adv-x="989" d="M135 297q0 36 10 121l78 579h41l-78 -583q-10 -82 -10 -117q0 -132 52.5 -204.5t133.5 -72.5q89 0 198.5 87.5t211.5 216.5l84 673h41l-96 -759q-6 -49 -6 -93q0 -122 55 -122q68 0 158 120l30 -26q-103 -135 -190 -135q-94 0 -94 163q0 41 10 111q-98 -118 -204.5 -197 t-197.5 -79q-101 0 -164 82t-63 235zM371 1366q0 13 9.5 24t25.5 11q17 0 25.5 -10.5t8.5 -24.5t-8.5 -24.5t-25.5 -10.5q-16 0 -25.5 11t-9.5 24zM766 1366q0 13 9.5 24t25.5 11q17 0 26 -10.5t9 -24.5t-9 -24.5t-26 -10.5q-16 0 -25.5 11t-9.5 24z" />
<glyph unicode="&#xfd;" horiz-adv-x="837" d="M29 -352l12 37q60 -21 90 -21q63 0 106.5 41t88.5 129l86 166q-226 778 -279 995l41 4q58 -227 264 -946l467 951l41 -9l-581 -1177q-49 -101 -104.5 -148t-135.5 -47q-40 0 -96 25zM549 1135l205 317h49l-205 -317h-49z" />
<glyph unicode="&#xfe;" horiz-adv-x="944" d="M92 -352l254 1908h41l-106 -794q196 254 393 254q121 0 195.5 -93.5t74.5 -265.5q0 -129 -30 -239.5t-83 -189.5t-124 -135t-153 -83.5t-171 -27.5q-103 0 -201 34l-49 -368h-41zM186 55q84 -32 197 -32q103 0 196 41.5t165.5 119.5t115.5 200.5t43 272.5 q0 151 -63.5 234.5t-165.5 83.5q-198 0 -404 -289z" />
<glyph unicode="&#xff;" horiz-adv-x="837" d="M29 -352l12 37q60 -21 90 -21q63 0 106.5 41t88.5 129l86 166q-226 778 -279 995l41 4q58 -227 264 -946l467 951l41 -9l-581 -1177q-49 -101 -104.5 -148t-135.5 -47q-40 0 -96 25zM367 1366q0 13 9 24t25 11q17 0 26 -10.5t9 -24.5t-9 -24.5t-26 -10.5q-16 0 -25 11 t-9 24zM762 1366q0 13 9.5 24t25.5 11q17 0 25.5 -10.5t8.5 -24.5t-8.5 -24.5t-25.5 -10.5q-16 0 -25.5 11t-9.5 24z" />
<glyph unicode="&#x152;" horiz-adv-x="1624" d="M135 594q0 116 30.5 231.5t91 218.5t143 182.5t194.5 126t237 46.5q104 0 197 -13h637l-6 -40h-596l-76 -627h473l-6 -41h-473l-78 -637h617l-7 -41h-639q-119 -14 -180 -14q-178 0 -306 80t-190.5 216t-62.5 312zM176 594q0 -164 58.5 -291t177 -201.5t282.5 -74.5 q82 0 168 12l160 1307q-102 12 -191 12q-118 0 -223.5 -44t-183 -119.5t-134.5 -173.5t-85.5 -207.5t-28.5 -219.5z" />
<glyph unicode="&#x153;" horiz-adv-x="1601" d="M115 412q0 113 37 222t101.5 194t159.5 137.5t203 52.5q150 0 234 -97t98 -262q64 170 191.5 264.5t255.5 94.5q100 0 163.5 -55t63.5 -152q0 -85 -59.5 -155t-159.5 -116.5t-216 -76t-245 -43.5v-31q0 -164 82 -266.5t203 -102.5q71 0 155.5 46.5t153.5 130.5l31 -27 q-76 -92 -168 -141t-172 -49q-131 0 -221.5 100.5t-100.5 265.5q-58 -161 -177.5 -263.5t-274.5 -102.5q-166 0 -252 119t-86 313zM156 412q0 -175 76 -283.5t221 -108.5q99 0 186 49.5t146.5 129.5t93.5 182t34 207q0 175 -76 282t-221 107q-99 0 -186 -49t-146.5 -128.5 t-93.5 -181t-34 -206.5zM944 459q121 13 230 40.5t202.5 70t149 105t55.5 136.5q0 79 -52.5 122.5t-133.5 43.5q-55 0 -112.5 -20t-114.5 -63t-103.5 -102.5t-79 -146t-41.5 -186.5z" />
<glyph unicode="&#x178;" horiz-adv-x="1019" d="M152 1384l45 5l364 -771l555 771l47 -5l-585 -811l-70 -573h-41l70 573zM461 1653q0 13 9.5 24t25.5 11q17 0 25.5 -10.5t8.5 -24.5t-8.5 -24.5t-25.5 -10.5q-16 0 -25.5 11t-9.5 24zM856 1653q0 13 9.5 24t25.5 11q17 0 26 -10.5t9 -24.5t-9 -24.5t-26 -10.5 q-16 0 -25.5 11t-9.5 24z" />
<glyph unicode="&#x2000;" horiz-adv-x="910" />
<glyph unicode="&#x2001;" horiz-adv-x="1821" />
<glyph unicode="&#x2002;" horiz-adv-x="910" />
<glyph unicode="&#x2003;" horiz-adv-x="1821" />
<glyph unicode="&#x2004;" horiz-adv-x="607" />
<glyph unicode="&#x2005;" horiz-adv-x="455" />
<glyph unicode="&#x2006;" horiz-adv-x="303" />
<glyph unicode="&#x2007;" horiz-adv-x="303" />
<glyph unicode="&#x2008;" horiz-adv-x="227" />
<glyph unicode="&#x2009;" horiz-adv-x="364" />
<glyph unicode="&#x200a;" horiz-adv-x="101" />
<glyph unicode="&#x2010;" d="M68 514l4 41h440l-4 -41h-440z" />
<glyph unicode="&#x2011;" d="M68 514l4 41h440l-4 -41h-440z" />
<glyph unicode="&#x2012;" d="M68 514l4 41h440l-4 -41h-440z" />
<glyph unicode="&#x2013;" horiz-adv-x="1204" d="M135 514l6 41h926l-6 -41h-926z" />
<glyph unicode="&#x2014;" horiz-adv-x="2125" d="M135 514l6 41h1848l-7 -41h-1847z" />
<glyph unicode="&#x2018;" d="M319 1110l164 444h43l-164 -444h-43z" />
<glyph unicode="&#x2019;" horiz-adv-x="446" d="M270 1110l164 444h43l-164 -444h-43z" />
<glyph unicode="&#x201a;" d="M96 -377l164 436h43l-164 -436h-43z" />
<glyph unicode="&#x201c;" horiz-adv-x="657" d="M240 1110l163 444h43l-163 -444h-43zM512 1110l164 444h43l-164 -444h-43z" />
<glyph unicode="&#x201d;" horiz-adv-x="657" d="M240 1110l163 444h43l-163 -444h-43zM512 1110l164 444h43l-164 -444h-43z" />
<glyph unicode="&#x201e;" horiz-adv-x="788" d="M92 -377l164 436h43l-164 -436h-43zM365 -377l163 436h43l-163 -436h-43z" />
<glyph unicode="&#x2022;" horiz-adv-x="606" d="M346 522q0 19 12 33t33 14q22 0 33.5 -13t11.5 -32q0 -20 -12 -33.5t-33 -13.5q-22 0 -33.5 13t-11.5 32z" />
<glyph unicode="&#x2026;" horiz-adv-x="1191" d="M164 25q0 14 9 24t26 10q16 0 25 -10.5t9 -23.5t-9 -24t-25 -11q-17 0 -26 10.5t-9 24.5zM561 25q0 14 9 24t26 10q16 0 25.5 -10.5t9.5 -23.5t-9.5 -24t-25.5 -11q-17 0 -26 10.5t-9 24.5zM958 25q0 14 9 24t26 10q16 0 25.5 -10.5t9.5 -23.5t-9.5 -24t-25.5 -11 q-17 0 -26 10.5t-9 24.5z" />
<glyph unicode="&#x202f;" horiz-adv-x="364" />
<glyph unicode="&#x2039;" horiz-adv-x="798" d="M164 543l397 418l31 -29l-375 -393l277 -394l-37 -20z" />
<glyph unicode="&#x203a;" horiz-adv-x="641" d="M176 154l375 393l-279 393l37 21l295 -418l-399 -418z" />
<glyph unicode="&#x205f;" horiz-adv-x="455" />
<glyph unicode="&#x20ac;" horiz-adv-x="1431" d="M129 537l14 41h181l-1 20q-1 20 -1 29q0 83 16 174h-176l14 41h172q28 115 85 214.5t143 178.5t208 124.5t267 45.5q131 0 256 -50t229 -151l-18 -37q-200 197 -465 197q-135 0 -249 -42t-194.5 -115t-135 -165t-83.5 -200h952l-22 -41h-940q-19 -90 -19 -176 q0 -9 1.5 -26.5t1.5 -20.5h835l-22 -41h-809q19 -163 98 -281.5t197 -177t262 -58.5q209 0 428 127l22 -36q-223 -131 -448 -131q-238 0 -404 147.5t-196 409.5h-199z" />
<glyph unicode="&#x2122;" horiz-adv-x="1165" d="M158 559q0 87 14 180t42.5 189t76 181t108.5 151.5t147 105.5t185 39q113 0 199 -48t136 -130t74.5 -179.5t24.5 -207.5q0 -89 -14 -183t-42.5 -191.5t-76.5 -184t-109.5 -154.5t-148 -107.5t-186.5 -39.5q-91 0 -164.5 34t-122 90.5t-81.5 132.5t-47.5 156.5 t-14.5 165.5zM199 559q0 -79 13 -153.5t42.5 -145.5t73 -123.5t110.5 -84.5t150 -32q111 0 203.5 54t152.5 140.5t102 196.5t60 218t18 211q0 81 -13 154.5t-43.5 142t-75 118.5t-111.5 79.5t-150 29.5q-92 0 -172 -37t-136.5 -100.5t-100.5 -144t-70.5 -172t-39.5 -180 t-13 -171.5z" />
<glyph unicode="&#xe000;" horiz-adv-x="1003" d="M0 0v1004h1004v-1004h-1004z" />
</font>
</defs>
</svg>
