<?xml version="1.0" standalone="no"?>
<!DOCTYPE svg PUBLIC "-//W3C//DTD SVG 1.1//EN" "http://www.w3.org/Graphics/SVG/1.1/DTD/svg11.dtd" >
<svg xmlns="http://www.w3.org/2000/svg">
<metadata></metadata>
<defs>
<font id="SensibilityExtraBold" horiz-adv-x="1056" >
<font-face units-per-em="2048" ascent="1638" descent="-410" />
<missing-glyph horiz-adv-x="479" />
<glyph horiz-adv-x="0" />
<glyph horiz-adv-x="2048" />
<glyph unicode=" "  horiz-adv-x="479" />
<glyph unicode="&#x09;" horiz-adv-x="479" />
<glyph unicode="&#xa0;" horiz-adv-x="479" />
<glyph unicode="!" horiz-adv-x="530" d="M82 1386h367l-21 -952h-326zM90 154q0 72 51 124t123 52t123 -52t51 -124t-51 -123t-123 -51t-123 51t-51 123z" />
<glyph unicode="&#x22;" horiz-adv-x="892" d="M123 1546h256l-10 -573h-236zM514 1546h256l-10 -573h-236z" />
<glyph unicode="#" horiz-adv-x="1419" d="M47 367v231h244l47 193h-248v231h305l97 367h260l-93 -367h222l96 367h262l-94 -367h184v-231h-242l-47 -193h238v-231h-295l-94 -367h-264l94 367h-221l-97 -367h-262l94 367h-186zM555 598h223l45 193h-223z" />
<glyph unicode="$" horiz-adv-x="1024" d="M43 86l74 270q222 -80 362 -80q51 0 93 22t42 71q0 62 -71 86q-16 6 -193 59q-284 85 -284 317q0 135 67 240.5t203 149.5v223h315v-207q141 -22 254 -74l-71 -254q-207 64 -318 64q-45 0 -80 -19.5t-35 -62.5q0 -63 68 -84q17 -6 190 -55q153 -46 222 -127.5t69 -218.5 q0 -148 -79.5 -247.5t-219.5 -138.5v-219h-315v207q-150 17 -293 78z" />
<glyph unicode="%" horiz-adv-x="1904" d="M102 1042q0 71 24 137t69.5 120t119 86t164.5 32q90 0 162.5 -32t117.5 -86t69 -120t24 -137t-23.5 -136.5t-68.5 -118t-118 -84t-163 -31.5q-92 0 -165.5 31.5t-118.5 84t-69 118t-24 136.5zM360 1038q0 -57 31 -98t88 -41q55 0 86 41.5t31 99.5q0 60 -31 104t-86 44 t-87 -45t-32 -105zM475 0l711 1389h278l-714 -1389h-275zM1087 350q0 71 24.5 137t70 120t119 86t163.5 32t163.5 -32t118.5 -86t69 -120t24 -137t-23.5 -136.5t-68.5 -118t-118.5 -84t-164.5 -31.5t-164.5 31.5t-119 84t-69.5 118t-24 136.5zM1346 346q0 -57 30.5 -98 t87.5 -41t88 41.5t31 99.5q0 60 -32 104t-87 44t-86.5 -45t-31.5 -105z" />
<glyph unicode="&#x26;" horiz-adv-x="1447" d="M47 348q0 124 65 208.5t179 148.5q-68 75 -109 151.5t-41 167.5q0 167 126.5 278t332.5 111q205 0 332 -102.5t127 -261.5q0 -223 -301 -373l196 -164q51 80 78 147h330q-70 -180 -180 -325q45 -36 176 -131l-182 -236q-79 53 -209 150q-192 -142 -455 -142 q-92 0 -175 23.5t-148 68.5t-103.5 117.5t-38.5 163.5zM408 401q0 -70 54 -113.5t130 -43.5q75 0 149 47q-119 95 -272 239q-61 -46 -61 -129zM475 1016q0 -74 96 -172l25 12q72 35 100.5 74.5t28.5 91.5q0 47 -36.5 80t-84.5 33q-58 0 -93.5 -33.5t-35.5 -85.5z" />
<glyph unicode="'" horiz-adv-x="507" d="M123 1546h256l-10 -573h-236z" />
<glyph unicode="(" horiz-adv-x="618" d="M25 575q0 479 258 971h311q-246 -466 -246 -968q0 -493 246 -928h-311q-258 443 -258 925z" />
<glyph unicode=")" horiz-adv-x="618" d="M25 -350q245 433 245 928q0 504 -245 968h311q258 -492 258 -971q0 -482 -258 -925h-311z" />
<glyph unicode="*" horiz-adv-x="989" d="M90 1016l203 108l-201 109l111 197l186 -123l-6 239h223l-8 -239l190 123l111 -199l-203 -107l201 -110l-111 -195l-186 119l6 -240h-223l8 242l-190 -121z" />
<glyph unicode="+" horiz-adv-x="1253" d="M78 418v244h409v417h279v-417h410v-244h-410v-418h-279v418h-409z" />
<glyph unicode="," horiz-adv-x="608" d="M66 -248l135 572h350l-195 -572h-290z" />
<glyph unicode="-" horiz-adv-x="595" d="M35 397l31 285h493l-31 -285h-493z" />
<glyph unicode="." horiz-adv-x="512" d="M82 152q0 72 51 123t123 51t123 -51t51 -123t-51 -124.5t-123 -52.5t-123 52.5t-51 124.5z" />
<glyph unicode="/" horiz-adv-x="1032" d="M-27 -160l746 1706h338l-746 -1706h-338z" />
<glyph unicode="0" horiz-adv-x="1136" d="M45 494q0 108 30 199.5t81.5 157t121 111.5t148.5 68.5t164 22.5q101 0 190 -32.5t159 -94t110.5 -160.5t40.5 -223q0 -108 -29.5 -199.5t-81 -157t-120.5 -111.5t-148.5 -68.5t-165.5 -22.5q-99 0 -188 32.5t-159 94t-111.5 160.5t-41.5 223zM385 512 q0 -101 47.5 -174.5t132.5 -73.5t136 68.5t51 189.5q0 99 -49 171.5t-132 72.5t-134.5 -65.5t-51.5 -188.5z" />
<glyph unicode="1" horiz-adv-x="796" d="M43 0l23 266h180v496l-178 -10l-9 252l512 45v-783h197l-23 -266h-702z" />
<glyph unicode="2" horiz-adv-x="954" d="M41 0l16 209q174 129 344 285q125 117 125 188q0 38 -27 61t-79 23q-58 0 -115 -21t-137 -63l-107 258q82 48 189 80.5t213 32.5q173 0 282 -89t109 -247q0 -54 -19 -106.5t-43.5 -91t-71 -85.5t-77 -73.5t-85.5 -70.5q-22 -17 -32 -26h408l-23 -264h-870z" />
<glyph unicode="3" horiz-adv-x="868" d="M20 1001q168 54 351 54q191 0 305.5 -98.5t114.5 -233.5q0 -84 -49.5 -161.5t-145.5 -133.5q112 -32 169.5 -109t57.5 -176q0 -412 -766 -467l-16 285q249 13 352 64q42 21 64 53.5t22 68.5q0 52 -39.5 80.5t-117.5 28.5q-49 0 -160 -6l-10 266q131 4 204 23 q105 27 105 131q0 47 -35 71.5t-100 24.5q-103 0 -228 -35z" />
<glyph unicode="4" horiz-adv-x="1062" d="M49 0v164l420 858h405v-756h160l-22 -266h-138v-295l-292 -20v315h-533zM367 266h215v432q-26 -58 -106 -211t-109 -221z" />
<glyph unicode="5" horiz-adv-x="843" d="M27 -47q165 12 238 31q192 50 192 184q0 34 -15 60t-43.5 40.5t-59 24t-72 13t-72.5 5t-69 1.5t-54 1l26 709h666l-25 -264h-348l-8 -195q412 -24 412 -352q0 -233 -192 -374.5t-560 -168.5z" />
<glyph unicode="6" horiz-adv-x="1042" d="M57 563q0 309 175 509t561 304l84 -272q-402 -97 -482 -344q121 74 248 74q151 0 252.5 -103.5t101.5 -288.5q0 -87 -29.5 -167.5t-85 -147.5t-146.5 -107t-204 -40q-213 0 -344 148t-131 435zM387 496q0 -47 5.5 -83.5t20 -70.5t43.5 -53t72 -19q71 0 103.5 44t32.5 114 q0 69 -35.5 105t-89.5 36q-67 0 -152 -73z" />
<glyph unicode="7" horiz-adv-x="954" d="M14 758l29 264h883v-184q-106 -206 -279 -566t-278 -591l-299 104q93 202 239 500.5t238 472.5h-533z" />
<glyph unicode="8" horiz-adv-x="1017" d="M45 360q0 107 55.5 186.5t145.5 125.5q-183 104 -183 286q0 94 38.5 170.5t102.5 123.5t143.5 72.5t164.5 25.5t163.5 -24.5t142 -71t101 -121t37.5 -166.5q0 -180 -194 -285q90 -46 150.5 -127t60.5 -186q0 -98 -40 -175.5t-107.5 -125t-149.5 -72.5t-172 -25 q-70 0 -135.5 14.5t-125 45.5t-103 76t-69.5 110t-26 143zM362 387q0 -69 45 -108t105 -39q62 0 106 38.5t44 108.5q0 53 -41.5 87.5t-120.5 66.5q-67 -33 -102.5 -68.5t-35.5 -85.5zM369 950q0 -50 38 -85t111 -68q67 32 101 66t34 85q0 58 -42.5 90.5t-100.5 32.5 q-57 0 -99 -31.5t-42 -89.5z" />
<glyph unicode="9" horiz-adv-x="1042" d="M45 594q0 87 29.5 168t85 147.5t146.5 107t204 40.5q103 0 188.5 -35.5t150 -106t100.5 -183.5t36 -259q0 -310 -174.5 -509.5t-560.5 -303.5l-84 272q401 97 481 344q-119 -73 -248 -73q-151 0 -252.5 103t-101.5 288zM379 608q0 -69 35.5 -105t89.5 -36q65 0 151 74 q0 225 -141 225q-70 0 -102.5 -43.5t-32.5 -114.5z" />
<glyph unicode=":" horiz-adv-x="514" d="M82 152q0 72 51 123t123 51t123 -51t51 -123t-51 -124.5t-123 -52.5t-123 52.5t-51 124.5zM82 745q0 72 51 123.5t123 51.5t123 -51.5t51 -123.5t-51 -124t-123 -52t-123 52t-51 124z" />
<glyph unicode=";" horiz-adv-x="608" d="M66 -248l135 572h350l-195 -572h-290zM184 745q0 72 51 123.5t123 51.5t123 -51.5t51 -123.5t-51 -124t-123 -52t-123 52t-51 124z" />
<glyph unicode="&#x3c;" horiz-adv-x="1255" d="M98 444v187l1035 375v-269l-568 -198l568 -201v-268z" />
<glyph unicode="=" horiz-adv-x="1253" d="M98 199v243h1057v-243h-1057zM98 637v244h1057v-244h-1057z" />
<glyph unicode="&#x3e;" horiz-adv-x="1255" d="M98 70v268l568 201l-568 198v269l1035 -375v-187z" />
<glyph unicode="?" horiz-adv-x="1009" d="M78 1257q245 154 471 154q166 0 279.5 -112t113.5 -289q0 -53 -14.5 -101.5t-32.5 -80.5t-52.5 -68t-54 -52t-57.5 -46q-49 -39 -70 -61t-35.5 -62t-15.5 -103h-313q-12 55 -12 109q0 53 14 100t34 80.5t54.5 68t63 56t71.5 51.5q68 47 68 105q0 45 -29.5 69.5 t-73.5 24.5q-102 0 -301 -109zM293 152q0 72 51 123t123 51t123 -51t51 -123t-51 -124.5t-123 -52.5t-123 52.5t-51 124.5z" />
<glyph unicode="@" horiz-adv-x="1818" d="M113 561q0 142 36.5 268.5t100 223.5t149 174.5t185 127t205.5 75.5t212 26q140 0 266 -44t225 -126t157.5 -212.5t58.5 -291.5q0 -94 -37.5 -188t-102 -168.5t-159.5 -121t-201 -46.5q-60 0 -112 24.5t-86 67.5q-46 -44 -95 -68t-118 -24q-115 0 -191 87.5t-76 229.5 q0 124 56 233t163 178t240 69q74 0 134.5 -14t93 -29.5t73.5 -42.5l-71 -414l-2 -20q0 -30 17 -45t44 -15q47 0 78 31q45 45 71.5 113.5t26.5 150.5q0 111 -38 199t-103 142.5t-148 83t-176 28.5q-89 0 -176.5 -25.5t-167 -78.5t-140 -127.5t-96.5 -180.5t-36 -229 q0 -104 35 -194.5t104 -162t182.5 -112.5t259.5 -41q226 0 449 123l104 -185q-274 -172 -567 -172q-163 0 -300 38.5t-233 105.5t-163 159t-99 198t-32 222zM791 567q0 -92 67 -92q45 0 81.5 40.5t45.5 102.5l39 201q-29 23 -63 23q-43 0 -77 -28t-53.5 -71t-29.5 -88.5 t-10 -87.5z" />
<glyph unicode="A" horiz-adv-x="1286" d="M0 4l455 1247l-39 115l362 41l508 -1403l-373 -8l-73 225h-406l-69 -225zM512 471h248q-96 303 -129 375z" />
<glyph unicode="B" horiz-adv-x="1054" d="M82 0v1386h389q247 0 372.5 -98t125.5 -282q0 -199 -156 -301q73 -34 126.5 -124.5t53.5 -181.5q0 -203 -119 -301t-376 -98h-416zM414 274h63q86 0 131 39t45 109q0 156 -170 156h-69v-304zM414 813h53q78 0 117 40.5t39 115.5q0 64 -39.5 102.5t-108.5 38.5h-61v-297z " />
<glyph unicode="C" horiz-adv-x="1030" d="M61 692q0 113 24 217t75 196t125 160.5t181 108t236 39.5q89 0 148 -10.5t139 -36.5l-45 -285q-69 17 -110.5 23t-108.5 6q-139 0 -224 -120.5t-85 -297.5q0 -195 91.5 -302t250.5 -107q62 0 188 24l37 -276q-137 -51 -281 -51q-148 0 -269.5 54t-202.5 149.5t-125 226 t-44 282.5z" />
<glyph unicode="D" horiz-adv-x="1218" d="M102 0v1386h353q149 0 268 -35t199 -96t133.5 -147.5t77.5 -186t24 -214.5q0 -335 -168.5 -521t-503.5 -186h-383zM436 285h58q82 0 142.5 31.5t96 89.5t52 132.5t16.5 168.5q0 395 -332 395h-33v-817z" />
<glyph unicode="E" horiz-adv-x="927" d="M82 0v1386h768l-23 -282h-405v-268h371l-23 -285h-348v-268h459l-23 -283h-776z" />
<glyph unicode="F" horiz-adv-x="899" d="M82 0v1386h764l-23 -284h-401v-307h373l-23 -287h-350v-508h-340z" />
<glyph unicode="G" horiz-adv-x="1210" d="M61 692q0 113 24 217t75 196t125 160.5t181 108t236 39.5q184 0 349 -47l-45 -299q-134 43 -281 43q-81 0 -142 -32.5t-96.5 -91t-53 -132t-17.5 -162.5q0 -214 81.5 -322t270.5 -108h27v199h-156l23 287h464v-715q-64 -22 -191.5 -37.5t-232.5 -15.5q-148 0 -269.5 54 t-202.5 149.5t-125 226t-44 282.5z" />
<glyph unicode="H" horiz-adv-x="1179" d="M82 0v1386h338v-557h340v557h338v-1386h-338v553h-340v-553h-338z" />
<glyph unicode="I" horiz-adv-x="544" d="M102 0v1386h340v-1386h-340z" />
<glyph unicode="J" horiz-adv-x="878" d="M20 43l80 322q105 -41 181 -41q81 0 119 45t38 137l-2 596h-227l22 284h543l2 -890q0 -260 -113.5 -390.5t-314.5 -130.5q-153 0 -328 68z" />
<glyph unicode="K" horiz-adv-x="1169" d="M82 0v1386h340v-524l369 529l358 -11q-166 -254 -449 -616l459 -756l-383 -16l-303 510l-51 -56v-446h-340z" />
<glyph unicode="L" horiz-adv-x="874" d="M82 0v1386h340v-1103h407l-22 -283h-725z" />
<glyph unicode="M" horiz-adv-x="1601" d="M27 0l198 1266l-35 112l338 21l269 -772l252 762h323l203 -1387l-365 -10q-48 341 -94 696l-196 -563h-273l-190 573l-92 -708z" />
<glyph unicode="N" horiz-adv-x="1277" d="M37 1362l354 41l467 -795v778h318v-1376l-283 -33q-24 39 -204 343.5t-269 443.5v-764h-318v1243z" />
<glyph unicode="O" horiz-adv-x="1390" d="M61 694q0 110 23.5 213.5t74 196.5t124 162.5t180 110t235.5 40.5q285 0 458 -195.5t173 -527.5q0 -329 -169 -524t-468 -195q-285 0 -458 196.5t-173 522.5zM418 702q0 -208 74 -319t204 -111q131 0 203 115t72 315q0 193 -72.5 305.5t-204.5 112.5q-142 0 -209 -111 t-67 -307z" />
<glyph unicode="P" horiz-adv-x="1058" d="M82 0v1386h401q249 0 380.5 -113t131.5 -315q0 -221 -135.5 -338.5t-372.5 -117.5h-69v-502h-336zM418 770h69q84 0 129.5 51.5t45.5 128.5q0 64 -44.5 113t-138.5 49h-61v-342z" />
<glyph unicode="Q" horiz-adv-x="1404" d="M61 694q0 110 23.5 213t74 196t124 162t180 109.5t235.5 40.5q285 0 457 -194.5t172 -526.5q0 -181 -62 -320t-180 -222q175 -9 211 -9q62 0 142 9l-2 -275q-78 -4 -117 -4q-173 0 -334 27t-276 77h-27q-284 0 -452.5 195t-168.5 522zM416 702q0 -208 74 -319t204 -111 q131 0 203 115t72 315q0 193 -72.5 305.5t-204.5 112.5q-142 0 -209 -111t-67 -307z" />
<glyph unicode="R" horiz-adv-x="1087" d="M82 0v1386h412q245 0 373 -118.5t128 -317.5q0 -125 -57 -225.5t-174 -161.5q21 -34 159 -255t181 -298l-363 -26q-56 89 -176.5 297t-126.5 219h-20v-500h-336zM418 766h59q82 0 133.5 53t51.5 129q0 69 -47 116.5t-126 47.5h-71v-346z" />
<glyph unicode="S" horiz-adv-x="1013" d="M55 76l84 305q216 -88 342 -88q144 0 144 117q0 70 -82 106q-23 10 -53.5 20t-71.5 22t-66 20q-293 99 -293 383q0 202 123.5 326t333.5 124q93 0 193 -24.5t184 -67.5l-78 -289q-203 70 -295 70q-55 0 -93 -27.5t-38 -75.5q0 -72 80 -110q31 -13 100.5 -33t89.5 -27 q161 -54 232.5 -150.5t71.5 -262.5q0 -193 -141 -315t-359 -122q-189 0 -408 99z" />
<glyph unicode="T" horiz-adv-x="1001" d="M20 1102l23 284h936l-23 -284h-286v-1102h-340v1102h-310z" />
<glyph unicode="U" horiz-adv-x="1208" d="M82 492v894h340v-907q0 -98 47.5 -155.5t134.5 -57.5t134.5 57.5t47.5 155.5v907h340v-894q0 -246 -133.5 -379t-388.5 -133t-388.5 133t-133.5 379z" />
<glyph unicode="V" horiz-adv-x="1294" d="M23 1380l374 13q131 -482 256 -885q16 49 56.5 175.5t60 188.5t51 163t56 186.5t47.5 171.5l364 -13q-208 -640 -471 -1380h-325q-298 844 -469 1380z" />
<glyph unicode="W" horiz-adv-x="1740" d="M0 1380l358 17q57 -308 205 -914q25 95 152 594l-70 295l342 17q23 -87 100 -434.5t115 -475.5q130 583 187 918l352 -17v-6q-142 -607 -348 -1374h-379q-22 80 -76.5 296.5t-79.5 311.5q-111 -475 -149 -608h-359q-78 289 -186.5 715t-163.5 665z" />
<glyph unicode="X" horiz-adv-x="1161" d="M10 4q66 121 188.5 328.5t204.5 337.5l-387 714l375 7q113 -225 203 -383l221 385l334 -9l-397 -673q310 -531 399 -707l-375 -16q-32 63 -217 389q-102 -168 -217 -389z" />
<glyph unicode="Y" horiz-adv-x="1206" d="M-25 1382l381 9q10 -20 54.5 -112.5t71.5 -148t66.5 -130t65.5 -117.5q44 75 92 169.5t96.5 198t67.5 140.5l365 -9q-363 -651 -459 -807v-575h-342v575q-159 251 -459 807z" />
<glyph unicode="Z" horiz-adv-x="1116" d="M49 1102l21 284h983v-149q-80 -132 -172 -293.5t-219.5 -392t-147.5 -266.5h551v-285h-1010l-4 174q330 607 524 928h-526z" />
<glyph unicode="[" horiz-adv-x="608" d="M53 -350v1896h502v-289h-190v-1316h190v-291h-502z" />
<glyph unicode="\" horiz-adv-x="1032" d="M-27 1546h338l746 -1706h-338z" />
<glyph unicode="]" horiz-adv-x="608" d="M53 -59h191v1316h-191v289h502v-1896h-502v291z" />
<glyph unicode="^" horiz-adv-x="1306" d="M31 479l524 862h190l537 -862h-352l-279 461l-274 -461h-346z" />
<glyph unicode="_" horiz-adv-x="1271" d="M0 -61h1272v-275h-1272v275z" />
<glyph unicode="a" horiz-adv-x="1034" d="M41 260q0 50 8 85t30 66t57.5 52t96.5 41.5t139.5 36t192.5 32.5q0 91 -29 149t-92 58q-21 0 -40.5 -1.5t-43 -6t-37 -7t-41 -11.5t-36 -11.5t-42.5 -14t-40 -13.5l-53 248q78 37 181.5 64.5t188.5 27.5q219 0 314.5 -101t95.5 -344v-295q0 -32 9 -43.5t40 -11.5 q23 0 47 8l41 -231q-44 -20 -130 -37.5t-128 -17.5q-74 0 -112.5 25.5t-69.5 86.5q-49 -49 -116.5 -79.5t-141.5 -30.5q-125 0 -207 73t-82 203zM358 287q0 -33 20.5 -53.5t59.5 -20.5q52 0 90.5 26.5t38.5 94.5v33q-72 -3 -101.5 -5t-60 -10t-39 -23t-8.5 -42z" />
<glyph unicode="b" d="M63 1536l326 31q21 -201 21 -406v-198q45 38 112 64t123 26q184 0 276.5 -139t92.5 -379q0 -130 -41.5 -236.5t-112 -175t-161 -106t-191.5 -37.5q-107 0 -203 38l-223 19v1028q0 249 -19 471zM406 281q32 -19 88 -19q86 0 131 82t45 201q0 105 -34.5 163t-86.5 58 q-67 0 -105 -57.5t-38 -133.5v-294z" />
<glyph unicode="c" horiz-adv-x="819" d="M45 494q0 87 18.5 168t58.5 152.5t97.5 125t140.5 84.5t183 31q121 0 235 -43l-53 -271q-6 1 -37 8t-57.5 11t-50.5 4q-101 0 -148 -70.5t-47 -181.5q0 -242 188 -242q73 0 158 25l41 -246q-139 -67 -287 -67q-198 0 -319 143t-121 369z" />
<glyph unicode="d" horiz-adv-x="1107" d="M41 494q0 153 61.5 278t179.5 200t271 75q9 0 92 -5v84q0 199 -18 410l325 31q21 -201 21 -385v-867q0 -30 11 -44.5t40 -14.5q21 0 57 4l23 -246q-106 -37 -209 -37q-132 0 -195 107q-99 -109 -270 -109q-100 0 -175 37.5t-121.5 107t-69.5 163.5t-23 211zM385 483 q0 -105 34.5 -163t86.5 -58q66 0 104.5 59t38.5 132v286q-41 27 -88 27q-86 0 -131 -82t-45 -201z" />
<glyph unicode="e" horiz-adv-x="999" d="M41 504q0 142 60 267t177 204.5t267 79.5q83 0 155.5 -28.5t131 -85.5t92.5 -151t34 -215q0 -43 -8 -94l-180 -12h-397q0 -98 64.5 -151.5t162.5 -53.5q116 0 281 53l55 -258q-84 -36 -195.5 -59t-201.5 -23q-109 0 -198.5 31.5t-157 94t-105 165t-37.5 236.5zM373 664 q207 0 278 6v18q0 54 -35 86.5t-94 32.5q-57 0 -97.5 -41t-51.5 -102z" />
<glyph unicode="f" horiz-adv-x="661" d="M2 766l23 240l133 16v131q0 196 109 305t300 109q129 0 219 -64l-90 -229q-57 24 -98 24q-64 0 -89.5 -31.5t-25.5 -113.5v-131h176l-20 -256h-156v-766h-325v766h-156z" />
<glyph unicode="g" horiz-adv-x="1042" d="M0 -154q0 114 176 213q-76 62 -76 131q0 96 140 195q-100 46 -152.5 127.5t-52.5 175.5q0 69 28.5 133.5t81.5 116.5t138.5 83.5t189.5 31.5q106 0 209 -33q43 2 121 10l184 25l23 -289h-121q12 -52 12 -98q0 -149 -108 -236.5t-304 -91.5q-39 0 -61 -11t-22 -26 q0 -14 24.5 -26.5t69.5 -16.5l192 -16q139 -12 218 -79.5t79 -182.5q0 -70 -36 -134t-103 -114.5t-173 -80.5t-237 -30q-226 0 -333 63t-107 160zM315 -78q0 -24 19.5 -41t50.5 -24.5t56 -10t48 -2.5q88 0 135.5 24t47.5 58q0 22 -18.5 38.5t-55.5 19.5q-98 6 -211 18 q-72 -40 -72 -80zM356 690q0 -54 31 -92.5t86 -38.5q58 0 89.5 37.5t31.5 91.5t-32 93.5t-89 39.5q-55 0 -86 -39t-31 -92z" />
<glyph unicode="h" horiz-adv-x="1034" d="M63 1536l322 31q23 -200 23 -406v-205q86 99 217 99q124 0 211 -76.5t108 -226.5q8 -63 8 -160v-592h-325v602q0 89 -24.5 124.5t-76.5 35.5q-118 0 -118 -156v-606h-326v1065q0 311 -19 471z" />
<glyph unicode="i" horiz-adv-x="524" d="M88 1321q0 72 51 123t123 51t123 -51t51 -123t-51 -124t-123 -52t-123 52t-51 124zM98 0v1010l326 20v-1030h-326z" />
<glyph unicode="j" horiz-adv-x="524" d="M-20 -166q120 99 120 225v947l326 24v-964q0 -140 -75 -262t-185 -181zM88 1321q0 72 51 123t123 51t123 -51t51 -123t-51 -124t-123 -52t-123 52t-51 124z" />
<glyph unicode="k" horiz-adv-x="1019" d="M63 1536l326 31q21 -201 21 -406v-499q13 20 118.5 169.5t151.5 225.5l330 -68q-49 -70 -156 -210.5t-152 -205.5l330 -550l-342 -43q-49 79 -130.5 223.5t-102.5 181.5l-47 -55v-330h-328v1059q0 255 -19 477z" />
<glyph unicode="l" horiz-adv-x="604" d="M63 1536l326 31q21 -201 21 -406v-837q0 -33 11 -48.5t42 -15.5q16 0 100 19l39 -240q-89 -33 -156 -47.5t-153 -14.5q-97 0 -154 69t-57 179v834q0 255 -19 477z" />
<glyph unicode="m" horiz-adv-x="1579" d="M43 997l324 52l20 -117q43 60 109 91.5t137 31.5q73 0 139 -33t109 -94q46 60 120.5 93.5t155.5 33.5q59 0 112.5 -18t99.5 -53.5t77.5 -95t42.5 -136.5q8 -63 8 -160v-592h-326v602q0 89 -24 124.5t-76 35.5q-119 0 -119 -156v-606h-325v602q0 89 -24.5 124.5 t-76.5 35.5q-118 0 -118 -156v-606h-324v602q0 267 -41 395z" />
<glyph unicode="n" horiz-adv-x="1034" d="M43 997l324 52l20 -117q43 60 99 91.5t139 31.5q124 0 211 -76.5t108 -226.5q8 -63 8 -160v-592h-325v602q0 89 -24.5 124.5t-76.5 35.5q-118 0 -118 -156v-606h-324v602q0 267 -41 395z" />
<glyph unicode="o" d="M45 494q0 133 43.5 242t116 176.5t161.5 104t185 36.5q89 0 170.5 -32.5t147 -93.5t104.5 -160.5t39 -223.5q0 -133 -43.5 -242t-116 -176.5t-161.5 -104t-185 -36.5q-89 0 -170.5 32.5t-147 93.5t-104.5 160.5t-39 223.5zM385 512q0 -101 37 -174.5t104 -73.5 q68 0 108 68t40 190q0 99 -37.5 171.5t-104.5 72.5q-66 0 -106.5 -65.5t-40.5 -188.5z" />
<glyph unicode="p" d="M43 997l332 52l22 -117q44 58 115.5 90.5t132.5 32.5q184 0 276.5 -139t92.5 -379q0 -98 -32 -194t-88.5 -174t-145.5 -126.5t-193 -48.5q-80 0 -145 26v-370h-326v952q0 267 -41 395zM406 291q40 -27 92 -27q85 0 128.5 81.5t43.5 201.5q0 105 -34.5 163t-86.5 58 q-66 0 -104.5 -55t-38.5 -135v-287z" />
<glyph unicode="q" d="M41 500q0 130 41.5 236.5t112 175t161 106t191.5 37.5q105 0 203 -39l223 -19v-893q0 -213 18 -450l-321 -31q-2 22 -8.5 89t-8 93.5t-4 83t-2.5 119.5v84q-43 -50 -107.5 -72t-129.5 -22q-160 0 -264.5 134t-104.5 368zM385 489q0 -102 35.5 -153t89.5 -51 q66 0 102.5 57t36.5 133v268q-41 27 -88 27q-86 0 -131 -81t-45 -200z" />
<glyph unicode="r" horiz-adv-x="722" d="M43 997l324 52l20 -162q49 69 131.5 118.5t167.5 49.5l33 -310q-168 0 -239.5 -65.5t-71.5 -196.5v-483h-324v602q0 267 -41 395z" />
<glyph unicode="s" horiz-adv-x="845" d="M49 57l72 271q173 -74 287 -74q81 0 81 61q0 25 -24 42t-62.5 29t-85 25t-93 35.5t-85 55t-62.5 89t-24 132.5q0 140 105.5 234t275.5 94q169 0 322 -78l-70 -256q-162 57 -250 57q-33 0 -53.5 -14t-20.5 -33q0 -26 24 -43.5t62.5 -28t85 -22t92.5 -33.5t84.5 -54.5 t62.5 -91.5t24 -139q0 -151 -112.5 -245.5t-291.5 -94.5q-164 0 -344 82z" />
<glyph unicode="t" horiz-adv-x="743" d="M4 768l21 238l155 16v307l326 43v-350h211l-21 -254h-190v-453q0 -22 13.5 -35.5t33.5 -13.5q50 0 123 17l41 -248q-177 -55 -295 -55q-109 0 -175.5 72t-66.5 210v506h-176z" />
<glyph unicode="u" horiz-adv-x="1093" d="M82 377v645h326v-600q0 -88 26.5 -124t79.5 -36q60 0 86.5 44t26.5 112v604h325v-707q0 -30 11.5 -44.5t40.5 -14.5q21 0 57 4l18 -235q-123 -43 -215 -43q-62 0 -114 32.5t-80 87.5q-118 -127 -260 -127q-165 0 -246.5 99.5t-81.5 302.5z" />
<glyph unicode="v" d="M0 1014l336 30q142 -425 201 -565q173 510 192 563l328 -38q-203 -487 -406 -1024h-252q-163 397 -399 1034z" />
<glyph unicode="w" horiz-adv-x="1536" d="M16 1016l312 33q118 -404 172 -564l118 359l-49 153l326 37q93 -341 164 -540q85 266 149 546l312 -30l-332 -1026h-244q-87 250 -172 532l-170 -532h-250q-68 194 -172.5 516.5t-163.5 515.5z" />
<glyph unicode="x" horiz-adv-x="1005" d="M0 12q158 258 326 496l-308 510l342 26q24 -50 74.5 -139.5t81.5 -136.5q125 192 168 270l305 -22q-242 -379 -305 -467l322 -537l-338 -20l-168 293q-26 -48 -98.5 -166.5t-77.5 -126.5z" />
<glyph unicode="y" horiz-adv-x="1071" d="M0 1016l352 33q5 -15 87 -265.5t112 -326.5q30 84 60.5 185.5t69.5 241t46 165.5l344 -33q-54 -159 -184 -502q-27 -70 -94.5 -264t-114.5 -307q-31 -75 -63.5 -128.5t-78 -99.5t-107.5 -69t-140 -23q-71 0 -135 18t-103 46l74 250q54 -21 104 -21q57 0 97.5 28t50.5 87 q-73 174 -190.5 481t-186.5 504z" />
<glyph unicode="z" horiz-adv-x="913" d="M68 172l366 596h-364l10 254h766v-172l-365 -590h365v-260h-774z" />
<glyph unicode="{" horiz-adv-x="671" d="M12 598q80 71 98.5 103.5t18.5 105.5v483q0 256 240 256h262v-289h-117q-74 0 -74 -63v-420q0 -69 -19.5 -103.5t-80.5 -72.5q61 -38 80.5 -72.5t19.5 -103.5v-420q0 -63 74 -63h117v-289h-262q-240 0 -240 256v483q0 73 -18.5 105.5t-98.5 103.5z" />
<glyph unicode="|" horiz-adv-x="667" d="M176 -160v1706h316v-1706h-316z" />
<glyph unicode="}" horiz-adv-x="671" d="M41 -61h117q73 0 73 63v420q0 69 19.5 103.5t81.5 72.5q-62 38 -81.5 72.5t-19.5 103.5v420q0 63 -73 63h-117v289h262q240 0 240 -256v-483q0 -73 18 -105.5t98 -103.5q-80 -71 -98 -103.5t-18 -105.5v-483q0 -256 -240 -256h-262v289z" />
<glyph unicode="~" horiz-adv-x="1245" d="M82 340q8 192 104.5 311t255.5 119q26 0 53.5 -5t48 -10.5t52 -19.5t45.5 -20.5t50 -25t46 -23.5q80 -41 103 -41q61 0 61 139h303q-2 -199 -94.5 -314.5t-253.5 -115.5q-25 0 -47.5 2.5t-46 8.5t-38.5 10.5t-39.5 15.5t-34.5 16t-37.5 19t-34.5 18q-89 47 -127 47 q-75 0 -78 -131h-291z" />
<glyph unicode="&#xa1;" horiz-adv-x="512" d="M63 -352l21 942h326l20 -942h-367zM74 881q0 72 51 123t123 51t123 -51t51 -123t-51 -124t-123 -52t-123 52t-51 124z" />
<glyph unicode="&#xa2;" horiz-adv-x="808" d="M45 494q0 112 34.5 213t106.5 183t172 124v303h293v-268q73 -11 123 -21l-39 -283q-97 19 -125 19q-107 0 -166 -75t-59 -177q0 -97 55 -163t152 -66q78 0 143 18l39 -283q-24 -9 -123 -24v-299h-293v311q-141 48 -227 179t-86 309z" />
<glyph unicode="&#xa3;" horiz-adv-x="1024" d="M18 477l23 264h137l43 285q28 182 130.5 283.5t269.5 101.5q102 0 191 -27.5t149 -62.5l-113 -274q-110 55 -184 55q-58 0 -81.5 -27t-31.5 -86l-35 -248h229l-22 -264h-242q-32 -186 -37 -213h512l-22 -264h-909q5 18 24.5 84t24 83.5t18 68.5t19.5 79.5t14 72.5t14 89 h-121z" />
<glyph unicode="&#xa4;" horiz-adv-x="1024" d="M57 231l127 127q-30 76 -30 162q0 82 26 150l-123 125l172 172l111 -111q73 39 170 39t168 -41l115 113l172 -172l-129 -129q26 -68 26 -148q0 -83 -28 -156l131 -131l-172 -172l-125 123q-72 -32 -158 -32t-158 32l-123 -123zM397 518q0 -57 29.5 -99t83.5 -42 q53 0 82 41.5t29 99.5q0 60 -29.5 104t-81.5 44q-53 0 -83 -44t-30 -104z" />
<glyph unicode="&#xa5;" horiz-adv-x="1196" d="M45 1386h358l203 -399l199 399h346l-268 -518h204v-243h-315v-119h315v-244h-315v-262h-342v262h-317v244h317v119h-317v243h204z" />
<glyph unicode="&#xa6;" horiz-adv-x="667" d="M176 -160v674h316v-674h-316zM176 872v674h316v-674h-316z" />
<glyph unicode="&#xa7;" horiz-adv-x="1243" d="M125 625q0 84 37.5 171.5t99.5 157.5q-78 110 -78 232q0 154 115.5 266.5t306.5 112.5q170 0 420 -107l-92 -276q-32 13 -92 37.5t-82.5 32.5t-61.5 16t-80 8q-40 0 -68 -28t-28 -64q0 -19 3 -30.5t17.5 -30.5t51 -40t96.5 -47q143 -62 169 -75q147 -76 203 -189 q44 -89 44 -211q0 -84 -38.5 -173t-100.5 -159q77 -109 77 -227q0 -74 -28.5 -141.5t-81 -121t-133.5 -85t-178 -31.5q-171 0 -418 111l90 274q79 -42 170 -68t145 -26q41 0 69 27t28 63q0 38 -34.5 73.5t-135.5 72.5q-153 57 -220 99q-162 104 -187 297q-5 37 -5 79z M459 625q0 -22 4 -41t9.5 -34t18.5 -30t22 -25t31 -22.5t34 -19t40.5 -18.5t43 -17.5t49.5 -18.5q26 31 42.5 75.5t16.5 86.5q0 38 -12 68t-26.5 48.5t-45.5 37t-51 26.5t-61 23t-58 22q-57 -71 -57 -161z" />
<glyph unicode="&#xa9;" horiz-adv-x="1636" d="M94 692q0 136 46 261t133.5 226.5t229 162.5t316.5 61q141 0 260.5 -40t203.5 -108.5t143 -159.5t87.5 -193t28.5 -210t-28.5 -211t-88 -195t-143.5 -161t-203.5 -109.5t-259.5 -40.5t-259.5 40.5t-204 109.5t-144.5 161t-88.5 195t-28.5 211zM295 692q0 -102 33.5 -195 t97 -168t165.5 -120t228 -45t228 45t165.5 120t97 168t33.5 195q0 99 -33.5 190.5t-96.5 166t-165.5 119t-228.5 44.5q-102 0 -189 -29.5t-148 -79.5t-103.5 -116.5t-63 -141t-20.5 -153.5zM442 694q0 109 43.5 201.5t134.5 152.5t214 60q49 0 83 -6t111 -25l-37 -182l-26 4 q-78 19 -117 19q-84 0 -131 -63.5t-47 -160.5q0 -102 50 -155.5t146 -53.5q41 0 131 23l21 -191q-41 -16 -73 -23t-50 -8t-61 -1q-173 0 -282.5 116t-109.5 293z" />
<glyph unicode="&#xaa;" horiz-adv-x="819" d="M90 985q0 70 26.5 107t100 62.5t229.5 49.5q0 129 -73 129q-63 0 -168 -37l-31 -10l-39 180q56 26 129 46t133 20q154 0 220.5 -69.5t66.5 -237.5v-201q0 -20 4.5 -26.5t20.5 -6.5q13 0 39 13l28 -160l2 -15q-34 -15 -94.5 -28t-89.5 -13q-51 0 -77.5 17.5t-47.5 54.5 q-84 -69 -174 -69q-89 0 -147 51.5t-58 142.5zM322 1012q0 -54 36 -54q91 0 91 78v17q-82 -3 -104.5 -9t-22.5 -32z" />
<glyph unicode="&#xab;" horiz-adv-x="1120" d="M43 547l379 469l182 -154l-244 -315l244 -320l-182 -149zM489 547l379 469l187 -150l-246 -319l246 -320l-187 -149z" />
<glyph unicode="&#xac;" horiz-adv-x="1253" d="M104 420v244h1047v-537h-281v293h-766z" />
<glyph unicode="&#xad;" horiz-adv-x="595" d="M35 397l31 285h493l-31 -285h-493z" />
<glyph unicode="&#xae;" horiz-adv-x="1636" d="M94 692q0 136 46 261t133.5 226.5t229 162.5t316.5 61q141 0 260.5 -40t203.5 -108.5t143 -159.5t87.5 -193t28.5 -210t-28.5 -211t-88 -195t-143.5 -161t-203.5 -109.5t-259.5 -40.5t-259.5 40.5t-204 109.5t-144.5 161t-88.5 195t-28.5 211zM295 692q0 -102 33.5 -195 t97 -168t165.5 -120t228 -45t228 45t165.5 120t97 168t33.5 195q0 99 -33.5 190.5t-96.5 166t-165.5 119t-228.5 44.5q-102 0 -189 -29.5t-148 -79.5t-103.5 -116.5t-63 -141t-20.5 -153.5zM539 295v797h276q144 0 218.5 -67t74.5 -183q0 -175 -137 -236q28 -47 86.5 -154 t89.5 -157h-250l-145 278v-278h-213zM752 743h43q40 0 64 27.5t24 65.5q0 34 -21 58t-59 24h-51v-175z" />
<glyph unicode="&#xb0;" horiz-adv-x="892" d="M82 1114q0 86 31 156.5t82.5 114.5t115.5 68t133 24q93 0 175 -40t137 -124.5t55 -198.5q0 -87 -32 -158t-84.5 -114.5t-117 -66.5t-133.5 -23t-133 23.5t-115.5 67t-82.5 114t-31 157.5zM324 1114q0 -56 35.5 -94.5t86.5 -38.5q50 0 85.5 40t35.5 95q0 54 -35 90.5 t-86 36.5t-86.5 -37.5t-35.5 -91.5z" />
<glyph unicode="&#xb1;" horiz-adv-x="1253" d="M78 705v243h409v377h279v-377h410v-243h-410v-377h-279v377h-409zM98 0v244h1057v-244h-1057z" />
<glyph unicode="&#xb2;" horiz-adv-x="792" d="M70 596l14 172q3 3 40 41t55.5 57.5t57 61.5t63 71.5t51.5 68t44 69.5q27 53 27 86q0 49 -47 49q-62 0 -152 -80l-133 213q77 69 168.5 106t179.5 37q125 0 207 -72t82 -206q0 -109 -59 -211.5t-166 -210.5h295l-23 -252h-704z" />
<glyph unicode="&#xb3;" horiz-adv-x="712" d="M66 655l86 217q98 -36 198 -36q31 0 48.5 19t17.5 44t-17 42t-49 17h-119v209h107q29 0 46 18.5t17 43.5t-16 42t-47 17q-69 0 -180 -39l-82 215q164 82 336 82q136 0 207 -70t71 -169q0 -65 -30.5 -123t-86.5 -92q144 -61 144 -218q0 -134 -97 -213t-233 -79 q-178 0 -321 73z" />
<glyph unicode="&#xb5;" horiz-adv-x="1083" d="M61 -350q21 380 21 762v317q0 47 -3 148t-3 143h325q0 -19 3.5 -123t3.5 -170v-303q0 -162 106 -162q60 0 86.5 44t26.5 112v602h325v-705q0 -30 11.5 -44.5t40.5 -14.5q21 0 57 4l18 -235q-123 -43 -215 -43q-60 0 -98.5 19.5t-75.5 68.5q-28 -44 -75.5 -67t-100.5 -23 q-90 0 -141 57l8 -174l6 -213h-326z" />
<glyph unicode="&#xb6;" horiz-adv-x="1351" d="M41 942q0 85 30.5 163t88.5 141.5t153.5 101.5t214.5 38h766v-282h-129v-1454h-286v1454h-142v-1454h-284v846q-101 12 -181.5 54.5t-130 104.5t-75 135t-25.5 152z" />
<glyph unicode="&#xb7;" horiz-adv-x="512" d="M82 539q0 72 51 123t123 51t123 -51t51 -123t-51 -124.5t-123 -52.5t-123 52.5t-51 124.5z" />
<glyph unicode="&#xb9;" horiz-adv-x="671" d="M92 598l19 242h129v454l-127 -8l-11 232l424 36v-714h148l-21 -242h-561z" />
<glyph unicode="&#xba;" horiz-adv-x="825" d="M74 1143q0 92 30.5 167t80.5 121.5t111.5 71.5t127.5 25q132 0 225.5 -92t93.5 -260q0 -92 -30.5 -167t-80.5 -121.5t-111.5 -71.5t-127.5 -25q-132 0 -225.5 92t-93.5 260zM322 1155q0 -65 22.5 -112.5t61.5 -47.5q42 0 67 45t25 121q0 64 -23 111t-65 47 q-39 0 -63.5 -42.5t-24.5 -121.5z" />
<glyph unicode="&#xbb;" horiz-adv-x="1120" d="M43 227l246 320l-246 319l186 150l379 -469l-379 -469zM494 227l243 320l-243 315l182 154l379 -469l-379 -469z" />
<glyph unicode="&#xbc;" horiz-adv-x="1880" d="M94 596l19 242h129v454l-127 -8l-11 232l424 36v-714h148l-21 -242h-561zM426 0l797 1544h266l-799 -1544h-264zM1018 188v166l309 582h375v-524h123l-21 -224h-102v-188h-266v188h-418zM1274 412h164v313z" />
<glyph unicode="&#xbd;" horiz-adv-x="1880" d="M53 598l19 242h129v454l-127 -8l-11 232l424 36v-714h148l-21 -242h-561zM385 0l797 1544h266l-799 -1544h-264zM1106 0l14 172q5 5 40 41t55.5 57t58 62t62.5 71.5t52 68.5t44 69q26 51 26 86q0 49 -47 49q-61 0 -151 -80l-134 213q76 69 168.5 106t180.5 37 q125 0 206.5 -72t81.5 -206q0 -109 -59 -211.5t-166 -210.5h295l-23 -252h-704z" />
<glyph unicode="&#xbe;" horiz-adv-x="1880" d="M106 655l87 217q98 -36 198 -36q31 0 48.5 19t17.5 44t-17 42t-49 17h-119v209h107q29 0 46 18.5t17 43.5t-16 42t-47 17q-69 0 -180 -39l-82 215q164 82 336 82q136 0 207 -70t71 -169q0 -65 -30.5 -123t-86.5 -92q144 -61 144 -218q0 -134 -97 -213t-233 -79 q-179 0 -322 73zM426 0l797 1544h266l-799 -1544h-264zM1018 188v166l309 582h375v-524h123l-21 -224h-102v-188h-266v188h-418zM1274 412h164v313z" />
<glyph unicode="&#xbf;" horiz-adv-x="1009" d="M66 25q0 39 8 75t17 62t30 55t33.5 45t41.5 41.5t39 33.5t41 32q50 39 70.5 60.5t35 61.5t15.5 103h314q12 -55 12 -109q0 -53 -14.5 -100t-33.5 -79t-55.5 -67t-62.5 -55t-72 -51q-67 -46 -67 -104q0 -45 29 -70t73 -25q102 0 301 109l109 -266q-245 -154 -471 -154 q-166 0 -279.5 112.5t-113.5 289.5zM367 879q0 72 51 124t123 52t123 -52t51 -124t-51 -123t-123 -51t-123 51t-51 123z" />
<glyph unicode="&#xc0;" horiz-adv-x="1286" d="M0 0l455 1247l-39 115l362 41l508 -1403l-373 -8l-73 225h-406l-69 -225zM182 1796h402l180 -317h-285zM512 467h248q-96 303 -129 375z" />
<glyph unicode="&#xc1;" horiz-adv-x="1286" d="M0 0l455 1247l-39 115l362 41l508 -1403l-373 -8l-73 225h-406l-69 -225zM440 1479l181 317h401l-297 -317h-285zM512 467h248q-96 303 -129 375z" />
<glyph unicode="&#xc2;" horiz-adv-x="1286" d="M0 0l455 1247l-39 115l362 41l508 -1403l-373 -8l-73 225h-406l-69 -225zM258 1479l188 317h371l189 -317h-267l-106 125l-107 -125h-268zM512 467h248q-96 303 -129 375z" />
<glyph unicode="&#xc3;" horiz-adv-x="1286" d="M0 0l455 1247l-39 115l362 41l508 -1403l-373 -8l-73 225h-406l-69 -225zM250 1479v82q0 114 60.5 177.5t164.5 63.5q48 0 107 -23.5t107.5 -47t70.5 -23.5q53 0 53 72v18h199v-82q0 -114 -61 -177.5t-165 -63.5q-48 0 -107.5 23.5t-108 47t-68.5 23.5q-53 0 -53 -72v-18 h-199zM512 467h248q-96 303 -129 375z" />
<glyph unicode="&#xc4;" horiz-adv-x="1286" d="M0 0l455 1247l-39 115l362 41l508 -1403l-373 -8l-73 225h-406l-69 -225zM250 1638q0 64 46.5 110t111.5 46q64 0 109.5 -45.5t45.5 -110.5t-45.5 -111t-109.5 -46q-65 0 -111.5 46.5t-46.5 110.5zM512 467h248q-96 303 -129 375zM700 1638q0 64 46.5 110t111.5 46 q64 0 110 -46t46 -110q0 -65 -46 -111t-110 -46q-65 0 -111.5 46.5t-46.5 110.5z" />
<glyph unicode="&#xc5;" horiz-adv-x="1286" d="M0 0l455 1247l-39 115l362 41l508 -1403l-373 -8l-73 225h-406l-69 -225zM414 1653q0 89 62.5 151t150.5 62q91 0 154 -63t63 -152q0 -91 -64 -155t-153 -64q-88 0 -150.5 65t-62.5 156zM512 467h248q-96 303 -129 375zM537 1649q0 -41 28 -71t66 -30t65 30.5t27 72.5 q0 41 -26.5 68.5t-65.5 27.5t-66.5 -28.5t-27.5 -69.5z" />
<glyph unicode="&#xc6;" horiz-adv-x="1779" d="M10 0l768 1294v92h924l-23 -282h-405v-268h371l-23 -285h-348v-268h459l-23 -283h-776v266h-402l-157 -280zM680 522h254v445z" />
<glyph unicode="&#xc7;" horiz-adv-x="1030" d="M61 692q0 113 24 217t75 196t125 160.5t181 108t236 39.5q89 0 148 -10.5t139 -36.5l-45 -285q-69 17 -110.5 23t-108.5 6q-139 0 -224 -120.5t-85 -297.5q0 -195 91.5 -302t250.5 -107q62 0 188 24l37 -276q-126 -47 -332 -47l-12 -25l16 -4q140 -36 140 -158 q0 -70 -60.5 -122t-171.5 -52q-125 0 -229 55l51 111q65 -25 104 -25q30 0 46 15t16 33q0 25 -22 41t-78 26l-23 4l59 127q-202 67 -314 250t-112 432z" />
<glyph unicode="&#xc8;" horiz-adv-x="927" d="M82 0v1386h768l-23 -282h-405v-268h371l-23 -285h-348v-268h459l-23 -283h-776zM106 1796h402l180 -317h-285z" />
<glyph unicode="&#xc9;" horiz-adv-x="927" d="M82 0v1386h768l-23 -282h-405v-268h371l-23 -285h-348v-268h459l-23 -283h-776zM295 1479l180 317h402l-297 -317h-285z" />
<glyph unicode="&#xca;" horiz-adv-x="927" d="M82 0v1386h768l-23 -282h-405v-268h371l-23 -285h-348v-268h459l-23 -283h-776zM86 1479l188 317h371l189 -317h-267l-106 125l-107 -125h-268z" />
<glyph unicode="&#xcb;" horiz-adv-x="927" d="M82 0v1386h768l-23 -282h-405v-268h371l-23 -285h-348v-268h459l-23 -283h-776zM88 1636q0 64 46.5 110t111.5 46q64 0 109.5 -45.5t45.5 -110.5t-45.5 -111t-109.5 -46q-65 0 -111.5 46.5t-46.5 110.5zM539 1636q0 64 46 110t111 46q64 0 110 -46t46 -110 q0 -65 -46 -111t-110 -46t-110.5 46.5t-46.5 110.5z" />
<glyph unicode="&#xcc;" horiz-adv-x="526" d="M-154 1798h402l180 -317h-285zM102 0v1386h340v-1386h-340z" />
<glyph unicode="&#xcd;" horiz-adv-x="544" d="M102 0v1386h340v-1386h-340zM102 1479l181 317h401l-297 -317h-285z" />
<glyph unicode="&#xce;" horiz-adv-x="544" d="M-106 1479l188 317h371l188 -317h-266l-107 125l-106 -125h-268zM102 0v1386h340v-1386h-340z" />
<glyph unicode="&#xcf;" horiz-adv-x="544" d="M-117 1636q0 64 46.5 110t111.5 46t110.5 -46t45.5 -110q0 -65 -46 -111t-110 -46q-65 0 -111.5 46.5t-46.5 110.5zM102 0v1386h340v-1386h-340zM334 1636q0 64 46.5 110t111.5 46q64 0 109.5 -45.5t45.5 -110.5t-45.5 -111t-109.5 -46q-65 0 -111.5 46.5t-46.5 110.5z " />
<glyph unicode="&#xd0;" horiz-adv-x="1208" d="M-39 555v264h129v567h352q149 0 268 -35t199.5 -96t134 -147.5t77.5 -186t24 -214.5q0 -335 -168.5 -521t-503.5 -186h-383v555h-129zM424 285h57q82 0 142 31.5t95 89.5t51.5 132.5t16.5 168.5q0 189 -83 292t-232 103h-47v-283h192v-264h-192v-270z" />
<glyph unicode="&#xd1;" horiz-adv-x="1277" d="M37 1362l354 41l467 -795v778h318v-1376l-283 -33q-24 39 -204 343.5t-269 443.5v-764h-318v1243zM195 1479v82q0 114 60.5 177.5t164.5 63.5q48 0 107 -23.5t107.5 -47t70.5 -23.5q53 0 53 72v18h198v-82q0 -114 -60.5 -177.5t-164.5 -63.5q-48 0 -107.5 23.5t-108.5 47 t-69 23.5q-53 0 -53 -72v-18h-198z" />
<glyph unicode="&#xd2;" horiz-adv-x="1390" d="M61 694q0 110 23.5 213.5t74 196.5t124 162.5t180 110t235.5 40.5q285 0 458 -195.5t173 -527.5q0 -329 -169 -524t-468 -195q-285 0 -458 196.5t-173 522.5zM264 1796h402l180 -317h-285zM418 702q0 -208 74 -319t204 -111q131 0 203 115t72 315q0 193 -72.5 305.5 t-204.5 112.5q-142 0 -209 -111t-67 -307z" />
<glyph unicode="&#xd3;" horiz-adv-x="1390" d="M61 694q0 110 23.5 213.5t74 196.5t124 162.5t180 110t235.5 40.5q285 0 458 -195.5t173 -527.5q0 -329 -169 -524t-468 -195q-285 0 -458 196.5t-173 522.5zM418 702q0 -208 74 -319t204 -111q131 0 203 115t72 315q0 193 -72.5 305.5t-204.5 112.5q-142 0 -209 -111 t-67 -307zM528 1477l181 317h401l-297 -317h-285z" />
<glyph unicode="&#xd4;" horiz-adv-x="1390" d="M61 694q0 110 23.5 213.5t74 196.5t124 162.5t180 110t235.5 40.5q285 0 458 -195.5t173 -527.5q0 -329 -169 -524t-468 -195q-285 0 -458 196.5t-173 522.5zM319 1479l189 317h371l188 -317h-266l-107 125l-106 -125h-269zM418 702q0 -208 74 -319t204 -111 q131 0 203 115t72 315q0 193 -72.5 305.5t-204.5 112.5q-142 0 -209 -111t-67 -307z" />
<glyph unicode="&#xd5;" horiz-adv-x="1390" d="M61 694q0 110 23.5 213.5t74 196.5t124 162.5t180 110t235.5 40.5q285 0 458 -195.5t173 -527.5q0 -329 -169 -524t-468 -195q-285 0 -458 196.5t-173 522.5zM311 1477v82q0 114 61 177.5t165 63.5q48 0 106.5 -23.5t107 -47t70.5 -23.5q53 0 53 72v18h199v-82 q0 -114 -60.5 -177.5t-164.5 -63.5q-48 0 -107.5 23.5t-108.5 47t-69 23.5q-53 0 -53 -72v-18h-199zM418 702q0 -208 74 -319t204 -111q131 0 203 115t72 315q0 193 -72.5 305.5t-204.5 112.5q-142 0 -209 -111t-67 -307z" />
<glyph unicode="&#xd6;" horiz-adv-x="1390" d="M61 694q0 110 23.5 213.5t74 196.5t124 162.5t180 110t235.5 40.5q285 0 458 -195.5t173 -527.5q0 -329 -169 -524t-468 -195q-285 0 -458 196.5t-173 522.5zM305 1638q0 64 46.5 110t111.5 46q64 0 109.5 -45.5t45.5 -110.5t-45.5 -111t-109.5 -46q-65 0 -111.5 46.5 t-46.5 110.5zM418 702q0 -208 74 -319t204 -111q131 0 203 115t72 315q0 193 -72.5 305.5t-204.5 112.5q-142 0 -209 -111t-67 -307zM756 1638q0 64 46 110t111 46t110.5 -46t45.5 -110q0 -65 -46 -111t-110 -46q-65 0 -111 46.5t-46 110.5z" />
<glyph unicode="&#xd7;" horiz-adv-x="1253" d="M156 258l280 281l-280 282l172 172l280 -280l283 280l172 -172l-281 -282l281 -281l-172 -172l-283 281l-280 -281z" />
<glyph unicode="&#xd8;" horiz-adv-x="1390" d="M61 692q0 110 23.5 213t74 196t124 162t180 109.5t235.5 40.5q156 0 289 -65l92 133l213 -150l-104 -153q141 -190 141 -486q0 -329 -169 -523t-468 -194q-155 0 -286 64l-89 -129l-215 147l103 148q-144 193 -144 487zM418 692q0 -86 12 -157l377 548q-52 25 -113 25 q-276 0 -276 -416zM580 291q49 -27 116 -27q134 0 205.5 113.5t71.5 314.5q0 84 -15 152z" />
<glyph unicode="&#xd9;" horiz-adv-x="1208" d="M82 492v894h340v-907q0 -98 47.5 -155.5t134.5 -57.5t134.5 57.5t47.5 155.5v907h340v-894q0 -246 -133.5 -379t-388.5 -133t-388.5 133t-133.5 379zM170 1796h401l181 -317h-285z" />
<glyph unicode="&#xda;" horiz-adv-x="1208" d="M82 492v894h340v-907q0 -98 47.5 -155.5t134.5 -57.5t134.5 57.5t47.5 155.5v907h340v-894q0 -246 -133.5 -379t-388.5 -133t-388.5 133t-133.5 379zM463 1479l180 317h401l-296 -317h-285z" />
<glyph unicode="&#xdb;" horiz-adv-x="1208" d="M82 492v894h340v-907q0 -98 47.5 -155.5t134.5 -57.5t134.5 57.5t47.5 155.5v907h340v-894q0 -246 -133.5 -379t-388.5 -133t-388.5 133t-133.5 379zM227 1479l189 317h370l189 -317h-266l-107 125l-106 -125h-269z" />
<glyph unicode="&#xdc;" horiz-adv-x="1208" d="M82 492v894h340v-907q0 -98 47.5 -155.5t134.5 -57.5t134.5 57.5t47.5 155.5v907h340v-894q0 -246 -133.5 -379t-388.5 -133t-388.5 133t-133.5 379zM225 1638q0 64 46.5 110t111.5 46t110.5 -46t45.5 -110q0 -65 -46 -111t-110 -46q-65 0 -111.5 46.5t-46.5 110.5z M676 1638q0 64 46.5 110t111.5 46q64 0 109.5 -45.5t45.5 -110.5t-45.5 -111t-109.5 -46q-65 0 -111.5 46.5t-46.5 110.5z" />
<glyph unicode="&#xdd;" horiz-adv-x="1206" d="M-25 1382l381 9q10 -20 54.5 -112.5t71.5 -148t66.5 -130t65.5 -117.5q44 75 92 169.5t96.5 198t67.5 140.5l365 -9q-363 -651 -459 -807v-575h-342v575q-159 251 -459 807zM434 1479l180 317h402l-297 -317h-285z" />
<glyph unicode="&#xde;" horiz-adv-x="1101" d="M90 0v1386h336v-221h106q249 0 380.5 -113t131.5 -315q0 -221 -135 -338.5t-372 -117.5h-111v-281h-336zM426 549h111q83 0 124 51t41 129q0 65 -40.5 113.5t-133.5 48.5h-102v-342z" />
<glyph unicode="&#xdf;" horiz-adv-x="1163" d="M45 0v1108q0 193 129 319.5t348 126.5q112 0 201 -30.5t144.5 -83.5t84.5 -121t29 -145q0 -68 -18.5 -125t-44.5 -94t-52 -67t-44.5 -58t-18.5 -54q0 -19 23.5 -39t59 -38.5t77 -49.5t77 -67.5t59 -95.5t23.5 -130q0 -176 -115.5 -272t-289.5 -96q-137 0 -268 55l49 272 q103 -39 176 -39q112 0 112 80q0 25 -23.5 50t-58.5 45t-75.5 49t-75.5 60.5t-58.5 82t-23.5 111.5q0 57 18 106t43.5 84t51 67.5t43.5 69.5t18 76q0 64 -36 94.5t-91 30.5q-70 0 -107.5 -49.5t-37.5 -136.5v-1096h-328z" />
<glyph unicode="&#xe0;" horiz-adv-x="1034" d="M41 260q0 50 8 85t30 66t57.5 52t96.5 41.5t139.5 36t192.5 32.5q0 91 -29 149t-92 58q-21 0 -40.5 -1.5t-43 -6t-37 -7t-41 -11.5t-36 -11.5t-42.5 -14t-40 -13.5l-53 248q78 37 181.5 64.5t188.5 27.5q219 0 314.5 -101t95.5 -344v-295q0 -32 9 -43.5t40 -11.5 q23 0 47 8l39 -221l2 -10q-44 -20 -130 -37.5t-128 -17.5q-74 0 -112.5 25.5t-69.5 86.5q-49 -49 -116.5 -79.5t-141.5 -30.5q-125 0 -207 73t-82 203zM115 1452h401l180 -317h-284zM358 299q0 -40 18 -63t50 -23q141 0 141 121v33q-130 -5 -169.5 -15.5t-39.5 -52.5z" />
<glyph unicode="&#xe1;" horiz-adv-x="1034" d="M41 260q0 50 8 85t30 66t57.5 52t96.5 41.5t139.5 36t192.5 32.5q0 91 -29 149t-92 58q-21 0 -40.5 -1.5t-43 -6t-37 -7t-41 -11.5t-36 -11.5t-42.5 -14t-40 -13.5l-53 248q78 37 181.5 64.5t188.5 27.5q219 0 314.5 -101t95.5 -344v-295q0 -32 9 -43.5t40 -11.5 q23 0 47 8l39 -221l2 -10q-44 -20 -130 -37.5t-128 -17.5q-74 0 -112.5 25.5t-69.5 86.5q-49 -49 -116.5 -79.5t-141.5 -30.5q-125 0 -207 73t-82 203zM358 299q0 -40 18 -63t50 -23q141 0 141 121v33q-130 -5 -169.5 -15.5t-39.5 -52.5zM360 1135l181 317h401l-297 -317 h-285z" />
<glyph unicode="&#xe2;" horiz-adv-x="1034" d="M41 260q0 50 8 85t30 66t57.5 52t96.5 41.5t139.5 36t192.5 32.5q0 91 -29 149t-92 58q-21 0 -40.5 -1.5t-43 -6t-37 -7t-41 -11.5t-36 -11.5t-42.5 -14t-40 -13.5l-53 248q78 37 181.5 64.5t188.5 27.5q219 0 314.5 -101t95.5 -344v-295q0 -32 9 -43.5t40 -11.5 q23 0 47 8l39 -221l2 -10q-44 -20 -130 -37.5t-128 -17.5q-74 0 -112.5 25.5t-69.5 86.5q-49 -49 -116.5 -79.5t-141.5 -30.5q-125 0 -207 73t-82 203zM133 1135l189 317h370l189 -317h-267l-106 125l-107 -125h-268zM358 299q0 -40 18 -63t50 -23q141 0 141 121v33 q-130 -5 -169.5 -15.5t-39.5 -52.5z" />
<glyph unicode="&#xe3;" horiz-adv-x="1034" d="M41 260q0 50 8 85t30 66t57.5 52t96.5 41.5t139.5 36t192.5 32.5q0 91 -29 149t-92 58q-21 0 -40.5 -1.5t-43 -6t-37 -7t-41 -11.5t-36 -11.5t-42.5 -14t-40 -13.5l-53 248q78 37 181.5 64.5t188.5 27.5q219 0 314.5 -101t95.5 -344v-295q0 -32 9 -43.5t40 -11.5 q23 0 47 8l39 -221l2 -10q-44 -20 -130 -37.5t-128 -17.5q-74 0 -112.5 25.5t-69.5 86.5q-49 -49 -116.5 -79.5t-141.5 -30.5q-125 0 -207 73t-82 203zM119 1135v82q0 114 60.5 177.5t164.5 63.5q48 0 107 -23.5t107.5 -47t70.5 -23.5q53 0 53 72v18h199v-82 q0 -114 -61 -178t-165 -64q-48 0 -107.5 24t-108 47.5t-68.5 23.5q-54 0 -54 -72v-18h-198zM358 299q0 -40 18 -63t50 -23q141 0 141 121v33q-130 -5 -169.5 -15.5t-39.5 -52.5z" />
<glyph unicode="&#xe4;" horiz-adv-x="1034" d="M41 260q0 50 8 85t30 66t57.5 52t96.5 41.5t139.5 36t192.5 32.5q0 91 -29 149t-92 58q-21 0 -40.5 -1.5t-43 -6t-37 -7t-41 -11.5t-36 -11.5t-42.5 -14t-40 -13.5l-53 248q78 37 181.5 64.5t188.5 27.5q219 0 314.5 -101t95.5 -344v-295q0 -32 9 -43.5t40 -11.5 q23 0 47 8l39 -221l2 -10q-44 -20 -130 -37.5t-128 -17.5q-74 0 -112.5 25.5t-69.5 86.5q-49 -49 -116.5 -79.5t-141.5 -30.5q-125 0 -207 73t-82 203zM125 1313q0 64 46.5 109.5t111.5 45.5t110 -45t45 -110t-45.5 -111.5t-109.5 -46.5q-65 0 -111.5 46.5t-46.5 111.5z M358 299q0 -40 18 -63t50 -23q141 0 141 121v33q-130 -5 -169.5 -15.5t-39.5 -52.5zM575 1313q0 64 46.5 109.5t111.5 45.5t110.5 -45.5t45.5 -109.5q0 -65 -46 -111.5t-110 -46.5q-65 0 -111.5 46.5t-46.5 111.5z" />
<glyph unicode="&#xe5;" horiz-adv-x="1034" d="M41 260q0 50 8 85t30 66t57.5 52t96.5 41.5t139.5 36t192.5 32.5q0 91 -29 149t-92 58q-21 0 -40.5 -1.5t-43 -6t-37 -7t-41 -11.5t-36 -11.5t-42.5 -14t-40 -13.5l-53 248q78 37 181.5 64.5t188.5 27.5q219 0 314.5 -101t95.5 -344v-295q0 -32 9 -43.5t40 -11.5 q23 0 47 8l39 -221l2 -10q-44 -20 -130 -37.5t-128 -17.5q-74 0 -112.5 25.5t-69.5 86.5q-49 -49 -116.5 -79.5t-141.5 -30.5q-125 0 -207 73t-82 203zM299 1329q0 89 62.5 151t150.5 62q91 0 154 -63t63 -152q0 -91 -64 -155t-153 -64q-88 0 -150.5 65t-62.5 156zM358 299 q0 -40 18 -63t50 -23q141 0 141 121v33q-130 -5 -169.5 -15.5t-39.5 -52.5zM422 1325q0 -41 28 -70.5t66 -29.5t65 30t27 72q0 41 -26.5 68.5t-65.5 27.5t-66.5 -28.5t-27.5 -69.5z" />
<glyph unicode="&#xe6;" horiz-adv-x="1517" d="M41 274q0 64 17.5 110t62.5 87t129.5 69.5t212.5 47.5l112 14q-15 178 -124 178q-18 0 -37.5 -1.5t-34 -3.5t-36 -7t-33 -8t-35.5 -10.5t-33 -10.5t-36.5 -12t-35.5 -12l-53 248q78 37 181.5 64.5t188.5 27.5q223 0 297 -107q126 107 279 107q83 0 156 -28.5t131.5 -83.5 t92.5 -145t34 -204q0 -42 -9 -113l-565 -51q17 -81 74 -123.5t141 -42.5q116 0 281 53l55 -258q-84 -36 -195.5 -59t-201.5 -23q-220 0 -334 132q-144 -125 -352 -125q-148 0 -239 84t-91 206zM350 299q0 -40 24.5 -63t69.5 -23q21 0 41 5t43 18t36.5 42t13.5 70v53l-74 -6 q-75 -4 -114.5 -30.5t-39.5 -65.5zM901 633l268 22q0 75 -32.5 113.5t-87.5 38.5t-94.5 -48.5t-53.5 -125.5z" />
<glyph unicode="&#xe7;" horiz-adv-x="819" d="M45 494q0 87 18.5 168t58.5 152.5t97.5 125t140.5 84.5t183 31q121 0 235 -43l-53 -271q-6 1 -37 8t-57.5 11t-50.5 4q-101 0 -148 -70.5t-47 -181.5q0 -242 188 -242q73 0 158 25l41 -246q-100 -49 -252 -57l-16 -33q82 -21 125 -62.5t43 -99.5q0 -70 -60.5 -122 t-171.5 -52q-125 0 -229 55l51 111q65 -25 105 -25q29 0 45 15t16 33q0 25 -22 41t-78 26l-23 4l53 117q-145 41 -229 174.5t-84 319.5z" />
<glyph unicode="&#xe8;" horiz-adv-x="999" d="M41 504q0 142 60 267t177 204.5t267 79.5q83 0 155.5 -28.5t131 -85.5t92.5 -151t34 -215q0 -43 -8 -94l-180 -12h-397q0 -98 64.5 -151.5t162.5 -53.5q116 0 281 53l55 -258q-84 -36 -195.5 -59t-201.5 -23q-109 0 -198.5 31.5t-157 94t-105 165t-37.5 236.5zM104 1452 h402l180 -317h-285zM373 664q207 0 278 6v18q0 54 -35 86.5t-94 32.5q-57 0 -97.5 -41t-51.5 -102z" />
<glyph unicode="&#xe9;" horiz-adv-x="999" d="M41 504q0 142 60 267t177 204.5t267 79.5q83 0 155.5 -28.5t131 -85.5t92.5 -151t34 -215q0 -43 -8 -94l-180 -12h-397q0 -98 64.5 -151.5t162.5 -53.5q116 0 281 53l55 -258q-84 -36 -195.5 -59t-201.5 -23q-109 0 -198.5 31.5t-157 94t-105 165t-37.5 236.5zM360 1135 l181 317h401l-297 -317h-285zM373 664q207 0 278 6v18q0 54 -35 86.5t-94 32.5q-57 0 -97.5 -41t-51.5 -102z" />
<glyph unicode="&#xea;" horiz-adv-x="999" d="M41 504q0 142 60 267t177 204.5t267 79.5q83 0 155.5 -28.5t131 -85.5t92.5 -151t34 -215q0 -43 -8 -94l-180 -12h-397q0 -98 64.5 -151.5t162.5 -53.5q116 0 281 53l55 -258q-84 -36 -195.5 -59t-201.5 -23q-109 0 -198.5 31.5t-157 94t-105 165t-37.5 236.5zM145 1135 l189 317h371l188 -317h-266l-107 125l-106 -125h-269zM373 664q207 0 278 6v18q0 54 -35 86.5t-94 32.5q-57 0 -97.5 -41t-51.5 -102z" />
<glyph unicode="&#xeb;" horiz-adv-x="999" d="M41 504q0 142 60 267t177 204.5t267 79.5q83 0 155.5 -28.5t131 -85.5t92.5 -151t34 -215q0 -43 -8 -94l-180 -12h-397q0 -91 64.5 -148t162.5 -57q116 0 281 53l55 -258q-84 -36 -195.5 -59t-201.5 -23q-109 0 -198.5 31.5t-157 94t-105 165t-37.5 236.5zM152 1313 q0 64 46 109.5t111 45.5t110.5 -45.5t45.5 -109.5q0 -65 -46 -111.5t-110 -46.5t-110.5 46.5t-46.5 111.5zM373 664q207 0 278 6v18q0 54 -35 86.5t-94 32.5q-57 0 -97.5 -41t-51.5 -102zM602 1313q0 64 46.5 109.5t111.5 45.5q64 0 109.5 -45t45.5 -110t-45.5 -111.5 t-109.5 -46.5t-111 46.5t-47 111.5z" />
<glyph unicode="&#xec;" horiz-adv-x="524" d="M-158 1452h402l180 -317h-285zM98 0v1010l326 20v-1030h-326z" />
<glyph unicode="&#xed;" horiz-adv-x="524" d="M98 0v1010l326 20v-1030h-326zM98 1135l181 317h401l-297 -317h-285z" />
<glyph unicode="&#xee;" horiz-adv-x="524" d="M-127 1135l188 317h371l189 -317h-267l-106 125l-107 -125h-268zM98 0v1010l326 20v-1030h-326z" />
<glyph unicode="&#xef;" horiz-adv-x="524" d="M-135 1313q0 64 46.5 109.5t111.5 45.5t110 -45t45 -110t-45.5 -111.5t-109.5 -46.5q-65 0 -111.5 46.5t-46.5 111.5zM98 0v1010l326 20v-1030h-326zM315 1313q0 64 46.5 109.5t111.5 45.5t110.5 -45.5t45.5 -109.5q0 -65 -46 -111.5t-110 -46.5q-65 0 -111.5 46.5 t-46.5 111.5z" />
<glyph unicode="&#xf0;" horiz-adv-x="1124" d="M82 504q0 91 22 172.5t65.5 149.5t117.5 108.5t170 40.5q130 0 211 -66q-43 125 -136 209l-129 -102l-149 149l84 66q-90 33 -182 49l69 281q212 -12 389 -109l119 94l141 -157l-86 -68q240 -248 240 -684q0 -321 -118 -488t-357 -167q-219 0 -345 144.5t-126 377.5z M426 510q0 -113 32 -179.5t91 -66.5q139 0 139 223q0 95 -36 152t-105 57q-121 0 -121 -186z" />
<glyph unicode="&#xf1;" horiz-adv-x="1034" d="M43 997l324 52l20 -117q43 60 99 91.5t139 31.5q124 0 211 -76.5t108 -226.5q8 -63 8 -160v-592h-325v602q0 89 -24.5 124.5t-76.5 35.5q-118 0 -118 -156v-606h-324v602q0 267 -41 395zM139 1135v82q0 114 61 177.5t165 63.5q48 0 106.5 -23.5t107 -47t70.5 -23.5 q53 0 53 72v18h199v-82q0 -114 -60.5 -178t-164.5 -64q-48 0 -107.5 24t-108.5 47.5t-69 23.5q-53 0 -53 -72v-18h-199z" />
<glyph unicode="&#xf2;" d="M45 494q0 133 43.5 242t116 176.5t161.5 104t185 36.5q89 0 170.5 -32.5t147 -93.5t104.5 -160.5t39 -223.5q0 -133 -43.5 -242t-116 -176.5t-161.5 -104t-185 -36.5q-89 0 -170.5 32.5t-147 93.5t-104.5 160.5t-39 223.5zM115 1452h401l180 -317h-284zM385 512 q0 -101 37 -174.5t104 -73.5q68 0 108 68t40 190q0 99 -37.5 171.5t-104.5 72.5q-66 0 -106.5 -65.5t-40.5 -188.5z" />
<glyph unicode="&#xf3;" d="M45 494q0 133 43.5 242t116 176.5t161.5 104t185 36.5q89 0 170.5 -32.5t147 -93.5t104.5 -160.5t39 -223.5q0 -133 -43.5 -242t-116 -176.5t-161.5 -104t-185 -36.5q-89 0 -170.5 32.5t-147 93.5t-104.5 160.5t-39 223.5zM360 1135l181 317h401l-297 -317h-285zM385 512 q0 -101 37 -174.5t104 -73.5q68 0 108 68t40 190q0 99 -37.5 171.5t-104.5 72.5q-66 0 -106.5 -65.5t-40.5 -188.5z" />
<glyph unicode="&#xf4;" d="M45 494q0 133 43.5 242t116 176.5t161.5 104t185 36.5q89 0 170.5 -32.5t147 -93.5t104.5 -160.5t39 -223.5q0 -133 -43.5 -242t-116 -176.5t-161.5 -104t-185 -36.5q-89 0 -170.5 32.5t-147 93.5t-104.5 160.5t-39 223.5zM154 1135l188 317h371l188 -317h-266l-107 125 l-106 -125h-268zM385 512q0 -101 37 -174.5t104 -73.5q68 0 108 68t40 190q0 99 -37.5 171.5t-104.5 72.5q-66 0 -106.5 -65.5t-40.5 -188.5z" />
<glyph unicode="&#xf5;" d="M45 494q0 133 43.5 242t116 176.5t161.5 104t185 36.5q89 0 170.5 -32.5t147 -93.5t104.5 -160.5t39 -223.5q0 -133 -43.5 -242t-116 -176.5t-161.5 -104t-185 -36.5q-89 0 -170.5 32.5t-147 93.5t-104.5 160.5t-39 223.5zM143 1135v82q0 114 61 177.5t165 63.5 q48 0 106.5 -23.5t107 -47t70.5 -23.5q54 0 54 72v18h198v-82q0 -114 -60.5 -178t-164.5 -64q-48 0 -107.5 24t-108.5 47.5t-69 23.5q-53 0 -53 -72v-18h-199zM385 512q0 -101 37 -174.5t104 -73.5q68 0 108 68t40 190q0 99 -37.5 171.5t-104.5 72.5q-66 0 -106.5 -65.5 t-40.5 -188.5z" />
<glyph unicode="&#xf6;" d="M45 494q0 133 43.5 242t116 176.5t161.5 104t185 36.5q89 0 170.5 -32.5t147 -93.5t104.5 -160.5t39 -223.5q0 -133 -43.5 -242t-116 -176.5t-161.5 -104t-185 -36.5q-89 0 -170.5 32.5t-147 93.5t-104.5 160.5t-39 223.5zM145 1313q0 64 46.5 109.5t111.5 45.5 t110.5 -45.5t45.5 -109.5q0 -65 -46 -111.5t-110 -46.5q-65 0 -111.5 46.5t-46.5 111.5zM385 512q0 -101 37 -174.5t104 -73.5q68 0 108 68t40 190q0 99 -37.5 171.5t-104.5 72.5q-66 0 -106.5 -65.5t-40.5 -188.5zM596 1313q0 64 46.5 109.5t111.5 45.5q64 0 109.5 -45 t45.5 -110t-45.5 -111.5t-109.5 -46.5t-111 46.5t-47 111.5z" />
<glyph unicode="&#xf7;" horiz-adv-x="1253" d="M78 418v244h1098v-244h-1098zM469 172q0 64 46.5 110t111.5 46q64 0 109.5 -45.5t45.5 -110.5t-45.5 -111.5t-109.5 -46.5q-65 0 -111.5 47t-46.5 111zM469 909q0 64 46.5 110t111.5 46q64 0 109.5 -45.5t45.5 -110.5t-45.5 -111t-109.5 -46q-65 0 -111.5 46.5 t-46.5 110.5z" />
<glyph unicode="&#xf8;" d="M45 494q0 133 43.5 242t116 176.5t161.5 104t185 36.5q110 0 199 -45l63 92l160 -109l-72 -102q111 -137 111 -346q0 -133 -43.5 -242t-116 -176.5t-161.5 -104t-185 -36.5q-108 0 -201 43l-67 -99l-158 109l76 108q-111 137 -111 349zM385 459l195 284q-6 10 -20.5 16.5 t-27.5 6.5q-66 0 -106.5 -65.5t-40.5 -188.5v-53zM471 287q14 -23 55 -23q68 0 108 68t40 190q0 44 -2 56z" />
<glyph unicode="&#xf9;" horiz-adv-x="1093" d="M82 377v643h326v-598q0 -88 26.5 -124t79.5 -36q60 0 86.5 44t26.5 112v602h325v-705q0 -30 11.5 -44.5t40.5 -14.5q21 0 57 4l18 -235q-123 -43 -215 -43q-62 0 -116 33t-78 87q-118 -127 -260 -127q-165 0 -246.5 99.5t-81.5 302.5zM92 1452h402l180 -317h-285z" />
<glyph unicode="&#xfa;" horiz-adv-x="1093" d="M82 377v643h326v-598q0 -88 26.5 -124t79.5 -36q60 0 86.5 44t26.5 112v602h325v-705q0 -30 11.5 -44.5t40.5 -14.5q21 0 57 4l18 -235q-123 -43 -215 -43q-62 0 -114 32.5t-80 87.5q-118 -127 -260 -127q-165 0 -246.5 99.5t-81.5 302.5zM371 1135l180 317h401 l-297 -317h-284z" />
<glyph unicode="&#xfb;" horiz-adv-x="1093" d="M82 377v643h326v-598q0 -88 26.5 -124t79.5 -36q60 0 86.5 44t26.5 112v602h325v-705q0 -30 11.5 -44.5t40.5 -14.5q21 0 57 4l18 -235q-123 -43 -215 -43q-61 0 -115.5 33t-78.5 87q-118 -127 -260 -127q-165 0 -246.5 99.5t-81.5 302.5zM141 1135l189 317h370l189 -317 h-266l-107 125l-106 -125h-269z" />
<glyph unicode="&#xfc;" horiz-adv-x="1093" d="M82 377v643h326v-598q0 -88 26.5 -124t79.5 -36q60 0 86.5 44t26.5 112v602h325v-705q0 -30 11.5 -44.5t40.5 -14.5q21 0 57 4l18 -235q-123 -43 -215 -43q-100 0 -162 71q-14 16 -32 49q-118 -127 -260 -127q-165 0 -246.5 99.5t-81.5 302.5zM133 1313q0 64 46.5 109.5 t111.5 45.5t110 -45t45 -110t-45.5 -111.5t-109.5 -46.5q-65 0 -111.5 46.5t-46.5 111.5zM584 1313q0 64 46 109.5t111 45.5t110.5 -45.5t45.5 -109.5q0 -65 -46 -111.5t-110 -46.5t-110.5 46.5t-46.5 111.5z" />
<glyph unicode="&#xfd;" horiz-adv-x="1071" d="M0 1016l352 33q5 -15 87 -265.5t112 -326.5q30 84 60.5 185.5t69.5 241t46 165.5l344 -33q-54 -159 -184 -502q-27 -70 -94.5 -264t-114.5 -307q-31 -75 -63.5 -128.5t-78 -99.5t-107.5 -69t-140 -23q-71 0 -135 18t-103 46l74 250q54 -21 104 -21q57 0 97.5 28t50.5 87 q-73 174 -190.5 481t-186.5 504zM373 1135l180 317h401l-297 -317h-284z" />
<glyph unicode="&#xfe;" d="M63 1536l326 31q21 -201 21 -406v-215q45 51 111.5 80t123.5 29q184 0 276.5 -139t92.5 -379q0 -98 -32 -194t-88.5 -174t-145.5 -126.5t-193 -48.5q-80 0 -145 26v-372h-328v1411q0 255 -19 477zM406 291q40 -27 92 -27q85 0 128.5 81.5t43.5 201.5q0 105 -34.5 163 t-86.5 58q-66 0 -104.5 -55t-38.5 -135v-287z" />
<glyph unicode="&#xff;" horiz-adv-x="1071" d="M0 1016l352 33q5 -15 87 -265.5t112 -326.5q30 84 60.5 185.5t69.5 241t46 165.5l344 -33q-54 -159 -184 -502q-27 -70 -94.5 -264t-114.5 -307q-31 -75 -63.5 -128.5t-78 -99.5t-107.5 -69t-140 -23q-71 0 -135 18t-103 46l74 250q54 -21 104 -21q57 0 97.5 28t50.5 87 q-73 174 -190.5 481t-186.5 504zM170 1313q0 64 46.5 109.5t111.5 45.5q64 0 109.5 -45t45.5 -110t-45.5 -111.5t-109.5 -46.5t-111 46.5t-47 111.5zM621 1313q0 64 46 109.5t111 45.5t110.5 -45.5t45.5 -109.5q0 -65 -46 -111.5t-110 -46.5t-110.5 46.5t-46.5 111.5z" />
<glyph unicode="&#x152;" horiz-adv-x="1775" d="M61 692q0 110 23.5 212t74 193.5t124 159t180 107t235.5 39.5q130 0 232 -55v38h768l-23 -282h-405v-268h370l-22 -285h-348v-268h459l-23 -283h-776v37q-104 -53 -238 -53q-286 0 -458.5 191.5t-172.5 516.5zM418 692q0 -208 72 -314t206 -106q114 0 174 81t60 229v217 q0 148 -60.5 231.5t-175.5 83.5q-276 0 -276 -422z" />
<glyph unicode="&#x153;" horiz-adv-x="1634" d="M45 494q0 133 43.5 242t116 176.5t161.5 104t185 36.5q186 0 307 -127q130 127 322 127q83 0 155.5 -28.5t131 -84.5t92.5 -150t34 -215q0 -43 -8 -94l-180 -12h-397q0 -90 65 -145.5t162 -55.5q113 0 281 54l55 -259q-84 -35 -195.5 -58t-201.5 -23q-207 0 -340 133 q-65 -65 -150.5 -99t-177.5 -34q-89 0 -170.5 32.5t-147 94.5t-104.5 161.5t-39 223.5zM385 512q0 -65 15 -120.5t48 -92.5t78 -37q68 0 108 69t40 191q0 99 -37.5 171.5t-104.5 72.5q-66 0 -106.5 -65.5t-40.5 -188.5zM1008 664q208 0 278 6v18q0 54 -35 86.5t-94 32.5 q-57 0 -97.5 -41t-51.5 -102z" />
<glyph unicode="&#x178;" horiz-adv-x="1206" d="M-25 1382l381 9q10 -20 54.5 -112.5t71.5 -148t66.5 -130t65.5 -117.5q44 75 92 169.5t96.5 198t67.5 140.5l365 -9q-363 -651 -459 -807v-575h-342v575q-159 251 -459 807zM231 1638q0 64 46.5 110t111.5 46t110.5 -46t45.5 -110q0 -65 -46 -111t-110 -46 q-65 0 -111.5 46.5t-46.5 110.5zM682 1638q0 64 46.5 110t111.5 46q64 0 109.5 -45.5t45.5 -110.5t-45.5 -111t-109.5 -46q-65 0 -111.5 46.5t-46.5 110.5z" />
<glyph unicode="&#x2000;" horiz-adv-x="933" />
<glyph unicode="&#x2001;" horiz-adv-x="1866" />
<glyph unicode="&#x2002;" horiz-adv-x="933" />
<glyph unicode="&#x2003;" horiz-adv-x="1866" />
<glyph unicode="&#x2004;" horiz-adv-x="622" />
<glyph unicode="&#x2005;" horiz-adv-x="466" />
<glyph unicode="&#x2006;" horiz-adv-x="311" />
<glyph unicode="&#x2007;" horiz-adv-x="311" />
<glyph unicode="&#x2008;" horiz-adv-x="233" />
<glyph unicode="&#x2009;" horiz-adv-x="373" />
<glyph unicode="&#x200a;" horiz-adv-x="103" />
<glyph unicode="&#x2010;" horiz-adv-x="595" d="M35 397l31 285h493l-31 -285h-493z" />
<glyph unicode="&#x2011;" horiz-adv-x="595" d="M35 397l31 285h493l-31 -285h-493z" />
<glyph unicode="&#x2012;" horiz-adv-x="595" d="M35 397l31 285h493l-31 -285h-493z" />
<glyph unicode="&#x2013;" horiz-adv-x="1159" d="M66 397l30 285h996l-31 -285h-995z" />
<glyph unicode="&#x2014;" horiz-adv-x="2230" d="M66 397l30 285h2067l-31 -285h-2066z" />
<glyph unicode="&#x2018;" horiz-adv-x="557" d="M31 971l194 575h291l-135 -575h-350z" />
<glyph unicode="&#x2019;" horiz-adv-x="550" d="M31 971l135 575h350l-194 -575h-291z" />
<glyph unicode="&#x201a;" horiz-adv-x="550" d="M31 -252l135 576h350l-194 -576h-291z" />
<glyph unicode="&#x201c;" horiz-adv-x="1054" d="M51 971l215 575h291l-156 -575h-350zM522 971l174 575h291l-115 -575h-350z" />
<glyph unicode="&#x201d;" horiz-adv-x="1054" d="M51 971l115 575h350l-174 -575h-291zM481 971l156 575h350l-215 -575h-291z" />
<glyph unicode="&#x201e;" horiz-adv-x="1054" d="M51 -254l115 576h350l-174 -576h-291zM481 -254l156 576h350l-215 -576h-291z" />
<glyph unicode="&#x2022;" horiz-adv-x="876" d="M82 514q0 70 23.5 136.5t67.5 120.5t113.5 87t153.5 33q87 0 156.5 -31.5t111.5 -84t64.5 -116.5t22.5 -133q0 -71 -22.5 -136.5t-65 -118t-112 -84t-155.5 -31.5q-88 0 -157.5 30t-112.5 81t-65.5 114t-22.5 133z" />
<glyph unicode="&#x2026;" horiz-adv-x="1536" d="M82 152q0 72 51 123t123 51t123 -51t51 -123t-51 -124.5t-123 -52.5t-123 52.5t-51 124.5zM594 152q0 72 51 123t123 51t123 -51t51 -123t-51 -124.5t-123 -52.5t-123 52.5t-51 124.5zM1106 152q0 72 51 123t123 51t123 -51t51 -123t-51 -124.5t-123 -52.5t-123 52.5 t-51 124.5z" />
<glyph unicode="&#x202f;" horiz-adv-x="373" />
<glyph unicode="&#x2039;" horiz-adv-x="688" d="M43 547l379 469l182 -154l-244 -315l244 -320l-182 -149z" />
<glyph unicode="&#x203a;" horiz-adv-x="688" d="M74 227l243 320l-243 315l182 154l379 -469l-379 -469z" />
<glyph unicode="&#x205f;" horiz-adv-x="466" />
<glyph unicode="&#x20ac;" horiz-adv-x="1351" d="M51 737l60 221h184q44 130 123.5 229t207.5 161.5t287 62.5q199 0 338 -51l-75 -277q-115 31 -205 31q-103 0 -184.5 -42.5t-127.5 -113.5h478l-60 -221h-477q-2 -20 -2 -57q0 -19 4 -55h447l-58 -222h-309q38 -59 110 -93t158 -34q127 0 256 35v-303q-119 -33 -293 -33 q-153 0 -278 58t-204.5 152t-125.5 218h-242l58 222h135q-4 36 -4 57q0 9 1 27.5t1 27.5h-203z" />
<glyph unicode="&#x2122;" horiz-adv-x="1150" d="M61 674q0 343 143.5 541t393.5 198q86 0 158.5 -23.5t135 -76t106 -131.5t68 -195.5t24.5 -263.5q0 -160 -28.5 -287t-77 -210.5t-117.5 -139t-146.5 -79t-167.5 -23.5q-106 0 -193.5 40t-155.5 121.5t-105.5 216t-37.5 312.5zM412 692q0 -125 14 -213.5t38.5 -133 t51 -63t57.5 -18.5q29 0 56.5 21t53.5 67.5t42 137t16 212.5q0 119 -13.5 205t-37.5 132t-51 66.5t-59 20.5q-23 0 -45 -12t-45 -43t-40 -78t-27.5 -125t-10.5 -176z" />
<glyph unicode="&#xe000;" horiz-adv-x="1044" d="M0 0v1044h1044v-1044h-1044z" />
</font>
</defs>
</svg>
