<?xml version="1.0" standalone="no"?>
<!DOCTYPE svg PUBLIC "-//W3C//DTD SVG 1.1//EN" "http://www.w3.org/Graphics/SVG/1.1/DTD/svg11.dtd" >
<svg xmlns="http://www.w3.org/2000/svg">
<metadata></metadata>
<defs>
<font id="SensibilityBoldItalic" horiz-adv-x="516" >
<font-face units-per-em="2048" ascent="1638" descent="-410" />
<missing-glyph horiz-adv-x="479" />
<glyph horiz-adv-x="0" />
<glyph horiz-adv-x="2048" />
<glyph unicode=" "  horiz-adv-x="479" />
<glyph unicode="&#x09;" horiz-adv-x="479" />
<glyph unicode="&#xa0;" horiz-adv-x="479" />
<glyph unicode="!" horiz-adv-x="528" d="M123 135q0 65 46 111.5t110 46.5t110.5 -46.5t46.5 -111.5q0 -64 -46 -109.5t-111 -45.5t-110.5 45.5t-45.5 109.5zM174 412l102 974h316l-143 -995q-134 9 -275 21z" />
<glyph unicode="&#x22;" horiz-adv-x="890" d="M270 999l58 551h229l-78 -551h-209zM655 999l58 551h231l-78 -551h-211z" />
<glyph unicode="#" horiz-adv-x="1384" d="M88 385l27 203h254l75 223h-262l27 203h301l129 372h223l-125 -372h228l129 372h225l-127 -372h215l-29 -203h-252l-73 -223h254l-27 -203h-295l-129 -385h-227l129 385h-228l-131 -385h-225l129 385h-215zM596 588h229l74 223h-229z" />
<glyph unicode="$" horiz-adv-x="1024" d="M113 139l135 221q45 -31 74 -48.5t80.5 -37.5t93.5 -20q56 0 91.5 29.5t35.5 83.5q0 38 -22.5 70.5t-58.5 58.5t-79.5 52.5t-87 59.5t-79.5 72.5t-58.5 98.5t-22.5 130q0 134 79.5 235.5t209.5 135.5l24 184h271l-25 -196q110 -33 209 -111q-3 -5 -67 -110.5t-66 -110.5 q-59 46 -112 73t-109 27q-50 0 -85.5 -26.5t-35.5 -77.5q0 -40 23 -73.5t59.5 -60t80.5 -53t88 -59t80.5 -71t59.5 -96.5t23 -128q0 -154 -84 -254.5t-220 -132.5l-26 -201h-270l26 205q-123 37 -235 131z" />
<glyph unicode="%" horiz-adv-x="1884" d="M246 1018q0 119 55.5 211.5t143 140t188.5 47.5q134 0 225.5 -88t91.5 -246q0 -120 -56 -214t-144 -142.5t-189 -48.5q-134 0 -224.5 90t-90.5 250zM461 1016q0 -78 34.5 -120t84.5 -42q67 0 111 61.5t44 155.5q0 75 -31.5 120.5t-85.5 45.5q-68 0 -112.5 -63t-44.5 -158 zM479 0l877 1386h243l-880 -1386h-240zM1122 315q0 90 32.5 167t87 127.5t124 79t143.5 28.5q135 0 226.5 -88t91.5 -248q0 -90 -32.5 -167t-87 -128.5t-124 -80t-143.5 -28.5q-135 0 -226.5 89.5t-91.5 248.5zM1337 315q0 -79 34 -120t85 -41q68 0 113 61t45 154 q0 76 -32 121t-85 45q-70 0 -115 -62.5t-45 -157.5z" />
<glyph unicode="&#x26;" horiz-adv-x="1443" d="M84 430q0 291 291 418q-92 80 -92 219q0 84 36 150t96.5 105.5t135 60t156.5 20.5q166 0 292 -72l-79 -237q-100 59 -191 59q-71 0 -105 -35.5t-34 -85.5q0 -43 32.5 -77t96.5 -44l-45 -206h-27q-113 0 -183.5 -69t-70.5 -171q0 -116 80 -180t205 -64q117 0 186.5 50 t69.5 124q0 51 -33 51q-17 0 -28 -15.5t-11 -41.5v-8l-196 -31q-33 64 -33 125q0 69 37 115.5t92 66t119.5 34t119.5 21t92 25t37 49.5q0 52 -65 52q-38 0 -86 -21l-66 174q110 62 240 62q118 0 189 -72t71 -178q0 -89 -52 -159.5t-138 -104.5q24 -52 24 -109 q0 -83 -32.5 -155.5t-88.5 -125.5t-131 -91t-161 -57t-177 -19q-157 0 -284.5 49t-208 152.5t-80.5 246.5z" />
<glyph unicode="'" horiz-adv-x="507" d="M270 999l58 551h229l-78 -551h-209z" />
<glyph unicode="(" horiz-adv-x="593" d="M102 379q0 295 96 568t306 616l219 -74q-190 -336 -273 -589.5t-83 -528.5q0 -340 122 -697l-239 -51q-148 396 -148 756z" />
<glyph unicode=")" horiz-adv-x="593" d="M12 -303q184 307 270.5 571t86.5 549q0 350 -123 701l241 49q146 -398 146 -758q0 -296 -96 -571t-306 -615z" />
<glyph unicode="*" horiz-adv-x="1005" d="M221 1077l234 82l-207 154l117 153l188 -166l20 246h193q-7 -62 -35 -274l221 100q46 -107 78 -188l-233 -80l207 -156l-115 -151l-191 161l-22 -247h-195l37 278l-221 -96z" />
<glyph unicode="+" horiz-adv-x="1261" d="M145 430l25 211h420l51 430h238l-52 -430h418l-24 -211h-420l-51 -430h-238l51 430h-418z" />
<glyph unicode="," horiz-adv-x="587" d="M53 -248l187 535h286l-262 -572z" />
<glyph unicode="-" horiz-adv-x="577" d="M57 414l31 245h479l-28 -245h-482z" />
<glyph unicode="." d="M100 133q0 66 45.5 112t110.5 46t110.5 -46t45.5 -112q0 -65 -46 -111.5t-110 -46.5t-110 46.5t-46 111.5z" />
<glyph unicode="/" horiz-adv-x="978" d="M-47 -160l954 1708h287l-956 -1708h-285z" />
<glyph unicode="0" horiz-adv-x="1124" d="M106 471q0 129 47 240t124.5 184.5t178 114.5t208.5 41q93 0 175 -31.5t145.5 -90.5t100.5 -153t37 -211q0 -129 -47.5 -239.5t-125.5 -184.5t-179 -115.5t-209 -41.5q-93 0 -174.5 32t-144.5 91.5t-99.5 153.5t-36.5 210zM401 467q0 -119 53 -181.5t134 -62.5 q104 0 171.5 92.5t67.5 237.5q0 117 -49 184.5t-133 67.5q-105 0 -174.5 -96.5t-69.5 -241.5z" />
<glyph unicode="1" horiz-adv-x="765" d="M57 0q3 27 29 231h195l69 562q-50 -6 -196 -15q11 78 26 221q193 17 479 48l-100 -816h191q-5 -48 -29 -231h-664z" />
<glyph unicode="2" horiz-adv-x="946" d="M49 0l19 182l163 125q19 14 74.5 55.5t88 66.5t81 67.5t76 74t49 70t21.5 70.5q0 40 -29.5 65t-79.5 25q-107 0 -229 -76l-97 203q80 54 187.5 86.5t212.5 32.5q151 0 245.5 -79t94.5 -216q0 -37 -9 -74t-21.5 -67.5t-37 -64t-43.5 -57.5t-54 -54.5t-56.5 -48.5t-62 -47 t-59 -41.5t-59.5 -39.5l-43 -29h453l-27 -229h-858z" />
<glyph unicode="3" horiz-adv-x="823" d="M10 -72h25q89 0 167 12t145 37.5t106 70t39 104.5q0 135 -148 135h-145v213l123 6q106 6 173.5 53.5t67.5 120.5q0 121 -153 121q-93 0 -209 -53l-58 202q154 84 344 84q161 0 256 -87t95 -222q0 -99 -67 -188.5t-175 -135.5q81 -24 134.5 -90.5t53.5 -169.5 q0 -114 -57 -202t-152.5 -138.5t-208 -76t-235.5 -25.5q-60 0 -111 4z" />
<glyph unicode="4" horiz-adv-x="1069" d="M49 2l17 139q84 127 180.5 267t235 336t188.5 268h307q-17 -148 -98 -787h170l-27 -223h-168l-37 -324h-256l37 324h-549zM354 223h271q9 80 29.5 234t29.5 229q-83 -109 -197.5 -269t-132.5 -194z" />
<glyph unicode="5" horiz-adv-x="833" d="M35 -315l8 225q119 5 221 33.5t173 87.5t71 139q0 67 -57 106.5t-156 42.5l-182 7l112 688h643l-28 -232h-381q-20 -117 -39 -247q171 -12 275 -103t104 -239q0 -119 -57 -214t-155.5 -155t-219.5 -93.5t-261 -41.5z" />
<glyph unicode="6" horiz-adv-x="1030" d="M113 475q0 308 215 546.5t616 346.5l70 -227q-218 -59 -371 -170t-207 -240q136 94 269 94q58 0 112 -21.5t99.5 -63t72.5 -112.5t27 -161q0 -207 -136.5 -348.5t-340.5 -141.5q-201 0 -313.5 137.5t-112.5 360.5zM401 432q0 -91 40 -149t116 -58q78 0 126 68t48 158 q0 77 -34.5 115t-92.5 38q-91 0 -194 -86q-9 -38 -9 -86z" />
<glyph unicode="7" horiz-adv-x="931" d="M39 -240q141 238 326 539.5t303 482.5h-533l31 232h854l-19 -166q-135 -208 -351 -566t-363 -616z" />
<glyph unicode="8" horiz-adv-x="1009" d="M102 307q0 238 275 371q-87 62 -131.5 125t-44.5 164q0 114 67.5 205t172.5 138.5t223 47.5q104 0 192 -38t144.5 -116.5t56.5 -183.5q0 -222 -258 -338q205 -100 205 -301q0 -122 -71 -216t-182 -141t-239 -47q-180 0 -295 86.5t-115 243.5zM371 356q0 -71 48 -109 t116 -38q79 0 138.5 49.5t59.5 128.5q0 59 -43 102t-125 82q-39 -17 -69 -34.5t-60 -43.5t-47 -61t-18 -76zM461 956q0 -55 38.5 -93t112.5 -75q87 40 136 85t49 114q0 64 -44 98.5t-108 34.5q-70 0 -127 -45t-57 -119z" />
<glyph unicode="9" horiz-adv-x="1030" d="M121 539q0 99 35.5 191t97.5 163t154 113.5t198 42.5q195 0 307.5 -139t112.5 -359q0 -151 -53.5 -288.5t-156.5 -254t-262 -207.5t-361 -145l-68 229q217 58 368 170t205 242q-142 -98 -264 -98q-44 0 -88 13t-85 40.5t-72 66.5t-49.5 96t-18.5 124zM408 573 q0 -76 34 -113.5t93 -37.5q89 0 194 84q8 36 8 88q0 91 -39 148t-112 57q-82 0 -130 -67t-48 -159z" />
<glyph unicode=":" d="M119 133q0 66 45 112t110 46t110.5 -46t45.5 -112q0 -65 -46 -111.5t-110 -46.5t-109.5 46.5t-45.5 111.5zM197 774q0 65 45.5 110.5t109.5 45.5t110 -46t46 -110q0 -66 -45.5 -112t-110.5 -46t-110 46t-45 112z" />
<glyph unicode=";" horiz-adv-x="587" d="M49 -244l191 531h286l-256 -568zM274 774q0 64 46 110t110 46t110 -46t46 -110q0 -66 -45.5 -112t-110.5 -46t-110.5 46t-45.5 112z" />
<glyph unicode="&#x3c;" horiz-adv-x="1263" d="M170 469l20 162l1057 385l-30 -244l-642 -231l584 -232l-26 -227z" />
<glyph unicode="=" horiz-adv-x="1261" d="M133 219l27 213h1044l-26 -213h-1045zM186 643l25 213h1044l-24 -213h-1045z" />
<glyph unicode="&#x3e;" horiz-adv-x="1263" d="M123 68l31 243l641 232l-584 229l27 229l960 -385l-18 -163z" />
<glyph unicode="?" horiz-adv-x="980" d="M258 1270q94 68 204 105.5t214 37.5q159 0 259.5 -93t100.5 -247q0 -109 -53.5 -190.5t-177.5 -184.5q-96 -78 -141.5 -147t-55.5 -158l-260 21q2 131 27.5 213.5t91.5 148.5q35 35 89.5 77t89.5 68.5t62 62t27 69.5q0 42 -32 67t-82 25q-64 0 -125 -20.5t-154 -69.5z M305 133q0 66 45.5 112t110.5 46t111 -46t46 -112q0 -65 -46.5 -111.5t-110.5 -46.5t-110 46.5t-46 111.5z" />
<glyph unicode="@" horiz-adv-x="1777" d="M193 561q0 166 50 307.5t134.5 241t196 170t233.5 104t248 33.5q109 0 209.5 -23.5t189 -74.5t153.5 -124.5t102.5 -180.5t37.5 -236q0 -93 -34.5 -185t-94.5 -167t-151.5 -121.5t-196.5 -46.5q-61 0 -113.5 26t-83.5 72q-98 -98 -215 -98q-116 0 -191 85t-75 224 q0 126 57.5 236t163 178t234.5 68q95 0 160 -20.5t128 -55.5q-14 -72 -37.5 -219t-37.5 -219q0 -3 -2 -13l-1 -10q0 -61 70 -61q84 0 139.5 94.5t55.5 222.5q0 115 -39 203.5t-106.5 140t-150.5 77t-179 25.5q-91 0 -179 -24.5t-169 -77.5t-142.5 -127.5t-98 -182.5 t-36.5 -235q0 -106 33.5 -197t101 -164t181 -115t261.5 -42q223 0 449 129l92 -166q-263 -166 -551 -166q-160 0 -293 38t-225 104t-155.5 157t-93 195.5t-29.5 220.5zM821 561q0 -54 23 -82t59 -28q57 0 99.5 44.5t54.5 112.5l43 230q-33 20 -76 20q-64 0 -112 -49 t-69.5 -115t-21.5 -133z" />
<glyph unicode="A" horiz-adv-x="1265" d="M-16 0l606 1292q-1 11 -17 92l304 15l317 -1399l-322 -8q-10 47 -29 144.5t-26 129.5h-414l-116 -274zM494 483h282l-92 441z" />
<glyph unicode="B" horiz-adv-x="1058" d="M61 0l170 1386h324q96 0 178 -22t147 -66t102.5 -117.5t37.5 -168.5q0 -100 -53.5 -186.5t-147.5 -135.5q83 -42 126.5 -117t43.5 -167q0 -104 -43.5 -184t-118 -127.5t-166 -71t-196.5 -23.5h-404zM377 238h90q94 0 157.5 48t63.5 140q0 78 -48 120t-142 42h-80z M442 795h95q80 0 134 54.5t54 137.5q0 72 -46.5 116t-127.5 44h-64z" />
<glyph unicode="C" horiz-adv-x="1044" d="M104 618q0 113 28 225t86 214t138.5 180.5t194 125t244.5 46.5q180 0 301 -68l-80 -235q-91 39 -191 39q-186 0 -297.5 -147.5t-111.5 -372.5q0 -180 83.5 -280.5t227.5 -100.5q77 0 184 35l33 -238q-142 -61 -291 -61q-114 0 -211.5 38.5t-174 114t-120 200t-43.5 285.5 z" />
<glyph unicode="D" horiz-adv-x="1224" d="M68 0l170 1386h327q156 0 277 -45.5t197 -128t114.5 -191.5t38.5 -241q0 -159 -48.5 -299.5t-139 -248t-232.5 -170t-317 -62.5h-387zM385 246h88q81 0 150 31t116 83t80 120.5t48.5 142.5t15.5 149q0 173 -89 270t-241 97h-57z" />
<glyph unicode="E" horiz-adv-x="935" d="M68 0l170 1386h725l-31 -245h-432l-39 -326h368q-3 -27 -9 -77.5t-11 -91.5t-10 -77h-369l-41 -325h467q-4 -41 -14.5 -122t-14.5 -122h-759z" />
<glyph unicode="F" horiz-adv-x="899" d="M68 0l170 1386h725l-31 -245h-432l-45 -365h370l-30 -246h-371l-64 -530h-292z" />
<glyph unicode="G" horiz-adv-x="1228" d="M111 612q0 119 29.5 233.5t90 217.5t145 181t203 123.5t255.5 45.5q171 0 319 -67q-10 -36 -22.5 -77.5t-27.5 -91.5t-24 -79q-127 51 -239 51q-84 0 -155 -29.5t-120 -80t-83.5 -119t-51 -146t-16.5 -160.5q0 -190 79 -291.5t228 -101.5q60 0 110 17l31 243h-192l32 248 h469l-81 -651q-195 -98 -428 -98q-252 0 -401.5 165.5t-149.5 466.5z" />
<glyph unicode="H" horiz-adv-x="1224" d="M66 0l172 1386h290l-71 -577h417l72 577h291l-170 -1386h-291l70 571h-418l-70 -571h-292z" />
<glyph unicode="I" d="M66 0l172 1386h292l-170 -1386h-294z" />
<glyph unicode="J" horiz-adv-x="837" d="M0 37l100 272q95 -39 166 -39q163 0 187 193l82 680h-218l50 243h491l-115 -931q-28 -238 -151 -359t-307 -121q-139 0 -285 62z" />
<glyph unicode="K" horiz-adv-x="1153" d="M59 0l170 1386h295q-15 -112 -39.5 -321.5t-29.5 -247.5l469 580l317 -21l-520 -645l358 -729q-2 0 -319 -12q-53 101 -262 540l-88 -73l-58 -457h-293z" />
<glyph unicode="L" horiz-adv-x="884" d="M61 0l170 1386h293l-141 -1142h418l-35 -244h-705z" />
<glyph unicode="M" horiz-adv-x="1628" d="M8 0l361 1288l-21 98q57 1 162.5 6.5t130.5 6.5q27 -134 96 -439t94 -419l365 845h291q0 -12 6 -230t15.5 -562.5t15.5 -589.5q-49 -2 -148.5 -4t-148.5 -4q-2 126 -10 432.5t-9 417.5l-319 -721h-227l-152 721l-211 -852q-33 1 -92 2.5t-107 2.5t-92 1z" />
<glyph unicode="N" horiz-adv-x="1271" d="M74 0l159 1264l-49 116l293 19l424 -873l107 860h276l-170 -1386l-246 -4q-35 69 -190 396t-223 456l-103 -848h-278z" />
<glyph unicode="O" horiz-adv-x="1396" d="M111 616q0 117 27.5 231.5t84 217.5t135 181.5t189 124.5t237.5 46q138 0 248.5 -49.5t181.5 -136.5t108.5 -203t37.5 -252q0 -117 -27.5 -231t-84.5 -217t-136 -181.5t-190.5 -125t-239.5 -46.5q-137 0 -246.5 49.5t-180 136.5t-107.5 203t-37 252zM414 623 q0 -173 75.5 -278t210.5 -105q166 0 261.5 148.5t95.5 381.5q0 108 -31 193.5t-98 138.5t-160 53q-110 0 -191 -70t-122 -189.5t-41 -272.5z" />
<glyph unicode="P" horiz-adv-x="1038" d="M66 0l172 1386h327q233 0 358.5 -110t125.5 -305q0 -207 -146 -332t-389 -125q-66 0 -94 4l-64 -518h-290zM449 748q4 0 39 -1.5t44 -1.5q93 0 160.5 60.5t67.5 155.5q0 78 -51 133t-146 55h-67z" />
<glyph unicode="Q" horiz-adv-x="1415" d="M104 616q0 117 27.5 231.5t84.5 217.5t136 181.5t190.5 124.5t239.5 46q112 0 206.5 -34t161.5 -94t113.5 -141t68.5 -174.5t22 -195.5q0 -202 -88.5 -381t-257.5 -270h389q-21 -153 -33 -231q-9 0 -26.5 -1t-26.5 -1q-105 0 -194 3.5t-191 13.5t-185.5 27t-170 45.5 t-154 66.5t-127.5 93t-99.5 122.5t-62.5 156.5t-23 194zM408 623q0 -173 75.5 -278t210.5 -105q166 0 261.5 148.5t95.5 381.5q0 108 -31 193.5t-98 138.5t-160 53q-110 0 -191 -70t-122 -189.5t-41 -272.5z" />
<glyph unicode="R" horiz-adv-x="1085" d="M66 0l172 1386h329q209 0 339 -107t130 -288q0 -150 -82.5 -260.5t-208.5 -159.5q161 -330 289 -565l-313 -16q-48 91 -146.5 295.5t-128.5 263.5l-28 2l-62 -551h-290zM446 754q36 -4 72 -4q95 0 159 59.5t64 159.5q0 78 -48 129t-130 51h-67z" />
<glyph unicode="S" horiz-adv-x="958" d="M31 139q18 30 63.5 103t69.5 114q36 -25 58.5 -39.5t61.5 -35t78 -30t80 -9.5q78 0 117 42.5t39 100.5q0 38 -24.5 74.5t-64 68t-87 64.5t-95 72.5t-87 84.5t-64 107t-24.5 133q0 112 51.5 206.5t149 152t220.5 57.5q119 0 221.5 -38.5t174.5 -98.5q-21 -35 -65.5 -106.5 t-67.5 -110.5q-136 100 -242 100q-69 0 -112.5 -40t-43.5 -95q0 -37 25 -71.5t65 -65t89 -62.5t97.5 -71t88.5 -83.5t65 -108t25 -136.5q0 -135 -62 -235.5t-162 -149.5t-223 -49q-224 0 -415 155z" />
<glyph unicode="T" horiz-adv-x="1019" d="M143 1139l31 247h913l-30 -247h-309l-142 -1141h-293l140 1141h-310z" />
<glyph unicode="U" horiz-adv-x="1222" d="M115 395q0 73 6 117l110 874h293l-110 -903q-2 -23 -2 -61q0 -92 45 -144.5t137 -52.5q100 0 160 65t75 185l113 911h293l-113 -915q-31 -244 -168 -369t-374 -125q-224 0 -344.5 111.5t-120.5 306.5z" />
<glyph unicode="V" horiz-adv-x="1273" d="M152 1384l319 11q20 -123 46.5 -267t42.5 -228.5t49.5 -251t41.5 -208.5q31 69 104.5 233t116 259t101 228.5t100.5 236.5l313 -13l-653 -1386l-268 -14q-206 861 -313 1400z" />
<glyph unicode="W" horiz-adv-x="1751" d="M137 1384l314 11q75 -720 110 -971l268 704l-28 248l297 10q19 -134 61.5 -491.5t59.5 -476.5q181 486 344 981l301 -15l-2 -4q-69 -199 -235 -624t-300 -752l-317 -12q-18 101 -56 372t-51 355q-107 -304 -268 -715l-303 -14q-104 671 -195 1394z" />
<glyph unicode="X" horiz-adv-x="1175" d="M-20 2q11 17 220 310.5t269 381.5l-313 688l307 15q84 -194 196 -430q24 29 162.5 224t145.5 204l307 -13l-494 -677q242 -499 332 -705l-319 -8q-13 23 -102 218t-103 218l-305 -444z" />
<glyph unicode="Y" horiz-adv-x="1153" d="M117 1384l313 11q124 -329 203 -504q264 396 330 502l327 -9l-532 -766l-76 -618h-297l78 608q-159 334 -346 776z" />
<glyph unicode="Z" horiz-adv-x="1118" d="M33 0l16 147l680 992h-553l33 247h944l-20 -157l-684 -983h575l-29 -246h-962z" />
<glyph unicode="[" horiz-adv-x="587" d="M20 -352l234 1900h455l-29 -243h-191l-174 -1414h191l-31 -243h-455z" />
<glyph unicode="\" horiz-adv-x="978" d="M160 1548h286l537 -1704h-287z" />
<glyph unicode="]" horiz-adv-x="587" d="M20 -352l29 243h191l174 1414h-189l29 243h455l-234 -1900h-455z" />
<glyph unicode="^" horiz-adv-x="1271" d="M102 475l613 875h164l409 -875h-299l-233 531l-361 -531h-293z" />
<glyph unicode="_" horiz-adv-x="1247" d="M-39 -322l29 234h1245l-31 -234h-1243z" />
<glyph unicode="a" horiz-adv-x="1083" d="M78 401q0 123 39 237.5t110 205.5t182.5 145.5t245.5 54.5q199 0 359 -63q-56 -474 -84 -684q0 -3 -1 -12t-1 -15q0 -49 35 -49q14 0 35 7.5t46.5 19t32.5 14.5l35 -170q-143 -115 -301 -115q-63 0 -98 46.5t-45 123.5q-80 -85 -150 -128.5t-162 -43.5q-126 0 -202 107.5 t-76 318.5zM369 420q0 -93 21.5 -146t64.5 -53q45 0 94.5 39t116.5 121q4 36 25.5 196.5t25.5 196.5q-45 25 -90 25q-65 0 -116 -34.5t-81 -90.5t-45.5 -121t-15.5 -133z" />
<glyph unicode="b" horiz-adv-x="1034" d="M96 51l185 1491l282 12l-82 -643q62 65 130.5 99t131.5 34q134 0 212.5 -110.5t78.5 -294.5q0 -103 -23 -199.5t-70.5 -181t-113.5 -147.5t-158.5 -99.5t-199.5 -36.5q-121 0 -201.5 18.5t-171.5 57.5zM393 256q44 -35 101 -35q68 0 119.5 40t79 104t40 130.5t12.5 133.5 q0 82 -26.5 126t-67.5 44q-82 0 -205 -148z" />
<glyph unicode="c" horiz-adv-x="751" d="M74 410q0 120 39 234t109 204t177 144.5t232 54.5q108 0 213 -48l-76 -231q-4 1 -23 7.5t-27.5 8.5t-25 6t-32 5.5t-31.5 1.5q-66 0 -117.5 -31t-82 -83t-46.5 -114t-16 -129q0 -106 42 -161.5t119 -55.5q88 0 187 47l20 -207q-155 -88 -305 -88q-166 0 -261 122t-95 313 z" />
<glyph unicode="d" horiz-adv-x="1085" d="M78 403q0 120 37 232.5t106 204.5t179 148t245 56q43 0 92 -6l64 502l280 16l-151 -1265q0 -3 -1 -10.5t-1 -10.5q0 -49 35 -49q14 0 32.5 6.5t46 19t35.5 15.5q5 -13 19 -87.5t16 -82.5q-143 -112 -299 -112q-67 0 -103 44.5t-44 120.5q-158 -170 -310 -170 q-126 0 -202 109.5t-76 318.5zM371 418q0 -86 21 -141.5t63 -55.5q45 0 95 39t116 121l51 393q-42 25 -94 25q-65 0 -115 -33.5t-79 -90t-43.5 -121.5t-14.5 -136z" />
<glyph unicode="e" horiz-adv-x="907" d="M78 420q0 133 46 251.5t122 199.5t174 128.5t201 47.5q149 0 228 -82.5t79 -200.5q0 -77 -35.5 -141.5t-91 -108t-131.5 -76.5t-148.5 -51t-150.5 -29q12 -69 56.5 -104t107.5 -35q112 0 280 86l41 -203q-189 -122 -383 -122q-83 0 -153 26t-125 77.5t-86 138t-31 198.5z M362 561q39 4 86 15.5t99 32.5t86.5 56.5t34.5 77.5q0 31 -21.5 51.5t-56.5 20.5q-87 0 -150 -79t-78 -175z" />
<glyph unicode="f" horiz-adv-x="643" d="M-47 -369l27 228l3 -1q3 -1 11.5 -2t21.5 -1q33 0 58.5 17t41.5 42.5t28.5 67t19 79.5t12.5 91l76 643h-143q11 76 26 202l146 17l14 119q25 206 136.5 319t293.5 113q42 0 94 -9q-6 -63 -28 -231q-12 6 -62 6q-70 0 -104.5 -36t-44.5 -124l-19 -157h170 q-27 -197 -29 -219h-170l-79 -672q-29 -246 -145 -373t-302 -127q-21 0 -53 8z" />
<glyph unicode="g" horiz-adv-x="1017" d="M0 -166q0 147 227 242q-41 29 -55.5 61.5t-7 61t32.5 58t55.5 52.5t69.5 45q-201 91 -201 308q0 98 55 185.5t159 143.5t232 56q137 0 246 -76l217 73l74 -198l-168 -60q16 -43 16 -96q0 -160 -114.5 -257.5t-292.5 -113.5q-70 -36 -70 -53t57 -22l175 -17 q122 -10 192 -73t70 -156q0 -110 -80.5 -196.5t-214.5 -132.5t-295 -46q-192 0 -285.5 58.5t-93.5 152.5zM260 -106q0 -76 186 -76q104 0 171 36.5t67 79.5v3q-2 27 -21.5 44t-70.5 23q-108 6 -174 12q-158 -66 -158 -122zM397 662q0 -63 33 -101.5t90 -38.5q65 0 110.5 48 t45.5 137q0 60 -34 97.5t-93 37.5t-105.5 -51t-46.5 -129z" />
<glyph unicode="h" horiz-adv-x="1097" d="M90 -2l191 1542l282 16l-82 -643q56 61 125 97.5t142 36.5q112 0 186.5 -80.5t77.5 -221.5q0 -37 -13 -151l-36 -313q-2 -2 -2 -23q0 -39 43 -39q8 0 21 4t21.5 8t28 13t25.5 12l33 -178q-62 -42 -136.5 -69t-140.5 -27q-84 0 -132 53.5t-48 140.5q0 19 4 55l43 371 q4 46 4 70q0 64 -23 97.5t-61 33.5q-41 0 -92.5 -37t-97.5 -98l-82 -670h-281z" />
<glyph unicode="i" horiz-adv-x="555" d="M111 166q0 8 1 25t1 22l98 793l281 16l-91 -739q0 -3 -1 -11t-1 -12q0 -22 8.5 -31.5t32.5 -9.5q18 0 37 5t45 15t35 13l21 -199q-88 -39 -154.5 -58.5t-142.5 -19.5q-81 0 -125.5 52t-44.5 139zM236 1321q0 64 45 109t110 45t109.5 -44.5t44.5 -109.5t-45 -111.5 t-109 -46.5t-109.5 46.5t-45.5 111.5z" />
<glyph unicode="j" horiz-adv-x="514" d="M-68 -195q65 39 116 99.5t61 134.5l120 967l281 16l-119 -952q-39 -332 -340 -447zM254 1321q0 64 45.5 109t108.5 45q65 0 110 -45t45 -109q0 -65 -45.5 -111.5t-109.5 -46.5q-63 0 -108.5 46.5t-45.5 111.5z" />
<glyph unicode="k" horiz-adv-x="1007" d="M90 0l191 1540q201 8 305 14l-137 -913l413 406l193 -158l-361 -334q111 -334 180 -334q38 0 111 39l49 -178q-56 -44 -128 -71t-138 -27q-38 0 -72 15t-62.5 47t-51.5 67t-46.5 90t-39.5 99.5t-39 111.5l-29 -19l-55 -395h-283z" />
<glyph unicode="l" horiz-adv-x="567" d="M113 168q0 35 4 63l162 1309l282 16l-153 -1245q-7 -47 -7 -53q0 -39 43 -39q41 0 115 33l21 -199q-88 -39 -154.5 -58.5t-142.5 -19.5q-81 0 -125.5 53t-44.5 140z" />
<glyph unicode="m" horiz-adv-x="1654" d="M92 0l123 1006l262 16l-12 -125q58 65 134 107.5t155 42.5q72 0 130.5 -40t92.5 -112q146 152 305 152q119 0 201 -80t82 -213q0 -57 -11 -154l-36 -319q0 -4 -1 -12t-1 -11q0 -39 43 -39q17 0 98 37l20 -180q-152 -94 -278 -94q-79 0 -124.5 46t-45.5 142q0 19 4 59 l45 377q4 46 4 66q0 64 -23 97.5t-61 33.5q-82 0 -188 -135l-82 -668h-279l72 606q4 16 4 66q0 64 -22 97.5t-60 33.5q-41 0 -92 -38t-96 -97l-84 -668h-279z" />
<glyph unicode="n" horiz-adv-x="1091" d="M92 0l121 1014l264 14l-12 -131q130 150 289 150q109 0 182.5 -75.5t73.5 -211.5q0 -91 -11 -154l-36 -325q-2 -2 -2 -23q0 -39 36 -39q8 0 17.5 2t22 7l20 8t23 10.5t20.5 9.5l22 -180q-156 -94 -278 -94q-77 0 -122.5 45.5t-45.5 124.5q0 37 4 73l43 381q4 46 4 66 q0 64 -22 97.5t-60 33.5q-82 0 -188 -135l-86 -668h-279z" />
<glyph unicode="o" horiz-adv-x="1015" d="M78 434q0 139 45 257.5t119.5 196.5t169 121.5t194.5 43.5q176 0 293 -123.5t117 -341.5q0 -139 -45 -257.5t-119.5 -196.5t-169.5 -121.5t-195 -43.5q-176 0 -292.5 123.5t-116.5 341.5zM371 453q0 -116 42.5 -178t102.5 -62q83 0 145 97t62 255q0 116 -41.5 177 t-101.5 61q-83 0 -146 -96.5t-63 -253.5z" />
<glyph unicode="p" horiz-adv-x="1042" d="M51 -350l164 1364l248 14l-17 -151q159 170 312 170q124 0 204 -105t80 -326q0 -122 -39.5 -236t-111 -202.5t-180.5 -142t-238 -53.5q-51 0 -94 12l-49 -344h-279zM399 250q39 -27 93 -27q65 0 116 34t81.5 89.5t46.5 121.5t16 136q0 97 -27.5 147t-69.5 50 q-83 0 -206 -152z" />
<glyph unicode="q" horiz-adv-x="1009" d="M78 383q0 103 25.5 201.5t75 182t117 146.5t158 98.5t191.5 35.5q37 0 68 -1t63 -5.5t49 -6.5t52 -11t43 -11t51.5 -14.5t50.5 -14.5l-166 -1333h-278l59 461q-63 -66 -134 -101t-134 -35q-134 0 -212.5 111t-78.5 297zM369 393q0 -84 25.5 -127t66.5 -43q87 0 209 142 l55 409q-42 27 -96 27q-66 0 -118 -37.5t-81.5 -98.5t-45 -130.5t-15.5 -141.5z" />
<glyph unicode="r" horiz-adv-x="696" d="M90 0l129 1010l248 22l-12 -182q57 74 139 131.5t164 67.5l4 -267q-80 -12 -149.5 -42t-106.5 -68q-38 -38 -54 -75t-26 -120l-57 -477h-279z" />
<glyph unicode="s" horiz-adv-x="776" d="M55 84l92 217q125 -88 222 -88q41 0 70.5 21.5t29.5 62.5q0 29 -25 54.5t-90 68.5q-48 32 -73 50t-60 49t-51.5 57.5t-29.5 64t-13 80.5q0 132 98.5 229t259.5 97q186 0 334 -117l-114 -199q-48 35 -102.5 57.5t-98.5 22.5q-39 0 -68.5 -18t-29.5 -58q0 -29 24 -53 t86 -64q57 -36 92.5 -63.5t71.5 -66t53 -84t17 -101.5q0 -134 -99 -230t-264 -96q-102 0 -188.5 30t-143.5 77z" />
<glyph unicode="t" horiz-adv-x="690" d="M98 795l25 202l164 17l35 301l284 18l-41 -319h201l-29 -219h-200l-56 -459q-6 -60 -6 -66q0 -45 43 -45q44 0 135 31l21 -207q-149 -69 -268 -69q-111 0 -165.5 50.5t-54.5 133.5q0 44 4 76l68 555h-160z" />
<glyph unicode="u" horiz-adv-x="1105" d="M123 272q0 33 8 107q36 301 78 635h278l-73 -608q-4 -32 -4 -56q0 -61 25.5 -96t60.5 -35q79 0 188 131l82 664h278l-90 -723q0 -3 -1 -11t-1 -12q0 -47 35 -47q8 0 18 2t17.5 4t20.5 7.5t18.5 8t21.5 10t21 9.5q14 -80 33 -170q-145 -115 -297 -115q-59 0 -97.5 38.5 t-50.5 107.5q-142 -148 -293 -148q-276 0 -276 297z" />
<glyph unicode="v" horiz-adv-x="985" d="M125 1006l289 22q15 -66 63.5 -298t69.5 -320q40 83 139.5 314t134.5 304l281 -24v-5l-510 -1019h-213z" />
<glyph unicode="w" horiz-adv-x="1462" d="M121 1010l274 28q87 -476 121 -622l195 434l-29 143l270 31q9 -67 51.5 -295.5t61.5 -310.5q36 81 81 195t94.5 245t66.5 174l264 -28l-447 -1022h-211q-21 90 -65.5 301.5t-56.5 277.5l-254 -579h-197q-108 457 -219 1028z" />
<glyph unicode="x" horiz-adv-x="987" d="M20 16l396 506l-260 486l276 30l158 -290l227 286q136 -19 266 -33l-372 -483l270 -502q-92 -10 -276 -26l-166 303l-238 -305q-184 20 -281 28z" />
<glyph unicode="y" horiz-adv-x="987" d="M45 -346l59 223q31 -8 62 -8q68 0 116 40t85 118l14 34q-36 149 -135 505.5t-121 441.5l295 20q8 -36 62 -273.5t79 -338.5q53 113 149 343t113 269l289 -20l-520 -1096q-39 -82 -88.5 -140.5t-102 -89.5t-102 -45t-100.5 -14q-92 0 -154 31z" />
<glyph unicode="z" horiz-adv-x="892" d="M72 0l14 147l477 648h-393l37 219h737l-18 -150l-475 -639h397l-25 -225h-751z" />
<glyph unicode="{" horiz-adv-x="628" d="M104 582q79 65 101 100.5t31 112.5l65 516q14 109 82.5 173t179.5 64h219l-30 -241h-101q-44 0 -67 -17.5t-29 -60.5l-57 -467q-9 -73 -32 -108.5t-85 -71.5q41 -30 58 -56t18 -65q0 -14 -4 -60l-47 -397q0 -4 -2.5 -27t-2.5 -24q0 -59 76 -59h101l-29 -244h-199 q-103 0 -162 59.5t-59 163.5q0 44 4 80l51 414q4 46 4 67q0 35 -18 65.5t-66 82.5z" />
<glyph unicode="|" horiz-adv-x="647" d="M168 -158l209 1706h270l-211 -1706h-268z" />
<glyph unicode="}" horiz-adv-x="624" d="M-8 -350l31 244h98q44 0 67 17t29 58l55 430q7 70 30 106.5t85 74.5q-40 28 -56.5 53.5t-19.5 64.5q0 12 4 62l54 434q6 24 6 53q-3 60 -78 60h-100l30 241h197q104 0 163.5 -59.5t59.5 -163.5q0 -26 -6 -80l-55 -452q-4 -46 -4 -66q0 -36 18 -67.5t66 -79.5 q-80 -65 -102.5 -101t-31.5 -112l-59 -478q-14 -110 -83.5 -174.5t-178.5 -64.5h-219z" />
<glyph unicode="~" horiz-adv-x="1226" d="M133 381q32 172 134.5 269.5t244.5 97.5q52 0 111.5 -23t103.5 -50t91.5 -50t78.5 -23q38 0 70.5 37t40.5 106l241 -24q-32 -173 -129.5 -270t-238.5 -97q-57 0 -117 22t-102 48t-90.5 48t-84.5 22q-41 0 -75 -34.5t-47 -101.5z" />
<glyph unicode="&#xa1;" horiz-adv-x="528" d="M45 -352l141 977l275 -21l-101 -956h-315zM203 897q0 64 46 110t111 46q64 0 110 -45.5t46 -110.5t-46 -111.5t-110 -46.5t-110.5 46.5t-46.5 111.5z" />
<glyph unicode="&#xa2;" horiz-adv-x="825" d="M104 455q0 128 48 244t141.5 203.5t218.5 121.5q6 42 16.5 129.5t16.5 132.5h248q-5 -47 -16.5 -132.5t-14.5 -113.5q86 -11 131 -36q-33 -130 -64 -234q-62 27 -137 27q-128 0 -211.5 -95t-83.5 -229q0 -104 54 -169.5t147 -65.5q91 0 172 24l21 -237q-42 -15 -158 -33 q-5 -43 -17.5 -131.5t-17.5 -134.5h-248l35 284q-125 32 -203 150.5t-78 294.5z" />
<glyph unicode="&#xa3;" horiz-adv-x="1024" d="M59 496l29 231h168l74 317q21 90 55 157.5t72.5 107t88 64t95.5 32.5t100 8q157 0 308 -86l-113 -246q-120 60 -186 60q-111 0 -144 -148l-61 -266h237l-28 -229h-252q-42 -184 -68 -269h506l-27 -229h-843q0 2 -1 8t-1 8q36 84 74.5 219.5t64.5 260.5h-148z" />
<glyph unicode="&#xa4;" horiz-adv-x="1024" d="M72 217l147 131q-26 62 -26 139q0 122 63 222l-109 122l166 150l111 -127q73 37 168 37q108 0 184 -45l150 135l133 -150l-156 -139q25 -70 25 -137q0 -107 -56 -213l111 -125l-166 -149l-112 125q-75 -37 -173 -37q-104 0 -182 43l-145 -131zM422 494q0 -60 31.5 -101 t89.5 -41q74 0 119 61.5t45 137.5q0 61 -31 102t-88 41q-74 0 -120 -62t-46 -138z" />
<glyph unicode="&#xa5;" horiz-adv-x="1187" d="M156 246l24 211h324l16 129h-323l26 211h230l-240 559h307l189 -451l292 451h302l-375 -559h233l-26 -211h-322l-16 -129h321l-24 -211h-322l-29 -246h-292l28 246h-323z" />
<glyph unicode="&#xa6;" horiz-adv-x="647" d="M168 -154l82 674h270l-84 -674h-268zM295 877l82 673h268l-82 -673h-268z" />
<glyph unicode="&#xa7;" horiz-adv-x="1224" d="M195 -250l110 223q173 -100 285 -100q61 0 100 36t39 91q0 84 -141 147q-153 68 -214 109q-151 103 -162 264q-1 13 -1 27q0 236 192 416q-63 92 -63 204q0 101 50.5 191t148 148.5t219.5 58.5q111 0 202 -31.5t195 -89.5l-104 -225q-3 2 -53.5 29t-71 36t-64 21 t-82.5 12q-64 0 -107.5 -39.5t-43.5 -91.5q0 -40 29.5 -74.5t109.5 -71.5q21 -10 65 -30.5t68.5 -32t63 -33.5t61 -40.5t50 -47.5t42 -59.5t25 -71.5t10.5 -88q0 -227 -197 -414q62 -92 62 -198q0 -103 -49 -194t-143 -149.5t-212 -58.5q-123 0 -221 32t-198 95zM492 590 q0 -24 6.5 -45t14 -36.5t27.5 -32t31 -25.5t41.5 -23.5t43 -20t50.5 -20.5t50 -20q48 42 79 105.5t31 129.5q0 35 -12.5 63.5t-29.5 46.5t-47 35t-53.5 26.5t-62 24t-59.5 23.5q-48 -42 -79 -104t-31 -127z" />
<glyph unicode="&#xa9;" horiz-adv-x="1636" d="M176 692q0 136 46 261t133.5 226.5t229 162.5t316.5 61q141 0 260.5 -40t203.5 -108.5t143 -159.5t87.5 -193t28.5 -210t-28.5 -211t-88 -195t-143.5 -161t-203.5 -109.5t-259.5 -40.5t-259.5 40.5t-204 109.5t-144.5 161t-88.5 195t-28.5 211zM358 692q0 -105 35 -202 t100.5 -174.5t171.5 -124t236 -46.5t235 46.5t170.5 124t100.5 174.5t35 202q0 81 -21.5 158t-66 146t-107.5 120.5t-152 82t-194 30.5q-132 0 -238 -46t-171 -123t-99.5 -171.5t-34.5 -196.5zM504 688q0 113 46 211t140.5 161.5t220.5 63.5q116 0 213 -53l-45 -156 q-75 35 -159 35q-97 0 -154 -76t-57 -186q0 -116 60.5 -180t170.5 -64q57 0 145 31l35 -160l6 -4q-104 -49 -213 -49q-182 0 -295.5 121t-113.5 305z" />
<glyph unicode="&#xaa;" horiz-adv-x="794" d="M172 1077q0 86 27.5 166t77.5 143.5t127 101.5t169 38q130 0 258 -47l-53 -447q-4 -20 -4 -53q0 -14 12 -14q6 0 15.5 3t30.5 11.5t40 15.5q10 -58 27 -133q-109 -82 -217 -82q-92 0 -109 101q-97 -105 -200 -105q-91 0 -146 77t-55 224zM391 1090q0 -125 47 -125 q52 0 133 104l35 258q-21 12 -49 12q-42 0 -75 -22.5t-52 -59.5t-29 -79.5t-10 -87.5z" />
<glyph unicode="&#xab;" horiz-adv-x="1107" d="M129 545l422 463l133 -148l-283 -328l238 -348l-172 -102zM567 535l432 473l138 -144l-303 -340l227 -340l-176 -102z" />
<glyph unicode="&#xac;" horiz-adv-x="1261" d="M170 432l27 213h1026l-64 -518h-244l39 305h-784z" />
<glyph unicode="&#xad;" horiz-adv-x="577" d="M57 414l31 245h479l-28 -245h-482z" />
<glyph unicode="&#xae;" horiz-adv-x="1636" d="M176 692q0 136 46 261t133.5 226.5t229 162.5t316.5 61q141 0 260.5 -40t203.5 -108.5t143 -159.5t87.5 -193t28.5 -210t-28.5 -211t-88 -195t-143.5 -161t-203.5 -109.5t-259.5 -40.5t-259.5 40.5t-204 109.5t-144.5 161t-88.5 195t-28.5 211zM358 692q0 -105 35 -202 t100.5 -174.5t171.5 -124t236 -46.5t235 46.5t170.5 124t100.5 174.5t35 202q0 81 -21.5 158t-66 146t-107.5 120.5t-152 82t-194 30.5q-132 0 -238 -46t-171 -123t-99.5 -171.5t-34.5 -196.5zM631 276v834h264q144 0 219.5 -67.5t75.5 -184.5q0 -172 -158 -246 q119 -199 191 -307l-199 -43q-40 63 -184 328h-19v-314h-190zM821 735h56q50 0 80 33t30 84q0 44 -26 72t-72 28h-68v-217z" />
<glyph unicode="&#xb0;" horiz-adv-x="903" d="M238 1112q0 108 51 187.5t127 117t164 37.5q64 0 124.5 -22.5t110 -64t79.5 -108t30 -147.5q0 -82 -30 -148.5t-79.5 -107.5t-110 -62.5t-124.5 -21.5q-65 0 -125.5 22t-109 63t-78 107.5t-29.5 147.5zM451 1112q0 -60 37.5 -98.5t91.5 -38.5q55 0 93 40t38 99t-38 97 t-93 38q-53 0 -91 -39t-38 -98z" />
<glyph unicode="&#xb1;" horiz-adv-x="1261" d="M109 2l24 211h1045l-25 -211h-1044zM178 705l25 210h420l49 400h237l-49 -400h418l-25 -210h-417l-52 -400h-237l51 400h-420z" />
<glyph unicode="&#xb2;" horiz-adv-x="856" d="M119 588l14 160l62 49q88 70 146.5 120.5t125.5 115t101 118t34 94.5q0 37 -23 58.5t-65 21.5q-68 0 -182 -96q-10 13 -51.5 68.5t-63.5 86.5q161 148 352 148q122 0 205.5 -67.5t83.5 -192.5q0 -54 -19 -107t-47.5 -97t-80 -96.5t-98 -92.5t-119.5 -99h333 q-6 -66 -22 -192h-686z" />
<glyph unicode="&#xb3;" horiz-adv-x="714" d="M119 637l51 182q32 -15 82.5 -26t95.5 -11q66 0 109 27t43 78q0 33 -27.5 60.5t-73.5 27.5h-143l12 170l131 8q63 3 95 33t32 71q0 34 -25 59t-67 25q-92 0 -182 -47l-59 170q59 36 140.5 59t162.5 23q122 0 201 -73t79 -173q0 -75 -42 -141t-116 -104q57 -23 87 -74.5 t30 -122.5q0 -66 -31 -121.5t-81 -91t-110.5 -55t-121.5 -19.5q-155 0 -272 66z" />
<glyph unicode="&#xb5;" horiz-adv-x="1044" d="M39 -352q73 491 108 764l74 610h281l-74 -604q-2 -14 -2 -41q0 -69 32 -109.5t101 -40.5q136 0 160 195l74 600h280l-76 -629q-12 -111 -12 -121q0 -51 41 -51q27 0 94 23l25 -172q-104 -90 -223 -90q-117 0 -162 96q-89 -103 -211 -103q-125 0 -191 95l-41 -422h-278z " />
<glyph unicode="&#xb6;" horiz-adv-x="1306" d="M156 893q0 102 35 190.5t101 156t170 106t234 38.5h725l-30 -239h-136l-184 -1495h-248l185 1495h-154l-184 -1495h-248l106 850q-166 13 -269 126.5t-103 266.5z" />
<glyph unicode="&#xb7;" d="M131 690q0 66 45.5 112t110.5 46t110 -46t45 -112q0 -65 -45.5 -111.5t-109.5 -46.5t-110 46.5t-46 111.5z" />
<glyph unicode="&#xb9;" horiz-adv-x="698" d="M145 588l23 194h164l67 543q-123 -10 -166 -10l25 186l410 37l-93 -756h166l-20 -194h-576z" />
<glyph unicode="&#xba;" horiz-adv-x="837" d="M219 1100q0 97 32 180t84.5 137t119 84.5t135.5 30.5q126 0 208.5 -87t82.5 -239q0 -97 -31.5 -180t-84 -137t-119 -84.5t-136.5 -30.5q-125 0 -208 86.5t-83 239.5zM440 1114q0 -76 25.5 -114.5t64.5 -38.5q50 0 89.5 63.5t39.5 165.5q0 73 -25.5 112t-60.5 39 q-54 0 -93.5 -62.5t-39.5 -164.5z" />
<glyph unicode="&#xbb;" horiz-adv-x="1107" d="M86 225l303 340l-227 340l178 103l315 -453l-430 -473zM539 229l282 328l-237 348l174 103l338 -463l-422 -463z" />
<glyph unicode="&#xbc;" horiz-adv-x="1843" d="M147 588q3 30 11.5 95t11.5 99h164l67 543q-125 -10 -165 -10l24 186q40 3 410 37l-92 -756h165l-20 -194h-576zM410 0l962 1522h248l-963 -1522h-247zM1057 207l24 164l435 561h274l-64 -535h140q-3 -32 -11.5 -95.5t-11.5 -94.5h-139l-25 -207h-217l29 207h-434z M1313 397h203l38 314z" />
<glyph unicode="&#xbd;" horiz-adv-x="1867" d="M145 588q3 30 11.5 95t11.5 99h164l67 543q-125 -10 -166 -10l25 186q40 3 410 37l-93 -756h166l-20 -194h-576zM408 0l962 1522h248l-963 -1522h-247zM1133 0l14 160q31 26 93 76t96.5 78.5t85 73t79.5 75t58.5 67t43 68t13.5 59.5q0 37 -23 58.5t-65 21.5 q-68 0 -182 -96q-13 18 -36.5 49.5t-43 57.5t-35.5 49q160 147 352 147q122 0 205.5 -67.5t83.5 -192.5q0 -54 -19 -107t-47.5 -96.5t-81 -96.5t-98 -92.5t-119.5 -98.5h334q-6 -70 -22 -193h-686z" />
<glyph unicode="&#xbe;" horiz-adv-x="1859" d="M113 637q29 100 51 182q32 -15 82.5 -26t95.5 -11q66 0 109 27t43 78q0 33 -27.5 60.5t-73.5 27.5h-143l12 170l109 6q145 6 145 111q0 29 -23 54t-65 25q-92 0 -182 -47q-50 143 -60 170q59 36 140.5 59t162.5 23q122 0 200.5 -73t80.5 -173q0 -75 -42 -141t-116 -104 q57 -23 87 -74.5t30 -122.5q0 -66 -31 -121.5t-81 -91t-110.5 -55t-121.5 -19.5q-155 0 -272 66zM381 0l965 1522h247l-964 -1522h-248zM1028 207l25 164l434 561h276l-65 -535h141l-24 -190h-140q-4 -33 -11 -103t-11 -104h-217l26 207h-434zM1284 397h203l41 314z" />
<glyph unicode="&#xbf;" horiz-adv-x="980" d="M70 -35q0 109 53.5 190.5t177.5 184.5q99 81 145 145.5t56 151.5l260 -21q-2 -127 -28.5 -206.5t-94.5 -147.5q-40 -39 -116 -95.5t-114 -96.5t-38 -84q0 -42 32 -67t82 -25q64 0 125 20.5t154 69.5l84 -215q-94 -68 -204 -106t-214 -38q-159 0 -259.5 93t-100.5 247z M492 897q0 65 46.5 111.5t110.5 46.5t110 -46.5t46 -111.5q0 -66 -45.5 -112t-110.5 -46t-111 46t-46 112z" />
<glyph unicode="&#xc0;" horiz-adv-x="1265" d="M-31 0l606 1292q-3 25 -16 92l303 15l318 -1399l-322 -8q-10 47 -29 144.5t-26 129.5h-414l-117 -274zM373 1802h329l132 -317h-244zM479 483h283l-92 441z" />
<glyph unicode="&#xc1;" horiz-adv-x="1265" d="M-31 0l606 1292q-3 25 -16 92l303 15l318 -1399l-322 -8q-10 47 -29 144.5t-26 129.5h-414l-117 -274zM479 483h283l-92 441zM608 1485l209 317h332l-297 -317h-244z" />
<glyph unicode="&#xc2;" horiz-adv-x="1265" d="M-31 0l606 1292q-3 25 -16 92l303 15l318 -1399l-322 -8q-10 47 -29 144.5t-26 129.5h-414l-117 -274zM391 1485l242 317h285l163 -317l-227 -6l-100 151l-144 -160q-102 6 -219 15zM479 483h283l-92 441z" />
<glyph unicode="&#xc3;" horiz-adv-x="1265" d="M-31 0l606 1292q-3 25 -16 92l303 15l318 -1399l-322 -8q-10 47 -29 144.5t-26 129.5h-414l-117 -274zM410 1491q17 146 79 221.5t164 75.5q48 0 103.5 -23.5t100.5 -47t67 -23.5q52 0 65 94h178q-39 -301 -249 -301q-48 0 -101 24.5t-96 49t-68 24.5q-28 0 -42.5 -22.5 t-24.5 -71.5h-176zM479 483h283l-92 441z" />
<glyph unicode="&#xc4;" horiz-adv-x="1265" d="M-31 0l606 1292q-3 25 -16 92l303 15l318 -1399l-322 -8q-10 47 -29 144.5t-26 129.5h-414l-117 -274zM395 1638q0 58 41.5 99t98.5 41t98 -41t41 -99q0 -57 -41 -99t-98 -42t-98.5 42t-41.5 99zM479 483h283l-92 441zM817 1638q0 58 41 99t98 41t97.5 -41t40.5 -99 q0 -57 -40.5 -99t-97.5 -42t-98 42t-41 99z" />
<glyph unicode="&#xc5;" horiz-adv-x="1265" d="M-31 0l606 1292q-3 25 -16 92l303 15l318 -1399l-322 -8q-10 47 -29 144.5t-26 129.5h-414l-117 -274zM479 483h283l-92 441zM494 1651q0 89 62 148t149 59t148.5 -59.5t61.5 -149.5t-63 -150.5t-150 -60.5q-86 0 -147 61t-61 152zM610 1647q0 -43 29 -72t68 -29 q38 0 66 30t28 73t-27.5 70.5t-66.5 27.5q-38 0 -67.5 -28.5t-29.5 -71.5z" />
<glyph unicode="&#xc6;" horiz-adv-x="1687" d="M-20 2l903 1305l10 79h833q-1 -5 -30 -245h-432l-41 -326h362l-31 -246h-362l-41 -325h465q-26 -213 -29 -244h-758l31 270h-368l-187 -284q-56 2 -163.5 8t-161.5 8zM631 487h260l59 467z" />
<glyph unicode="&#xc7;" horiz-adv-x="1044" d="M104 618q0 113 28 225t86 214t138.5 180.5t194 125t244.5 46.5q180 0 301 -68l-80 -235q-91 39 -191 39q-186 0 -297.5 -147.5t-111.5 -372.5q0 -180 83.5 -280.5t227.5 -100.5q77 0 184 35l33 -238q-117 -51 -309 -55l-23 -49q33 -7 62.5 -18.5t56.5 -30.5t43.5 -47.5 t16.5 -63.5q0 -67 -63 -110.5t-175 -43.5q-151 0 -244 41l60 115q64 -27 114 -27q24 0 38 10.5t14 26.5q0 55 -125 78l67 137q-171 54 -272 208t-101 406z" />
<glyph unicode="&#xc8;" horiz-adv-x="956" d="M68 0l170 1386h725l-31 -245h-432l-39 -326h368q-3 -27 -9 -77.5t-11 -91.5t-10 -77h-369l-41 -325h467q-4 -41 -14.5 -122t-14.5 -122h-759zM293 1802h330l133 -317h-244z" />
<glyph unicode="&#xc9;" horiz-adv-x="956" d="M68 0l170 1386h725l-31 -245h-432l-39 -326h368q-3 -27 -9 -77.5t-11 -91.5t-10 -77h-369l-41 -325h467q-4 -41 -14.5 -122t-14.5 -122h-759zM514 1483l209 317h330l-295 -317h-244z" />
<glyph unicode="&#xca;" horiz-adv-x="956" d="M68 0l170 1386h725l-31 -245h-432l-39 -326h368q-3 -27 -9 -77.5t-11 -91.5t-10 -77h-369l-41 -325h467q-4 -41 -14.5 -122t-14.5 -122h-759zM260 1485l240 317h284l164 -317l-227 -6l-98 151l-146 -160q-105 6 -217 15z" />
<glyph unicode="&#xcb;" horiz-adv-x="956" d="M68 0l170 1386h725l-31 -245h-432l-39 -326h368q-3 -27 -9 -77.5t-11 -91.5t-10 -77h-369l-41 -325h467q-4 -41 -14.5 -122t-14.5 -122h-759zM260 1636q0 58 41 99t100 41q57 0 97.5 -41t40.5 -99q0 -57 -40.5 -99t-97.5 -42q-58 0 -99.5 42t-41.5 99zM692 1636 q0 58 41 99t98 41q59 0 99.5 -41t40.5 -99q0 -57 -41 -99t-99 -42q-57 0 -98 42t-41 99z" />
<glyph unicode="&#xcc;" d="M63 1802h330l131 -317h-243zM76 -2l170 1388h295l-172 -1388h-293z" />
<glyph unicode="&#xcd;" d="M76 -2l170 1388h295l-172 -1388h-293zM293 1485l209 317h332l-297 -317h-244z" />
<glyph unicode="&#xce;" d="M61 1485l242 317h285l164 -317l-228 -6l-100 151l-143 -160zM76 -2l170 1388h295l-172 -1388h-293z" />
<glyph unicode="&#xcf;" d="M63 1638q0 58 41.5 99t98.5 41q58 0 98.5 -40.5t40.5 -99.5q0 -58 -40.5 -99.5t-98.5 -41.5q-57 0 -98.5 42t-41.5 99zM76 -2l170 1388h295l-172 -1388h-293zM496 1638q0 58 41 99t98 41t98 -41t41 -99q0 -57 -41 -99t-98 -42t-98 42t-41 99z" />
<glyph unicode="&#xd0;" horiz-adv-x="1228" d="M18 575l29 230h117l72 581h339q155 0 274 -44.5t193.5 -125.5t112 -189t37.5 -239q0 -124 -29 -239t-89.5 -215.5t-147 -174.5t-208.5 -116.5t-267 -42.5h-383l69 575h-119zM385 246h90q79 1 147 33t115 85t80.5 122.5t49.5 144.5t16 151q0 172 -88.5 264.5t-241.5 92.5 h-57l-41 -334h194l-28 -230h-195z" />
<glyph unicode="&#xd1;" horiz-adv-x="1271" d="M74 0l159 1264l-49 116l293 19l424 -873l107 860h276l-170 -1386l-246 -4q-35 69 -190 396t-223 456l-103 -848h-278zM418 1489q37 301 250 301q50 0 104 -24.5t97 -49t65 -24.5q49 0 65 96h177q-36 -301 -250 -301q-48 0 -100 24t-95 48t-69 24q-28 0 -43.5 -22.5 t-24.5 -71.5h-176z" />
<glyph unicode="&#xd2;" horiz-adv-x="1396" d="M111 616q0 117 27.5 231.5t84 217.5t135 181.5t189 124.5t237.5 46q138 0 248.5 -49.5t181.5 -136.5t108.5 -203t37.5 -252q0 -117 -27.5 -231t-84.5 -217t-136 -181.5t-190.5 -125t-239.5 -46.5q-137 0 -246.5 49.5t-180 136.5t-107.5 203t-37 252zM414 623 q0 -173 75.5 -278t210.5 -105q166 0 261.5 148.5t95.5 381.5q0 108 -31 193.5t-98 138.5t-160 53q-110 0 -191 -70t-122 -189.5t-41 -272.5zM459 1802h329l134 -317h-246z" />
<glyph unicode="&#xd3;" horiz-adv-x="1396" d="M111 616q0 117 27.5 231.5t84 217.5t135 181.5t189 124.5t237.5 46q138 0 248.5 -49.5t181.5 -136.5t108.5 -203t37.5 -252q0 -117 -27.5 -231t-84.5 -217t-136 -181.5t-190.5 -125t-239.5 -46.5q-137 0 -246.5 49.5t-180 136.5t-107.5 203t-37 252zM414 623 q0 -173 75.5 -278t210.5 -105q166 0 261.5 148.5t95.5 381.5q0 108 -31 193.5t-98 138.5t-160 53q-110 0 -191 -70t-122 -189.5t-41 -272.5zM676 1483l209 317h329l-294 -317h-244z" />
<glyph unicode="&#xd4;" horiz-adv-x="1396" d="M111 616q0 117 27.5 231.5t84 217.5t135 181.5t189 124.5t237.5 46q138 0 248.5 -49.5t181.5 -136.5t108.5 -203t37.5 -252q0 -117 -27.5 -231t-84.5 -217t-136 -181.5t-190.5 -125t-239.5 -46.5q-137 0 -246.5 49.5t-180 136.5t-107.5 203t-37 252zM414 623 q0 -173 75.5 -278t210.5 -105q166 0 261.5 148.5t95.5 381.5q0 108 -31 193.5t-98 138.5t-160 53q-110 0 -191 -70t-122 -189.5t-41 -272.5zM455 1485l239 317h285l164 -317l-228 -6l-98 151l-145 -160z" />
<glyph unicode="&#xd5;" horiz-adv-x="1396" d="M111 616q0 117 27.5 231.5t84 217.5t135 181.5t189 124.5t237.5 46q138 0 248.5 -49.5t181.5 -136.5t108.5 -203t37.5 -252q0 -117 -27.5 -231t-84.5 -217t-136 -181.5t-190.5 -125t-239.5 -46.5q-137 0 -246.5 49.5t-180 136.5t-107.5 203t-37 252zM414 623 q0 -173 75.5 -278t210.5 -105q166 0 261.5 148.5t95.5 381.5q0 108 -31 193.5t-98 138.5t-160 53q-110 0 -191 -70t-122 -189.5t-41 -272.5zM516 1489q18 150 82.5 224.5t167.5 74.5q50 0 104 -24t97 -48t65 -24q50 0 66 94h176q-36 -301 -250 -301q-48 0 -100 24.5 t-94.5 49t-67.5 24.5q-52 0 -70 -94h-176z" />
<glyph unicode="&#xd6;" horiz-adv-x="1396" d="M111 616q0 117 27.5 231.5t84 217.5t135 181.5t189 124.5t237.5 46q138 0 248.5 -49.5t181.5 -136.5t108.5 -203t37.5 -252q0 -117 -27.5 -231t-84.5 -217t-136 -181.5t-190.5 -125t-239.5 -46.5q-137 0 -246.5 49.5t-180 136.5t-107.5 203t-37 252zM414 623 q0 -173 75.5 -278t210.5 -105q166 0 261.5 148.5t95.5 381.5q0 108 -31 193.5t-98 138.5t-160 53q-110 0 -191 -70t-122 -189.5t-41 -272.5zM457 1640q0 57 41 98.5t98 41.5q58 0 98.5 -41.5t40.5 -98.5q0 -59 -40.5 -100t-98.5 -41q-57 0 -98 41.5t-41 99.5zM889 1640 q0 57 41 98.5t98 41.5t98 -41.5t41 -98.5q0 -58 -41 -99.5t-98 -41.5t-98 41.5t-41 99.5z" />
<glyph unicode="&#xd7;" horiz-adv-x="1261" d="M188 231l344 308l-268 307l166 149l266 -307l346 307l134 -149l-345 -309l269 -306l-166 -149l-270 307l-342 -307z" />
<glyph unicode="&#xd8;" horiz-adv-x="1386" d="M70 45l143 176q-102 154 -102 395q0 117 27.5 231.5t84 217.5t135 181.5t189 124.5t237.5 46q183 0 322 -92l117 145l170 -127l-138 -169q105 -164 105 -398q0 -117 -27.5 -231t-84.5 -217t-136 -181.5t-190.5 -125t-239.5 -46.5q-182 0 -322 93l-120 -154zM414 623 q3 -75 20 -127l492 606q-66 53 -158 53q-110 0 -191 -70t-122 -189.5t-41 -272.5zM543 291q63 -51 157 -51q166 0 261.5 148.5t95.5 381.5q0 61 -21 129z" />
<glyph unicode="&#xd9;" horiz-adv-x="1222" d="M115 395q0 42 6 117l110 874h293l-110 -903q-2 -23 -2 -61q0 -92 45 -144.5t137 -52.5q100 0 160 65t75 185l113 911h293l-113 -915q-31 -244 -168 -369t-374 -125q-224 0 -344.5 111.5t-120.5 306.5zM401 1802h330l133 -317h-246z" />
<glyph unicode="&#xda;" horiz-adv-x="1222" d="M115 395q0 42 6 117l110 874h293l-110 -903q-2 -23 -2 -61q0 -92 45 -144.5t137 -52.5q100 0 160 65t75 185l113 911h293l-113 -915q-31 -244 -168 -369t-374 -125q-224 0 -344.5 111.5t-120.5 306.5zM614 1485l209 317h332l-297 -317h-244z" />
<glyph unicode="&#xdb;" horiz-adv-x="1222" d="M115 395q0 42 6 117l110 874h293l-110 -903q-2 -23 -2 -61q0 -92 45 -144.5t137 -52.5q100 0 160 65t75 185l113 911h293l-113 -915q-31 -244 -168 -369t-374 -125q-224 0 -344.5 111.5t-120.5 306.5zM387 1485l242 317h284l164 -317l-227 -6l-100 151l-144 -160z" />
<glyph unicode="&#xdc;" horiz-adv-x="1212" d="M115 395q0 42 6 117l110 874h293l-110 -903q-2 -23 -2 -61q0 -92 45 -144.5t137 -52.5q100 0 160 65t75 185l113 911h293l-113 -915q-31 -244 -168 -369t-374 -125q-224 0 -344.5 111.5t-120.5 306.5zM403 1638q0 58 41.5 99t98.5 41t98 -41t41 -99q0 -57 -41 -99 t-98 -42t-98.5 42t-41.5 99zM836 1638q0 58 41 99t98 41t97 -41t40 -99q0 -57 -40 -99t-97 -42t-98 42t-41 99z" />
<glyph unicode="&#xdd;" horiz-adv-x="1153" d="M117 1384l313 11q124 -329 203 -504q264 396 330 502l327 -9l-532 -766l-76 -618h-297l78 608q-159 334 -346 776zM590 1483l209 317h329l-294 -317h-244z" />
<glyph unicode="&#xde;" horiz-adv-x="1105" d="M66 0l170 1386h290l-28 -233h67q225 0 345 -112t120 -304q0 -206 -142.5 -331t-385.5 -125h-113l-33 -281h-290zM418 514h96q95 0 161 60t66 151q0 81 -51 135.5t-145 54.5h-78z" />
<glyph unicode="&#xdf;" horiz-adv-x="1097" d="M-119 -371l29 232q2 -4 37 -4q62 0 99 58t48 153l137 1089q23 189 144.5 293t310.5 104q97 0 175 -30.5t125.5 -80.5t72 -110.5t24.5 -124.5q0 -68 -22.5 -127.5t-54.5 -99t-63.5 -71.5t-54 -60t-22.5 -51q0 -24 23.5 -55t57.5 -65t68 -73.5t57.5 -93t23.5 -111.5 q0 -106 -37.5 -187.5t-100.5 -129.5t-139.5 -72t-161.5 -24q-115 0 -213 45l64 233q56 -24 108 -24q89 0 137 49.5t48 130.5q0 33 -23 69.5t-55.5 70.5t-65.5 69.5t-56 79t-23 86.5q0 44 23 83.5t56 70t66.5 62t56.5 74t23 91.5q0 58 -35 98.5t-94 40.5q-58 0 -104.5 -41.5 t-55.5 -110.5l-141 -1097q-27 -217 -139.5 -331t-284.5 -114q-23 0 -34.5 1t-19.5 2.5t-14 2.5z" />
<glyph unicode="&#xe0;" horiz-adv-x="1083" d="M78 401q0 123 39 237.5t110 205.5t182.5 145.5t245.5 54.5q199 0 359 -63q-56 -474 -84 -684q0 -3 -1 -12t-1 -15q0 -49 35 -49q25 0 114 41q5 -13 19 -87.5t16 -82.5q-143 -115 -301 -115q-63 0 -98 46.5t-45 123.5q-80 -85 -150 -128.5t-162 -43.5q-126 0 -202 107.5 t-76 318.5zM326 1452h329l133 -317h-243zM369 420q0 -93 21.5 -146t64.5 -53q45 0 94.5 39t116.5 121q4 36 25.5 196.5t25.5 196.5q-45 25 -90 25q-65 0 -116 -34.5t-81 -90.5t-45.5 -121t-15.5 -133z" />
<glyph unicode="&#xe1;" horiz-adv-x="1083" d="M78 401q0 123 39 237.5t110 205.5t182.5 145.5t245.5 54.5q199 0 359 -63q-56 -474 -84 -684q0 -3 -1 -12t-1 -15q0 -49 35 -49q25 0 114 41q5 -13 19 -87.5t16 -82.5q-143 -115 -301 -115q-63 0 -98 46.5t-45 123.5q-80 -85 -150 -128.5t-162 -43.5q-126 0 -202 107.5 t-76 318.5zM369 420q0 -93 21.5 -146t64.5 -53q45 0 94.5 39t116.5 121q4 36 25.5 196.5t25.5 196.5q-45 25 -90 25q-65 0 -116 -34.5t-81 -90.5t-45.5 -121t-15.5 -133zM528 1135l209 317h330l-295 -317h-244z" />
<glyph unicode="&#xe2;" horiz-adv-x="1083" d="M78 401q0 123 39 237.5t110 205.5t182.5 145.5t245.5 54.5q199 0 359 -63l-84 -684q0 -3 -1 -12t-1 -15q0 -49 35 -49q25 0 114 41l35 -170q-143 -115 -301 -115q-63 0 -98 46.5t-45 123.5q-79 -84 -149 -127t-163 -43q-126 0 -202 106.5t-76 317.5zM295 1135l242 317 h284l162 -317q-185 -5 -227 -5l-99 150l-145 -160zM369 420q0 -93 21.5 -146t64.5 -53q45 0 94.5 39t116.5 121l51 393q-45 25 -90 25q-65 0 -116 -34.5t-81 -90.5t-45.5 -121t-15.5 -133z" />
<glyph unicode="&#xe3;" horiz-adv-x="1083" d="M78 401q0 123 39 237.5t110 205.5t182.5 145.5t245.5 54.5q199 0 359 -63q-56 -474 -84 -684q0 -3 -1 -12t-1 -15q0 -49 35 -49q25 0 114 41q5 -13 19 -87.5t16 -82.5q-143 -115 -301 -115q-63 0 -98 46.5t-45 123.5q-80 -85 -150 -128.5t-162 -43.5q-126 0 -202 107.5 t-76 318.5zM303 1141q17 146 80 221.5t164 75.5q47 0 102.5 -24t101 -47.5t68.5 -23.5q50 0 66 97h176q-36 -301 -250 -301q-48 0 -100 24.5t-94.5 49t-67.5 24.5q-28 0 -44.5 -23.5t-25.5 -72.5h-176zM369 420q0 -93 21.5 -146t64.5 -53q45 0 94.5 39t116.5 121 q4 36 25.5 196.5t25.5 196.5q-45 25 -90 25q-65 0 -116 -34.5t-81 -90.5t-45.5 -121t-15.5 -133z" />
<glyph unicode="&#xe4;" horiz-adv-x="1083" d="M78 401q0 123 39 237.5t110 205.5t182.5 145.5t245.5 54.5q199 0 359 -63q-56 -474 -84 -684q0 -3 -1 -12t-1 -15q0 -49 35 -49q25 0 114 41q5 -13 19 -87.5t16 -82.5q-143 -115 -301 -115q-63 0 -98 46.5t-45 123.5q-80 -85 -150 -128.5t-162 -43.5q-126 0 -202 107.5 t-76 318.5zM305 1307q0 58 41 98.5t100 40.5q57 0 97.5 -40.5t40.5 -98.5q0 -57 -40.5 -99.5t-97.5 -42.5q-58 0 -99.5 42.5t-41.5 99.5zM369 420q0 -93 21.5 -146t64.5 -53q45 0 94.5 39t116.5 121q4 36 25.5 196.5t25.5 196.5q-45 25 -90 25q-65 0 -116 -34.5t-81 -90.5 t-45.5 -121t-15.5 -133zM737 1307q0 58 41.5 98.5t100.5 40.5q57 0 97 -40.5t40 -98.5q0 -57 -40 -99.5t-97 -42.5q-58 0 -100 42.5t-42 99.5z" />
<glyph unicode="&#xe5;" horiz-adv-x="1083" d="M78 401q0 123 39 237.5t110 205.5t182.5 145.5t245.5 54.5q199 0 359 -63q-56 -474 -84 -684q0 -3 -1 -12t-1 -15q0 -49 35 -49q25 0 114 41q5 -13 19 -87.5t16 -82.5q-143 -115 -301 -115q-63 0 -98 46.5t-45 123.5q-80 -85 -150 -128.5t-162 -43.5q-126 0 -202 107.5 t-76 318.5zM369 420q0 -93 21.5 -146t64.5 -53q45 0 94.5 39t116.5 121q4 36 25.5 196.5t25.5 196.5q-45 25 -90 25q-65 0 -116 -34.5t-81 -90.5t-45.5 -121t-15.5 -133zM436 1315q0 89 62 149t147 60q89 0 151 -59.5t62 -149.5q-1 -91 -64 -152t-151 -61q-85 0 -146 61 t-61 152zM553 1311q0 -42 27.5 -71.5t66.5 -29.5t66.5 30.5t27.5 74.5q0 42 -27 70t-65 28q-39 0 -67.5 -28.5t-28.5 -73.5z" />
<glyph unicode="&#xe6;" horiz-adv-x="1462" d="M78 401q0 121 43.5 236.5t120 207t193 147t251.5 55.5q155 0 291 -46q97 46 199 46q148 0 226.5 -80t78.5 -203q0 -89 -44.5 -161.5t-123 -120.5t-175.5 -79t-212 -45q7 -66 52 -101.5t105 -35.5q116 0 285 90l41 -202q-205 -132 -387 -132q-110 0 -195.5 46.5 t-134.5 136.5q-75 -86 -159 -134.5t-164 -48.5q-129 0 -210 112t-81 312zM369 420q0 -93 23 -146t65 -53q36 0 82.5 44t93.5 120v31q0 223 123 391q-45 10 -78 10q-131 0 -220 -117t-89 -280zM918 559q113 12 209 62.5t96 119.5q0 35 -22 55.5t-56 20.5q-81 0 -145 -76 t-82 -182z" />
<glyph unicode="&#xe7;" horiz-adv-x="751" d="M74 410q0 120 39 234t109 204t177 144.5t232 54.5q108 0 213 -48l-76 -231q-4 1 -23 7.5t-27.5 8.5t-25 6t-32 5.5t-31.5 1.5q-66 0 -117.5 -31t-82 -83t-46.5 -114t-16 -129q0 -106 42 -161.5t119 -55.5q88 0 187 47l20 -207q-110 -63 -243 -77l-23 -49 q87 -19 132.5 -55t45.5 -105q0 -67 -62.5 -110.5t-174.5 -43.5q-151 0 -244 41l59 115q64 -27 115 -27q24 0 37.5 10.5t13.5 26.5q0 55 -125 78l64 129q-122 32 -189 143t-67 271z" />
<glyph unicode="&#xe8;" horiz-adv-x="907" d="M78 420q0 133 46 251.5t122 199.5t174 128.5t201 47.5q149 0 228 -82.5t79 -200.5q0 -77 -35.5 -141.5t-91 -108t-131.5 -76.5t-148.5 -51t-150.5 -29q12 -69 56.5 -104t107.5 -35q112 0 280 86l41 -203q-189 -122 -383 -122q-83 0 -153 26t-125 77.5t-86 138t-31 198.5z M289 1452h329l132 -317h-244zM362 561q39 4 86 15.5t99 32.5t86.5 56.5t34.5 77.5q0 31 -21.5 51.5t-56.5 20.5q-87 0 -150 -79t-78 -175z" />
<glyph unicode="&#xe9;" horiz-adv-x="907" d="M78 420q0 133 46 251.5t122 199.5t174 128.5t201 47.5q149 0 228 -82.5t79 -200.5q0 -77 -35.5 -141.5t-91 -108t-131.5 -76.5t-148.5 -51t-150.5 -29q12 -69 56.5 -104t107.5 -35q112 0 280 86l41 -203q-189 -122 -383 -122q-83 0 -153 26t-125 77.5t-86 138t-31 198.5z M362 561q39 4 86 15.5t99 32.5t86.5 56.5t34.5 77.5q0 31 -21.5 51.5t-56.5 20.5q-87 0 -150 -79t-78 -175zM485 1135l209 317h330l-295 -317h-244z" />
<glyph unicode="&#xea;" horiz-adv-x="907" d="M78 420q0 133 46 251.5t122 199.5t174 128.5t201 47.5q149 0 228 -82.5t79 -200.5q0 -77 -35.5 -141.5t-91 -108t-131.5 -76.5t-148.5 -51t-150.5 -29q12 -69 56.5 -104t107.5 -35q112 0 280 86l41 -203q-189 -122 -383 -122q-83 0 -153 26t-125 77.5t-86 138t-31 198.5z M281 1135l241 317h285l164 -317l-228 -5l-100 150l-143 -160zM362 561q39 4 86 15.5t99 32.5t86.5 56.5t34.5 77.5q0 31 -21.5 51.5t-56.5 20.5q-87 0 -150 -79t-78 -175z" />
<glyph unicode="&#xeb;" horiz-adv-x="907" d="M78 420q0 133 46 251.5t122 199.5t174 128.5t201 47.5q149 0 228 -82.5t79 -200.5q0 -77 -35.5 -141.5t-91 -108t-131.5 -76.5t-148.5 -51t-150.5 -29q12 -69 56.5 -104t107.5 -35q112 0 280 86l41 -203q-189 -122 -383 -122q-83 0 -153 26t-125 77.5t-86 138t-31 198.5z M279 1307q0 58 41 98.5t100 40.5q57 0 97 -40.5t40 -98.5q0 -57 -40 -99.5t-97 -42.5q-58 0 -99.5 42.5t-41.5 99.5zM362 561q39 4 86 15.5t99 32.5t86.5 56.5t34.5 77.5q0 31 -21.5 51.5t-56.5 20.5q-87 0 -150 -79t-78 -175zM711 1307q0 58 41 98.5t100 40.5 q57 0 97 -40.5t40 -98.5q0 -57 -40 -99.5t-97 -42.5q-58 0 -99.5 42.5t-41.5 99.5z" />
<glyph unicode="&#xec;" horiz-adv-x="555" d="M39 1452h330l133 -317h-244zM111 166q0 6 1 23.5t1 23.5l98 793l281 16l-91 -739q0 -3 -1 -10t-1 -11q0 -43 41 -43q17 0 34.5 4.5t49.5 16.5t33 12l21 -199q-68 -29 -99 -40.5t-87 -24.5t-109 -13q-82 0 -126 51.5t-46 139.5z" />
<glyph unicode="&#xed;" horiz-adv-x="555" d="M111 166q0 6 1 23.5t1 23.5l98 793l281 16l-91 -739q0 -3 -1 -10t-1 -11q0 -43 41 -43q17 0 34.5 4.5t49.5 16.5t33 12l21 -199q-68 -29 -99 -40.5t-87 -24.5t-109 -13q-82 0 -126 51.5t-46 139.5zM240 1135l209 317h331l-297 -317h-243z" />
<glyph unicode="&#xee;" horiz-adv-x="555" d="M23 1135l241 317h285l164 -317l-228 -5l-100 150l-143 -160zM111 166q0 6 1 23.5t1 23.5l98 793l281 16l-91 -739q0 -3 -1 -10t-1 -11q0 -43 41 -43q17 0 34.5 4.5t49.5 16.5t33 12l21 -199q-68 -29 -99 -40.5t-87 -24.5t-109 -13q-82 0 -126 51.5t-46 139.5z" />
<glyph unicode="&#xef;" horiz-adv-x="555" d="M37 1307q0 58 41 98.5t100 40.5q57 0 97 -40.5t40 -98.5q0 -57 -40 -99.5t-97 -42.5q-58 0 -99.5 42.5t-41.5 99.5zM111 166q0 35 2 47l96 793l280 16l-90 -739q0 -3 -1 -10t-1 -11q0 -43 43 -43q16 0 33.5 4.5t48 16t33.5 12.5l20 -199q-69 -29 -99 -40.5t-86 -24.5 t-109 -13q-83 0 -126.5 52t-43.5 139zM469 1307q0 58 41 98.5t98 40.5q59 0 99.5 -40.5t40.5 -98.5t-41 -100t-99 -42q-57 0 -98 42.5t-41 99.5z" />
<glyph unicode="&#xf0;" horiz-adv-x="1118" d="M143 430q0 80 16.5 156.5t52 148.5t87 126.5t128 87t167.5 32.5q143 0 227 -94q-19 159 -125 270l-168 -110l-112 135l121 78q-87 40 -209 57l73 233q223 -9 385 -116l152 100l104 -143l-116 -76q178 -216 178 -578q0 -119 -19.5 -228t-62.5 -206.5t-105 -168.5 t-153.5 -112.5t-202.5 -41.5q-99 0 -179.5 36.5t-132 99t-79 143.5t-27.5 171zM434 449q0 -62 14.5 -111.5t50 -83t87.5 -33.5q60 0 107 47.5t70 116.5t23 143q0 93 -37 154t-112 61q-63 0 -110.5 -45t-70 -110.5t-22.5 -138.5z" />
<glyph unicode="&#xf1;" horiz-adv-x="1087" d="M90 -2l121 1016l264 14l-12 -131q130 150 289 150q109 0 182.5 -75.5t73.5 -211.5q0 -91 -11 -154l-36 -325q-3 -3 -3 -23q0 -39 37 -39q8 0 17.5 2t22 7l20 8t23 10.5t20.5 9.5l22 -180q-156 -94 -278 -94q-77 0 -122.5 45.5t-45.5 124.5q0 37 4 73l43 381q4 46 4 66 q0 64 -22 97.5t-60 33.5q-82 0 -188 -135l-86 -670h-279zM297 1141q37 301 250 301q50 0 104 -25t97 -49.5t65 -24.5q50 0 66 97h176q-36 -301 -250 -301q-48 0 -100 24.5t-95 49t-69 24.5q-28 0 -43.5 -23t-24.5 -73h-176z" />
<glyph unicode="&#xf2;" horiz-adv-x="1036" d="M100 434q0 139 45 257.5t119.5 196.5t169.5 121.5t195 43.5q113 0 204.5 -52.5t148 -159.5t56.5 -253q0 -139 -45 -257.5t-119.5 -196.5t-169.5 -121.5t-196 -43.5q-84 0 -158 31t-129.5 88.5t-88 146.5t-32.5 199zM297 1452h330l131 -317h-244zM393 453q0 -116 42 -178 t104 -62q82 0 143 96.5t61 255.5q0 116 -41.5 177t-101.5 61q-83 0 -145 -96.5t-62 -253.5z" />
<glyph unicode="&#xf3;" horiz-adv-x="1036" d="M100 434q0 139 45 257.5t119.5 196.5t169.5 121.5t195 43.5q113 0 204.5 -52.5t148 -159.5t56.5 -253q0 -139 -45 -257.5t-119.5 -196.5t-169.5 -121.5t-196 -43.5q-84 0 -158 31t-129.5 88.5t-88 146.5t-32.5 199zM393 453q0 -116 42 -178t104 -62q82 0 143 96.5 t61 255.5q0 116 -41.5 177t-101.5 61q-83 0 -145 -96.5t-62 -253.5zM518 1135l211 317h330l-297 -317h-244z" />
<glyph unicode="&#xf4;" horiz-adv-x="1036" d="M100 434q0 139 45 257.5t119.5 196.5t169.5 121.5t195 43.5q113 0 204.5 -52.5t148 -159.5t56.5 -253q0 -139 -45 -257.5t-119.5 -196.5t-169.5 -121.5t-196 -43.5q-84 0 -158 31t-129.5 88.5t-88 146.5t-32.5 199zM283 1135l239 317h285l164 -317l-228 -5l-98 150 l-145 -160zM393 453q0 -116 42 -178t104 -62q82 0 143 96.5t61 255.5q0 116 -41.5 177t-101.5 61q-83 0 -145 -96.5t-62 -253.5z" />
<glyph unicode="&#xf5;" horiz-adv-x="1036" d="M100 434q0 139 45 257.5t119.5 196.5t169.5 121.5t195 43.5q113 0 204.5 -52.5t148 -159.5t56.5 -253q0 -139 -45 -257.5t-119.5 -196.5t-169.5 -121.5t-196 -43.5q-84 0 -158 31t-129.5 88.5t-88 146.5t-32.5 199zM293 1141q18 150 82.5 225.5t167.5 75.5q50 0 104 -25 t97 -49.5t65 -24.5q49 0 65 97h177q-36 -301 -250 -301q-48 0 -100 24.5t-94.5 49t-67.5 24.5q-28 0 -44.5 -23.5t-25.5 -72.5h-176zM393 453q0 -116 42 -178t104 -62q82 0 143 96.5t61 255.5q0 116 -41.5 177t-101.5 61q-83 0 -145 -96.5t-62 -253.5z" />
<glyph unicode="&#xf6;" horiz-adv-x="1036" d="M100 434q0 139 45 257.5t119.5 196.5t169.5 121.5t195 43.5q113 0 204.5 -52.5t148 -159.5t56.5 -253q0 -139 -45 -257.5t-119.5 -196.5t-169.5 -121.5t-196 -43.5q-84 0 -158 31t-129.5 88.5t-88 146.5t-32.5 199zM307 1307q0 58 41 98.5t98 40.5q59 0 99.5 -40.5 t40.5 -98.5t-41 -100t-99 -42q-57 0 -98 42.5t-41 99.5zM393 453q0 -116 42 -178t104 -62q82 0 143 96.5t61 255.5q0 116 -41.5 177t-101.5 61q-83 0 -145 -96.5t-62 -253.5zM739 1307q0 58 41.5 98.5t98.5 40.5t98 -40.5t41 -98.5q0 -57 -41 -99.5t-98 -42.5t-98.5 42.5 t-41.5 99.5z" />
<glyph unicode="&#xf7;" horiz-adv-x="1261" d="M145 430l25 213h1075l-24 -213h-1076zM508 168q0 58 41 99.5t100 41.5t100.5 -41.5t41.5 -99.5q0 -60 -41.5 -100.5t-100.5 -40.5t-100 40.5t-41 100.5zM594 911q0 59 40.5 100.5t100.5 41.5q59 0 100.5 -41.5t41.5 -100.5q0 -58 -41.5 -99.5t-100.5 -41.5 q-60 0 -100.5 41t-40.5 100z" />
<glyph unicode="&#xf8;" horiz-adv-x="1015" d="M51 27l101 123q-74 112 -74 286q0 139 45 257t119.5 195.5t169 121t194.5 43.5q131 0 225 -66l80 98q24 -20 70 -53t61 -45l-96 -119q70 -115 70 -278q0 -140 -45 -258t-119.5 -195.5t-169.5 -120.5t-195 -43q-124 0 -221 60l-84 -103zM354 451q0 -17 4 -45l312 380 q-43 37 -90 37q-88 0 -157 -103t-69 -269zM428 231q33 -36 88 -36q88 0 155.5 102.5t67.5 271.5q0 17 -4 41z" />
<glyph unicode="&#xf9;" horiz-adv-x="1075" d="M123 272q0 33 8 107q36 301 78 635h278l-73 -608q-4 -32 -4 -56q0 -61 25.5 -96t60.5 -35q79 0 188 131l82 664h278l-90 -723q0 -3 -1 -11t-1 -12q0 -47 35 -47q8 0 18 2t17.5 4t20.5 7.5t18.5 8t21.5 10t21 9.5q14 -80 33 -170q-145 -115 -297 -115q-59 0 -97.5 38.5 t-50.5 107.5q-142 -148 -293 -148q-276 0 -276 297zM307 1452h330l133 -317h-246z" />
<glyph unicode="&#xfa;" horiz-adv-x="1075" d="M123 272q0 33 8 107q36 301 78 635h278l-73 -608q-4 -32 -4 -56q0 -61 25.5 -96t60.5 -35q79 0 188 131l82 664h278l-90 -723q0 -3 -1 -11t-1 -12q0 -47 35 -47q8 0 18 2t17.5 4t20.5 7.5t18.5 8t21.5 10t21 9.5q14 -80 33 -170q-145 -115 -297 -115q-59 0 -97.5 38.5 t-50.5 107.5q-142 -148 -293 -148q-276 0 -276 297zM510 1135l211 317h330l-295 -317h-246z" />
<glyph unicode="&#xfb;" horiz-adv-x="1075" d="M123 272q0 33 8 107q36 301 78 635h278l-73 -608q-4 -32 -4 -56q0 -61 25.5 -96t60.5 -35q79 0 188 131l82 664h278l-90 -723q0 -3 -1 -11t-1 -12q0 -47 35 -47q8 0 18 2t17.5 4t20.5 7.5t18.5 8t21.5 10t21 9.5q14 -80 33 -170q-145 -115 -297 -115q-59 0 -97.5 38.5 t-50.5 107.5q-142 -148 -293 -148q-276 0 -276 297zM297 1135l242 317h284l162 -317q-185 -5 -227 -5l-99 150l-145 -160z" />
<glyph unicode="&#xfc;" horiz-adv-x="1075" d="M123 272q0 33 8 107q36 301 78 635h278l-73 -608q-4 -32 -4 -56q0 -61 25.5 -96t60.5 -35q79 0 188 131l82 664h278l-90 -723q0 -3 -1 -11t-1 -12q0 -47 35 -47q8 0 18 2t17.5 4t20.5 7.5t18.5 8t21.5 10t21 9.5q14 -80 33 -170q-145 -115 -297 -115q-59 0 -97.5 38.5 t-50.5 107.5q-142 -148 -293 -148q-276 0 -276 297zM305 1307q0 58 41 98.5t98 40.5t98.5 -40.5t41.5 -98.5q0 -57 -41.5 -99.5t-98.5 -42.5t-98 42.5t-41 99.5zM737 1307q0 58 41.5 98.5t98.5 40.5t97 -40.5t40 -98.5q0 -57 -40 -99.5t-97 -42.5t-98.5 42.5t-41.5 99.5z " />
<glyph unicode="&#xfd;" horiz-adv-x="987" d="M45 -344l59 223q31 -8 62 -8q68 0 116 40t85 118l14 32q-36 149 -135 505.5t-121 441.5l295 20q8 -36 62 -273.5t79 -338.5q53 113 149 343t113 269l289 -20l-520 -1094q-39 -82 -88.5 -140.5t-102 -89.5t-102 -45t-100.5 -14q-92 0 -154 31zM504 1135l211 317h329 l-296 -317h-244z" />
<glyph unicode="&#xfe;" horiz-adv-x="1026" d="M53 -352l230 1892l280 16l-84 -659q136 154 277 154q59 0 109 -23.5t90.5 -72.5t63.5 -134.5t23 -199.5q0 -123 -39.5 -237.5t-110.5 -204t-180.5 -143.5t-238.5 -54q-28 0 -94 12l-47 -346h-279zM399 250q39 -27 93 -27q65 0 116.5 34.5t81.5 91t46 122.5t16 135 q0 98 -27 147.5t-70 49.5q-82 0 -206 -154z" />
<glyph unicode="&#xff;" horiz-adv-x="987" d="M45 -346l59 223q31 -8 62 -8q68 0 116 40t85 118l14 34q-36 149 -135 505.5t-121 441.5l295 20q8 -36 62 -273.5t79 -338.5q53 113 149 343t113 269l289 -20l-520 -1096q-39 -82 -88.5 -140.5t-102 -89.5t-102 -45t-100.5 -14q-92 0 -154 31zM289 1307q0 58 41 98.5 t98 40.5t98 -40.5t41 -98.5q0 -57 -41 -99.5t-98 -42.5t-98 42.5t-41 99.5zM721 1307q0 58 41 98.5t98 40.5t97 -40.5t40 -98.5q0 -57 -40 -99.5t-97 -42.5t-98 42.5t-41 99.5z" />
<glyph unicode="&#x152;" horiz-adv-x="1646" d="M104 623q0 93 20.5 186t59 179.5t99 160.5t135 129.5t172.5 87t207 31.5q61 0 151 -11h733l-30 -245h-439l-41 -326h365q-25 -205 -31 -246h-364l-41 -325h467q-4 -41 -14.5 -122t-14.5 -122h-760q-90 -8 -131 -8q-115 0 -213 39t-172 115t-116 198.5t-42 278.5zM416 629 q0 -105 23 -182.5t63.5 -122t89.5 -65.5t108 -21q62 0 109 8l109 891q-49 14 -117 14q-117 0 -205.5 -68.5t-134 -186t-45.5 -267.5z" />
<glyph unicode="&#x153;" horiz-adv-x="1546" d="M78 438q0 140 45 257.5t119.5 194t168.5 119t195 42.5q207 0 309 -164q71 77 162.5 120.5t184.5 43.5q148 0 225.5 -82t77.5 -205q0 -89 -44.5 -161t-123.5 -120t-175 -79t-212 -46q11 -71 55.5 -105t110.5 -34q110 0 278 86l41 -203q-194 -125 -379 -125q-93 0 -170 37 t-127 109q-137 -146 -332 -146q-85 0 -159 30t-130 87t-88 145.5t-32 198.5zM371 457q0 -117 42 -178.5t103 -61.5q83 0 145 96t62 254q0 117 -41.5 178.5t-101.5 61.5q-83 0 -146 -97t-63 -253zM1001 561q115 12 210.5 61.5t95.5 118.5q0 35 -21 55.5t-55 20.5 q-81 0 -146.5 -75.5t-83.5 -180.5z" />
<glyph unicode="&#x178;" horiz-adv-x="1153" d="M117 1384l313 11q124 -329 203 -504q264 396 330 502l327 -9l-532 -766l-76 -620h-297l78 610q-159 334 -346 776zM348 1642q0 57 41 97.5t98 40.5q58 0 99 -40.5t41 -97.5q0 -59 -41 -100t-99 -41q-57 0 -98 41.5t-41 99.5zM780 1642q0 57 41.5 97.5t98.5 40.5t98 -40.5 t41 -97.5q0 -58 -41 -99.5t-98 -41.5t-98.5 41.5t-41.5 99.5z" />
<glyph unicode="&#x2000;" horiz-adv-x="929" />
<glyph unicode="&#x2001;" horiz-adv-x="1858" />
<glyph unicode="&#x2002;" horiz-adv-x="929" />
<glyph unicode="&#x2003;" horiz-adv-x="1858" />
<glyph unicode="&#x2004;" horiz-adv-x="619" />
<glyph unicode="&#x2005;" horiz-adv-x="464" />
<glyph unicode="&#x2006;" horiz-adv-x="309" />
<glyph unicode="&#x2007;" horiz-adv-x="309" />
<glyph unicode="&#x2008;" horiz-adv-x="232" />
<glyph unicode="&#x2009;" horiz-adv-x="371" />
<glyph unicode="&#x200a;" horiz-adv-x="103" />
<glyph unicode="&#x2010;" horiz-adv-x="577" d="M57 414l31 245h479l-28 -245h-482z" />
<glyph unicode="&#x2011;" horiz-adv-x="577" d="M57 414l31 245h479l-28 -245h-482z" />
<glyph unicode="&#x2012;" horiz-adv-x="577" d="M57 414l31 245h479l-28 -245h-482z" />
<glyph unicode="&#x2013;" horiz-adv-x="1120" d="M111 416l30 243h977l-28 -243h-979z" />
<glyph unicode="&#x2014;" horiz-adv-x="2154" d="M111 416l30 243h2011l-28 -243h-2013z" />
<glyph unicode="&#x2018;" horiz-adv-x="532" d="M125 1006l264 557l221 -33l-200 -529z" />
<glyph unicode="&#x2019;" horiz-adv-x="509" d="M168 1018l199 526l284 -2l-266 -561z" />
<glyph unicode="&#x201a;" horiz-adv-x="532" d="M14 -225l199 512h287l-273 -572z" />
<glyph unicode="&#x201c;" horiz-adv-x="958" d="M180 1006l269 563l219 -43l-203 -525zM612 1006l234 559q104 -17 221 -39l-170 -525z" />
<glyph unicode="&#x201d;" horiz-adv-x="954" d="M193 1018l172 528l284 -4l-235 -561zM594 1018l201 528l284 -4l-268 -565z" />
<glyph unicode="&#x201e;" horiz-adv-x="956" d="M-4 -225l199 512h282l-272 -572zM412 -225l198 512h283l-272 -572z" />
<glyph unicode="&#x2022;" horiz-adv-x="808" d="M141 514q0 87 36 163.5t111.5 127.5t176.5 51q78 0 141 -28.5t101.5 -76t58.5 -106t20 -121.5q0 -136 -84.5 -235t-236.5 -99q-155 0 -239.5 95.5t-84.5 228.5z" />
<glyph unicode="&#x2026;" horiz-adv-x="1548" d="M119 133q0 65 45.5 111.5t109.5 46.5t110 -46.5t46 -111.5t-46 -111.5t-110 -46.5t-109.5 46.5t-45.5 111.5zM635 133q0 65 46 111.5t110 46.5t109.5 -46.5t45.5 -111.5t-45.5 -111.5t-109.5 -46.5t-110 46.5t-46 111.5zM1151 133q0 65 46 111.5t110 46.5t109.5 -46.5 t45.5 -111.5t-45.5 -111.5t-109.5 -46.5t-110 46.5t-46 111.5z" />
<glyph unicode="&#x202f;" horiz-adv-x="371" />
<glyph unicode="&#x2039;" horiz-adv-x="686" d="M131 535l434 473l137 -142l-303 -340l228 -340l-176 -104z" />
<glyph unicode="&#x203a;" horiz-adv-x="686" d="M104 223l302 340l-228 340l180 105l316 -453l-430 -473z" />
<glyph unicode="&#x205f;" horiz-adv-x="464" />
<glyph unicode="&#x20ac;" horiz-adv-x="1406" d="M145 430l68 195h139q0 67 6 123h-174l64 194h160q51 137 141 239.5t223.5 163.5t294.5 62q160 0 328 -82l-80 -238q-112 64 -256 64q-110 0 -196.5 -56.5t-141.5 -152.5h536l-65 -194h-528q-9 -67 -9 -123h490l-66 -195h-395q76 -209 301 -209q130 0 260 45l27 -223 q-158 -59 -285 -59q-247 0 -403 119.5t-209 326.5h-230z" />
<glyph unicode="&#x2122;" horiz-adv-x="1220" d="M109 571q0 94 16.5 190t48.5 191t85 177.5t120.5 146.5t160.5 100.5t199 36.5q95 0 173.5 -31.5t132.5 -86.5t91.5 -129.5t54.5 -158.5t17 -176q0 -117 -22 -233t-72 -228.5t-122.5 -197.5t-181 -137.5t-239.5 -52.5q-94 0 -171.5 33.5t-130.5 90t-89.5 132.5t-53.5 160 t-17 173zM410 563q0 -46 8.5 -97.5t27.5 -109.5t58.5 -95.5t93.5 -37.5q68 0 123.5 45.5t88.5 113.5t55.5 154t31 161t8.5 141q0 167 -55 247t-131 80q-68 0 -123 -42.5t-89 -107t-56.5 -148t-31.5 -159t-9 -145.5z" />
<glyph unicode="&#xe000;" horiz-adv-x="1034" d="M0 0v1034h1034v-1034h-1034z" />
</font>
</defs>
</svg>
