<?xml version="1.0" standalone="no"?>
<!DOCTYPE svg PUBLIC "-//W3C//DTD SVG 1.1//EN" "http://www.w3.org/Graphics/SVG/1.1/DTD/svg11.dtd" >
<svg xmlns="http://www.w3.org/2000/svg">
<metadata></metadata>
<defs>
<font id="SensibilityExtraLightItalic" horiz-adv-x="526" >
<font-face units-per-em="2048" ascent="1638" descent="-410" />
<missing-glyph horiz-adv-x="479" />
<glyph horiz-adv-x="0" />
<glyph horiz-adv-x="2048" />
<glyph unicode=" "  horiz-adv-x="479" />
<glyph unicode="&#x09;" horiz-adv-x="479" />
<glyph unicode="&#xa0;" horiz-adv-x="479" />
<glyph unicode="!" d="M168 53q0 29 19 49.5t49 20.5q29 0 48 -21t19 -49t-19 -47.5t-48 -19.5q-30 0 -49 19.5t-19 47.5zM223 319l125 1067h103l-138 -1077z" />
<glyph unicode="&#x22;" horiz-adv-x="782" d="M313 1042l58 512h98l-68 -512h-88zM635 1042l57 512h96l-67 -512h-86z" />
<glyph unicode="#" horiz-adv-x="1280" d="M96 432l19 80h278l135 360h-340l21 78h348l164 436h82l-166 -436h281l165 436h80l-164 -436h263l-19 -78h-272l-135 -360h331l-18 -80h-342l-162 -432h-80l160 432h-279l-161 -432h-82l162 432h-269zM475 512h281l133 360h-281z" />
<glyph unicode="$" horiz-adv-x="1024" d="M94 127l45 66q132 -112 258 -127l74 598q-52 29 -86.5 50.5t-76 57t-66 71t-41.5 87t-17 110.5q0 155 108.5 251.5t268.5 107.5l17 129h81l-16 -129q123 -15 264 -115q-6 -15 -18.5 -34.5t-18.5 -32.5q-45 29 -74 46t-73.5 34t-89.5 24l-74 -600q46 -26 71 -42 t65.5 -44.5t63.5 -54.5t47 -61t35 -77t11 -90q0 -160 -109 -258.5t-274 -109.5l-20 -166h-82l20 168q-164 19 -293 141zM272 1051q0 -72 30 -128.5t71.5 -89.5t109.5 -71l70 559q-114 -5 -197.5 -80.5t-83.5 -189.5zM481 63q119 8 200 86.5t81 194.5q0 93 -55 156.5 t-158 120.5z" />
<glyph unicode="%" horiz-adv-x="1822" d="M279 995q0 107 43 198t126.5 148.5t190.5 57.5q131 0 213 -87.5t82 -228.5q0 -100 -45 -190t-130.5 -147.5t-191.5 -57.5q-130 0 -209 87t-79 220zM356 999q0 -108 60 -173.5t153 -65.5q123 0 203 95.5t80 223.5q0 112 -61 180t-154 68q-125 0 -203 -97.5t-78 -230.5z M504 0l866 1376h90l-868 -1376h-88zM1049 285q0 107 43 198t126.5 148t190.5 57q131 0 213 -87t82 -228q0 -100 -45 -189.5t-130.5 -146.5t-191.5 -57q-130 0 -209 86t-79 219zM1126 289q0 -108 60 -174t153 -66q123 0 203 96t80 224q0 112 -61 179.5t-154 67.5 q-125 0 -203 -97t-78 -230z" />
<glyph unicode="&#x26;" horiz-adv-x="1320" d="M127 381q0 160 106.5 281.5t286.5 142.5q-80 40 -122 115t-42 165q0 138 102 231t257 93q177 0 321 -123l-51 -65q-127 106 -270 106q-117 0 -191.5 -68t-74.5 -176q0 -91 60.5 -166.5t170.5 -99.5q-6 -43 -14 -82q-23 4 -66 4q-169 0 -273 -100.5t-104 -251.5 q0 -148 107 -239t284 -91q166 0 284 88.5t118 227.5q0 65 -24 125t-70 100q-185 -40 -185 -156q0 -50 39 -133q-12 -4 -37.5 -14t-38.5 -14q-51 91 -51 159q0 61 31 105t81 67.5t110.5 40.5t120.5 31t110 32.5t81 51t31 80.5q0 39 -28.5 68.5t-81.5 29.5q-40 0 -90 -18 q-5 12 -13.5 34t-13.5 33q64 25 129 25q84 0 137.5 -49.5t53.5 -118.5q0 -44 -18 -80t-43 -58.5t-68.5 -43t-77 -30.5t-86.5 -24q90 -93 90 -237q0 -117 -69 -211t-181.5 -143.5t-243.5 -49.5q-209 0 -346 110t-137 296z" />
<glyph unicode="'" horiz-adv-x="460" d="M313 1036l60 518h96l-68 -518h-88z" />
<glyph unicode="(" horiz-adv-x="479" d="M133 375q0 281 91.5 570t287.5 614l78 -19l-2 -4q-184 -308 -276.5 -591t-92.5 -574q0 -343 131 -715l-82 -12q-135 374 -135 731z" />
<glyph unicode=")" horiz-adv-x="479" d="M43 -338l4 6q184 308 276.5 589.5t92.5 571.5q0 351 -131 717l80 13q137 -371 137 -734q0 -280 -91.5 -567t-287.5 -614z" />
<glyph unicode="*" horiz-adv-x="1019" d="M299 1032l281 107q20 8 30 10q-3 4 -13 11.5t-13 10.5l-248 195q27 38 45 61l262 -227q2 5 2.5 17t1.5 16l31 319h80l-49 -362q57 27 165 74t136 59l30 -74l-278 -106q-17 -7 -33 -10q3 -4 13.5 -12t13.5 -11l248 -195q-20 -28 -46 -61l-262 225q-2 -10 -2 -32l-32 -320 h-80q7 62 23.5 174.5t21.5 155.5l4 33q-8 -5 -19 -9l-282 -123z" />
<glyph unicode="+" horiz-adv-x="1290" d="M213 494q8 56 10 79h465l74 488h78l-74 -488h465q-2 -23 -10 -79h-465l-74 -486h-78l74 486h-465z" />
<glyph unicode="," horiz-adv-x="454" d="M59 -324l162 453l101 -12l-179 -451z" />
<glyph unicode="-" d="M63 489l11 86h440l-10 -86h-441z" />
<glyph unicode="." horiz-adv-x="528" d="M168 53q0 29 19 49.5t49 20.5q29 0 48 -21t19 -49t-19 -48.5t-48 -20.5q-30 0 -49 20t-19 49z" />
<glyph unicode="/" horiz-adv-x="823" d="M-47 -160l956 1714h88l-958 -1714h-86z" />
<glyph unicode="0" horiz-adv-x="1089" d="M117 426q0 116 38 223t105.5 189.5t168.5 132t220 49.5q192 0 311 -127.5t119 -337.5q0 -109 -40 -213.5t-109 -186t-172 -131t-221 -49.5q-189 0 -304.5 128t-115.5 323zM213 428q0 -167 91.5 -268t234.5 -101q128 0 230.5 71t156 183t53.5 240q0 174 -94 279.5 t-238 105.5q-129 0 -230 -73t-152.5 -188t-51.5 -249z" />
<glyph unicode="1" horiz-adv-x="673" d="M78 0l10 84h221l107 842q-216 -32 -240 -35l6 86q107 13 336 51l-117 -944h209l-10 -84h-522z" />
<glyph unicode="2" horiz-adv-x="927" d="M59 0l11 74l174 108q59 37 86.5 54.5t94 63.5t104.5 78t92 83.5t83.5 95t51.5 97t22 104.5q0 93 -60.5 141.5t-142.5 48.5q-153 0 -313 -90q-21 44 -33 76q173 98 346 98q141 0 221 -72.5t83 -195.5q0 -71 -34 -144.5t-93 -139.5t-126 -125t-147.5 -112.5t-141.5 -90 t-122 -68.5h643l-10 -84h-789z" />
<glyph unicode="3" horiz-adv-x="815" d="M8 -227l10 -1q9 0 21.5 -0.5t19.5 -0.5q158 0 275 29.5t183.5 81.5t98 115.5t31.5 139.5q0 99 -61.5 158t-163.5 59q-37 0 -111.5 -2t-85.5 -2q0 53 2 80l183 10q117 6 202.5 88t85.5 189q0 59 -21.5 102.5t-58 67.5t-79 35.5t-90.5 11.5q-147 0 -287 -66l-25 74 q152 76 328 76q65 0 120.5 -15t103.5 -47t76 -91t28 -138q0 -107 -72.5 -199.5t-179.5 -126.5q89 -20 145.5 -88.5t56.5 -173.5q0 -212 -179 -329t-476 -117l-80 2v78z" />
<glyph unicode="4" horiz-adv-x="1091" d="M47 0q2 12 4 35t4 35l721 940h115l-115 -926h244q-2 -23 -10 -84h-242l-43 -330l-92 -4l43 334h-629zM164 82h520l100 803z" />
<glyph unicode="5" horiz-adv-x="806" d="M10 -252q66 10 124.5 22.5t134 33.5t135.5 52t113 71.5t82.5 98t29.5 124.5q0 124 -98.5 181.5t-270.5 57.5h-131l102 608h598l-12 -88h-508l-73 -436h30q99 0 179 -17t144.5 -54t100 -101t35.5 -151q0 -373 -702 -480z" />
<glyph unicode="6" horiz-adv-x="995" d="M139 414q0 172 69 333t185 283.5t263.5 212.5t310.5 137l20 -84q-248 -67 -444 -236t-273 -405q85 85 184.5 128.5t196.5 43.5q146 0 231 -97t85 -253q0 -130 -56 -243.5t-165.5 -186t-249.5 -72.5q-72 0 -135.5 26.5t-113.5 78.5t-79 138t-29 196zM231 420 q0 -178 79.5 -270.5t195.5 -92.5q85 0 156 36t116 95.5t69.5 133.5t24.5 153q0 126 -65.5 199.5t-181.5 73.5q-94 0 -197 -52t-184 -143q-13 -70 -13 -133z" />
<glyph unicode="7" horiz-adv-x="870" d="M61 -322l762 1235h-673l10 84h780l-8 -69q-401 -620 -787 -1290z" />
<glyph unicode="8" horiz-adv-x="1034" d="M121 297q0 136 98 230.5t281 174.5q-117 65 -184.5 141t-67.5 183t59.5 191t152.5 126.5t199 42.5q94 0 174 -35t131.5 -106t51.5 -164q0 -69 -24 -124.5t-73.5 -100t-106.5 -78t-142 -71.5q71 -39 121 -75t91.5 -80t62 -95.5t20.5 -112.5q0 -80 -39.5 -150t-104.5 -117 t-148.5 -73.5t-170.5 -26.5q-77 0 -144.5 19.5t-121 57.5t-84.5 100.5t-31 142.5zM215 303q0 -123 83.5 -184.5t207.5 -61.5q91 0 173 33t136.5 99.5t54.5 150.5q0 102 -65.5 169.5t-226.5 152.5q-63 -27 -105.5 -47.5t-96 -55t-85 -68.5t-54 -83t-22.5 -105zM338 1032 q0 -40 15 -76t35.5 -62.5t59 -55t69 -47t81.5 -46.5q62 26 105.5 48t88.5 52.5t72 62t44.5 74.5t17.5 93q0 108 -79.5 170t-189.5 62q-125 0 -222 -75.5t-97 -199.5z" />
<glyph unicode="9" horiz-adv-x="993" d="M129 -291q250 68 445 232t274 399q-85 -85 -184.5 -128.5t-196.5 -43.5q-146 0 -231.5 97t-85.5 253q0 96 33.5 186.5t93 160.5t149.5 112.5t195 42.5q72 0 135.5 -26.5t114 -78.5t79.5 -137.5t29 -195.5q0 -172 -68.5 -331.5t-185 -281t-263.5 -210.5t-310 -136z M246 520q0 -125 65.5 -198.5t180.5 -73.5q94 0 198 52t182 142q13 56 13 133q0 178 -79 270.5t-194 92.5q-85 0 -156 -36t-116 -95.5t-69.5 -133.5t-24.5 -153z" />
<glyph unicode=":" d="M168 53q0 29 19 49.5t49 20.5q29 0 48 -21t19 -49t-19 -48.5t-48 -20.5q-30 0 -49 20t-19 49zM270 893q0 30 18.5 50t47.5 20t49.5 -21t20.5 -49t-19.5 -49t-48.5 -21t-48.5 21t-19.5 49z" />
<glyph unicode=";" d="M59 -324l162 453l101 -12l-179 -451zM270 893q0 30 18.5 50t47.5 20t49.5 -21t20.5 -49t-19.5 -49t-48.5 -21t-48.5 21t-19.5 49z" />
<glyph unicode="&#x3c;" horiz-adv-x="1290" d="M252 442q2 23 10 74l973 406q-8 -62 -10 -93l-858 -350l770 -354l-13 -90z" />
<glyph unicode="=" horiz-adv-x="1290" d="M188 301l11 82h1007l-12 -82h-1006zM236 686l10 82h1007l-12 -82h-1005z" />
<glyph unicode="&#x3e;" horiz-adv-x="1290" d="M190 35l13 92l856 352l-768 352q2 27 10 91l875 -406q-10 -64 -11 -74z" />
<glyph unicode="?" horiz-adv-x="894" d="M274 1298q177 111 367 111q143 0 238.5 -77t95.5 -224q0 -50 -15 -97.5t-36.5 -84t-60 -79t-68.5 -70.5t-80 -70l-41 -35q-90 -76 -142 -161.5t-65 -203.5l-86 8q10 131 71.5 232.5t165.5 189.5l31 27q52 45 76.5 67.5t59.5 60t50 65.5t27 67t12 82q0 100 -66.5 156.5 t-168.5 56.5q-155 0 -326 -98zM340 53q0 28 19.5 49t48.5 21t49 -21t20 -49t-20 -48.5t-49 -20.5t-48.5 20.5t-19.5 48.5z" />
<glyph unicode="@" horiz-adv-x="1658" d="M184 618q0 170 59.5 317.5t162.5 251.5t248.5 163t312.5 59q296 0 474.5 -177t178.5 -458q0 -133 -50.5 -251.5t-140 -191.5t-194.5 -73q-73 0 -128.5 40t-59.5 128q-72 -87 -151 -127.5t-138 -40.5q-105 0 -170.5 73t-65.5 195q0 131 64.5 245t174 181.5t236.5 67.5 q126 0 246 -43l-108 -479q-11 -53 -11 -86q0 -31 29 -55.5t82 -24.5q50 0 101.5 32.5t95 88t71 140.5t27.5 181q0 161 -66.5 287t-194 198t-298.5 72q-200 0 -360 -92.5t-249.5 -255.5t-89.5 -365q0 -103 26 -200t80.5 -183t131.5 -150t187 -101t239 -37q137 0 246.5 35.5 t226.5 107.5l39 -72q-233 -149 -512 -149q-147 0 -272 41.5t-212 113t-148.5 167t-90.5 204t-29 223.5zM610 524q0 -80 41.5 -136t108.5 -56q78 0 172 73t131 162l84 353q-68 20 -148 20q-109 0 -199.5 -58.5t-140 -154t-49.5 -203.5z" />
<glyph unicode="A" horiz-adv-x="1200" d="M23 2l659 1313l-14 69l92 15l368 -1397l-102 -6l-123 471h-553l-227 -471zM389 551h494l-166 655q-109 -208 -297 -596z" />
<glyph unicode="B" horiz-adv-x="980" d="M123 0l170 1386h266q183 0 287 -95.5t104 -235.5q0 -132 -78.5 -226.5t-207.5 -132.5q119 -25 185 -111.5t66 -197.5q0 -97 -38.5 -172.5t-104.5 -121.5t-150 -69.5t-180 -23.5h-319zM229 84h226q98 0 179 32t133 102.5t52 168.5q0 116 -82.5 191t-220.5 75h-217z M309 733h207q133 0 232.5 88t99.5 228q0 107 -74 179t-213 72h-180z" />
<glyph unicode="C" horiz-adv-x="1071" d="M141 592q0 112 27 226.5t82.5 220.5t133.5 188.5t188 132t237 49.5q183 0 326 -90l-37 -78q-147 80 -289 80q-109 0 -202.5 -42.5t-159.5 -114.5t-113 -166t-69.5 -197.5t-22.5 -208.5q0 -149 43.5 -265.5t136 -188.5t223.5 -72q141 0 309 79l31 -71q-182 -97 -348 -97 q-123 0 -219.5 49.5t-156 135t-90 195t-30.5 235.5z" />
<glyph unicode="D" horiz-adv-x="1208" d="M123 0l168 1386h254q187 0 330 -74.5t223 -217.5t80 -334q0 -121 -30.5 -233t-92 -207.5t-146.5 -167t-201 -112t-249 -40.5h-336zM229 86h232q147 0 266.5 56.5t194.5 151.5t115 215t40 253q0 242 -142 389t-388 147h-168z" />
<glyph unicode="E" horiz-adv-x="913" d="M123 0l170 1386h651l-12 -88h-553l-68 -559h453l-12 -88h-453q-13 -94 -35 -282.5t-35 -282.5h590l-12 -86h-684z" />
<glyph unicode="F" horiz-adv-x="854" d="M123 0l170 1386h651l-12 -88h-553l-72 -583h455l-12 -88h-453q-41 -313 -78 -627h-96z" />
<glyph unicode="G" horiz-adv-x="1230" d="M141 592q0 112 27.5 226.5t84.5 220.5t136 188.5t191 132t241 49.5q92 0 186 -26t169 -72l-35 -80q-160 90 -326 90q-109 0 -203 -42.5t-161 -114.5t-115 -166t-71 -197.5t-23 -208.5q0 -150 44 -266.5t138 -188t227 -71.5q188 0 340 88l53 415h-346l15 86h436l-68 -546 q-111 -70 -223.5 -101t-202.5 -31q-125 0 -224 48t-161.5 132t-95.5 195t-33 240z" />
<glyph unicode="H" horiz-adv-x="1191" d="M121 0l172 1386h96l-80 -653h711l80 653h98l-172 -1386h-96l80 649h-711l-80 -649h-98z" />
<glyph unicode="I" horiz-adv-x="385" d="M121 0l172 1386h98l-172 -1386h-98z" />
<glyph unicode="J" horiz-adv-x="696" d="M49 25l31 77q76 -36 151 -36q97 0 161.5 72t82.5 214l119 953h-221l14 81h315l-127 -1034q-22 -183 -116.5 -277.5t-227.5 -94.5q-90 0 -182 45z" />
<glyph unicode="K" horiz-adv-x="1038" d="M117 0l172 1386h98l-84 -675q323 281 733 684l109 -15q-438 -421 -615 -575q258 -472 455 -797l-104 -14l-424 751l-168 -141l-74 -604h-98z" />
<glyph unicode="L" horiz-adv-x="847" d="M123 0l170 1386h98l-162 -1300h547l-12 -86h-641z" />
<glyph unicode="M" horiz-adv-x="1630" d="M82 2l397 1315l-18 67l98 9q133 -538 260 -1104l549 1097h88q2 -73 11.5 -302.5t22 -547.5t19.5 -532l-96 -6q-3 156 -11 368t-14.5 363.5t-14 307.5t-7.5 161l-528 -1053h-82l-238 1037l-342 -1186z" />
<glyph unicode="N" horiz-adv-x="1259" d="M129 0l164 1290l-41 80l96 25l676 -1217l150 1208h92l-170 -1384l-76 -8l-653 1177l-144 -1171h-94z" />
<glyph unicode="O" horiz-adv-x="1380" d="M141 569q0 231 91 424t248.5 304.5t346.5 111.5q231 0 378 -159.5t147 -428.5q0 -230 -92 -424.5t-251.5 -308t-349.5 -113.5q-231 0 -374.5 160t-143.5 434zM242 569q0 -238 114 -373t299 -135q166 0 302.5 99.5t215 273.5t78.5 385q0 220 -116 362t-304 142 q-164 0 -299 -98t-212.5 -271t-77.5 -385z" />
<glyph unicode="P" horiz-adv-x="964" d="M121 0l170 1386h299q128 0 218 -50.5t131.5 -132t41.5 -185.5q0 -188 -142 -312t-350 -124q-79 0 -198 18l-74 -600h-96zM301 678q86 -14 197 -14q101 0 186.5 39.5t141 121.5t55.5 191q0 122 -74.5 205.5t-216.5 83.5h-213z" />
<glyph unicode="Q" horiz-adv-x="1386" d="M141 569q0 231 91 424t248.5 304.5t346.5 111.5q231 0 378 -159.5t147 -428.5q0 -208 -75.5 -385.5t-215 -292.5t-318.5 -137q66 -11 153 -20.5t150.5 -14.5t162 -12t137.5 -10l-9 -90q-223 13 -450 45q-177 25 -316 69t-243 131q-83 69 -135 192t-52 273zM242 569 q0 -237 114.5 -369t300.5 -132q165 0 301 97.5t214.5 270t78.5 383.5q0 219 -116 360.5t-304 141.5q-164 0 -299 -97.5t-212.5 -270t-77.5 -384.5z" />
<glyph unicode="R" horiz-adv-x="966" d="M123 0l170 1386h260q183 0 285 -102t102 -254q0 -154 -109.5 -271t-291.5 -138q136 -260 350 -615l-101 -10q-163 265 -350 620h-143l-76 -616h-96zM305 694q14 -2 152 -2q174 0 279.5 94.5t105.5 239.5q0 119 -77 199t-210 80h-176q-18 -170 -74 -611z" />
<glyph unicode="S" horiz-adv-x="909" d="M98 127l43 72q79 -64 158.5 -98.5t179.5 -34.5q122 0 204.5 77t82.5 201q0 67 -31 121.5t-80.5 92t-109.5 72t-120.5 72t-110 81t-80.5 109.5t-31 148q0 159 111 262t276 103q160 0 342 -117q-6 -13 -21.5 -36t-21.5 -38q-174 107 -305 107q-123 0 -206 -76.5t-83 -193.5 q0 -71 31.5 -127t81.5 -93.5t111 -71.5t121.5 -70.5t110.5 -79.5t81.5 -109.5t31.5 -151.5q0 -160 -110.5 -263t-274.5 -103q-108 0 -206.5 40.5t-174.5 104.5z" />
<glyph unicode="T" horiz-adv-x="1003" d="M190 1298l11 88h897l-11 -88h-399l-160 -1298h-98l160 1298h-400z" />
<glyph unicode="U" horiz-adv-x="1198" d="M176 393q0 41 6 88l111 905h98l-112 -917q-7 -54 -7 -72q0 -154 84.5 -244t229.5 -90q162 0 271.5 98t133.5 294l115 931h98l-119 -935q-30 -236 -161.5 -355t-339.5 -119q-187 0 -297.5 109.5t-110.5 306.5z" />
<glyph unicode="V" horiz-adv-x="1124" d="M160 1382l100 9q55 -269 297 -1262l606 1262l101 -9l-686 -1402l-76 -9q-258 1033 -342 1411z" />
<glyph unicode="W" horiz-adv-x="1699" d="M168 1382l100 9q82 -546 195 -1241l463 1136l-15 94l97 6l196 -1243l522 1248l99 -9l-594 -1380l-90 -8q-58 300 -191 1143l-463 -1135l-92 -8z" />
<glyph unicode="X" horiz-adv-x="1132" d="M16 6l555 692h-2l-381 680l101 17l344 -621l495 621l105 -17l-555 -684l397 -692l-106 -6l-353 625l-497 -627z" />
<glyph unicode="Y" horiz-adv-x="1036" d="M152 1382l106 9q138 -313 324 -699l489 699l109 -9l-559 -782l-74 -600h-101l74 600q-256 528 -368 782z" />
<glyph unicode="Z" horiz-adv-x="1122" d="M90 0l6 55l897 1243h-729l12 88h873l-6 -43l-907 -1257h768q-10 -74 -11 -86h-903z" />
<glyph unicode="[" d="M76 -350l233 1904h318l-11 -73h-233l-213 -1757h233l-10 -74h-317z" />
<glyph unicode="\" horiz-adv-x="776" d="M178 1552h88l535 -1706h-88z" />
<glyph unicode="]" horiz-adv-x="507" d="M55 -350l11 74h231l217 1757h-231l8 73h317l-235 -1904h-318z" />
<glyph unicode="^" horiz-adv-x="1153" d="M168 469l565 911h60l350 -911h-94l-299 795l-492 -795h-90z" />
<glyph unicode="_" horiz-adv-x="1173" d="M-33 -256l8 76h1168l-8 -76h-1168z" />
<glyph unicode="a" horiz-adv-x="1001" d="M111 334q0 192 72.5 349t200 247t282.5 90q118 0 249 -64l-96 -747q-4 -36 -4 -68q0 -82 39 -82q64 0 158 101l39 -51q-50 -58 -109 -95t-111 -37q-102 0 -102 158q0 17 2.5 50.5t3.5 45.5q-189 -254 -375 -254q-115 0 -182 97.5t-67 259.5zM201 344q0 -130 49 -206.5 t129 -76.5q157 0 364 277l80 565q-95 37 -170 37q-102 0 -188 -49.5t-143 -132t-89 -190t-32 -224.5z" />
<glyph unicode="b" horiz-adv-x="950" d="M129 92l180 1462h92l-100 -782q205 250 373 250q116 0 195 -91.5t79 -271.5q0 -187 -71 -343t-195 -246t-274 -90q-173 0 -279 112zM221 133q87 -74 195 -74q98 0 182 49.5t140 132.5t88 191.5t32 226.5q0 137 -56 208t-136 71t-177.5 -69.5t-197.5 -200.5 q-59 -458 -70 -535z" />
<glyph unicode="c" horiz-adv-x="755" d="M115 387q0 177 66 322t182.5 228t259.5 83q117 0 223 -59l-35 -76q-94 51 -193 51q-117 0 -211.5 -70.5t-147 -194t-52.5 -276.5q0 -158 67.5 -246t167.5 -88q74 0 141 29t146 96l41 -57q-162 -149 -336 -149q-137 0 -228 111t-91 296z" />
<glyph unicode="d" horiz-adv-x="1013" d="M111 340q0 201 73.5 357t199.5 239t282 84q81 0 176 -29l67 563h92l-174 -1355q-4 -40 -4 -60q0 -37 12 -58.5t31 -21.5q29 0 72 29t84 72l41 -51q-52 -59 -110.5 -95.5t-108.5 -36.5q-109 0 -109 158q0 32 8 90q-86 -116 -182.5 -182t-195.5 -66q-115 0 -184.5 103.5 t-69.5 259.5zM201 340q0 -118 49 -198.5t133 -80.5q82 0 178 69t197 210l76 567q-88 31 -177 31q-200 -2 -328 -164.5t-128 -433.5z" />
<glyph unicode="e" horiz-adv-x="829" d="M109 391q0 114 30 216t81 176t116.5 128.5t136.5 81.5t141 27q105 0 170.5 -62.5t65.5 -160.5q0 -62 -28.5 -115.5t-79 -93t-112.5 -70.5t-138.5 -52.5t-146 -35t-144.5 -22.5q0 -160 72 -255.5t184 -95.5q66 0 142.5 39t143.5 111l41 -55q-73 -84 -163.5 -128 t-174.5 -44q-144 0 -240.5 110.5t-96.5 300.5zM201 479q73 7 145 21.5t148.5 41t134 60.5t94.5 84t37 109q0 67 -44 107t-114 40q-142 0 -260 -134t-141 -329z" />
<glyph unicode="f" horiz-adv-x="473" d="M-78 -371l6 78q58 0 95 19q108 56 133 272l106 922h-153l10 69l153 8l33 256q19 146 100 229t201 83q41 0 74 -11l-12 -79q-14 4 -52 4q-93 0 -150.5 -59t-70.5 -169l-33 -254h207l-10 -77h-205l-112 -940q-21 -178 -98 -265.5t-191 -87.5q-15 0 -31 2z" />
<glyph unicode="g" horiz-adv-x="931" d="M18 -170q0 74 70.5 131t212.5 113q-38 17 -59 46.5t-21 63.5q0 38 34.5 68.5t109.5 64.5q-108 37 -160.5 115.5t-52.5 183.5q0 77 28 149t79 128.5t129.5 90.5t172.5 34q110 0 201 -66l223 60l12 -82l-174 -41q66 -81 66 -205q0 -161 -115 -273t-301 -118 q-4 -2 -35 -14.5t-45 -19.5t-36 -19.5t-32 -25.5t-10 -26q0 -23 21.5 -41t62.5 -22l170 -16q295 -26 295 -211q0 -112 -133.5 -193.5t-345.5 -81.5q-170 0 -268.5 56t-98.5 151zM111 -160q0 -65 74.5 -100t217.5 -35q156 0 262.5 59.5t106.5 126.5q0 68 -67.5 102t-225.5 44 l-82 6q-23 -6 -47 -16q-120 -48 -179.5 -91.5t-59.5 -95.5zM242 621q0 -115 68 -183.5t175 -68.5q136 0 225 92.5t89 226.5q0 111 -65.5 181.5t-176.5 70.5q-139 0 -227 -93t-88 -226z" />
<glyph unicode="h" horiz-adv-x="1034" d="M131 0l193 1554h92l-101 -788q215 254 381 254q107 0 166.5 -84.5t59.5 -222.5q0 -38 -9 -121l-53 -416q-4 -32 -4 -59t11 -43.5t30 -16.5q28 0 72 28.5t88 74.5l39 -51q-53 -59 -115.5 -95.5t-108.5 -36.5q-53 0 -78.5 37t-25.5 101q0 59 6 100l49 393q8 78 8 105 q0 107 -42.5 166t-110.5 59q-82 0 -182.5 -79.5t-190.5 -192.5l-82 -666h-92z" />
<glyph unicode="i" horiz-adv-x="430" d="M150 129q0 46 4 74l96 794h92l-100 -821q-4 -16 -4 -53q0 -30 12 -48t33 -18q58 0 157 103l41 -51q-53 -60 -110.5 -96t-102.5 -36q-58 0 -88 40t-30 112zM274 1346q0 28 18.5 47.5t47.5 19.5q28 0 47 -19.5t19 -47.5q0 -27 -19.5 -46.5t-46.5 -19.5q-29 0 -47.5 19.5 t-18.5 46.5z" />
<glyph unicode="j" horiz-adv-x="389" d="M-113 -299q204 44 232 266l125 1030h92l-123 -1017q-19 -162 -97.5 -246.5t-209.5 -110.5zM268 1346q0 28 18.5 47.5t47.5 19.5q28 0 46.5 -19.5t18.5 -47.5q0 -27 -19 -46.5t-46 -19.5q-29 0 -47.5 19.5t-18.5 46.5z" />
<glyph unicode="k" horiz-adv-x="849" d="M121 0l190 1554h90l-131 -1069q204 170 572 527l65 -56l-454 -409q104 -229 184 -373q33 -59 58.5 -88t52.5 -29q39 0 108 60l39 -54q-98 -88 -168 -88q-48 0 -84.5 36.5t-81.5 117.5q-51 92 -182 367q-10 -10 -117 -95l-51 -401h-90z" />
<glyph unicode="l" horiz-adv-x="430" d="M150 129q0 46 4 74l163 1351h93l-168 -1378q-4 -36 -4 -53q0 -66 41 -66q53 0 159 103l39 -51q-53 -61 -109.5 -96.5t-103.5 -35.5q-56 0 -85 40t-29 112z" />
<glyph unicode="m" horiz-adv-x="1644" d="M133 0l125 997h86l-29 -229q47 52 86.5 90t90.5 78.5t103 62t101 21.5q94 0 152 -66t70 -182q110 117 203.5 182.5t183.5 65.5q106 0 165.5 -84.5t59.5 -222.5q0 -46 -10 -121l-52 -399q-4 -32 -4 -70q0 -31 11 -48.5t30 -17.5q27 0 70.5 29t87.5 74l41 -51 q-54 -60 -116 -96t-109 -36q-50 0 -76.5 37.5t-26.5 100.5q0 51 6 94l50 399q6 59 6 97q0 113 -41.5 173t-110.5 60q-151 0 -362 -260l-86 -678h-93l78 608q8 52 8 97q0 113 -42 173t-111 60q-82 0 -185 -82t-186 -188l-84 -668h-90z" />
<glyph unicode="n" horiz-adv-x="1036" d="M133 0l125 997h86l-29 -227q106 117 199.5 183.5t181.5 66.5q107 0 166.5 -84.5t59.5 -222.5q0 -72 -10.5 -162.5t-27.5 -203.5t-24 -171q-4 -32 -4 -53q0 -31 11 -48.5t30 -17.5q28 0 72 28.5t88 74.5l39 -51q-52 -57 -116 -92t-108 -35q-50 0 -77 34t-27 95 q0 65 10 139q4 31 16 111.5t18.5 127.5t12.5 110t6 106q0 113 -42 173t-111 60q-75 0 -172.5 -73t-198.5 -197l-84 -668h-90z" />
<glyph unicode="o" horiz-adv-x="964" d="M113 410q0 152 64.5 291.5t183.5 229t262 89.5q166 0 254 -118t88 -312q0 -152 -64 -292t-183 -230.5t-263 -90.5q-165 0 -253.5 120t-88.5 313zM207 401q0 -161 70 -252.5t188 -91.5q113 0 206.5 74.5t146 198.5t52.5 268q0 161 -69.5 251.5t-186.5 90.5 q-114 0 -208 -74.5t-146.5 -198t-52.5 -266.5z" />
<glyph unicode="p" horiz-adv-x="968" d="M92 -350l170 1347h86l-26 -229q93 122 191.5 187t188.5 65q52 0 99 -21.5t85.5 -63.5t61.5 -114t23 -164q0 -157 -48 -288t-127.5 -214.5t-179 -129t-206.5 -45.5q-92 0 -181 30l-45 -360h-92zM238 88q74 -31 170 -31q131 1 238 73.5t171 210t64 316.5q0 137 -56 208 t-137 71t-178.5 -66t-196.5 -198z" />
<glyph unicode="q" horiz-adv-x="983" d="M115 338q0 143 43.5 271t117.5 217.5t174 141.5t209 52q67 0 142 -18.5t133 -47.5l-162 -1304h-92l74 571q-205 -244 -371 -244q-114 0 -191 90.5t-77 270.5zM205 338q0 -138 53.5 -208.5t132.5 -70.5q154 0 371 258l74 586q-82 35 -174 35q-134 0 -239.5 -81.5 t-161.5 -218t-56 -300.5z" />
<glyph unicode="r" horiz-adv-x="563" d="M115 0l123 997h86l-37 -297q48 90 142.5 175.5t205.5 146.5q19 -55 27 -84q-44 -25 -74.5 -43.5t-72.5 -47.5t-72 -55t-62.5 -62.5t-54.5 -73.5t-39 -84.5t-23 -98.5l-59 -473h-90z" />
<glyph unicode="s" horiz-adv-x="690" d="M92 80q27 51 35 65q117 -88 235 -88q91 0 154.5 53.5t63.5 143.5q0 99 -123 168l-78 43q-44 24 -68 38.5t-58.5 41t-53 52t-32 63t-13.5 81.5q0 125 87.5 202t213.5 77q145 0 268 -90l-41 -70q-114 80 -231 80q-86 0 -148.5 -49t-62.5 -135q0 -50 23.5 -89.5t61.5 -67 t83.5 -52t91 -50.5t83.5 -56t61.5 -76t23.5 -103q0 -128 -89.5 -206.5t-218.5 -78.5q-72 0 -146 30t-122 73z" />
<glyph unicode="t" horiz-adv-x="569" d="M129 920l12 69q104 4 156 8l35 275l92 14l-35 -289h236l-13 -77h-233l-88 -713q-4 -28 -4 -55q0 -91 67 -91q34 0 85.5 29t101.5 72l37 -56q-58 -54 -127.5 -90t-124.5 -36q-65 0 -98 42t-33 119q0 7 1 24t1 21l90 734h-158z" />
<glyph unicode="u" horiz-adv-x="1003" d="M135 281q0 53 15 163l71 553h90l-78 -612q-8 -58 -8 -96q0 -112 43.5 -173t114.5 -61q144 0 367 264l84 678h90l-93 -753q-10 -72 -10 -117q0 -70 41 -70q60 0 156 103l41 -51q-119 -125 -217 -125q-100 0 -107 127q0 44 8 110q-84 -105 -184.5 -174.5t-183.5 -69.5 q-105 0 -172.5 79t-67.5 225z" />
<glyph unicode="v" horiz-adv-x="864" d="M137 989l88 17q41 -161 89.5 -360.5t79 -320.5t52.5 -200l435 883l88 -21l-506 -1005h-68q-25 87 -61.5 229t-99 392t-97.5 386z" />
<glyph unicode="w" horiz-adv-x="1441" d="M143 997l95 9q133 -624 196 -883l338 782l-18 82l94 10l192 -880l418 893l88 -19l-483 -1011h-76l-186 811l-350 -811h-70q-32 127 -72.5 300t-91.5 396t-74 321z" />
<glyph unicode="x" horiz-adv-x="915" d="M84 16l403 496l-274 475l86 25l248 -426l348 426l82 -35l-385 -469v-2l287 -490l-86 -26l-261 446l-370 -452z" />
<glyph unicode="y" horiz-adv-x="858" d="M29 -358l20 77q54 -12 72 -12q63 0 115 46.5t102 144.5l61 120l-268 977l94 15l236 -871l416 873l90 -17l-553 -1132q-117 -240 -297 -240q-44 0 -88 19z" />
<glyph unicode="z" horiz-adv-x="862" d="M78 0l6 59l672 863h-549l8 75h666l-9 -59l-667 -858h571l-10 -80h-688z" />
<glyph unicode="{" horiz-adv-x="454" d="M156 -197q0 29 6 70l61 496q4 46 4 65q0 96 -55 154q51 41 72 86.5t32 132.5l70 551q13 110 66.5 152t156.5 42h52l-9 -71h-37q-71 0 -104.5 -30t-44.5 -122l-68 -541q-11 -82 -30.5 -124t-67.5 -78q53 -53 53 -135q0 -26 -4 -72l-67 -541q-2 -12 -2 -33q2 -43 26 -62 t78 -19h51l-10 -74h-70q-74 0 -116 36t-43 107v10z" />
<glyph unicode="|" horiz-adv-x="540" d="M207 -152l211 1704h86l-211 -1704h-86z" />
<glyph unicode="}" horiz-adv-x="446" d="M-25 -350l9 74h34q70 0 104 23.5t42 94.5l69 539q9 82 29 124.5t70 78.5q-53 56 -53 129q0 31 6 86l67 551q4 36 4 45q0 44 -25 64t-79 20h-51l10 73h88q61 0 101 -36t40 -105q-1 -6 -1.5 -27.5t-2.5 -37.5l-67 -545q-4 -46 -4 -72q3 -89 55 -147q-51 -41 -72.5 -87 t-32.5 -133l-69 -542q-11 -95 -65.5 -132.5t-155.5 -37.5h-50z" />
<glyph unicode="~" horiz-adv-x="1173" d="M174 492q50 80 124.5 131t156.5 51q57 0 115.5 -23t98.5 -51t92 -51t97 -23q27 0 55.5 13t57 38.5t43 41t38.5 43.5q5 5 7 8l39 -62q-45 -65 -110.5 -113.5t-135.5 -48.5q-56 0 -112.5 23t-96 51t-92 51t-100.5 23q-66 0 -126.5 -47.5t-107.5 -112.5z" />
<glyph unicode="&#xa1;" d="M152 -350l135 1046l90 -10l-123 -1036h-102zM297 950q0 28 19.5 49t48.5 21q30 0 48.5 -20.5t18.5 -49.5t-18.5 -49t-48.5 -20q-29 0 -48.5 20.5t-19.5 48.5z" />
<glyph unicode="&#xa2;" horiz-adv-x="858" d="M125 422q0 84 21 166.5t63.5 156t100 131.5t136 96t166.5 46l23 182h82l-27 -182q96 -3 199 -57l-31 -74q-92 44 -176 49l-111 -873q86 8 201 58q1 -3 12.5 -30t16.5 -42q-129 -59 -238 -67q0 -5 -1 -15t-1 -14l-18 -139h-80l22 168q-2 0 -2 -2q-157 8 -257.5 121.5 t-100.5 320.5zM217 422q0 -163 78 -257.5t203 -103.5l104 873q-89 -11 -163 -59t-121.5 -119t-74 -157.5t-26.5 -176.5z" />
<glyph unicode="&#xa3;" horiz-adv-x="1024" d="M96 0q122 320 193 586h-189l13 84h196l101 370q58 213 147 292t262 79q130 0 258 -59l-35 -78q-48 20 -73 29t-69.5 17.5t-94.5 8.5q-51 0 -91 -9t-69.5 -29.5t-50.5 -43t-38 -60.5t-27.5 -70t-24.5 -83l-101 -364h371l-12 -84h-379q-63 -244 -158 -502h709l-12 -84h-826 z" />
<glyph unicode="&#xa4;" horiz-adv-x="1024" d="M51 90l211 193q-65 109 -50 237t97 219l-155 179q58 52 59 53l152 -178q99 73 225 73q137 0 229 -82l211 189l53 -58l-213 -194q62 -110 44.5 -232t-99.5 -213l166 -188l-57 -53l-164 188q-99 -73 -223 -73q-135 0 -220 73l-211 -190q-11 10 -30 30.5t-25 26.5zM297 446 q6 -102 71.5 -164.5t166.5 -62.5q87 0 157.5 50.5t106.5 129.5t32 166q-6 104 -71.5 167t-165.5 63q-88 0 -158.5 -51t-106.5 -131t-32 -167z" />
<glyph unicode="&#xa5;" horiz-adv-x="1161" d="M205 342l10 76h371l24 194h-370q2 21 10 78h338l-346 696h102l324 -657l473 657h108l-512 -696h344q-8 -57 -10 -78h-366l-25 -194h367l-11 -76h-366l-39 -342h-94l41 342h-373z" />
<glyph unicode="&#xa6;" horiz-adv-x="538" d="M207 -158l82 676h86l-82 -676h-86zM334 872l82 674h86l-82 -674h-86z" />
<glyph unicode="&#xa7;" horiz-adv-x="1173" d="M258 -272l35 75q125 -67 278 -67q72 0 134 25t103.5 79t41.5 127q0 135 -131 209q-34 20 -98.5 52t-106.5 53.5t-94.5 59.5t-84 77t-53.5 98t-22 129q0 102 67.5 197.5t176.5 171.5q-105 91 -105 225q0 138 106.5 231t260.5 93q158 0 311 -80l-37 -76q-77 37 -138.5 54.5 t-141.5 17.5q-109 0 -193 -62.5t-84 -169.5q0 -130 144 -215q35 -21 94.5 -49.5t102 -48.5t93 -54t82 -70.5t53 -92t21.5 -123.5q0 -114 -64 -214t-178 -179q101 -96 101 -228q0 -143 -107.5 -232t-259.5 -89q-181 0 -307 76zM340 627q0 -54 20.5 -100t50.5 -77t79 -63 t88 -50.5t97.5 -46t90.5 -44.5q100 64 162.5 150.5t62.5 191.5q0 54 -20 99.5t-49.5 76.5t-77 61.5t-87.5 50t-97.5 46.5t-92.5 47q-99 -64 -163 -150.5t-64 -191.5z" />
<glyph unicode="&#xa9;" horiz-adv-x="1636" d="M193 692q0 136 46 261t133.5 226.5t229 162.5t316.5 61q141 0 260 -40t202.5 -108.5t142.5 -159.5t87 -193t28 -210t-28 -211t-87.5 -194.5t-143 -160.5t-202.5 -109t-259 -40t-259.5 40t-204 109t-144.5 160.5t-88.5 194.5t-28.5 211zM279 692q0 -96 25.5 -188 t78 -173.5t127 -142.5t180 -97t228.5 -36t228.5 36t179 97t126 142.5t77.5 173.5t25 188q0 121 -40.5 232t-117 201t-200.5 144t-278 54q-155 0 -279.5 -54t-201.5 -144t-117.5 -201t-40.5 -232zM455 672q0 96 32.5 188t90.5 165t148 118t196 45q116 0 241 -64 q-8 -25 -28 -75q-104 55 -220 55q-84 0 -155.5 -37t-118.5 -98.5t-73.5 -138.5t-26.5 -158q0 -176 106 -289t281 -113q108 0 207 58l30 -74q-53 -30 -118.5 -47t-122.5 -17q-213 0 -341 136t-128 346z" />
<glyph unicode="&#xaa;" horiz-adv-x="722" d="M156 1061q0 207 116 347t285 140q98 0 184 -45l-63 -508q-6 -43 -6 -69q0 -24 6.5 -39t15.5 -15q41 0 109 72l35 -45q-35 -40 -79 -67t-79 -27q-83 0 -86 119q0 23 2 37q-127 -156 -256 -156q-85 0 -134.5 69.5t-49.5 186.5zM233 1067q0 -87 32 -140t85 -53q56 0 124 49 t134 142q53 363 56 393q-64 23 -117 23q-93 0 -166 -59t-110.5 -152.5t-37.5 -202.5z" />
<glyph unicode="&#xab;" horiz-adv-x="1005" d="M174 543l418 430l59 -55l-358 -381l262 -381l-70 -43zM528 543l418 430l60 -55l-359 -381l262 -381l-69 -43z" />
<glyph unicode="&#xac;" horiz-adv-x="1290" d="M215 514l10 82h975l-59 -477h-84l49 395h-891z" />
<glyph unicode="&#xad;" d="M63 489l11 86h440l-10 -86h-441z" />
<glyph unicode="&#xae;" horiz-adv-x="1636" d="M184 692q0 136 46 261t133.5 226.5t229 162.5t316.5 61q141 0 260 -40t203 -108.5t143 -159.5t87 -193t28 -210t-28.5 -211t-87.5 -195t-143 -161t-203 -109.5t-259 -40.5t-259.5 40.5t-204 109.5t-144.5 161t-88.5 195t-28.5 211zM270 692q0 -96 25.5 -188t78 -173.5 t127 -142.5t180 -97t228.5 -36t228.5 36t179.5 97t126.5 142.5t77.5 173.5t25 188t-25 186.5t-77 171.5t-126 141.5t-179.5 96t-229.5 35.5q-155 0 -279.5 -54t-201.5 -144t-117.5 -201t-40.5 -232zM657 221v957h261q150 0 229.5 -72t79.5 -197q0 -100 -61 -181t-167 -105 q8 -12 106 -170.5t142 -223.5l-90 -12q-40 58 -227 369l-17 26h-174v-391h-82zM739 682h199q79 0 140 63.5t61 159.5q0 93 -57.5 146t-159.5 53h-183v-422z" />
<glyph unicode="&#xb0;" horiz-adv-x="851" d="M250 1112q0 128 81.5 201t192.5 73q110 0 194.5 -73.5t84.5 -200.5q0 -88 -42.5 -152t-104.5 -93t-132 -29q-111 0 -192.5 72.5t-81.5 201.5zM332 1112q0 -91 57 -142.5t135 -51.5t136.5 51.5t58.5 142.5q0 90 -58.5 142.5t-136.5 52.5q-77 0 -134.5 -52.5t-57.5 -142.5z " />
<glyph unicode="&#xb1;" horiz-adv-x="1290" d="M139 4l8 80h1008l-8 -80h-1008zM221 680l10 78h465q8 72 18 153t22.5 179t19.5 153h78q-7 -55 -19.5 -153t-22.5 -179t-18 -153h465l-10 -78h-465q-9 -80 -29.5 -241.5t-29.5 -241.5h-78q9 80 29.5 241.5t29.5 241.5h-465z" />
<glyph unicode="&#xb2;" horiz-adv-x="786" d="M168 596l8 63q156 116 289 236q270 240 270 410q0 68 -50 119t-126 51q-116 0 -246 -99q-6 10 -41 60q143 112 295 112q115 0 182.5 -67.5t67.5 -175.5q0 -68 -35.5 -143t-77.5 -130.5t-124 -131.5t-124.5 -110.5t-129.5 -102.5q-4 -3 -6.5 -5t-6 -5t-6.5 -5h459l-8 -76 h-590z" />
<glyph unicode="&#xb3;" horiz-adv-x="702" d="M174 666l39 59q103 -66 203 -66q105 0 174 59.5t69 155.5q0 76 -49 124.5t-133 48.5h-145l4 73h141q98 0 153.5 56t55.5 133q0 80 -49 123t-123 43q-106 0 -215 -66l-35 61q57 38 125.5 58t126.5 20q109 0 180 -62t74 -173q0 -79 -47.5 -141t-124.5 -87 q66 -22 105.5 -80.5t39.5 -134.5q0 -127 -95 -204.5t-230 -77.5q-126 0 -244 78z" />
<glyph unicode="&#xb5;" horiz-adv-x="1081" d="M78 -350q3 25 45 306.5t59 416.5l80 624h92l-73 -587q-9 -79 -9 -91q0 -120 52.5 -185.5t140.5 -65.5q87 0 170.5 54t136 135t62.5 163l71 577h92l-94 -749q-8 -62 -8 -101q0 -45 16.5 -67.5t42.5 -22.5q50 0 115 68l25 -55q-80 -86 -150 -86q-72 0 -103.5 55t-31.5 164 q-176 -221 -365 -221q-157 0 -219 178q-26 -262 -55 -510h-92z" />
<glyph unicode="&#xb6;" horiz-adv-x="1071" d="M154 907q0 104 34.5 187t91.5 136.5t136 89.5t164 51t180 15h430q-8 -50 -10 -75h-142l-202 -1661h-86l202 1661h-192l-205 -1661h-86l104 846q-101 1 -182.5 36t-132 92.5t-77.5 130t-27 152.5z" />
<glyph unicode="&#xb7;" horiz-adv-x="528" d="M252 694q0 28 19 49t48 21t48.5 -21t19.5 -49t-19.5 -48.5t-48.5 -20.5t-48 20.5t-19 48.5z" />
<glyph unicode="&#xb9;" horiz-adv-x="587" d="M188 596l11 76h207l96 782q-157 -27 -219 -33l10 74q48 7 169.5 27t137.5 22l-108 -872h200l-10 -76h-494z" />
<glyph unicode="&#xba;" horiz-adv-x="755" d="M180 1112q0 109 47.5 209t134.5 164.5t191 64.5q122 0 188 -85.5t66 -223.5q0 -108 -48 -208t-135 -165t-190 -65q-122 0 -188 85.5t-66 223.5zM260 1108q0 -111 49.5 -173.5t132.5 -62.5q119 0 202 111.5t83 263.5q0 111 -48.5 173.5t-131.5 62.5q-120 0 -203.5 -112 t-83.5 -263z" />
<glyph unicode="&#xbb;" horiz-adv-x="1005" d="M137 166l359 381l-265 381l68 45l313 -430l-419 -430zM492 166l358 381l-264 381l67 45l314 -430l-420 -430z" />
<glyph unicode="&#xbc;" horiz-adv-x="1687" d="M180 596l10 76h207l97 782q-20 -4 -47.5 -8t-78.5 -11t-98 -14q9 39 15 74q48 7 169.5 27t137.5 22l-109 -872h201l-10 -76h-494zM367 -2l1081 1536h92l-1081 -1536h-92zM942 233l10 58l500 641h88l-76 -627h170q-2 -19 -10 -72h-170l-27 -233h-81l24 233h-428zM1053 305 h329l60 498z" />
<glyph unicode="&#xbd;" horiz-adv-x="1734" d="M176 596l10 76h207l96 782q-157 -27 -219 -33l11 74q48 7 169.5 27t137.5 22l-109 -872h201l-10 -76h-494zM362 -2l1082 1536h92l-1081 -1536h-93zM1067 0l8 63q129 93 289 234q270 240 270 410q0 67 -50.5 119.5t-125.5 52.5q-116 0 -246 -99q-6 10 -41 60 q147 112 295 112q115 0 182.5 -68t67.5 -175q0 -67 -33 -139.5t-80 -132.5t-117.5 -127.5t-127 -114t-126.5 -101.5q-18 -13 -26 -20h459l-8 -74h-590z" />
<glyph unicode="&#xbe;" horiz-adv-x="1718" d="M162 666q23 39 39 59q103 -66 202 -66q106 0 175 59.5t69 155.5q0 74 -49 123.5t-133 49.5h-146l5 73h141q98 0 153.5 56t55.5 133t-50 121.5t-122 44.5q-106 0 -215 -66l-35 61q57 38 125.5 58t126.5 20q109 0 180 -62t74 -173q0 -79 -47.5 -141t-124.5 -87 q66 -22 105.5 -80.5t39.5 -134.5q0 -127 -95 -204.5t-230 -77.5q-126 0 -244 78zM406 -2l1081 1536h92l-1083 -1536h-90zM981 233l8 58l502 641h88l-78 -627h172q-8 -53 -10 -72h-170l-29 -233h-84l29 233h-428zM1090 305h327q12 84 32 251t32 251z" />
<glyph unicode="&#xbf;" horiz-adv-x="894" d="M76 -92q0 50 14.5 96.5t34 81.5t57.5 76.5t66.5 67.5t79.5 69l41 35q90 76 141.5 161t64.5 203l87 -8q-10 -130 -72 -232t-166 -190l-31 -26q-47 -40 -64.5 -56t-50.5 -48t-45.5 -51.5t-29 -49.5t-22 -60.5t-5.5 -66.5q0 -98 64 -146.5t168 -48.5q152 0 325 99l39 -78 q-177 -111 -366 -111q-69 0 -127 15.5t-104.5 48t-72.5 88.5t-26 131zM565 952q0 28 20.5 49t49.5 21t48 -21t19 -49t-19 -48.5t-48 -20.5t-49.5 20.5t-20.5 48.5z" />
<glyph unicode="&#xc0;" horiz-adv-x="1200" d="M23 2l659 1313l-14 69l92 15l368 -1397l-102 -6l-123 471h-553l-227 -471zM389 551h494l-166 655q-109 -208 -297 -596zM487 1819h113l125 -318h-82z" />
<glyph unicode="&#xc1;" horiz-adv-x="1273" d="M23 2l659 1313l-14 69l92 15l368 -1397l-102 -6l-123 471h-553l-227 -471zM389 551h494l-166 655q-109 -208 -297 -596zM705 1503l192 318h115l-221 -318h-86z" />
<glyph unicode="&#xc2;" horiz-adv-x="1200" d="M23 2l659 1313l-14 69l92 15l368 -1397l-102 -6l-123 471h-553l-227 -471zM389 551h494l-166 655q-109 -208 -297 -596zM498 1501l223 318h98l144 -318h-78l-123 244l-182 -244h-82z" />
<glyph unicode="&#xc3;" horiz-adv-x="1200" d="M23 2l659 1313l-14 69l92 15l368 -1397l-102 -6l-123 471h-553l-227 -471zM389 551h494l-166 655q-109 -208 -297 -596zM459 1548q8 87 53 146t125 59q42 0 81 -20t63.5 -43.5t54.5 -43.5t57 -20q78 0 90 127h76q-24 -207 -178 -207q-41 0 -78 20t-60 43.5t-53.5 43.5 t-60.5 20q-44 0 -65.5 -32.5t-31.5 -92.5h-73z" />
<glyph unicode="&#xc4;" horiz-adv-x="1200" d="M23 2l659 1313l-14 69l92 15l368 -1397l-102 -6l-123 471h-553l-227 -471zM389 551h494l-166 655q-109 -208 -297 -596zM487 1649q0 25 18 43t44 18q27 0 44 -18t17 -43q0 -26 -17 -45t-44 -19q-26 0 -44 19.5t-18 44.5zM854 1649q0 25 16.5 43t42.5 18q27 0 44.5 -18 t17.5 -43q0 -26 -17.5 -45t-44.5 -19q-25 0 -42 19t-17 45z" />
<glyph unicode="&#xc5;" horiz-adv-x="1200" d="M23 2l659 1313l-14 69l92 15l368 -1397l-102 -6l-123 471h-553l-227 -471zM389 551h494l-166 655q-109 -208 -297 -596zM563 1651q0 75 54 123.5t126 48.5q71 0 123 -47.5t52 -124.5q0 -76 -55 -125t-126 -49t-122.5 47.5t-51.5 126.5zM633 1649q0 -48 31 -78.5t75 -30.5 q42 0 75.5 31t33.5 80q0 48 -31.5 78t-75.5 30q-43 0 -75.5 -30.5t-32.5 -79.5z" />
<glyph unicode="&#xc6;" horiz-adv-x="1613" d="M6 0l969 1354l6 32h690l-12 -88h-555l-68 -559h439l-13 -88h-438q-13 -94 -35.5 -282.5t-34.5 -282.5h582q-8 -59 -10 -86h-678q8 77 26.5 229.5t26.5 229.5h-461l-327 -465zM498 539h413l88 710z" />
<glyph unicode="&#xc7;" horiz-adv-x="1071" d="M141 592q0 112 27 226.5t82.5 220.5t133.5 188.5t188 132t237 49.5q183 0 326 -90l-37 -78q-147 80 -289 80q-109 0 -202.5 -42.5t-159.5 -114.5t-113 -166t-69.5 -197.5t-22.5 -208.5q0 -149 43.5 -265.5t136 -188.5t223.5 -72q141 0 309 79l31 -71q-167 -88 -326 -94 q-5 -8 -26 -50q176 -32 176 -155q0 -71 -59 -110.5t-148 -39.5q-111 0 -192 41l32 64q82 -37 164 -37q54 0 86.5 21.5t32.5 58.5q0 22 -13 40t-30.5 28.5t-44.5 19t-44 11.5t-41.5 7t-25.5 4q6 11 17.5 31t20.5 36.5t16 31.5q-109 11 -194 63.5t-138 136t-80 187.5t-27 223z " />
<glyph unicode="&#xc8;" horiz-adv-x="913" d="M123 0l170 1386h651l-12 -88h-553l-68 -559h453l-12 -88h-453q-13 -94 -35 -282.5t-35 -282.5h588q-2 -27 -10 -86h-684zM489 1819h113l127 -318h-84z" />
<glyph unicode="&#xc9;" horiz-adv-x="913" d="M123 0l170 1386h651l-12 -88h-553l-68 -559h453l-12 -88h-453q-13 -94 -35 -282.5t-35 -282.5h588q-2 -27 -10 -86h-684zM606 1499l195 318h112l-221 -318h-86z" />
<glyph unicode="&#xca;" horiz-adv-x="913" d="M123 0l170 1386h651l-12 -88h-553l-68 -559h453l-12 -88h-453q-13 -94 -35 -282.5t-35 -282.5h588q-2 -27 -10 -86h-684zM397 1501l226 318h96l145 -318h-78l-122 244l-183 -244h-84z" />
<glyph unicode="&#xcb;" horiz-adv-x="913" d="M123 0l170 1386h651l-12 -88h-553l-68 -559h453l-12 -88h-453q-13 -94 -35 -282.5t-35 -282.5h588q-2 -27 -10 -86h-684zM401 1651q0 25 17.5 43t44.5 18q26 0 42.5 -18t16.5 -43q0 -26 -17 -45t-42 -19q-27 0 -44.5 19t-17.5 45zM766 1651q0 25 17.5 43t43.5 18t43 -18 t17 -43q0 -26 -17 -45t-43 -19t-43.5 19.5t-17.5 44.5z" />
<glyph unicode="&#xcc;" horiz-adv-x="385" d="M121 -4l172 1390h98l-172 -1390h-98zM166 1821h113l124 -318h-81z" />
<glyph unicode="&#xcd;" horiz-adv-x="385" d="M121 -4l172 1390h98l-172 -1390h-98zM315 1503l195 318h113l-222 -318h-86z" />
<glyph unicode="&#xce;" horiz-adv-x="385" d="M121 -4l172 1390h98l-172 -1390h-98zM141 1501l226 318h96l145 -318h-78l-122 244l-183 -244h-84z" />
<glyph unicode="&#xcf;" horiz-adv-x="385" d="M121 -4l172 1390h98l-172 -1390h-98zM141 1653q0 25 17.5 43t44.5 18q26 0 42.5 -18t16.5 -43q0 -26 -17 -45t-42 -19q-27 0 -44.5 19t-17.5 45zM485 1653q0 25 18 43t44 18t42.5 -18t16.5 -43q0 -26 -17 -45t-42 -19q-26 0 -44 19.5t-18 44.5z" />
<glyph unicode="&#xd0;" horiz-adv-x="1214" d="M68 664l10 81h133l80 641h270q282 0 450.5 -161.5t168.5 -444.5q0 -117 -29 -229.5t-89.5 -212.5t-145.5 -175t-205 -119t-260 -44h-328l78 664h-133zM229 86h234q115 0 215 38t172 104t124 154t77.5 189.5t25.5 208.5q0 242 -140.5 380t-387.5 138h-172l-68 -553h256 l-10 -81h-256z" />
<glyph unicode="&#xd1;" horiz-adv-x="1290" d="M129 0l164 1290l-41 80l96 25l676 -1217l150 1208h92l-170 -1384l-76 -8l-653 1177l-144 -1171h-94zM516 1548q8 87 53 146t125 59q42 0 81 -20t63.5 -43.5t54.5 -43.5t57 -20q78 0 90 127h76q-24 -207 -178 -207q-41 0 -78 20t-60 43.5t-53.5 43.5t-60.5 20 q-44 0 -65 -32.5t-31 -92.5h-74z" />
<glyph unicode="&#xd2;" horiz-adv-x="1380" d="M141 569q0 231 91 424t248.5 304.5t346.5 111.5q231 0 378 -159.5t147 -428.5q0 -230 -92 -424t-251.5 -307t-349.5 -113q-231 0 -374.5 159t-143.5 433zM242 569q0 -238 113.5 -372t299.5 -134q166 0 302.5 99t215 272.5t78.5 384.5q0 219 -116 360.5t-304 141.5 q-164 0 -299 -97.5t-212.5 -270t-77.5 -384.5zM678 1821h113l127 -318h-84z" />
<glyph unicode="&#xd3;" horiz-adv-x="1380" d="M141 569q0 231 91 424t248.5 304.5t346.5 111.5q231 0 378 -159.5t147 -428.5q0 -230 -92 -424t-251.5 -307t-349.5 -113q-231 0 -374.5 159t-143.5 433zM242 569q0 -238 113.5 -372t299.5 -134q166 0 302.5 99t215 272.5t78.5 384.5q0 219 -116 360.5t-304 141.5 q-164 0 -299 -97.5t-212.5 -270t-77.5 -384.5zM815 1503l195 318h112l-221 -318h-86z" />
<glyph unicode="&#xd4;" horiz-adv-x="1380" d="M141 569q0 231 91 424t248.5 304.5t346.5 111.5q231 0 378 -159.5t147 -428.5q0 -230 -92 -424t-251.5 -307t-349.5 -113q-231 0 -374.5 159t-143.5 433zM242 569q0 -238 113.5 -372t299.5 -134q166 0 302.5 99t215 272.5t78.5 384.5q0 219 -116 360.5t-304 141.5 q-164 0 -299 -97.5t-212.5 -270t-77.5 -384.5zM621 1501l223 318h98l143 -318h-77l-123 244l-183 -244h-81z" />
<glyph unicode="&#xd5;" horiz-adv-x="1380" d="M141 569q0 231 91 424t248.5 304.5t346.5 111.5q231 0 378 -159.5t147 -428.5q0 -230 -92 -424.5t-251.5 -308t-349.5 -113.5q-231 0 -374.5 160t-143.5 434zM242 569q0 -238 113.5 -372t299.5 -134q166 0 302.5 99t215 272.5t78.5 384.5q0 219 -116 360.5t-304 141.5 q-164 0 -299 -97.5t-212.5 -270t-77.5 -384.5zM561 1548q8 87 53 146t125 59q42 0 81 -20t63.5 -43.5t54.5 -43.5t57 -20q78 0 90 127h76q-24 -207 -178 -207q-41 0 -78 20t-60 43.5t-53.5 43.5t-60.5 20q-44 0 -65 -32.5t-31 -92.5h-74z" />
<glyph unicode="&#xd6;" horiz-adv-x="1380" d="M141 569q0 231 91 424t248.5 304.5t346.5 111.5q231 0 378 -159.5t147 -428.5q0 -230 -92 -424.5t-251.5 -308t-349.5 -113.5q-231 0 -374.5 160t-143.5 434zM242 569q0 -238 113.5 -372t299.5 -134q166 0 302.5 99t215 272.5t78.5 384.5q0 219 -116 360.5t-304 141.5 q-164 0 -299 -97.5t-212.5 -270t-77.5 -384.5zM600 1657q0 25 17.5 43t44.5 18q26 0 42.5 -18t16.5 -43q0 -26 -17 -45t-42 -19q-27 0 -44.5 19t-17.5 45zM985 1657q0 25 18 43t44 18t42.5 -18t16.5 -43q0 -26 -17 -45t-42 -19q-26 0 -44 19.5t-18 44.5z" />
<glyph unicode="&#xd7;" horiz-adv-x="1290" d="M186 123l463 418h-2l-358 409q34 34 59 54l357 -412v-2l460 416l54 -58l-461 -416l358 -411l-57 -53l-359 413l-460 -415z" />
<glyph unicode="&#xd8;" horiz-adv-x="1359" d="M133 4l127 158h2q-121 155 -121 407q0 231 91 424t248.5 304.5t346.5 111.5q201 0 342 -125q11 14 52.5 64.5t62.5 78.5l66 -45l-125 -155q127 -156 127 -406q0 -230 -92 -424t-251.5 -307t-349.5 -113q-209 0 -342 127l-122 -149zM242 569q6 -199 84 -325l784 966 q-114 111 -279 111q-164 0 -299 -97.5t-212.5 -270t-77.5 -384.5zM377 178q109 -115 278 -115q166 0 302.5 99t215 272.5t78.5 384.5q0 194 -92 328z" />
<glyph unicode="&#xd9;" horiz-adv-x="1198" d="M176 393q0 41 6 88l111 905h98l-112 -917q-7 -54 -7 -72q0 -154 84.5 -244t229.5 -90q162 0 271.5 98t133.5 294l115 931h98l-119 -935q-30 -236 -161.5 -355t-339.5 -119q-187 0 -297.5 109.5t-110.5 306.5zM571 1821h113l127 -318h-84z" />
<glyph unicode="&#xda;" horiz-adv-x="1198" d="M176 393q0 41 6 88l111 905h98l-112 -917q-7 -54 -7 -72q0 -154 84.5 -244t229.5 -90q162 0 271.5 98t133.5 294l115 931h98l-119 -935q-30 -236 -161.5 -355t-339.5 -119q-187 0 -297.5 109.5t-110.5 306.5zM711 1501l194 318h113l-221 -318h-86z" />
<glyph unicode="&#xdb;" horiz-adv-x="1198" d="M176 393q0 41 6 88l111 905h98l-112 -917q-7 -54 -7 -72q0 -154 84.5 -244t229.5 -90q162 0 271.5 98t133.5 294l115 931h98l-119 -935q-30 -236 -161.5 -355t-339.5 -119q-187 0 -297.5 109.5t-110.5 306.5zM532 1501l224 318h98l143 -318h-77l-123 244l-183 -244h-82z " />
<glyph unicode="&#xdc;" horiz-adv-x="1177" d="M176 393q0 41 6 88l111 905h98l-112 -917q-7 -54 -7 -72q0 -154 84.5 -244t229.5 -90q162 0 271.5 98t133.5 294l115 931h98l-119 -935q-30 -236 -161.5 -355t-339.5 -119q-187 0 -297.5 109.5t-110.5 306.5zM518 1649q0 25 17.5 43t44.5 18q26 0 42.5 -18t16.5 -43 q0 -26 -17 -45t-42 -19q-27 0 -44.5 19t-17.5 45zM903 1649q0 25 18 43t44 18t42.5 -18t16.5 -43q0 -26 -17 -45t-42 -19q-26 0 -44 19.5t-18 44.5z" />
<glyph unicode="&#xdd;" horiz-adv-x="1036" d="M152 1384l106 9q138 -313 324 -699l489 699l109 -9l-559 -782l-74 -602h-101l74 602q-256 528 -368 782zM655 1501l195 318h113l-222 -318h-86z" />
<glyph unicode="&#xde;" horiz-adv-x="980" d="M121 0l170 1386h98l-35 -276h191q187 0 300 -111.5t113 -271.5q0 -184 -138 -307t-343 -123h-223l-35 -297h-98zM264 383h221q155 0 262 94.5t107 249.5q0 127 -84 212t-231 85h-195z" />
<glyph unicode="&#xdf;" horiz-adv-x="1044" d="M-104 -371l10 84q12 -4 37 -4q39 0 65.5 10.5t43.5 28.5t29.5 57t19.5 79t16 112l151 1237q10 80 48.5 144.5t93.5 103.5t118.5 59.5t128.5 20.5q139 0 224.5 -81.5t85.5 -215.5q0 -69 -25.5 -130.5t-64 -102.5t-83.5 -78.5t-83.5 -63.5t-64 -53.5t-25.5 -51.5 q0 -26 20 -51.5t52.5 -48t71.5 -47t78 -55t71.5 -64.5t52.5 -82.5t20 -103.5q0 -161 -112.5 -255.5t-288.5 -94.5q-151 0 -275 77l39 74q123 -70 236 -70q137 0 222 72.5t85 194.5q0 54 -27 100.5t-67.5 77.5t-88 64t-88 60t-67.5 66t-27 82q0 38 25.5 74t63.5 63t83 62.5 t83 71t63.5 90.5t25.5 119q0 103 -63.5 159t-157.5 56q-107 0 -193 -70t-100 -186l-151 -1225q-25 -206 -87 -287.5t-171 -81.5q-21 0 -53 4z" />
<glyph unicode="&#xe0;" horiz-adv-x="1001" d="M111 334q0 192 72.5 349t200 247t282.5 90q118 0 249 -64l-90 -698q-10 -98 -10 -117q0 -82 39 -82q64 0 158 101l39 -51q-49 -57 -108.5 -93t-111.5 -36q-102 0 -102 155q0 17 2.5 50.5t3.5 45.5q-187 -251 -375 -251q-115 0 -182 96t-67 258zM201 344q0 -130 49 -206.5 t129 -76.5q157 0 364 277l80 565q-95 37 -170 37q-102 0 -188 -49.5t-143 -132t-89 -190t-32 -224.5zM487 1452h113l127 -317h-84z" />
<glyph unicode="&#xe1;" horiz-adv-x="1001" d="M111 334q0 192 72.5 349t200 247t282.5 90q118 0 249 -64l-90 -698q-10 -98 -10 -117q0 -82 39 -82q64 0 158 101l39 -51q-49 -57 -108.5 -93t-111.5 -36q-102 0 -102 155q0 17 2.5 50.5t3.5 45.5q-187 -251 -375 -251q-115 0 -182 96t-67 258zM201 344q0 -130 49 -206.5 t129 -76.5q157 0 364 277l80 565q-95 37 -170 37q-102 0 -188 -49.5t-143 -132t-89 -190t-32 -224.5zM594 1135l194 317h113l-221 -317h-86z" />
<glyph unicode="&#xe2;" horiz-adv-x="1001" d="M111 334q0 192 72.5 349t200 247t282.5 90q118 0 249 -64l-90 -698q-10 -98 -10 -117q0 -82 39 -82q64 0 158 101l39 -51q-49 -57 -108.5 -93t-111.5 -36q-102 0 -102 155q0 17 2.5 50.5t3.5 45.5q-187 -251 -375 -251q-115 0 -182 96t-67 258zM201 344q0 -130 49 -206.5 t129 -76.5q157 0 364 277l80 565q-95 37 -170 37q-102 0 -188 -49.5t-143 -132t-89 -190t-32 -224.5zM412 1135l225 317h96l146 -317h-78l-123 243l-182 -243h-84z" />
<glyph unicode="&#xe3;" horiz-adv-x="1001" d="M111 334q0 192 72.5 349t200 247t282.5 90q118 0 249 -64l-90 -698q-10 -98 -10 -117q0 -82 39 -82q64 0 158 101l39 -51q-49 -57 -108.5 -93t-111.5 -36q-102 0 -102 155q0 17 2.5 50.5t3.5 45.5q-187 -251 -375 -251q-115 0 -182 96t-67 258zM201 344q0 -130 49 -206.5 t129 -76.5q157 0 364 277l80 565q-95 37 -170 37q-102 0 -188 -49.5t-143 -132t-89 -190t-32 -224.5zM358 1178q10 89 54.5 146.5t124.5 57.5q43 0 82.5 -20t63.5 -43.5t54.5 -43.5t57.5 -20q40 0 61.5 36t26.5 93h75q-11 -96 -54 -152t-122 -56q-41 0 -78 20t-60.5 43.5 t-54 43.5t-59.5 20q-45 0 -65 -31.5t-31 -93.5h-76z" />
<glyph unicode="&#xe4;" horiz-adv-x="1001" d="M111 334q0 192 72.5 349t200 247t282.5 90q118 0 249 -64l-90 -698q-10 -98 -10 -117q0 -82 39 -82q64 0 158 101l39 -51q-49 -57 -108.5 -93t-111.5 -36q-102 0 -102 155q0 17 2.5 50.5t3.5 45.5q-187 -251 -375 -251q-115 0 -182 96t-67 258zM201 344q0 -130 49 -206.5 t129 -76.5q157 0 364 277l80 565q-95 37 -170 37q-102 0 -188 -49.5t-143 -132t-89 -190t-32 -224.5zM418 1329q0 25 17.5 43.5t43.5 18.5q27 0 44.5 -18.5t17.5 -43.5q0 -26 -17.5 -44.5t-44.5 -18.5q-26 0 -43.5 19t-17.5 44zM805 1329q0 25 16.5 43.5t42.5 18.5 q27 0 44.5 -18.5t17.5 -43.5q0 -26 -17.5 -44.5t-44.5 -18.5q-26 0 -42.5 18.5t-16.5 44.5z" />
<glyph unicode="&#xe5;" horiz-adv-x="1001" d="M111 334q0 192 72.5 349t200 247t282.5 90q118 0 249 -64l-90 -698q-10 -98 -10 -117q0 -82 39 -82q64 0 158 101l39 -51q-49 -57 -108.5 -93t-111.5 -36q-102 0 -102 155q0 17 2.5 50.5t3.5 45.5q-187 -251 -375 -251q-115 0 -182 96t-67 258zM201 344q0 -130 49 -206.5 t129 -76.5q157 0 364 277l80 565q-95 37 -170 37q-102 0 -188 -49.5t-143 -132t-89 -190t-32 -224.5zM500 1278q0 76 53.5 125t124.5 49q72 0 124 -48.5t52 -125.5q-1 -75 -55 -123.5t-125 -48.5t-122.5 47.5t-51.5 124.5zM569 1276q0 -48 31 -77.5t74 -29.5q44 0 76 30.5 t32 78.5q0 49 -30.5 80t-73.5 31q-45 0 -77 -31t-32 -82z" />
<glyph unicode="&#xe6;" horiz-adv-x="1353" d="M113 334q0 152 47 281.5t127.5 217.5t189.5 137.5t232 49.5q148 0 245 -43q85 43 181 43q104 0 169.5 -58t65.5 -165q0 -104 -83 -185.5t-226.5 -132.5t-339.5 -76q0 -155 67 -249.5t175 -94.5q66 0 147.5 43t149.5 115l40 -55q-74 -85 -170 -133.5t-178 -48.5 q-105 0 -182 60t-113 163q-150 -221 -315 -221q-75 0 -128 48.5t-77 126.5t-24 177zM203 344q0 -125 39.5 -204t117.5 -79q67 0 140.5 66.5t136.5 167.5q-8 36 -8 90q0 172 66 311.5t175 225.5q-70 20 -163 20q-147 0 -262.5 -79t-178.5 -215t-63 -304zM721 475 q246 25 401.5 110.5t155.5 205.5q0 73 -43 112t-113 39q-59 0 -123 -30.5t-122.5 -87t-101 -148t-54.5 -201.5z" />
<glyph unicode="&#xe7;" horiz-adv-x="755" d="M115 387q0 177 66 322t182.5 228t259.5 83q117 0 223 -59l-35 -76q-94 51 -193 51q-117 0 -211.5 -70.5t-147 -194t-52.5 -276.5q0 -158 67.5 -246t167.5 -88q74 0 141 29t146 96l41 -57q-145 -133 -299 -147l-29 -52q176 -32 176 -155q0 -71 -58.5 -110.5t-147.5 -39.5 q-112 0 -193 41l33 64q82 -37 164 -37q53 0 86 22t33 58q0 22 -13 40t-30.5 28.5t-44.5 19t-44 11.5t-41.5 7t-25.5 4l55 101q-121 18 -198.5 125.5t-77.5 277.5z" />
<glyph unicode="&#xe8;" horiz-adv-x="829" d="M109 391q0 114 30 216t81 176t116.5 128.5t136.5 81.5t141 27q105 0 170.5 -62.5t65.5 -160.5q0 -62 -28.5 -115.5t-79 -93t-112.5 -70.5t-138.5 -52.5t-146 -35t-144.5 -22.5q0 -160 72 -255.5t184 -95.5q66 0 142.5 39t143.5 111l41 -55q-73 -84 -163.5 -128 t-174.5 -44q-144 0 -240.5 110.5t-96.5 300.5zM201 479q73 7 145 21.5t148.5 41t134 60.5t94.5 84t37 109q0 67 -44 107t-114 40q-142 0 -260 -134t-141 -329zM459 1452h112l127 -317h-84z" />
<glyph unicode="&#xe9;" horiz-adv-x="829" d="M109 391q0 114 30 216t81 176t116.5 128.5t136.5 81.5t141 27q105 0 170.5 -62.5t65.5 -160.5q0 -62 -28.5 -115.5t-79 -93t-112.5 -70.5t-138.5 -52.5t-146 -35t-144.5 -22.5q0 -160 72 -255.5t184 -95.5q66 0 142.5 39t143.5 111l41 -55q-73 -84 -163.5 -128 t-174.5 -44q-144 0 -240.5 110.5t-96.5 300.5zM201 479q73 7 145 21.5t148.5 41t134 60.5t94.5 84t37 109q0 67 -44 107t-114 40q-142 0 -260 -134t-141 -329zM545 1135l194 317h113l-221 -317h-86z" />
<glyph unicode="&#xea;" horiz-adv-x="829" d="M109 391q0 114 30 216t81 176t116.5 128.5t136.5 81.5t141 27q105 0 170.5 -62.5t65.5 -160.5q0 -62 -28.5 -115.5t-79 -93t-112.5 -70.5t-138.5 -52.5t-146 -35t-144.5 -22.5q0 -160 72 -255.5t184 -95.5q66 0 142.5 39t143.5 111l41 -55q-73 -84 -163.5 -128 t-174.5 -44q-144 0 -240.5 110.5t-96.5 300.5zM201 479q73 7 145 21.5t148.5 41t134 60.5t94.5 84t37 109q0 67 -44 107t-114 40q-142 0 -260 -134t-141 -329zM383 1135l225 317h97l145 -317h-78l-123 243l-182 -243h-84z" />
<glyph unicode="&#xeb;" horiz-adv-x="851" d="M109 391q0 114 30 216t81 176t116.5 128.5t136.5 81.5t141 27q105 0 170.5 -62.5t65.5 -160.5q0 -62 -28.5 -115.5t-79 -93t-112.5 -70.5t-138.5 -52.5t-146 -35t-144.5 -22.5q0 -160 72 -255.5t184 -95.5q66 0 142.5 39t143.5 111l41 -55q-73 -84 -163.5 -128 t-174.5 -44q-144 0 -240.5 110.5t-96.5 300.5zM201 479q73 7 145 21.5t148.5 41t134 60.5t94.5 84t37 109q0 67 -44 107t-114 40q-142 0 -260 -134t-141 -329zM395 1329q0 25 18 43.5t44 18.5q27 0 44 -18t17 -44t-17 -44.5t-44 -18.5q-26 0 -44 19t-18 44zM782 1329 q0 25 17 43.5t43 18.5q27 0 44 -18t17 -44t-17 -44.5t-44 -18.5q-26 0 -43 19t-17 44z" />
<glyph unicode="&#xec;" horiz-adv-x="432" d="M102 1452h113l127 -317h-84zM135 129q0 5 6 74l97 794h90l-101 -821q0 -5 -1 -21t-1 -26q0 -32 10.5 -52t30.5 -20q29 0 74 30.5t84 72.5l41 -51q-112 -132 -211 -132q-58 0 -88.5 40t-30.5 112z" />
<glyph unicode="&#xed;" horiz-adv-x="432" d="M135 129q0 5 6 74l97 794h90l-101 -821q0 -5 -1 -21t-1 -26q0 -32 10.5 -52t30.5 -20q29 0 74 30.5t84 72.5l41 -51q-112 -132 -211 -132q-58 0 -88.5 40t-30.5 112zM254 1135l195 317h112l-221 -317h-86z" />
<glyph unicode="&#xee;" horiz-adv-x="432" d="M72 1135l225 317h96l146 -317h-78l-123 243l-182 -243h-84zM135 129q0 5 6 74l97 794h90l-101 -821q0 -5 -1 -21t-1 -26q0 -32 10.5 -52t30.5 -20q29 0 74 30.5t84 72.5l41 -51q-112 -132 -211 -132q-58 0 -88.5 40t-30.5 112z" />
<glyph unicode="&#xef;" horiz-adv-x="432" d="M76 1329q0 26 17 44t44 18q26 0 43 -18.5t17 -43.5t-17 -44t-43 -19q-27 0 -44 18.5t-17 44.5zM135 129q0 32 6 74l97 794h90l-101 -821q0 -5 -1 -21t-1 -26q0 -32 10.5 -52t30.5 -20q29 0 74 30.5t84 72.5l41 -51q-112 -132 -211 -132q-116 0 -119 152zM461 1329 q0 25 17.5 43.5t43.5 18.5t43 -18.5t17 -43.5t-17 -44t-43 -19t-43.5 19t-17.5 44z" />
<glyph unicode="&#xf0;" horiz-adv-x="1099" d="M143 451q0 107 38 207.5t104.5 178.5t164 125.5t209.5 47.5q221 0 320 -211q-10 166 -71 301t-156 217l-248 -125l-39 65l219 109q-64 41 -132.5 62t-164.5 30l12 76q207 -8 371 -125l211 109l37 -68l-184 -92q115 -114 174 -285t59 -368q0 -113 -20 -218t-62 -198.5 t-102.5 -162.5t-148 -109t-191.5 -40q-99 0 -177.5 41t-126 109t-72 151t-24.5 173zM236 444q0 -75 18.5 -142.5t55 -123t97 -88.5t138.5 -33q95 0 177 47t135.5 123.5t83.5 170.5t30 190q0 44 -10 89.5t-33.5 91.5t-58 82t-88.5 58.5t-119 22.5q-93 0 -174 -41t-135.5 -109 t-85.5 -156t-31 -182z" />
<glyph unicode="&#xf1;" horiz-adv-x="1019" d="M119 0l125 997h86l-29 -227q106 117 199.5 183.5t181.5 66.5q106 0 165.5 -84.5t59.5 -222.5q0 -72 -10 -162.5t-27 -204t-24 -170.5q-4 -32 -4 -53q0 -31 11 -48.5t30 -17.5q59 0 159 103l39 -51q-52 -57 -115.5 -92t-107.5 -35q-50 0 -77 34t-27 95q0 51 6 92 q7 52 19 140.5t19 140.5t13 115t6 106q0 113 -42 173t-111 60q-75 0 -172.5 -73t-198.5 -197l-84 -668h-90zM338 1178q10 89 54 146.5t124 57.5q43 0 82.5 -20t63.5 -43.5t54.5 -43.5t57.5 -20q40 0 61.5 36t26.5 93h76q-11 -96 -54 -152t-122 -56q-41 0 -78 20t-60.5 43.5 t-54 43.5t-59.5 20q-45 0 -65 -31.5t-31 -93.5h-76z" />
<glyph unicode="&#xf2;" horiz-adv-x="964" d="M113 410q0 152 64.5 291.5t183.5 229t262 89.5q166 0 254 -118t88 -312q0 -152 -64 -292t-183 -230.5t-263 -90.5q-165 0 -253.5 120t-88.5 313zM207 401q0 -161 70 -252.5t188 -91.5q113 0 206.5 74.5t146 198.5t52.5 268q0 161 -69.5 251.5t-186.5 90.5 q-114 0 -208 -74.5t-146.5 -198t-52.5 -266.5zM446 1452h113l127 -317h-84z" />
<glyph unicode="&#xf3;" horiz-adv-x="964" d="M113 410q0 152 64.5 291.5t183.5 229t262 89.5q166 0 254 -118t88 -312q0 -152 -64 -292t-183 -230.5t-263 -90.5q-165 0 -253.5 120t-88.5 313zM207 401q0 -161 70 -252.5t188 -91.5q113 0 206.5 74.5t146 198.5t52.5 268q0 161 -69.5 251.5t-186.5 90.5 q-114 0 -208 -74.5t-146.5 -198t-52.5 -266.5zM594 1135l194 317h113l-221 -317h-86z" />
<glyph unicode="&#xf4;" horiz-adv-x="964" d="M113 410q0 152 64.5 291.5t183.5 229t262 89.5q166 0 254 -118t88 -312q0 -152 -64 -292t-183 -230.5t-263 -90.5q-165 0 -253.5 120t-88.5 313zM207 401q0 -161 70 -252.5t188 -91.5q113 0 206.5 74.5t146 198.5t52.5 268q0 161 -69.5 251.5t-186.5 90.5 q-114 0 -208 -74.5t-146.5 -198t-52.5 -266.5zM397 1135l226 317h96l145 -317h-78l-122 243l-183 -243h-84z" />
<glyph unicode="&#xf5;" horiz-adv-x="964" d="M113 410q0 152 64.5 291.5t183.5 229t262 89.5q166 0 254 -118t88 -312q0 -152 -64 -292t-183 -230.5t-263 -90.5q-165 0 -253.5 120t-88.5 313zM207 401q0 -161 70 -252.5t188 -91.5q113 0 206.5 74.5t146 198.5t52.5 268q0 161 -69.5 251.5t-186.5 90.5 q-114 0 -208 -74.5t-146.5 -198t-52.5 -266.5zM332 1178q10 89 54 146.5t124 57.5q43 0 82.5 -20t63.5 -43.5t54.5 -43.5t57.5 -20q40 0 61.5 36t26.5 93h76q-11 -96 -54 -152t-122 -56q-41 0 -78 20t-60.5 43.5t-54 43.5t-59.5 20q-45 0 -65 -31.5t-31 -93.5h-76z" />
<glyph unicode="&#xf6;" horiz-adv-x="964" d="M113 410q0 152 64.5 291.5t183.5 229t262 89.5q166 0 254 -118t88 -312q0 -152 -64 -292t-183 -230.5t-263 -90.5q-165 0 -253.5 120t-88.5 313zM207 401q0 -161 70 -252.5t188 -91.5q113 0 206.5 74.5t146 198.5t52.5 268q0 161 -69.5 251.5t-186.5 90.5 q-114 0 -208 -74.5t-146.5 -198t-52.5 -266.5zM387 1329q0 25 18 43.5t44 18.5q27 0 44 -18t17 -44t-17 -44.5t-44 -18.5q-26 0 -44 19t-18 44zM774 1329q0 25 17 43.5t43 18.5q27 0 44 -18t17 -44t-17 -44.5t-44 -18.5q-26 0 -43 19t-17 44z" />
<glyph unicode="&#xf7;" horiz-adv-x="1290" d="M215 494l8 79h1008l-8 -79h-1008zM596 150q0 28 19 47.5t49 19.5q29 0 48 -19.5t19 -47.5q0 -27 -19 -46.5t-48 -19.5q-30 0 -49 19.5t-19 46.5zM709 915q0 27 18.5 47.5t48.5 20.5q29 0 48.5 -20.5t19.5 -47.5q0 -28 -19.5 -47.5t-48.5 -19.5q-30 0 -48.5 19.5 t-18.5 47.5z" />
<glyph unicode="&#xf8;" horiz-adv-x="964" d="M90 4l94 117q-71 110 -71 289q0 152 64.5 291.5t183.5 229t262 89.5q136 0 223 -84l82 100q6 -5 57 -45l-92 -114q72 -113 72 -287q0 -152 -64 -292t-183 -230.5t-263 -90.5q-137 0 -224 84q-49 -64 -81 -100zM207 401q0 -123 43 -202v2l538 663q-70 76 -174 76 q-114 0 -208 -74.5t-146.5 -198t-52.5 -266.5zM291 133q61 -76 174 -76t206.5 74.5t146 198.5t52.5 268q0 121 -41 201z" />
<glyph unicode="&#xf9;" horiz-adv-x="1003" d="M135 281q0 53 15 163l71 553h90l-78 -612q-8 -58 -8 -96q0 -112 43.5 -173t114.5 -61q144 0 367 264l84 678h90l-93 -753q-10 -72 -10 -117q0 -70 41 -70q60 0 156 103l41 -51q-119 -125 -217 -125q-100 0 -107 127q0 44 8 110q-84 -105 -184.5 -174.5t-183.5 -69.5 q-105 0 -172.5 79t-67.5 225zM428 1452h113l125 -317h-82z" />
<glyph unicode="&#xfa;" horiz-adv-x="1003" d="M135 281q0 53 15 163l71 553h90l-78 -612q-8 -58 -8 -96q0 -112 43.5 -173t114.5 -61q144 0 367 264l84 678h90l-93 -753q-10 -72 -10 -117q0 -70 41 -70q60 0 156 103l41 -51q-119 -125 -217 -125q-100 0 -107 127q0 44 8 110q-84 -105 -184.5 -174.5t-183.5 -69.5 q-105 0 -172.5 79t-67.5 225zM526 1135l193 317h115l-222 -317h-86z" />
<glyph unicode="&#xfb;" horiz-adv-x="1003" d="M135 281q0 53 15 163l71 553h90l-78 -612q-8 -58 -8 -96q0 -112 43.5 -173t114.5 -61q144 0 367 264l84 678h90l-93 -753q-10 -72 -10 -117q0 -70 41 -70q60 0 156 103l41 -51q-119 -125 -217 -125q-100 0 -107 127q0 44 8 110q-84 -105 -184.5 -174.5t-183.5 -69.5 q-105 0 -172.5 79t-67.5 225zM354 1135l224 317h98l143 -317h-78l-123 243l-182 -243h-82z" />
<glyph unicode="&#xfc;" horiz-adv-x="1003" d="M135 281q0 53 15 163l71 553h90l-78 -612q-8 -58 -8 -96q0 -112 43.5 -173t114.5 -61q144 0 367 264l84 678h90l-93 -753q-10 -72 -10 -117q0 -70 41 -70q60 0 156 103l41 -51q-119 -125 -217 -125q-100 0 -107 127q0 44 8 110q-84 -105 -184.5 -174.5t-183.5 -69.5 q-105 0 -172.5 79t-67.5 225zM356 1329q0 25 17.5 43.5t44.5 18.5q26 0 42.5 -18.5t16.5 -43.5q0 -26 -16.5 -44.5t-42.5 -18.5q-27 0 -44.5 18.5t-17.5 44.5zM741 1329q0 25 18 43.5t44 18.5t42.5 -18.5t16.5 -43.5q0 -26 -16.5 -44.5t-42.5 -18.5t-44 19t-18 44z" />
<glyph unicode="&#xfd;" horiz-adv-x="858" d="M29 -358l20 77q54 -12 72 -12q64 0 115.5 45t101.5 142l61 120l-268 977l94 15l236 -871l416 873l90 -17l-553 -1132q-115 -236 -297 -236q-44 0 -88 19zM530 1137l195 317h113l-222 -317h-86z" />
<glyph unicode="&#xfe;" horiz-adv-x="968" d="M92 -350l240 1904h90l-100 -786q95 122 192 187t182 65q116 0 195.5 -91.5t79.5 -271.5q0 -157 -48 -288t-127.5 -214.5t-179 -129t-206.5 -45.5q-92 0 -181 30l-45 -360h-92zM238 88q74 -31 170 -31q201 0 337 166t136 434q0 137 -56 208t-137 71t-178.5 -66 t-198.5 -198z" />
<glyph unicode="&#xff;" horiz-adv-x="858" d="M29 -358l20 77q54 -12 72 -12q63 0 115 46.5t102 144.5l61 120l-268 977l94 15l236 -871l416 873l90 -17l-553 -1132q-117 -240 -297 -240q-44 0 -88 19zM342 1329q0 25 17.5 43.5t43.5 18.5q27 0 44.5 -18.5t17.5 -43.5q0 -26 -17.5 -44.5t-44.5 -18.5q-26 0 -43.5 19 t-17.5 44zM729 1329q0 25 16.5 43.5t42.5 18.5q27 0 44.5 -18.5t17.5 -43.5q0 -26 -17.5 -44.5t-44.5 -18.5q-26 0 -42.5 18.5t-16.5 44.5z" />
<glyph unicode="&#x152;" horiz-adv-x="1658" d="M137 592q0 116 30.5 232t91.5 219.5t144 183.5t195 127t238 47q91 0 202 -15h668l-12 -88h-570l-67 -559h444l-12 -88h-445l-67 -565h586q-10 -74 -11 -86h-675q-147 -14 -183 -14q-133 0 -239.5 45.5t-175.5 127t-105.5 192t-36.5 241.5zM238 592q0 -233 118 -375.5 t336 -142.5q96 0 187 12l149 1208q-93 19 -188 19q-137 0 -253 -63.5t-191 -167t-116.5 -231t-41.5 -259.5z" />
<glyph unicode="&#x153;" horiz-adv-x="1583" d="M113 410q0 152 64.5 291.5t183.5 229t262 89.5q135 0 215 -81t104 -222q68 143 189 223t239 80q103 0 167.5 -58t64.5 -165q0 -104 -83 -184.5t-225.5 -130.5t-339.5 -74q0 -161 71.5 -256t184.5 -95q66 0 143 39t144 111l41 -55q-73 -84 -165.5 -128t-176.5 -44 q-121 0 -208 79.5t-111 221.5q-65 -137 -174 -220.5t-248 -83.5q-165 0 -253.5 120t-88.5 313zM207 401q0 -161 70 -252.5t188 -91.5q113 0 206.5 74.5t146 198.5t52.5 268q0 161 -69.5 251.5t-186.5 90.5q-114 0 -208 -74.5t-146.5 -198t-52.5 -266.5zM954 479 q161 17 286 58.5t198 107.5t73 146q0 73 -41.5 112t-109.5 39q-60 0 -125 -30t-124 -85.5t-102 -146.5t-55 -201z" />
<glyph unicode="&#x178;" horiz-adv-x="1036" d="M152 1382l106 9q138 -313 324 -699l489 699l109 -9l-559 -782l-74 -600h-101l74 600q-256 528 -368 782zM436 1653q0 25 17.5 43t44.5 18q26 0 42.5 -18t16.5 -43q0 -26 -17 -45t-42 -19q-27 0 -44.5 19t-17.5 45zM821 1653q0 25 18 43t44 18t42.5 -18t16.5 -43 q0 -26 -17 -45t-42 -19q-26 0 -44 19.5t-18 44.5z" />
<glyph unicode="&#x2000;" horiz-adv-x="911" />
<glyph unicode="&#x2001;" horiz-adv-x="1823" />
<glyph unicode="&#x2002;" horiz-adv-x="911" />
<glyph unicode="&#x2003;" horiz-adv-x="1823" />
<glyph unicode="&#x2004;" horiz-adv-x="607" />
<glyph unicode="&#x2005;" horiz-adv-x="455" />
<glyph unicode="&#x2006;" horiz-adv-x="303" />
<glyph unicode="&#x2007;" horiz-adv-x="303" />
<glyph unicode="&#x2008;" horiz-adv-x="227" />
<glyph unicode="&#x2009;" horiz-adv-x="364" />
<glyph unicode="&#x200a;" horiz-adv-x="101" />
<glyph unicode="&#x2010;" d="M63 489l11 86h440l-10 -86h-441z" />
<glyph unicode="&#x2011;" d="M63 489l11 86h440l-10 -86h-441z" />
<glyph unicode="&#x2012;" d="M63 489l11 86h440l-10 -86h-441z" />
<glyph unicode="&#x2013;" horiz-adv-x="1105" d="M98 494q1 10 11 79h925q-8 -56 -10 -79h-926z" />
<glyph unicode="&#x2014;" horiz-adv-x="2027" d="M98 494q1 10 11 79h1847q-8 -56 -10 -79h-1848z" />
<glyph unicode="&#x2018;" d="M295 1110l170 442l82 -6l-156 -444z" />
<glyph unicode="&#x2019;" horiz-adv-x="446" d="M252 1110l154 442l94 -8l-168 -442q-52 4 -80 8z" />
<glyph unicode="&#x201a;" d="M96 -317l158 442l100 -6l-172 -443z" />
<glyph unicode="&#x201c;" horiz-adv-x="722" d="M170 1108l170 442q28 0 82 -4l-156 -442q-30 0 -96 4zM463 1108l168 442q28 0 82 -4l-154 -442q-34 0 -96 4z" />
<glyph unicode="&#x201d;" horiz-adv-x="722" d="M170 1110l154 442l96 -6l-170 -442zM461 1110l155 442l95 -6l-168 -442z" />
<glyph unicode="&#x201e;" horiz-adv-x="788" d="M86 -315l158 442l94 -8l-172 -443zM379 -315l156 442l94 -8l-172 -443z" />
<glyph unicode="&#x2022;" horiz-adv-x="606" d="M244 520q0 55 36 97t97 42q64 0 98.5 -40t34.5 -95q0 -57 -35.5 -98t-97.5 -41q-64 0 -98.5 40t-34.5 95z" />
<glyph unicode="&#x2026;" horiz-adv-x="1388" d="M168 53q0 28 19.5 49t48.5 21t48 -21t19 -49t-19 -48.5t-48 -20.5t-48.5 20.5t-19.5 48.5zM631 53q0 28 19 49t48 21t48.5 -21t19.5 -49t-19.5 -48.5t-48.5 -20.5t-48 20.5t-19 48.5zM1094 53q0 28 19 49t48 21t48.5 -21t19.5 -49t-19.5 -48.5t-48.5 -20.5t-48 20.5 t-19 48.5z" />
<glyph unicode="&#x202f;" horiz-adv-x="364" />
<glyph unicode="&#x2039;" horiz-adv-x="739" d="M174 543l420 430q19 -19 59 -51l-358 -381l264 -381l-72 -47z" />
<glyph unicode="&#x203a;" horiz-adv-x="659" d="M135 164l359 381l-267 381q5 3 74 47l311 -430l-417 -430z" />
<glyph unicode="&#x205f;" horiz-adv-x="455" />
<glyph unicode="&#x20ac;" horiz-adv-x="1421" d="M115 510l39 82h165v59q0 21 15 123h-189l41 82h168q32 110 89 205t138 170.5t191.5 118.5t237.5 43q267 0 465 -201l-43 -80q-193 193 -428 193q-107 0 -199 -35.5t-159.5 -98t-115.5 -142t-77 -173.5h841l-41 -82h-821q-16 -82 -16 -123v-59h733l-43 -82h-684 q26 -201 150 -319.5t313 -118.5q175 0 389 127l41 -70q-221 -141 -428 -141q-238 0 -387 142t-176 380h-209z" />
<glyph unicode="&#x2122;" horiz-adv-x="1165" d="M158 555q0 88 14 182t42.5 191t76 182.5t108.5 153t147 106.5t185 39q113 0 199 -48.5t136 -130.5t74.5 -180t24.5 -208q0 -89 -14 -184t-42.5 -193t-76.5 -184.5t-109.5 -155t-148.5 -108.5t-188 -40q-91 0 -164.5 34t-121.5 90.5t-81 132t-47 156t-14 165.5zM256 545 q0 -66 10 -130t34 -129t60.5 -113.5t94.5 -79t131 -30.5q107 0 192.5 56.5t137.5 143t87 197t48.5 209.5t13.5 189q0 209 -85 337t-247 128q-101 0 -184 -52t-136 -134t-89.5 -187.5t-52 -207t-15.5 -197.5z" />
<glyph unicode="&#xe000;" horiz-adv-x="1013" d="M0 0v1014h1014v-1014h-1014z" />
</font>
</defs>
</svg>
