<?xml version="1.0" standalone="no"?>
<!DOCTYPE svg PUBLIC "-//W3C//DTD SVG 1.1//EN" "http://www.w3.org/Graphics/SVG/1.1/DTD/svg11.dtd" >
<svg xmlns="http://www.w3.org/2000/svg">
<metadata></metadata>
<defs>
<font id="SensibilityExtraLight" horiz-adv-x="897" >
<font-face units-per-em="2048" ascent="1638" descent="-410" />
<missing-glyph horiz-adv-x="479" />
<glyph horiz-adv-x="0" />
<glyph horiz-adv-x="2048" />
<glyph unicode=" "  horiz-adv-x="479" />
<glyph unicode="&#x09;" horiz-adv-x="479" />
<glyph unicode="&#xa0;" horiz-adv-x="479" />
<glyph unicode="!" horiz-adv-x="460" d="M164 53q0 29 18.5 49.5t48.5 20.5q29 0 48.5 -21t19.5 -49t-19.5 -47.5t-48.5 -19.5q-30 0 -48.5 19.5t-18.5 47.5zM178 1386h103l-5 -1071h-92z" />
<glyph unicode="&#x22;" horiz-adv-x="782" d="M182 1546h97l-5 -512h-88zM502 1546h98l-6 -512h-86z" />
<glyph unicode="#" horiz-adv-x="1284" d="M45 432l8 78h289l90 360h-348l10 78h359l110 438h82l-113 -438h281l113 438h80l-111 -438h272l-10 -78h-283l-88 -360h340l-8 -78h-352l-109 -432h-79l106 432h-278l-109 -432h-82l109 432h-279zM424 510h281l90 360h-281z" />
<glyph unicode="$" horiz-adv-x="1024" d="M90 147l43 72q166 -135 352 -149v589q-49 21 -79 34.5t-73.5 36.5t-70.5 43t-57.5 50t-47.5 61t-28.5 72t-11.5 88q0 147 103.5 245.5t264.5 109.5v129h80v-131q154 -13 332 -111l-35 -78q-142 83 -297 107v-592q47 -21 76.5 -34.5t72 -36.5t69 -43t56.5 -49t47 -59 t28.5 -69.5t11.5 -83.5q0 -150 -103 -247t-258 -111v-172h-80v172q-219 9 -395 157zM207 1053q0 -57 21 -103t64.5 -82t85 -59.5t107.5 -52.5v561q-124 -9 -201 -81.5t-77 -182.5zM565 72q117 11 193 84.5t76 187.5q0 44 -15 82t-38 65.5t-61 53.5t-72 43.5t-83 38.5v-555z " />
<glyph unicode="%" horiz-adv-x="1794" d="M115 1051q0 147 99.5 252.5t258.5 105.5q158 0 258 -106t100 -252t-99.5 -251.5t-258.5 -105.5q-160 0 -259 105t-99 252zM203 1049q0 -118 75 -201.5t195 -83.5q118 0 194 84.5t76 200.5q0 119 -76 204.5t-194 85.5t-194 -86t-76 -204zM504 0l702 1386h90l-704 -1386 h-88zM969 334q0 147 99.5 252.5t258.5 105.5t259 -106t100 -252t-100 -251.5t-259 -105.5t-258.5 105.5t-99.5 251.5zM1059 332q0 -118 75 -201.5t193 -83.5q119 0 194.5 84t75.5 201q0 119 -76 205t-194 86q-117 0 -192.5 -86.5t-75.5 -204.5z" />
<glyph unicode="&#x26;" horiz-adv-x="1337" d="M113 330q0 71 23 129.5t68.5 104t95 78.5t118.5 67q-203 181 -203 358q0 105 54 184t140.5 118.5t190.5 39.5q155 0 259 -88.5t104 -230.5q0 -44 -10.5 -82.5t-25 -67t-43 -57t-51 -47t-64 -42t-66.5 -35.5t-73 -35t-71 -34q6 -6 82 -81t106 -104t92 -88t115 -106 q111 140 181 312h98q-88 -214 -213 -369l223 -197l-61 -71l-224 198q-187 -204 -423 -204q-102 0 -184 28.5t-133 77.5t-78 111.5t-27 132.5zM209 334q0 -117 87.5 -196t238.5 -79q192 0 362 181l-422 411q-131 -62 -198.5 -136t-67.5 -181zM309 1069q0 -70 47 -145 t152 -174l61 26q77 33 126.5 60.5t92.5 64t62.5 81.5t19.5 103q0 112 -77.5 178t-192.5 66q-121 0 -206 -70t-85 -190z" />
<glyph unicode="'" horiz-adv-x="460" d="M182 1544h97l-5 -510h-88z" />
<glyph unicode="(" horiz-adv-x="479" d="M76 590q0 233 58 462.5t181 493.5h86q-237 -515 -237 -964q0 -454 237 -934h-86q-123 257 -181 482.5t-58 459.5z" />
<glyph unicode=")" horiz-adv-x="479" d="M82 -352q118 261 177.5 498.5t59.5 476.5q0 453 -237 923h86q123 -252 181.5 -476t58.5 -456q0 -233 -58.5 -466t-181.5 -500h-86z" />
<glyph unicode="*" horiz-adv-x="1079" d="M184 961l295 169q-57 33 -163.5 93.5t-131.5 74.5l39 70l283 -182h2q0 5 -1 16t-1 17l-6 323h78l-5 -323q0 -5 -1 -16t-1 -17q55 36 158 101.5t127 80.5l37 -70q-44 -23 -132 -75.5t-132 -75.5l-31 -17l295 -169l-37 -68l-258 162l-27 18q0 -59 3.5 -178t3.5 -178h-78 l6 323q0 5 1 16t1 17h-2l-283 -180z" />
<glyph unicode="+" horiz-adv-x="1290" d="M139 494v79h465v488h78v-488h465v-79h-465v-486h-78v486h-465z" />
<glyph unicode="," horiz-adv-x="454" d="M102 -328l105 451h104l-121 -451h-88z" />
<glyph unicode="-" horiz-adv-x="526" d="M33 489l10 86h440l-10 -86h-440z" />
<glyph unicode="." horiz-adv-x="462" d="M164 53q0 29 18.5 49.5t48.5 20.5q29 0 48.5 -21t19.5 -49t-19.5 -48.5t-48.5 -20.5q-30 0 -48.5 20t-18.5 49z" />
<glyph unicode="/" horiz-adv-x="780" d="M-27 -160l746 1706h88l-746 -1706h-88z" />
<glyph unicode="0" horiz-adv-x="1114" d="M61 502q0 116 40.5 215t109 165.5t158.5 104t188 37.5q97 0 187 -37.5t158.5 -104t109.5 -165.5t41 -215t-41 -215.5t-109.5 -166.5t-158.5 -105t-187 -38t-187 38t-158.5 105t-109.5 166.5t-41 215.5zM158 502q0 -96 32.5 -179.5t87.5 -140.5t127 -90t150 -33t150.5 33 t127.5 90t88 141.5t33 180.5q0 191 -117.5 313.5t-279.5 122.5t-280.5 -123t-118.5 -315z" />
<glyph unicode="1" horiz-adv-x="638" d="M49 0l8 84h228v850q-152 -26 -228 -35l-6 86q103 12 324 51v-952h233l-10 -84h-549z" />
<glyph unicode="2" horiz-adv-x="888" d="M39 0l8 66q77 50 209 151q11 8 55.5 42.5t68.5 53t69 57t72 66t62 67.5t54 74t33 73.5t14 76.5q0 100 -70 162.5t-178 62.5q-142 0 -307 -92q-4 11 -17 37t-18 41q174 100 346 100q155 0 248.5 -89t93.5 -218q0 -50 -20.5 -103.5t-50 -100t-81 -100t-95 -93t-111 -91 t-110.5 -82t-111 -77.5h645l-8 -84h-801z" />
<glyph unicode="3" horiz-adv-x="839" d="M16 -240q137 20 241 47t196.5 69.5t142 106t49.5 146.5q0 109 -74 174.5t-192 65.5q-105 0 -191 -9l-10 80l176 13q119 8 196 79t77 189q0 90 -71.5 155.5t-197.5 65.5q-149 0 -297 -68l-24 82q66 30 156.5 49t173.5 19q174 0 264 -83.5t90 -209.5q0 -107 -60.5 -190 t-168.5 -119q109 -20 179 -95.5t70 -193.5q0 -88 -40 -158.5t-103.5 -117.5t-161 -84t-191.5 -58.5t-216 -40.5z" />
<glyph unicode="4" horiz-adv-x="1075" d="M45 0v66l610 950h127v-932h258l-10 -84h-248v-319l-90 -25v344h-647zM150 82h542v838z" />
<glyph unicode="5" horiz-adv-x="827" d="M70 -256q74 10 140 25t134.5 37.5t123 53.5t98 70.5t67.5 92t24 114.5q0 252 -424 252h-147l59 615h611l-11 -86h-514l-47 -443h54q516 0 516 -334q0 -100 -51 -182.5t-143.5 -140.5t-210.5 -97.5t-261 -60.5z" />
<glyph unicode="6" horiz-adv-x="1001" d="M82 508q0 105 29.5 212.5t90 210t144.5 190.5t201 157t252 106l28 -84q-247 -65 -420.5 -243.5t-218.5 -405.5q180 180 385 180q156 0 259.5 -109t103.5 -300q0 -105 -35.5 -191.5t-95.5 -141t-134.5 -83.5t-154.5 -29q-84 0 -161 34t-138.5 98.5t-98 167.5t-36.5 231z M176 510q0 -108 29 -195.5t77 -143t109 -85t127 -29.5q62 0 119 23t102.5 66.5t73 114.5t27.5 159q0 159 -80 244.5t-205 85.5q-93 0 -194.5 -51t-184.5 -144v-45z" />
<glyph unicode="7" horiz-adv-x="870" d="M37 920l8 84h774v-68q-371 -721 -626 -1296l-89 38q283 608 611 1242h-678z" />
<glyph unicode="8" horiz-adv-x="1034" d="M82 322q0 62 19 114.5t48.5 90t76.5 72.5t90.5 58t103.5 50q-66 31 -114 61.5t-92.5 72.5t-67.5 97t-23 121q0 147 111 239.5t284 92.5q167 0 281 -92.5t114 -239.5q0 -65 -24 -118.5t-72.5 -95.5t-95.5 -71t-119 -63q62 -28 106 -51t94 -58.5t80.5 -73t51 -90 t20.5 -112.5q0 -152 -124.5 -249t-311.5 -97q-188 0 -312 95t-124 247zM176 330q0 -121 96 -197t246 -76q148 0 244 76.5t96 196.5q-1 46 -18.5 86.5t-43 70.5t-67.5 60t-79 50t-89 44l-53 25q-60 -27 -100 -47.5t-88 -53t-76.5 -64.5t-48 -76.5t-19.5 -94.5zM211 1055 q0 -46 17.5 -86t42.5 -68t70.5 -57.5t81.5 -48t95 -45.5q57 25 94 43.5t81.5 47t69.5 57t42.5 69t17.5 86.5q0 113 -86.5 185.5t-218.5 72.5q-135 0 -221 -71.5t-86 -184.5z" />
<glyph unicode="9" horiz-adv-x="1001" d="M66 580q0 105 35.5 191.5t95 140.5t134 83t154.5 29q67 0 130 -21t118.5 -64.5t97 -105.5t65.5 -149t24 -190q0 -105 -29.5 -211.5t-90 -208.5t-144.5 -189t-201 -155.5t-252 -106.5l-29 86q247 64 420.5 239.5t216.5 401.5q-88 -90 -187 -135t-196 -45 q-156 0 -259 109.5t-103 300.5zM162 582q0 -159 79.5 -244.5t204.5 -85.5q94 0 195 50t182 144q2 14 2 46q0 108 -29 195.5t-77 142.5t-109 84.5t-127 29.5q-62 0 -118.5 -23t-102.5 -66t-73 -114t-27 -159z" />
<glyph unicode=":" horiz-adv-x="460" d="M164 53q0 29 18.5 49.5t48.5 20.5q29 0 48.5 -21t19.5 -49t-19.5 -48.5t-48.5 -20.5q-30 0 -48.5 20t-18.5 49zM164 893q0 29 18.5 49.5t48.5 20.5q29 0 48.5 -21t19.5 -49t-19.5 -49t-48.5 -21q-30 0 -48.5 20.5t-18.5 49.5z" />
<glyph unicode=";" horiz-adv-x="460" d="M92 -328l105 451h104l-121 -451h-88zM160 893q0 28 19 49t48 21t48.5 -21t19.5 -49t-19.5 -49t-48.5 -21t-48 21t-19 49z" />
<glyph unicode="&#x3c;" horiz-adv-x="1290" d="M176 446v70l934 422v-90l-819 -365l819 -374v-93z" />
<glyph unicode="=" horiz-adv-x="1290" d="M139 301v82h1008v-82h-1008zM139 686v82h1008v-82h-1008z" />
<glyph unicode="&#x3e;" horiz-adv-x="1290" d="M176 16v93l819 366l-819 373v90l934 -428v-70z" />
<glyph unicode="?" horiz-adv-x="894" d="M76 1294q171 115 383 115q159 0 269 -98t110 -248q0 -50 -16 -97.5t-50 -96.5t-65.5 -85t-83.5 -90l-78 -80q-61 -62 -89.5 -133t-29.5 -168h-86q0 4 -1 13.5t-1 13.5q0 107 36.5 185t112.5 157l74 76q44 45 65 68.5t51.5 65.5t44 83.5t13.5 87.5q0 106 -83.5 181 t-200.5 75q-185 0 -340 -102zM322 53q0 28 19 49t48 21t48.5 -21t19.5 -49t-19.5 -47.5t-48.5 -19.5t-48 19.5t-19 47.5z" />
<glyph unicode="@" horiz-adv-x="1658" d="M111 616q0 227 101 408.5t280 283t403 101.5q147 0 269.5 -47.5t206 -131.5t129.5 -201t46 -255q0 -94 -26.5 -185t-75 -166t-124.5 -121t-167 -46q-70 0 -113.5 43.5t-52.5 132.5q-72 -92 -145 -134t-131 -42q-115 0 -184.5 83t-69.5 214q0 91 32 176t89 150.5t142 105 t183 39.5q113 0 248 -43l-86 -514q-2 -12 -2 -33q0 -98 100 -98q124 0 209.5 129.5t85.5 308.5q0 160 -66.5 285t-195 197.5t-299.5 72.5q-199 0 -358.5 -92.5t-249.5 -255.5t-90 -365q0 -130 42 -248.5t122 -213t209 -151t290 -56.5q138 0 248.5 35.5t226.5 107.5l37 -72 q-233 -151 -512 -151q-147 0 -271.5 41.5t-212 113.5t-148.5 167.5t-90 203.5t-29 223zM547 555q0 -99 45 -159t119 -60q78 0 154 62t134 175l58 349q-74 24 -154 24q-86 0 -155.5 -34.5t-112.5 -91t-65.5 -125t-22.5 -140.5z" />
<glyph unicode="A" horiz-adv-x="1165" d="M16 2q130 351 519 1317l-19 55l82 29l551 -1401l-107 -6l-180 471h-571l-174 -471zM322 551h507l-251 657q-152 -376 -256 -657z" />
<glyph unicode="B" horiz-adv-x="974" d="M143 0v1386h287q104 0 184.5 -29.5t128.5 -80t72.5 -112t24.5 -130.5q0 -119 -62.5 -208t-185.5 -126q144 -28 218.5 -119.5t74.5 -213.5q0 -159 -112.5 -263t-315.5 -104h-314zM242 84h213q160 0 245.5 81t85.5 202q0 127 -88 206.5t-245 79.5h-211v-569zM242 731h182 q147 0 230 81.5t83 211.5q0 117 -80 196.5t-225 79.5h-190v-569z" />
<glyph unicode="C" horiz-adv-x="1056" d="M68 680q0 110 22.5 214.5t71 198.5t117 164t166.5 111t214 41q161 0 332 -86l-30 -82q-83 40 -154 59t-158 19q-94 0 -173 -36t-134.5 -97.5t-94 -143.5t-57 -173t-18.5 -187q0 -171 56.5 -309t168.5 -221.5t262 -83.5t302 79l30 -73q-164 -94 -344 -94q-170 0 -302.5 90 t-204.5 249t-72 361z" />
<glyph unicode="D" horiz-adv-x="1183" d="M143 0v1386h283q154 0 277 -43.5t198.5 -112t125.5 -159.5t69.5 -178.5t19.5 -177.5q0 -328 -175.5 -521.5t-483.5 -193.5h-314zM242 86h221q257 0 403 168t146 455q0 121 -34 224.5t-102.5 186.5t-184 130.5t-267.5 47.5h-182v-1212z" />
<glyph unicode="E" d="M143 0v1386h664l-12 -88h-553v-559h450l-12 -88h-438v-563h592l-13 -88h-678z" />
<glyph unicode="F" horiz-adv-x="864" d="M143 0v1386h664l-12 -88h-553v-579h440l-12 -88h-428v-631h-99z" />
<glyph unicode="G" horiz-adv-x="1245" d="M66 686q0 141 40.5 269.5t116.5 230.5t197.5 162.5t271.5 60.5q190 0 367 -94l-37 -80q-175 84 -336 84q-123 0 -222 -50.5t-162.5 -137.5t-97.5 -201t-34 -244q0 -174 58.5 -312t178 -222t283.5 -84q157 0 318 84v415h-357l11 88h440v-553q-214 -122 -420 -122 q-143 0 -260.5 55t-194.5 150.5t-119 224t-42 276.5z" />
<glyph unicode="H" horiz-adv-x="1191" d="M143 0v1386h97v-653h710v653h99v-1386h-99v649h-710v-649h-97z" />
<glyph unicode="I" horiz-adv-x="385" d="M143 0v1386h99v-1386h-99z" />
<glyph unicode="J" horiz-adv-x="677" d="M37 27l29 73q82 -37 153 -37q217 0 217 314v921h-227l10 88h316v-1028q0 -188 -84.5 -283t-219.5 -95q-100 0 -194 47z" />
<glyph unicode="K" horiz-adv-x="1040" d="M143 0v1386h99v-671l88 84q160 154 565 600l106 -19q-370 -401 -544 -571q281 -423 557 -801l-107 -20q-98 136 -256.5 368.5t-261.5 391.5q-49 -47 -147 -132v-616h-99z" />
<glyph unicode="L" horiz-adv-x="831" d="M143 0v1386h99v-1298h559l-13 -88h-645z" />
<glyph unicode="M" horiz-adv-x="1593" d="M82 4l237 1317l-24 59l94 15l395 -1106l414 1097h88q5 -29 45.5 -276.5t92 -563t85.5 -542.5l-98 -6q-50 339 -194 1202l-400 -1055h-78l-364 1026l-47 -276q-7 -43 -65.5 -382t-86.5 -517z" />
<glyph unicode="N" horiz-adv-x="1263" d="M98 1370l95 25l835 -1215v1206h92v-1382l-78 -8l-806 1175v-1171h-93l7 1290z" />
<glyph unicode="O" horiz-adv-x="1337" d="M66 682q0 110 23.5 214t73 197.5t120 163.5t172 111t221.5 41q118 0 217.5 -39.5t168.5 -106.5t117 -157.5t70.5 -191.5t22.5 -209q0 -139 -38.5 -267t-112 -232t-193 -166.5t-269.5 -62.5q-117 0 -216 39.5t-167.5 107t-116.5 157.5t-70.5 191.5t-22.5 209.5zM168 686 q0 -95 19 -184t58.5 -168t97 -138t139.5 -93.5t180 -34.5q100 0 184 35.5t142.5 96t100 142t61 172t19.5 186.5q0 94 -18.5 183t-58.5 168.5t-97.5 138.5t-140 94t-180.5 35q-99 0 -183 -35.5t-142.5 -96.5t-100 -142t-61 -172t-19.5 -187z" />
<glyph unicode="P" horiz-adv-x="946" d="M143 0v1386h303q209 0 322 -105t113 -273q0 -176 -122 -300t-325 -124q-87 0 -194 16v-600h-97zM240 678q103 -14 194 -14q164 0 255 98.5t91 238.5q0 132 -83.5 218t-241.5 86h-215v-627z" />
<glyph unicode="Q" horiz-adv-x="1355" d="M66 682q0 112 25.5 218t77 198t123.5 161.5t171 109.5t213 40q138 0 251.5 -56t188.5 -152.5t115.5 -224t40.5 -271.5q0 -170 -53.5 -315t-162.5 -246t-257 -128q220 -59 497 -59q8 1 23 1.5t28 1.5t25 3q-2 -35 -2 -100q-18 0 -49.5 -1t-46.5 -1q-342 0 -633 121h-8 q-171 7 -301 102t-198 251t-68 347zM166 686q0 -130 32.5 -242t94 -196t156.5 -132t213 -48q120 0 218 52t160.5 140t96.5 201t34 239q0 119 -31 227.5t-90 197t-156.5 141.5t-219.5 53q-120 0 -218 -51t-160.5 -138.5t-96 -201t-33.5 -242.5z" />
<glyph unicode="R" horiz-adv-x="960" d="M143 0v1386h285q201 0 305.5 -101t104.5 -261q0 -70 -22 -135.5t-64 -120.5t-110.5 -93t-154.5 -50q229 -341 445 -621q-70 -8 -105 -14q-148 190 -440 624q-25 0 -74 2t-73 2v-618h-97zM240 694h172q150 0 238.5 94t88.5 230q0 125 -80.5 206t-224.5 81h-194v-611z" />
<glyph unicode="S" horiz-adv-x="882" d="M47 143l47 72q70 -69 160 -108t184 -39q124 0 202.5 74t78.5 196q0 57 -22.5 103.5t-60 79t-86.5 61t-103 53.5t-107.5 51t-102.5 59.5t-86.5 73.5t-60 97.5t-22.5 127.5q0 153 100.5 258t275.5 105q93 0 187.5 -31t159.5 -84l-37 -80q-162 107 -318 107 q-117 0 -193.5 -71.5t-76.5 -196.5q0 -74 36 -131t93.5 -94t126.5 -69.5t138.5 -68t127 -78.5t93.5 -112t36 -158q0 -156 -107.5 -259.5t-275.5 -103.5q-228 0 -387 166z" />
<glyph unicode="T" horiz-adv-x="978" d="M35 1298l12 88h897l-12 -88h-397v-1298h-99v1298h-401z" />
<glyph unicode="U" horiz-adv-x="1177" d="M133 459v927h98v-927q0 -191 97 -292t262 -101q162 0 259 97.5t97 293.5v929h98v-923q0 -231 -124 -358.5t-334 -127.5q-204 0 -328.5 125t-124.5 357z" />
<glyph unicode="V" horiz-adv-x="1085" d="M-10 1380l102 11q104 -307 455 -1254l450 1254l99 -11l-514 -1394l-74 -6z" />
<glyph unicode="W" horiz-adv-x="1679" d="M0 1382l102 9l342 -1252l334 1133l-24 102l96 10q33 -126 354 -1245l371 1252l104 -9l-426 -1380l-94 -8l-336 1141l-334 -1131l-94 -10q-50 166 -181.5 623.5t-213.5 764.5z" />
<glyph unicode="X" horiz-adv-x="1124" d="M20 6l484 688l-477 686l108 13l426 -619l428 619l109 -13l-482 -686l492 -694l-115 -4l-434 620l-432 -620z" />
<glyph unicode="Y" horiz-adv-x="1013" d="M-6 1382l106 9q129 -231 410 -699q165 270 401 697l111 -7q-39 -66 -206.5 -349.5t-258.5 -434.5v-598h-98v598l-35 59q-48 80 -139.5 232t-164 274t-126.5 219z" />
<glyph unicode="Z" horiz-adv-x="1046" d="M51 55l783 1243h-754l12 88h879v-43l-789 -1257h809q0 -57 -2 -86h-930q-4 17 -8 55z" />
<glyph unicode="[" horiz-adv-x="526" d="M94 -352v1898h318v-73h-234v-1752h234v-73h-318z" />
<glyph unicode="\" horiz-adv-x="823" d="M-6 1546h88l745 -1706h-90z" />
<glyph unicode="]" horiz-adv-x="526" d="M115 -279h231v1752h-231v73h317v-1898h-317v73z" />
<glyph unicode="^" horiz-adv-x="1173" d="M96 469l455 911h59l461 -911h-92l-399 795l-392 -795h-92z" />
<glyph unicode="_" horiz-adv-x="1173" d="M0 -180h1171v-76h-1171v76z" />
<glyph unicode="a" horiz-adv-x="917" d="M55 215q0 52 11 89.5t40.5 68t72.5 51t115.5 37t161.5 27.5t218 22v90q0 170 -47 255t-168 85q-138 0 -305 -76q-2 4 -29 78q171 82 338 82q169 0 235 -101.5t66 -310.5v-436q0 -110 65 -110q29 0 89 22q8 -30 20 -65q-77 -35 -127 -35q-52 0 -92 42.5t-43 121.5 q-54 -83 -141.5 -126.5t-196.5 -43.5q-129 0 -206 62t-77 171zM150 219q0 -74 54.5 -117t145.5 -43q136 0 228.5 74.5t95.5 196.5v108q-135 -11 -220 -22.5t-148.5 -27t-95 -39t-46 -54t-14.5 -76.5z" />
<glyph unicode="b" horiz-adv-x="1019" d="M125 1544l90 21q18 -123 18 -391v-381q51 110 147 170.5t204 60.5q72 0 137 -29t118 -85t84 -149t31 -212q0 -253 -139 -412.5t-366 -159.5q-115 0 -234 48q-10 5 -72 14v1139q0 243 -18 366zM233 104q94 -47 213 -47q192 0 303 138.5t111 359.5q0 185 -84.5 286 t-208.5 101q-134 0 -227.5 -94.5t-106.5 -247.5v-496z" />
<glyph unicode="c" horiz-adv-x="821" d="M66 481q0 103 28.5 197.5t85 173t152.5 125.5t219 47q92 0 215 -45l-29 -80q-103 39 -192 39q-99 0 -175.5 -39.5t-121.5 -106t-67.5 -145.5t-22.5 -166q0 -65 12 -125.5t38.5 -114.5t65 -93.5t95 -63t125.5 -23.5q53 0 125 19t124 43l27 -74q-60 -28 -139.5 -50 t-141.5 -22q-107 0 -190 42.5t-132.5 114.5t-75 160.5t-25.5 186.5z" />
<glyph unicode="d" horiz-adv-x="1046" d="M66 453q0 252 138.5 411.5t358.5 159.5q95 0 221 -37v193q0 243 -18 366l90 19q18 -123 18 -389v-1000q0 -110 76 -110q28 0 82 16l17 -64q-70 -28 -119 -28q-58 0 -98 40t-44 109l-4 64q-53 -111 -146.5 -168.5t-201.5 -57.5q-73 0 -138 29t-117.5 86t-83.5 150t-31 211 zM160 446q0 -187 85 -289t208 -102q124 0 219 91t112 249v514q-95 35 -206 35q-184 0 -301 -131.5t-117 -366.5z" />
<glyph unicode="e" horiz-adv-x="952" d="M66 483q0 147 59 271t161.5 196t225.5 72q165 0 265.5 -108t101.5 -324q-57 -9 -121 -15q-100 0 -297 -1t-297 -1q-6 -43 -6 -86q0 -210 96 -319t256 -109q91 0 163.5 23t164.5 70q5 -10 15 -33.5t17 -36.5q-74 -37 -113.5 -54t-110.5 -34t-146 -17q-90 0 -166.5 30 t-137.5 90t-95.5 159t-34.5 227zM174 643q427 0 612 10q-9 136 -82.5 212.5t-193.5 76.5q-119 0 -208 -82t-128 -217z" />
<glyph unicode="f" horiz-adv-x="516" d="M16 922l9 75l149 7v233q0 90 32.5 163.5t101.5 120t165 46.5q82 0 135 -37l-37 -70q-52 27 -100 27q-96 0 -151.5 -71t-55.5 -167v-245h240l-10 -82h-230v-922h-90v922h-158z" />
<glyph unicode="g" horiz-adv-x="950" d="M37 -164q0 26 8.5 49.5t28 44.5t36 35.5t48.5 32.5t49 27t53 26q-48 15 -79 44.5t-31 68.5q0 26 9.5 46.5t33.5 39t42.5 29t57.5 30.5q-105 42 -161 126.5t-56 195.5q0 104 45.5 192.5t137 144.5t212.5 56q39 0 97 -15.5t69 -15.5q12 0 38 1t42 1l198 17l7 -88 q-37 0 -110 -1t-110 -1q123 -97 123 -275q0 -156 -109 -261t-280 -105q-45 0 -55 2q-52 -18 -93.5 -45t-41.5 -52q0 -26 28 -45t86 -20l121 -4q206 -5 282 -22q128 -29 156 -123q9 -31 9 -68q0 -89 -67.5 -154t-177.5 -96t-249 -31q-185 0 -291 56.5t-106 156.5zM129 -154 q0 -69 82.5 -106t232.5 -37q70 0 135.5 10t125.5 31t96.5 60.5t36.5 91.5q0 56 -50.5 91.5t-148.5 39.5l-279 10q-57 -26 -90.5 -43.5t-70 -42t-53.5 -50.5t-17 -55zM164 637q0 -122 73.5 -201.5t204.5 -79.5q138 0 215.5 87t77.5 210q0 126 -73.5 209.5t-198.5 83.5 q-130 0 -214.5 -91t-84.5 -218z" />
<glyph unicode="h" horiz-adv-x="1032" d="M115 1546l90 19q20 -185 20 -389v-375q50 97 142 160t204 63q119 0 209.5 -77.5t108.5 -225.5q8 -73 8 -193v-528h-92v594q0 167 -64 255.5t-192 88.5q-70 0 -130 -28.5t-100.5 -74t-64.5 -101.5t-29 -113v-621h-92v1180q0 235 -18 366z" />
<glyph unicode="i" horiz-adv-x="378" d="M123 1346q0 28 18.5 47.5t46.5 19.5q29 0 47.5 -19.5t18.5 -47.5q0 -27 -18.5 -46.5t-47.5 -19.5q-27 0 -46 19.5t-19 46.5zM143 0v1001l93 7v-1008h-93z" />
<glyph unicode="j" horiz-adv-x="378" d="M-31 -309q61 27 97 59.5t56.5 88t20.5 136.5v1026l90 7v-1018q0 -110 -26 -181t-71.5 -111t-127.5 -75zM123 1346q0 28 18.5 47.5t46.5 19.5q29 0 47.5 -19.5t18.5 -47.5q0 -27 -18.5 -46.5t-47.5 -19.5q-27 0 -46 19.5t-19 46.5z" />
<glyph unicode="k" horiz-adv-x="921" d="M115 1534l90 18q18 -123 18 -389v-690q319 306 529 539l96 -25q-243 -250 -381 -379l432 -598l-92 -24q-57 72 -122 162.5t-156.5 222.5t-122.5 176l-183 -162v-385h-90v1167q0 244 -18 367z" />
<glyph unicode="l" horiz-adv-x="421" d="M115 1546l90 19q18 -123 18 -389v-1002q0 -54 23 -81t63 -27q36 0 80 16l21 -64q-65 -30 -121 -30q-67 0 -111.5 44.5t-44.5 143.5v1004q0 243 -18 366z" />
<glyph unicode="m" horiz-adv-x="1656" d="M113 997l80 21q30 -109 38 -209q50 95 131 155t187 60q108 0 190.5 -54t114.5 -169q54 99 142 161t202 62q130 0 217 -75.5t105 -225.5q8 -73 8 -193v-530h-92v596q0 342 -250 342q-67 0 -123 -26t-92 -69.5t-58.5 -96.5t-29.5 -111v-635h-90v559q0 189 -58 286t-192 97 q-69 0 -126 -28.5t-93 -75.5t-57.5 -101.5t-26.5 -113.5v-623h-93v602q0 268 -34 395z" />
<glyph unicode="n" horiz-adv-x="1040" d="M113 999l80 21q30 -103 38 -211q58 99 151.5 157t203.5 58q121 0 210 -75.5t107 -223.5q8 -73 8 -193v-532h-90v551q0 190 -62 288.5t-196 98.5q-70 0 -129.5 -27.5t-99.5 -73t-64.5 -100.5t-29.5 -112v-625h-93v604q0 278 -34 395z" />
<glyph unicode="o" horiz-adv-x="1036" d="M66 498q0 142 52.5 260t157.5 192t244 74t243 -71t156 -188.5t52 -262.5q0 -103 -30.5 -197t-86.5 -167.5t-143 -117t-193 -43.5q-114 0 -203.5 45t-142 120t-79.5 166t-27 190zM160 498q0 -85 22.5 -163t65.5 -141t113 -101t157 -38q164 0 261.5 126.5t97.5 318.5 q0 115 -39 214t-122.5 164.5t-197.5 65.5q-113 0 -195.5 -61t-122.5 -161t-40 -224z" />
<glyph unicode="p" horiz-adv-x="1019" d="M106 997l80 21q30 -105 41 -221q53 110 150.5 168.5t206.5 58.5q72 0 137 -29t118 -84.5t84 -148.5t31 -211q0 -250 -138.5 -404.5t-358.5 -154.5q-110 0 -221 43v-387h-93v954q0 259 -37 395zM236 109q95 -33 204 -33q188 0 304 124t116 357q0 184 -85 284.5t-208 100.5 q-126 0 -222.5 -94.5t-108.5 -247.5v-491z" />
<glyph unicode="q" horiz-adv-x="1009" d="M66 451q0 252 139 412.5t358 160.5q113 0 213 -35q13 -3 33.5 -8t36.5 -8.5t31 -5.5v-1069q3 -141 18 -254l-90 -21q-21 164 -21 340v244q-53 -109 -147.5 -169.5t-200.5 -60.5q-73 0 -138 29t-117.5 85t-83.5 149t-31 211zM160 444q0 -184 85 -284.5t208 -100.5 q125 0 221 93t110 249v498q-96 41 -206 41q-185 0 -301.5 -130.5t-116.5 -365.5z" />
<glyph unicode="r" horiz-adv-x="610" d="M113 997l80 19q15 -54 36 -236q45 86 128.5 151.5t201.5 84.5l19 -88q-84 -13 -150 -47t-106 -80.5t-61 -101t-21 -113.5v-586h-93v602q0 268 -34 395z" />
<glyph unicode="s" horiz-adv-x="739" d="M47 102l45 66q58 -48 133 -78.5t144 -30.5q99 0 157 49.5t58 135.5q0 51 -28.5 89.5t-74 63.5t-100.5 46.5t-110 46.5t-100.5 56.5t-74 83.5t-28.5 120q0 132 85.5 203t217.5 71q145 0 278 -94l-37 -72q-120 82 -243 82q-103 0 -160 -49t-57 -135q0 -53 29 -93.5t75 -66 t101.5 -48t111 -47t101.5 -55t75 -80.5t29 -116q0 -126 -87 -199.5t-220 -73.5q-85 0 -169.5 35t-150.5 90z" />
<glyph unicode="t" horiz-adv-x="565" d="M6 924l10 73l177 7v294l92 17v-311h262l-8 -80h-254v-744q0 -55 34.5 -86t86.5 -31q64 0 155 56l29 -64q-98 -73 -197 -73q-89 0 -144.5 50.5t-55.5 143.5v748h-187z" />
<glyph unicode="u" horiz-adv-x="1077" d="M135 1004h92q2 -78 2 -271v-278q0 -192 61.5 -293t196.5 -101q92 0 165.5 49t112.5 120.5t46 150.5v623h92v-832q0 -106 70 -106q30 0 84 20q3 -10 9.5 -31t10.5 -32q-63 -35 -125 -35q-25 0 -47.5 8.5t-45 30t-35.5 66t-13 108.5q-52 -100 -143.5 -162t-202.5 -62 q-121 0 -210.5 77.5t-107.5 224.5q-8 76 -8 192v272q0 109 -4 261z" />
<glyph unicode="v" horiz-adv-x="882" d="M12 987l88 29l346 -903l338 903l86 -25q-241 -643 -393 -1007h-69z" />
<glyph unicode="w" horiz-adv-x="1458" d="M12 985l90 31q111 -345 314 -899l260 788l-27 76l88 18l305 -888q213 577 316 905l86 -25q-83 -250 -363 -1011h-75l-289 813l-271 -813h-67q-25 68 -112 298.5t-148 399t-107 307.5z" />
<glyph unicode="x" horiz-adv-x="899" d="M18 18l377 492l-360 473q13 4 27 10t30.5 13.5t26.5 11.5l332 -438v2l325 434l84 -31l-360 -467l381 -493l-84 -39l-351 463l-348 -467z" />
<glyph unicode="y" horiz-adv-x="892" d="M12 987l90 31q44 -118 353 -895l336 895l90 -29l-455 -1161q-79 -205 -244 -205q-57 0 -141 31l20 78q67 -23 111 -23q60 0 100.5 38t73.5 120l62 151q-329 794 -396 969z" />
<glyph unicode="z" horiz-adv-x="860" d="M70 55l589 865h-581l6 84h696v-58l-590 -860h594q0 -57 -2 -86h-708z" />
<glyph unicode="{" horiz-adv-x="454" d="M102 600q46 41 62 86.5t16 132.5v559q0 98 40 133t124 35h88v-71h-26q-70 0 -106 -23t-36 -92v-559q0 -81 -15 -123t-59 -78q39 -36 56.5 -82t17.5 -119v-563q0 -64 26 -89.5t91 -25.5h51v-73h-102q-83 0 -116.5 44.5t-33.5 135.5v553q0 146 -78 219z" />
<glyph unicode="|" horiz-adv-x="585" d="M250 -158v1704h86v-1704h-86z" />
<glyph unicode="}" horiz-adv-x="446" d="M23 -279h51q65 0 90.5 25.5t25.5 89.5v563q0 74 17 119.5t57 81.5q-45 36 -59.5 77.5t-14.5 123.5v559q0 69 -36.5 92t-106.5 23h-24v71h49q56 0 88 -4.5t61 -21t41 -51t12 -91.5v-559q0 -87 16 -132.5t62 -86.5q-78 -73 -78 -219v-553q0 -95 -34 -137.5t-117 -42.5h-100 v73z" />
<glyph unicode="~" horiz-adv-x="1155" d="M115 492q41 80 108.5 131t149.5 51q56 0 117 -23t105 -51t99 -51t101 -23q86 0 182 144q29 -36 47 -62q-38 -66 -96.5 -114t-128.5 -48q-56 0 -115.5 23t-102.5 51t-99 51t-105 23q-116 0 -211 -160z" />
<glyph unicode="&#xa1;" horiz-adv-x="460" d="M164 956q0 28 19 48t48 20t48.5 -20t19.5 -48t-19.5 -48.5t-48.5 -20.5t-48 20.5t-19 48.5zM180 -352l6 1048h93l4 -1048h-103z" />
<glyph unicode="&#xa2;" horiz-adv-x="858" d="M72 489q0 95 28 185t80 164t135 123.5t185 60.5v178h80v-178q99 -6 194 -47l-29 -80q-83 35 -165 41v-866q91 12 172 55l26 -76q-107 -50 -198 -63v-170h-80v161q-83 2 -153.5 32t-120.5 79t-85 114t-52 137.5t-17 149.5zM164 489q0 -108 36.5 -202t114.5 -158t185 -68 v875q-79 -9 -144.5 -51t-106.5 -104.5t-63 -137.5t-22 -154z" />
<glyph unicode="&#xa3;" horiz-adv-x="1024" d="M31 586l12 84h186l54 362q14 90 39 155t70.5 118t118.5 79.5t175 26.5q129 0 254 -55l-27 -78q-68 27 -117 39t-116 12q-79 0 -135 -22.5t-89.5 -67t-51.5 -96t-29 -123.5q-17 -84 -51 -350h381l-13 -84h-381q-29 -237 -94 -502h705l-13 -84h-815q82 283 123 586h-186z " />
<glyph unicode="&#xa4;" horiz-adv-x="1024" d="M66 100l167 170q-79 98 -79 230t77 227l-165 168l55 55l164 -168q95 76 227 76q131 0 225 -78l166 170l55 -55l-165 -168q77 -99 77 -227q0 -132 -79 -230l167 -170l-55 -55l-168 172q-97 -74 -223 -74q-132 0 -223 72l-168 -170zM242 498q0 -118 75 -201.5t195 -83.5 q118 0 194 84.5t76 200.5q0 119 -76 204.5t-194 85.5t-194 -86t-76 -204z" />
<glyph unicode="&#xa5;" horiz-adv-x="1132" d="M55 1386h105l413 -657l390 657h106l-426 -696h344v-78h-366v-194h366v-76h-366v-342h-95v342h-370v76h370v194h-370v78h338z" />
<glyph unicode="&#xa6;" horiz-adv-x="540" d="M227 -158v676h86v-676h-86zM227 872v674h86v-674h-86z" />
<glyph unicode="&#xa7;" horiz-adv-x="1173" d="M164 643q0 91 53.5 181.5t147.5 166.5q-132 104 -132 260q0 137 101.5 220t259.5 83q165 0 293 -61l-31 -78q-119 55 -260 55q-124 0 -200.5 -58t-76.5 -163q0 -72 37 -125t96.5 -86t131 -61.5t143 -62.5t131 -78t96.5 -118.5t37 -174.5q0 -93 -52.5 -184t-145.5 -166 q133 -107 133 -259q0 -140 -101.5 -221.5t-261.5 -81.5q-173 0 -291 62l31 78q122 -56 260 -56q119 0 198 59t79 163q0 73 -37.5 126t-97 85.5t-131.5 60.5t-144 62t-131.5 77.5t-97 118.5t-37.5 176zM248 643q0 -66 23 -119t57 -86.5t87 -64.5t98.5 -49t107 -42.5 t98.5 -43.5q86 66 137 147t51 158q0 66 -23 119t-57 86.5t-87 64.5t-98.5 49t-107 42.5t-98.5 43.5q-86 -66 -137 -147t-51 -158z" />
<glyph unicode="&#xa9;" horiz-adv-x="1636" d="M94 692q0 136 46 261t133.5 226.5t229 162.5t316.5 61q141 0 260 -40t203 -108.5t143 -159.5t87 -193t28 -210t-28.5 -211t-87.5 -195t-143 -161t-203 -109.5t-259 -40.5t-259.5 40.5t-204 109.5t-144.5 161t-88.5 195t-28.5 211zM180 692q0 -96 25.5 -188t78 -173.5 t127 -142.5t180 -97t228.5 -36t228.5 36t179.5 97t126.5 142.5t77.5 173.5t25 188t-25 186.5t-77 171.5t-126 141.5t-179.5 96t-229.5 35.5q-155 0 -279.5 -54t-201.5 -144t-117.5 -201t-40.5 -232zM356 672q0 96 32.5 188t90.5 165t148 118t196 45q117 0 242 -64l-29 -75 q-104 55 -219 55q-111 0 -198.5 -63.5t-132 -161.5t-44.5 -207q0 -176 106 -289t281 -113q108 0 207 58l29 -74q-51 -30 -117 -47t-123 -17q-213 0 -341 136t-128 346z" />
<glyph unicode="&#xaa;" horiz-adv-x="722" d="M86 995q0 43 12 72.5t39 52t78.5 37t121.5 25t177 18.5v45q0 106 -31.5 164.5t-111.5 58.5q-79 0 -209 -53l-25 68q125 59 238 59q111 0 162 -63.5t51 -188.5v-354q0 -49 39 -49q21 0 61 18l17 -61q-64 -27 -97 -27q-37 0 -60.5 29t-31.5 76q-40 -48 -101 -76.5 t-128 -28.5q-91 0 -146 49t-55 129zM166 997q0 -52 37 -82t92 -30q90 0 153 48t66 128v74q-142 -9 -215.5 -24.5t-103 -41.5t-29.5 -72z" />
<glyph unicode="&#xab;" horiz-adv-x="1005" d="M121 543l366 430l66 -49l-311 -381l311 -381l-66 -49zM475 543l367 430l65 -49l-311 -381l311 -381l-65 -49z" />
<glyph unicode="&#xac;" horiz-adv-x="1290" d="M162 524v82h975v-477h-84v395h-891z" />
<glyph unicode="&#xad;" horiz-adv-x="526" d="M33 489l10 86h440l-10 -86h-440z" />
<glyph unicode="&#xae;" horiz-adv-x="1636" d="M94 692q0 136 46 261t133.5 226.5t229 162.5t316.5 61q141 0 260 -40t203 -108.5t143 -159.5t87 -193t28 -210t-28.5 -211t-87.5 -194.5t-143 -160.5t-203 -109t-259 -40t-259.5 40t-204 109t-144.5 160.5t-88.5 194.5t-28.5 211zM180 692q0 -96 25.5 -188t78 -173.5 t127 -142.5t180 -97t228.5 -36t228.5 36t179.5 97t126.5 142.5t77.5 173.5t25 188t-25 186.5t-77 171.5t-126 141.5t-179.5 96t-229.5 35.5q-155 0 -279.5 -54t-201.5 -144t-117.5 -201t-40.5 -232zM567 221v957h260q150 0 230 -72t80 -197q0 -99 -60 -179t-168 -107 q8 -12 106 -170.5t142 -223.5l-90 -12q-25 36 -59.5 90.5t-58 93.5t-68 112.5t-58.5 96.5q-57 2 -174 2v-391h-82zM649 682h123q56 0 111 6q65 9 115.5 71t50.5 146q0 93 -58 146t-160 53h-182v-422z" />
<glyph unicode="&#xb0;" horiz-adv-x="851" d="M168 1112q0 128 81.5 201t192.5 73q110 0 194.5 -73.5t84.5 -200.5q0 -88 -42.5 -152t-104.5 -93t-132 -29q-111 0 -192.5 72.5t-81.5 201.5zM250 1112q0 -91 57 -142.5t135 -51.5t136.5 51.5t58.5 142.5q0 90 -58.5 142.5t-136.5 52.5q-77 0 -134.5 -52.5t-57.5 -142.5z " />
<glyph unicode="&#xb1;" horiz-adv-x="1290" d="M139 4v80h1008v-80h-1008zM139 680v78h465v485h78v-485h465v-78h-465v-483h-78v483h-465z" />
<glyph unicode="&#xb2;" horiz-adv-x="794" d="M117 596v66q76 61 137 115t126.5 122t110 128t73 126.5t28.5 124.5q0 82 -53.5 139.5t-145.5 57.5q-115 0 -229 -99l-45 56q125 116 278 116q127 0 204 -77t77 -193q0 -91 -52.5 -187.5t-141.5 -191.5t-240 -227h458l-4 -76h-581z" />
<glyph unicode="&#xb3;" horiz-adv-x="747" d="M100 662l35 61q121 -72 217 -72q110 0 170 58t60 141q0 81 -57.5 137.5t-157.5 56.5h-144v74h142q88 0 138 53t50 127q0 76 -51.5 125.5t-141.5 49.5q-101 0 -208 -70l-33 61q121 80 246 80q122 0 195 -67.5t73 -171.5q0 -74 -37 -131.5t-104 -83.5q76 -26 125 -88 t49 -144q0 -122 -87 -201t-223 -79q-137 0 -256 84z" />
<glyph unicode="&#xb5;" horiz-adv-x="1042" d="M123 -350q12 111 12 354q0 95 3 316t3 428q0 104 -4 256h92q4 -148 4 -259v-264q0 -84 5 -135q9 -131 85 -208t193 -77q69 0 126 28t93 75t57.5 102.5t26.5 114.5v623h92v-832q0 -111 82 -111q26 0 72 17q4 -10 10 -31t10 -31q-51 -28 -116 -28q-124 0 -142 139 q-4 25 -8 74q-111 -224 -311 -224q-201 0 -295 183q2 -85 4 -159.5t3 -112t1 -56.5q0 -13 -6 -184z" />
<glyph unicode="&#xb6;" horiz-adv-x="1071" d="M33 944q0 203 150.5 322.5t443.5 119.5h393v-77h-141v-1659h-86v1659h-193v-1659h-86v846q-118 1 -212 40t-151.5 103t-87.5 142t-30 163z" />
<glyph unicode="&#xb7;" horiz-adv-x="528" d="M197 694q0 29 18.5 49.5t48.5 20.5q29 0 48.5 -21t19.5 -49t-19.5 -48.5t-48.5 -20.5q-30 0 -48.5 20t-18.5 49z" />
<glyph unicode="&#xb9;" horiz-adv-x="612" d="M84 1501q19 2 126 19t169 24v-874h211l-6 -74h-498l6 74h203v788q-125 -20 -207 -28z" />
<glyph unicode="&#xba;" horiz-adv-x="878" d="M104 1176q0 160 94.5 266t241.5 106q149 0 240.5 -102.5t91.5 -267.5q0 -153 -92.5 -261t-241.5 -108q-86 0 -152 32t-104.5 86t-58 117t-19.5 132zM186 1178q0 -77 26 -143t85 -111t141 -45q111 0 180.5 84.5t69.5 214.5q0 127 -68 213t-182 86q-112 0 -182 -84.5 t-70 -214.5z" />
<glyph unicode="&#xbb;" horiz-adv-x="1005" d="M98 162l312 381l-312 381l66 49l364 -430l-364 -430zM453 162l311 381l-311 381l65 49l365 -430l-365 -430z" />
<glyph unicode="&#xbc;" horiz-adv-x="1679" d="M139 1501q19 2 126 19t169 24v-874h211l-6 -74h-498l6 74h203v790q-161 -25 -207 -30zM362 0l900 1536h84l-900 -1536h-84zM893 233v64l412 643h108v-635h160q-2 -13 -4 -36.5t-4 -35.5h-152v-233h-82v233h-438zM981 305h350v543z" />
<glyph unicode="&#xbd;" horiz-adv-x="1679" d="M96 1501q19 2 126 19t169 24v-874h211l-6 -74h-498l6 74h203v788q-72 -14 -207 -28zM319 0l900 1536h84l-900 -1536h-84zM1008 0v63q78 65 136.5 117t126 121.5t111 128.5t72.5 125.5t29 124.5q0 77 -55 138t-144 61q-113 0 -229 -101q-7 10 -22.5 29t-22.5 29 q129 116 278 116q126 0 203.5 -77.5t77.5 -194.5q0 -91 -52.5 -187.5t-141.5 -191.5t-240 -227h458l-4 -74h-581z" />
<glyph unicode="&#xbe;" horiz-adv-x="1679" d="M111 662q13 26 34 61q117 -72 217 -72q110 0 169 57.5t59 141.5q0 81 -58.5 137.5t-156.5 56.5h-144v74h142q88 0 138 53t50 127q0 77 -52.5 126t-139.5 49q-99 0 -209 -70l-33 61q121 80 246 80q122 0 196 -68t74 -171q0 -74 -37.5 -131.5t-105.5 -83.5q76 -26 125 -88 t49 -144q0 -122 -86 -201t-223 -79q-135 0 -254 84zM379 0l899 1536h84l-899 -1536h-84zM911 233v64l412 643h107v-635h159l-6 -72h-153v-233h-82v233h-437zM997 305h351v543z" />
<glyph unicode="&#xbf;" horiz-adv-x="894" d="M55 -53q0 50 16 97.5t50 96t65 84t84 90.5l78 80q61 62 89.5 133t29.5 168h86q0 -4 1 -13t1 -13q0 -107 -36.5 -185t-112.5 -157l-74 -76q-44 -45 -65 -68.5t-51.5 -65.5t-44 -83.5t-13.5 -87.5q0 -104 82 -169t202 -65q184 0 340 103l35 -78q-171 -115 -383 -115 q-162 0 -270.5 88t-108.5 236zM436 956q0 28 19.5 48t48.5 20t48 -20t19 -48t-19 -48.5t-48 -20.5t-48.5 20.5t-19.5 48.5z" />
<glyph unicode="&#xc0;" horiz-adv-x="1165" d="M16 2q130 351 519 1317l-19 55l82 29l551 -1401l-107 -6l-180 471h-571l-174 -471zM293 1821h113l153 -318h-84zM322 551h507l-251 657q-152 -376 -256 -657z" />
<glyph unicode="&#xc1;" horiz-adv-x="1165" d="M16 2q130 351 519 1317l-19 55l82 29l551 -1401l-107 -6l-180 471h-571l-174 -471zM322 551h507l-251 657q-152 -376 -256 -657zM547 1503l153 318h115l-184 -318h-84z" />
<glyph unicode="&#xc2;" horiz-adv-x="1165" d="M16 2q130 351 519 1317l-19 55l82 29l551 -1401l-107 -6l-180 471h-571l-174 -471zM322 551h507l-251 657q-152 -376 -256 -657zM338 1501l180 318h107l180 -318h-80l-154 244l-153 -244h-80z" />
<glyph unicode="&#xc3;" horiz-adv-x="1165" d="M16 2q130 351 519 1317l-19 55l82 29l551 -1401l-107 -6l-180 471h-571l-174 -471zM293 1544v19q0 80 41 134t115 54q37 0 68.5 -14t53.5 -34.5t41 -40.5t40 -34t42 -14q39 0 57.5 34.5t18.5 82.5v14h76v-12q0 -87 -38 -141t-116 -54q-36 0 -66 14t-51 34t-40 40.5 t-41 34.5t-45 14q-41 0 -60.5 -33.5t-19.5 -80.5v-17h-76zM322 551h507l-251 657q-152 -376 -256 -657z" />
<glyph unicode="&#xc4;" horiz-adv-x="1165" d="M16 0q139 375 519 1319l-19 55l82 29l551 -1403l-107 -6l-180 471h-571l-174 -471zM311 1640q0 25 17.5 43.5t44.5 18.5q26 0 42.5 -18.5t16.5 -43.5q0 -26 -16.5 -44.5t-42.5 -18.5q-27 0 -44.5 18.5t-17.5 44.5zM322 549h507l-251 659zM707 1640q0 25 17.5 43.5 t43.5 18.5t42.5 -18.5t16.5 -43.5q0 -26 -16.5 -44.5t-42.5 -18.5t-43.5 19t-17.5 44z" />
<glyph unicode="&#xc5;" horiz-adv-x="1165" d="M16 0q139 375 519 1319l-19 55l82 29l551 -1403l-107 -6l-180 471h-571l-174 -471zM322 549h507l-251 659zM393 1640q0 75 53 123.5t125 48.5q71 0 124 -48.5t53 -123.5q0 -77 -53 -125.5t-124 -48.5q-72 0 -125 48.5t-53 125.5zM463 1640q0 -49 31.5 -79.5t76.5 -30.5 q43 0 75 30.5t32 79.5q0 48 -32 78.5t-75 30.5q-44 0 -76 -30.5t-32 -78.5z" />
<glyph unicode="&#xc6;" horiz-adv-x="1613" d="M2 0l825 1386h697l-13 -88h-553v-559h451l-12 -88h-439v-565h592l-12 -86h-678v444h-489l-258 -444h-111zM418 524h442v758z" />
<glyph unicode="&#xc7;" horiz-adv-x="1058" d="M68 680q0 110 22.5 214.5t71 198.5t117 164t166.5 111t214 41q161 0 332 -86l-30 -82q-83 40 -154 59t-158 19q-94 0 -173 -36t-134.5 -97.5t-94 -143.5t-57 -173t-18.5 -187q0 -171 56.5 -309t168.5 -221.5t262 -83.5t302 79l30 -73q-152 -87 -323 -94q-5 -8 -12.5 -25 t-10.5 -23q39 -7 68.5 -16.5t59 -26.5t45.5 -45t16 -65q0 -75 -54.5 -115.5t-138.5 -40.5q-105 0 -192 43l28 64q85 -37 164 -37q48 0 78.5 22.5t30.5 61.5q0 22 -13.5 39.5t-31.5 27.5t-45 18t-45.5 11t-42.5 6.5t-27 3.5q8 19 23.5 53.5t21.5 47.5q-157 13 -276 106.5 t-182.5 246.5t-63.5 343z" />
<glyph unicode="&#xc8;" d="M143 0v1386h664l-12 -88h-553v-559h450l-12 -88h-438v-565h592l-13 -86h-678zM305 1821h115l153 -318h-84z" />
<glyph unicode="&#xc9;" d="M143 0v1386h664l-12 -88h-553v-559h450l-12 -88h-438v-565h592l-13 -86h-678zM424 1503l154 318h112l-182 -318h-84z" />
<glyph unicode="&#xca;" d="M143 0v1386h664l-12 -88h-553v-559h450l-12 -88h-438v-565h592l-13 -86h-678zM246 1501l178 318h108l179 -318h-78l-154 244l-153 -244h-80z" />
<glyph unicode="&#xcb;" d="M143 0v1386h664l-12 -88h-553v-559h450l-12 -88h-438v-565h592l-13 -86h-678zM225 1640q0 25 17.5 43.5t44.5 18.5q26 0 42.5 -18.5t16.5 -43.5q0 -26 -16.5 -44.5t-42.5 -18.5q-27 0 -44.5 18.5t-17.5 44.5zM621 1640q0 25 17.5 43.5t43.5 18.5t42.5 -18.5t16.5 -43.5 q0 -26 -16.5 -44.5t-42.5 -18.5t-43.5 19t-17.5 44z" />
<glyph unicode="&#xcc;" horiz-adv-x="364" d="M-37 1821h113l153 -318h-84zM133 0v1386h98v-1386h-98z" />
<glyph unicode="&#xcd;" horiz-adv-x="364" d="M133 0v1386h98v-1386h-98zM139 1503l154 318h113l-183 -318h-84z" />
<glyph unicode="&#xce;" horiz-adv-x="364" d="M-49 1501l178 318h107l180 -318h-80l-154 244l-153 -244h-78zM133 0v1386h98v-1386h-98z" />
<glyph unicode="&#xcf;" horiz-adv-x="364" d="M-55 1683q0 25 17.5 43.5t43.5 18.5t43 -18.5t17 -43.5t-17 -44t-43 -19t-43.5 19t-17.5 44zM133 0v1386h98v-1386h-98zM303 1683q0 25 18 43.5t44 18.5t42.5 -18.5t16.5 -43.5q0 -26 -16.5 -44.5t-42.5 -18.5t-44 19t-18 44z" />
<glyph unicode="&#xd0;" horiz-adv-x="1196" d="M0 664v81h143v641h285q154 0 277 -43.5t198 -112t124.5 -159.5t69 -178.5t19.5 -177.5q0 -328 -175.5 -521.5t-483.5 -193.5h-314v664h-143zM242 86h221q258 0 404.5 168.5t146.5 454.5q0 121 -34 224.5t-102.5 186.5t-185 130.5t-268.5 47.5h-182v-553h264v-81h-264 v-578z" />
<glyph unicode="&#xd1;" horiz-adv-x="1267" d="M102 1370l95 25l835 -1217v1208h92v-1384l-77 -8l-807 1177v-1171h-93l7 1290q-9 14 -26 40t-26 40zM358 1538v18q0 80 41 134.5t115 54.5q45 0 83.5 -21.5t60.5 -47t49.5 -47t52.5 -21.5q39 0 57.5 34t18.5 82v15h75v-13q0 -87 -37.5 -140.5t-115.5 -53.5q-36 0 -66 14 t-51 34t-40.5 40.5t-41.5 34.5t-45 14q-41 0 -60.5 -34t-19.5 -81v-16h-76z" />
<glyph unicode="&#xd2;" horiz-adv-x="1337" d="M66 682q0 110 23.5 214t73 197.5t120 163.5t172 111t221.5 41q118 0 217.5 -39.5t168.5 -106.5t117 -157.5t70.5 -191.5t22.5 -209q0 -139 -38.5 -267t-112 -232t-193 -166.5t-269.5 -62.5q-117 0 -216 39.5t-167.5 107t-116.5 157.5t-70.5 191.5t-22.5 209.5zM168 686 q0 -95 19 -184t58.5 -168t97 -138t139.5 -93.5t180 -34.5q100 0 184 35.5t142.5 96t100 142t61 172t19.5 186.5q0 94 -18.5 183t-58.5 168.5t-97.5 138.5t-140 94t-180.5 35q-99 0 -183 -35.5t-142.5 -96.5t-100 -142t-61 -172t-19.5 -187zM451 1821h114l154 -318h-84z" />
<glyph unicode="&#xd3;" horiz-adv-x="1337" d="M66 682q0 110 23.5 214t73 197.5t120 163.5t172 111t221.5 41q118 0 217.5 -39.5t168.5 -106.5t117 -157.5t70.5 -191.5t22.5 -209q0 -139 -38.5 -267t-112 -232t-193 -166.5t-269.5 -62.5q-117 0 -216 39.5t-167.5 107t-116.5 157.5t-70.5 191.5t-22.5 209.5zM168 686 q0 -95 19 -184t58.5 -168t97 -138t139.5 -93.5t180 -34.5q100 0 184 35.5t142.5 96t100 142t61 172t19.5 186.5q0 94 -18.5 183t-58.5 168.5t-97.5 138.5t-140 94t-180.5 35q-99 0 -183 -35.5t-142.5 -96.5t-100 -142t-61 -172t-19.5 -187zM623 1503l153 318h113l-182 -318 h-84z" />
<glyph unicode="&#xd4;" horiz-adv-x="1337" d="M66 682q0 110 23.5 214t73 197.5t120 163.5t172 111t221.5 41q118 0 217.5 -39.5t168.5 -106.5t117 -157.5t70.5 -191.5t22.5 -209q0 -139 -38.5 -267t-112 -232t-193 -166.5t-269.5 -62.5q-117 0 -216 39.5t-167.5 107t-116.5 157.5t-70.5 191.5t-22.5 209.5zM168 686 q0 -95 19 -184t58.5 -168t97 -138t139.5 -93.5t180 -34.5q100 0 184 35.5t142.5 96t100 142t61 172t19.5 186.5q0 94 -18.5 183t-58.5 168.5t-97.5 138.5t-140 94t-180.5 35q-99 0 -183 -35.5t-142.5 -96.5t-100 -142t-61 -172t-19.5 -187zM430 1501l180 318h107l180 -318 h-80l-153 244l-154 -244h-80z" />
<glyph unicode="&#xd5;" horiz-adv-x="1337" d="M66 682q0 110 23.5 214t73 197.5t120 163.5t172 111t221.5 41q118 0 217.5 -39.5t168.5 -106.5t117 -157.5t70.5 -191.5t22.5 -209q0 -139 -38.5 -267t-112 -232t-193 -166.5t-269.5 -62.5q-117 0 -216 39.5t-167.5 107t-116.5 157.5t-70.5 191.5t-22.5 209.5zM168 686 q0 -95 19 -184t58.5 -168t97 -138t139.5 -93.5t180 -34.5q100 0 184 35.5t142.5 96t100 142t61 172t19.5 186.5q0 94 -18.5 183t-58.5 168.5t-97.5 138.5t-140 94t-180.5 35q-99 0 -183 -35.5t-142.5 -96.5t-100 -142t-61 -172t-19.5 -187zM395 1542v19q0 80 40 134t114 54 q46 0 84.5 -21.5t60.5 -47t49.5 -47t53.5 -21.5q38 0 55.5 34.5t17.5 82.5v14h76v-33q-5 -79 -42.5 -126.5t-110.5 -47.5q-43 0 -80 21.5t-58 47t-48.5 47t-55.5 21.5q-42 0 -62 -33.5t-20 -80.5v-17h-74z" />
<glyph unicode="&#xd6;" horiz-adv-x="1337" d="M66 682q0 110 23.5 214t73 197.5t120 163.5t172 111t221.5 41q118 0 217.5 -39.5t168.5 -106.5t117 -157.5t70.5 -191.5t22.5 -209q0 -139 -38.5 -267t-112 -232t-193 -166.5t-269.5 -62.5q-117 0 -216 39.5t-167.5 107t-116.5 157.5t-70.5 191.5t-22.5 209.5zM168 686 q0 -95 19 -184t58.5 -168t97 -138t139.5 -93.5t180 -34.5q100 0 184 35.5t142.5 96t100 142t61 172t19.5 186.5q0 94 -18.5 183t-58.5 168.5t-97.5 138.5t-140 94t-180.5 35q-99 0 -183 -35.5t-142.5 -96.5t-100 -142t-61 -172t-19.5 -187zM410 1645q0 25 17 43t44 18 q26 0 42.5 -18t16.5 -43q0 -26 -17 -45t-42 -19q-27 0 -44 19t-17 45zM805 1645q0 25 17.5 43t43.5 18t43 -18t17 -43q0 -26 -17 -45t-43 -19t-43.5 19.5t-17.5 44.5z" />
<glyph unicode="&#xd7;" horiz-adv-x="1290" d="M195 139l391 398l-391 397l55 55l391 -397l391 397l55 -55l-393 -397l393 -398l-55 -55l-391 397l-391 -397z" />
<glyph unicode="&#xd8;" horiz-adv-x="1337" d="M66 682q0 117 27 225.5t80 199.5t126 158.5t170 105.5t207 38q199 0 352 -127l102 150l70 -46l-110 -161q87 -96 134.5 -232t47.5 -288q0 -114 -25.5 -221t-77 -199t-123.5 -161t-172 -108t-215 -39q-201 0 -346 117l-96 -139l-70 45l105 152q-90 96 -138 233.5 t-48 296.5zM166 686q0 -286 139 -457l672 979q-127 111 -303 111q-158 0 -275 -87.5t-175 -229.5t-58 -316zM365 170q124 -102 297 -102q119 0 216 48.5t160.5 134t98 200.5t34.5 249q0 129 -35 245t-102 200z" />
<glyph unicode="&#xd9;" horiz-adv-x="1222" d="M133 457v929h98v-929q0 -191 97 -292.5t262 -101.5q162 0 259 98t97 294v931h98v-925q0 -231 -123.5 -357.5t-334.5 -126.5q-204 0 -328.5 124t-124.5 356zM397 1821h115l154 -318h-84z" />
<glyph unicode="&#xda;" horiz-adv-x="1222" d="M133 457v929h98v-929q0 -191 97 -292.5t262 -101.5q162 0 259 98t97 294v931h98v-925q0 -231 -123.5 -357.5t-334.5 -126.5q-204 0 -328.5 124t-124.5 356zM569 1503l154 318h113l-183 -318h-84z" />
<glyph unicode="&#xdb;" horiz-adv-x="1222" d="M133 457v929h98v-929q0 -191 97 -292.5t262 -101.5q162 0 259 98t97 294v931h98v-925q0 -231 -123.5 -357.5t-334.5 -126.5q-204 0 -328.5 124t-124.5 356zM367 1501l180 318h106l181 -318h-80l-154 244l-154 -244h-79z" />
<glyph unicode="&#xdc;" horiz-adv-x="1222" d="M133 459v927h98v-927q0 -191 97 -292t262 -101q162 0 259 97.5t97 293.5v929h98v-923q0 -231 -124 -358.5t-334 -127.5q-204 0 -328.5 125t-124.5 357zM342 1640q0 26 17 44t44 18q26 0 43 -18.5t17 -43.5t-17 -44t-43 -19q-27 0 -44 18.5t-17 44.5zM737 1640 q0 25 18 43.5t44 18.5t42.5 -18.5t16.5 -43.5q0 -26 -16.5 -44.5t-42.5 -18.5t-44 19t-18 44z" />
<glyph unicode="&#xdd;" horiz-adv-x="1013" d="M-8 1382l106 9q129 -231 410 -699q165 270 401 697l111 -7q-39 -66 -206.5 -348.5t-258.5 -433.5v-602h-98v602h-2l-33 55q-45 76 -139 231.5t-165.5 276.5t-125.5 219zM453 1501l153 318h113l-182 -318h-84z" />
<glyph unicode="&#xde;" horiz-adv-x="980" d="M143 0v1386h99v-276h233q207 0 322.5 -109.5t115.5 -277.5q0 -180 -121 -303t-321 -123h-229v-297h-99zM242 383h233q152 0 244 95.5t92 232.5q0 140 -89 226.5t-251 86.5h-229v-641z" />
<glyph unicode="&#xdf;" horiz-adv-x="1011" d="M104 0v1208q0 92 32.5 162.5t87 110.5t118 60t133.5 20q145 0 249.5 -88.5t104.5 -237.5q0 -68 -27 -127t-65 -98.5t-76 -73t-65 -67t-27 -64.5q0 -29 38 -66t92.5 -77.5t109.5 -88t93 -113t38 -136.5q0 -158 -109.5 -248t-273.5 -90q-151 0 -281 71l33 76 q118 -65 244 -65q131 0 212 67.5t81 186.5q0 48 -20.5 91t-53 75.5t-71.5 63t-78.5 58.5t-72 56.5t-53 63.5t-20.5 73q0 42 26.5 82t64.5 75t76 73t64.5 90.5t26.5 113.5q0 109 -75 173.5t-189 64.5q-119 0 -196.5 -70t-77.5 -209v-1196h-93z" />
<glyph unicode="&#xe0;" d="M55 215q0 52 11 89.5t40.5 68t72.5 51t115.5 37t161.5 27.5t218 22v90q0 170 -47 255t-168 85q-138 0 -305 -76q-2 4 -29 78q171 82 338 82q169 0 235 -101.5t66 -310.5v-436q0 -110 65 -110q29 0 89 22q8 -30 20 -65q-77 -35 -127 -35q-48 0 -84 37t-45 102l-6 25 q-54 -83 -141.5 -126.5t-196.5 -43.5q-129 0 -206 62t-77 171zM150 219q0 -74 54.5 -117t145.5 -43q136 0 228.5 74.5t95.5 196.5v108q-135 -11 -220 -22.5t-148.5 -27t-95 -39t-46 -54t-14.5 -76.5zM268 1452h115l154 -317h-84z" />
<glyph unicode="&#xe1;" d="M55 215q0 52 11 89.5t40.5 68t72.5 51t115.5 37t161.5 27.5t218 22v90q0 170 -47 255t-168 85q-138 0 -305 -76q-2 4 -29 78q171 82 338 82q169 0 235 -101.5t66 -310.5v-436q0 -110 65 -110q29 0 89 22q8 -30 20 -65q-77 -35 -127 -35q-48 0 -84 37t-45 102l-6 25 q-54 -83 -141.5 -126.5t-196.5 -43.5q-129 0 -206 62t-77 171zM150 219q0 -74 54.5 -117t145.5 -43q136 0 228.5 74.5t95.5 196.5v108q-135 -11 -220 -22.5t-148.5 -27t-95 -39t-46 -54t-14.5 -76.5zM377 1135l153 317h113l-182 -317h-84z" />
<glyph unicode="&#xe2;" d="M55 215q0 52 11 89.5t40.5 68t72.5 51t115.5 37t161.5 27.5t218 22v90q0 170 -47 255t-168 85q-138 0 -305 -76q-2 4 -29 78q171 82 338 82q169 0 235 -101.5t66 -310.5v-436q0 -110 65 -110q29 0 89 22q8 -30 20 -65q-77 -35 -127 -35q-48 0 -84 37t-45 102l-6 25 q-54 -83 -141.5 -126.5t-196.5 -43.5q-129 0 -206 62t-77 171zM150 219q0 -74 54.5 -117t145.5 -43q136 0 228.5 74.5t95.5 196.5v108q-135 -11 -220 -22.5t-148.5 -27t-95 -39t-46 -54t-14.5 -76.5zM201 1135l178 317h108l179 -317h-78l-154 243l-153 -243h-80z" />
<glyph unicode="&#xe3;" d="M55 215q0 52 11 89.5t40.5 68t72.5 51t115.5 37t161.5 27.5t218 22v90q0 170 -47 255t-168 85q-138 0 -305 -76q-2 4 -29 78q171 82 338 82q169 0 235 -101.5t66 -310.5v-436q0 -110 65 -110q29 0 89 22q8 -30 20 -65q-77 -35 -127 -35q-48 0 -84 37t-45 102l-6 25 q-54 -83 -141.5 -126.5t-196.5 -43.5q-129 0 -206 62t-77 171zM150 219q0 -74 54.5 -117t145.5 -43q136 0 228.5 74.5t95.5 196.5v108q-135 -11 -220 -22.5t-148.5 -27t-95 -39t-46 -54t-14.5 -76.5zM168 1180v18q0 80 41 134t115 54q37 0 68.5 -14t53.5 -34t41 -40.5 t40 -34.5t42 -14q39 0 57.5 34.5t18.5 82.5v14h76v-12q0 -87 -38 -140.5t-116 -53.5q-36 0 -66 14t-51 34t-40 40.5t-41 34.5t-45 14q-41 0 -60.5 -34t-19.5 -81v-16h-76z" />
<glyph unicode="&#xe4;" d="M55 215q0 52 11 89.5t40.5 68t72.5 51t115.5 37t161.5 27.5t218 22v90q0 170 -47 255t-168 85q-138 0 -305 -76q-2 4 -29 78q171 82 338 82q169 0 235 -101.5t66 -310.5v-436q0 -110 65 -110q29 0 89 22q8 -30 20 -65q-77 -35 -127 -35q-48 0 -84 37t-45 102l-6 25 q-54 -83 -141.5 -126.5t-196.5 -43.5q-129 0 -206 62t-77 171zM150 219q0 -74 54.5 -117t145.5 -43q136 0 228.5 74.5t95.5 196.5v108q-135 -11 -220 -22.5t-148.5 -27t-95 -39t-46 -54t-14.5 -76.5zM170 1329q0 26 17 44t44 18q26 0 43 -18.5t17 -43.5t-17 -44t-43 -19 q-27 0 -44 18.5t-17 44.5zM565 1329q0 25 18 43.5t44 18.5t42.5 -18.5t16.5 -43.5q0 -26 -16.5 -44.5t-42.5 -18.5t-44 19t-18 44z" />
<glyph unicode="&#xe5;" d="M55 215q0 52 11 89.5t40.5 68t72.5 51t115.5 37t161.5 27.5t218 22v90q0 170 -47 255t-168 85q-138 0 -305 -76q-2 4 -29 78q171 82 338 82q169 0 235 -101.5t66 -310.5v-436q0 -110 65 -110q29 0 89 22q8 -30 20 -65q-77 -35 -127 -35q-48 0 -84 37t-45 102l-6 25 q-54 -83 -141.5 -126.5t-196.5 -43.5q-129 0 -206 62t-77 171zM150 219q0 -74 54.5 -117t145.5 -43q136 0 228.5 74.5t95.5 196.5v108q-135 -11 -220 -22.5t-148.5 -27t-95 -39t-46 -54t-14.5 -76.5zM246 1278q0 77 52.5 125.5t123.5 48.5q72 0 125 -48.5t53 -125.5 q0 -75 -53 -123.5t-125 -48.5q-70 0 -123 48.5t-53 123.5zM315 1278q0 -48 32 -78.5t75 -30.5q44 0 75 30.5t31 78.5q0 50 -31 80.5t-75 30.5q-43 0 -75 -31t-32 -80z" />
<glyph unicode="&#xe6;" horiz-adv-x="1566" d="M57 223q0 78 40 133t134 90q97 37 285 68l172 29q0 63 -2.5 108.5t-10.5 94t-23.5 81t-40 60t-61.5 40.5t-87 13q-134 0 -305 -78l-27 78q172 84 336 84q133 0 204.5 -66t88.5 -200q46 117 139.5 190.5t237.5 73.5q73 0 134 -24t110 -73t76.5 -131.5t27.5 -191.5 l-707 -117q0 -210 90 -316t248 -106q91 0 165.5 23t162.5 68q7 -13 18 -37.5t15 -32.5q-66 -33 -109.5 -52t-115 -35.5t-146.5 -16.5q-126 0 -223.5 63.5t-145.5 185.5q-33 -96 -140.5 -171.5t-242.5 -75.5q-133 0 -215 65.5t-82 175.5zM147 231q0 -85 55.5 -128.5 t151.5 -43.5q159 0 252 101q39 43 60.5 98.5t21.5 149.5v63l-170 -27q-46 -7 -77.5 -13t-74 -15.5t-70.5 -20t-58.5 -27t-48.5 -35.5t-30 -45t-12 -57zM782 557l607 100q-9 136 -75 210.5t-179 74.5q-101 0 -180.5 -55.5t-122 -141.5t-50.5 -188z" />
<glyph unicode="&#xe7;" horiz-adv-x="811" d="M63 483q0 82 17.5 159t56 147t94 122.5t137.5 83.5t181 31q92 0 215 -45l-29 -80q-103 39 -190 39q-80 0 -145.5 -26t-110 -70.5t-75 -103.5t-44.5 -123.5t-14 -133.5q0 -83 20 -156.5t59 -134t105.5 -96t151.5 -35.5q53 0 125 19t124 43q17 -41 27 -74 q-102 -50 -268 -69q-5 -8 -12.5 -25t-10.5 -23q189 -34 189 -155q0 -73 -56 -113.5t-137 -40.5q-105 0 -192 43l28 64q85 -37 164 -37q48 0 78.5 22t30.5 60q0 22 -13.5 39.5t-31 28t-45.5 19t-45.5 11.5t-42.5 6.5t-27 3.5l45 101q-90 12 -160 58.5t-113 115.5t-64.5 151.5 t-21.5 173.5z" />
<glyph unicode="&#xe8;" horiz-adv-x="960" d="M66 483q0 147 59 271t161.5 196t225.5 72q165 0 265.5 -108t101.5 -324q-57 -9 -121 -15q-100 0 -297 -1t-297 -1q-6 -43 -6 -86q0 -210 96 -318t256 -108q91 0 163.5 23t164.5 70q5 -10 15 -33.5t17 -36.5q-73 -36 -113.5 -53.5t-111 -34t-145.5 -16.5q-90 0 -166.5 30 t-137.5 89t-95.5 157.5t-34.5 226.5zM174 643q427 0 612 10q-9 136 -82.5 212.5t-193.5 76.5q-119 0 -208 -82t-128 -217zM317 1452h113l154 -317h-84z" />
<glyph unicode="&#xe9;" horiz-adv-x="960" d="M66 483q0 147 59 271t161.5 196t225.5 72q165 0 265.5 -108t101.5 -324q-57 -9 -121 -15q-100 0 -297 -1t-297 -1q-6 -43 -6 -86q0 -210 96 -318t256 -108q91 0 163.5 23t164.5 70q5 -10 15 -33.5t17 -36.5q-73 -36 -113.5 -53.5t-111 -34t-145.5 -16.5q-90 0 -166.5 30 t-137.5 89t-95.5 157.5t-34.5 226.5zM174 643q427 0 612 10q-9 136 -82.5 212.5t-193.5 76.5q-119 0 -208 -82t-128 -217zM465 1135l153 317h115l-184 -317h-84z" />
<glyph unicode="&#xea;" horiz-adv-x="960" d="M66 483q0 147 59 271t161.5 196t225.5 72q165 0 265.5 -108t101.5 -324q-57 -9 -121 -15q-100 0 -297 -1t-297 -1q-6 -43 -6 -86q0 -210 96 -318t256 -108q91 0 163.5 23t164.5 70q5 -10 15 -33.5t17 -36.5q-73 -36 -113.5 -53.5t-111 -34t-145.5 -16.5q-90 0 -166.5 30 t-137.5 89t-95.5 157.5t-34.5 226.5zM174 643q427 0 612 10q-9 136 -82.5 212.5t-193.5 76.5q-119 0 -208 -82t-128 -217zM272 1135l181 317h106l180 -317h-80l-153 243l-154 -243h-80z" />
<glyph unicode="&#xeb;" horiz-adv-x="954" d="M57 483q0 147 59.5 271t162.5 196t225 72q165 0 265 -107.5t103 -324.5q-62 -9 -120 -15q-100 0 -298 -1t-298 -1q-6 -43 -6 -86q0 -209 96.5 -317.5t255.5 -108.5q92 0 164 23t165 70l31 -70q-69 -35 -111.5 -53t-112.5 -34.5t-144 -16.5q-91 0 -168.5 30t-138.5 89 t-95.5 157.5t-34.5 226.5zM168 643q428 0 610 10q-9 136 -82.5 212.5t-193.5 76.5q-119 0 -207.5 -82t-126.5 -217zM258 1329q0 26 17 44t44 18q26 0 43 -18.5t17 -43.5t-17 -44t-43 -19q-27 0 -44 18.5t-17 44.5zM653 1329q0 25 18 43.5t44 18.5t42.5 -18.5t16.5 -43.5 q0 -26 -16.5 -44.5t-42.5 -18.5t-44 19t-18 44z" />
<glyph unicode="&#xec;" horiz-adv-x="378" d="M-35 1452h113l153 -317h-84zM141 0v1001l92 7v-1008h-92z" />
<glyph unicode="&#xed;" horiz-adv-x="378" d="M143 0v1001l93 7v-1008h-93zM145 1135l154 317h115l-185 -317h-84z" />
<glyph unicode="&#xee;" horiz-adv-x="378" d="M-43 1135l178 317h109l178 -317h-78l-154 243l-153 -243h-80zM143 0v1001l93 7v-1008h-93z" />
<glyph unicode="&#xef;" horiz-adv-x="378" d="M-49 1329q0 25 17.5 43.5t43.5 18.5q27 0 44.5 -18.5t17.5 -43.5q0 -26 -17.5 -44.5t-44.5 -18.5q-26 0 -43.5 19t-17.5 44zM143 0v1001l93 7v-1008h-93zM307 1329q0 25 17 43.5t43 18.5q27 0 44 -18t17 -44t-17 -44.5t-44 -18.5q-26 0 -43 19t-17 44z" />
<glyph unicode="&#xf0;" horiz-adv-x="1083" d="M78 502q0 99 31.5 190.5t88 163.5t144.5 115t193 43q208 0 344 -199q-36 161 -113 288.5t-182 205.5l-232 -125l-45 65l205 107q-136 75 -317 92l10 76q205 -7 387 -123l201 108l41 -67l-172 -92q158 -136 239.5 -345.5t81.5 -451.5q0 -119 -28 -217.5t-73.5 -163.5 t-105 -110t-121 -65t-123.5 -20q-88 0 -163 30t-128 81.5t-90 119t-55 142.5t-18 152zM172 502q0 -83 22.5 -160.5t65 -142t113 -103.5t157.5 -39q66 0 130 30.5t117 88t85.5 151t32.5 208.5q0 102 -41 192t-124.5 149.5t-192.5 59.5q-88 0 -159.5 -37.5t-115 -100 t-67 -138.5t-23.5 -158z" />
<glyph unicode="&#xf1;" horiz-adv-x="1019" d="M88 997l80 21q31 -107 39 -211q59 100 152 159.5t202 59.5q121 0 210.5 -77t107.5 -226q8 -73 8 -193v-530h-90v549q0 391 -258 391q-92 0 -165.5 -49t-112.5 -119.5t-46 -148.5v-623h-92v602q0 275 -35 395zM248 1180v18q0 80 39.5 134t113.5 54q46 0 84.5 -21.5 t60.5 -47t49.5 -47t53.5 -21.5q38 0 56 34.5t18 82.5v14h76v-32q-5 -79 -43 -126.5t-111 -47.5q-43 0 -80 21.5t-58 47t-48.5 47t-55.5 21.5q-42 0 -61.5 -33.5t-19.5 -81.5v-16h-74z" />
<glyph unicode="&#xf2;" horiz-adv-x="1034" d="M66 498q0 142 52.5 260.5t157.5 193t244 74.5t243 -71.5t156 -189.5t52 -263q0 -103 -30.5 -197t-86.5 -167.5t-143 -117t-193 -43.5q-114 0 -203.5 45t-142 120t-79.5 166t-27 190zM160 498q0 -85 22.5 -163t65.5 -141t113 -101t157 -38q164 0 261.5 126.5t97.5 318.5 q0 115 -39 214.5t-122.5 165.5t-197.5 66q-113 0 -195.5 -61.5t-122.5 -162t-40 -224.5zM309 1452h115l154 -317h-84z" />
<glyph unicode="&#xf3;" horiz-adv-x="1034" d="M66 498q0 142 52.5 260.5t157.5 193t244 74.5t243 -71.5t156 -189.5t52 -263q0 -103 -30.5 -197t-86.5 -167.5t-143 -117t-193 -43.5q-114 0 -203.5 45t-142 120t-79.5 166t-27 190zM160 498q0 -85 22.5 -163t65.5 -141t113 -101t157 -38q164 0 261.5 126.5t97.5 318.5 q0 115 -39 214.5t-122.5 165.5t-197.5 66q-113 0 -195.5 -61.5t-122.5 -162t-40 -224.5zM479 1135l154 317h112l-182 -317h-84z" />
<glyph unicode="&#xf4;" horiz-adv-x="1034" d="M66 498q0 142 52.5 260.5t157.5 193t244 74.5t243 -71.5t156 -189.5t52 -263q0 -103 -30.5 -197t-86.5 -167.5t-143 -117t-193 -43.5q-114 0 -203.5 45t-142 120t-79.5 166t-27 190zM160 498q0 -85 22.5 -163t65.5 -141t113 -101t157 -38q164 0 261.5 126.5t97.5 318.5 q0 115 -39 214.5t-122.5 165.5t-197.5 66q-113 0 -195.5 -61.5t-122.5 -162t-40 -224.5zM283 1135l178 317h108l179 -317h-78l-154 243l-154 -243h-79z" />
<glyph unicode="&#xf5;" horiz-adv-x="1034" d="M66 498q0 142 52.5 260.5t157.5 193t244 74.5t243 -71.5t156 -189.5t52 -263q0 -103 -30.5 -197t-86.5 -167.5t-143 -117t-193 -43.5q-114 0 -203.5 45t-142 120t-79.5 166t-27 190zM160 498q0 -85 22.5 -163t65.5 -141t113 -101t157 -38q164 0 261.5 126.5t97.5 318.5 q0 115 -39 214.5t-122.5 165.5t-197.5 66q-113 0 -195.5 -61.5t-122.5 -162t-40 -224.5zM233 1180v18q0 80 41 134t115 54q45 0 83.5 -21.5t60.5 -47t49.5 -47t52.5 -21.5q39 0 57.5 34.5t18.5 82.5v14h75v-12q0 -87 -37.5 -140.5t-115.5 -53.5q-36 0 -66 14t-51 34 t-40.5 40.5t-41.5 34.5t-45 14q-41 0 -60.5 -34t-19.5 -81v-16h-76z" />
<glyph unicode="&#xf6;" horiz-adv-x="1034" d="M66 498q0 142 52.5 260.5t157.5 193t244 74.5t243 -71.5t156 -189.5t52 -263q0 -103 -30.5 -197t-86.5 -167.5t-143 -117t-193 -43.5q-114 0 -203.5 45t-142 120t-79.5 166t-27 190zM160 498q0 -85 22.5 -163t65.5 -141t113 -101t157 -38q164 0 261.5 126.5t97.5 318.5 q0 115 -39 214.5t-122.5 165.5t-197.5 66q-113 0 -195.5 -61.5t-122.5 -162t-40 -224.5zM252 1329q0 26 17 44t44 18q26 0 43 -18.5t17 -43.5t-17 -44t-43 -19q-27 0 -44 18.5t-17 44.5zM647 1329q0 25 18 43.5t44 18.5t42.5 -18.5t16.5 -43.5q0 -26 -16.5 -44.5 t-42.5 -18.5t-44 19t-18 44z" />
<glyph unicode="&#xf7;" horiz-adv-x="1290" d="M141 494v79h1008v-79h-1008zM580 150q0 29 17 48t46 19q27 0 45.5 -20t18.5 -47q0 -28 -18 -47t-46 -19q-29 0 -46 19t-17 47zM580 915q0 29 17.5 48.5t45.5 19.5q27 0 45.5 -20.5t18.5 -47.5q0 -28 -18 -46.5t-46 -18.5q-29 0 -46 18.5t-17 46.5z" />
<glyph unicode="&#xf8;" horiz-adv-x="1034" d="M76 498q0 141 54 260t160.5 193.5t244.5 74.5q152 0 264 -88l71 102q2 -2 64 -45q-23 -31 -76 -110q64 -72 98.5 -171t34.5 -212q0 -103 -31 -197t-88 -167.5t-145.5 -117t-194.5 -43.5q-145 0 -249 74l-68 -98q-9 7 -63 45q5 7 29.5 44t39.5 56q-72 74 -108.5 179.5 t-36.5 220.5zM170 498q0 -197 104 -322l476 690q-93 80 -218 80q-113 0 -196.5 -61.5t-124.5 -162t-41 -224.5zM332 121q85 -66 203 -66q165 0 263.5 127t98.5 318q0 179 -94 305z" />
<glyph unicode="&#xf9;" horiz-adv-x="1067" d="M135 1004h92q2 -78 2 -273v-276q0 -192 61.5 -293t196.5 -101q92 0 165.5 49t112.5 120.5t46 150.5v623h92v-832q0 -106 70 -106q30 0 84 20q3 -10 9.5 -31t10.5 -32q-63 -35 -125 -35q-52 0 -90.5 34.5t-46.5 114.5l-4 64q-52 -100 -143.5 -162t-202.5 -62 q-121 0 -210.5 77.5t-107.5 224.5q-8 76 -8 192v270q0 111 -4 263zM313 1452h115l154 -317h-84z" />
<glyph unicode="&#xfa;" horiz-adv-x="1067" d="M135 1004h92q2 -78 2 -273v-276q0 -192 61.5 -293t196.5 -101q92 0 165.5 49t112.5 120.5t46 150.5v623h92v-832q0 -106 70 -106q30 0 84 20q3 -10 9.5 -31t10.5 -32q-63 -35 -125 -35q-52 0 -90.5 34.5t-46.5 114.5l-4 64q-52 -100 -143.5 -162t-202.5 -62 q-121 0 -210.5 77.5t-107.5 224.5q-8 76 -8 192v270q0 111 -4 263zM444 1135l154 317h113l-183 -317h-84z" />
<glyph unicode="&#xfb;" horiz-adv-x="1067" d="M135 1004h92q2 -78 2 -273v-276q0 -192 61.5 -293t196.5 -101q92 0 165.5 49t112.5 120.5t46 150.5v623h92v-832q0 -106 70 -106q30 0 84 20q3 -10 9.5 -31t10.5 -32q-63 -35 -125 -35q-52 0 -90.5 34.5t-46.5 114.5l-4 64q-52 -100 -143.5 -162t-202.5 -62 q-121 0 -210.5 77.5t-107.5 224.5q-8 76 -8 192v270q0 111 -4 263zM283 1135l180 317h106l181 -317h-80l-154 243l-154 -243h-79z" />
<glyph unicode="&#xfc;" horiz-adv-x="1067" d="M135 1004h92q2 -78 2 -273v-276q0 -192 61.5 -293t196.5 -101q92 0 165.5 49t112.5 120.5t46 150.5v623h92v-832q0 -106 70 -106q30 0 84 20q3 -10 9.5 -31t10.5 -32q-63 -35 -125 -35q-52 0 -90.5 34.5t-46.5 114.5l-4 64q-52 -100 -143.5 -162t-202.5 -62 q-121 0 -210.5 77.5t-107.5 224.5q-8 76 -8 192v270q0 111 -4 263zM262 1329q0 25 18 43.5t44 18.5q27 0 44 -18t17 -44t-17 -44.5t-44 -18.5q-26 0 -44 19t-18 44zM659 1329q0 25 17 43.5t43 18.5q27 0 44 -18t17 -44t-17 -44.5t-44 -18.5q-26 0 -43 19t-17 44z" />
<glyph unicode="&#xfd;" horiz-adv-x="901" d="M10 987l90 31q105 -284 353 -895l335 895l89 -29l-455 -1161q-42 -107 -101.5 -156t-140.5 -49q-55 0 -143 31l22 78q67 -23 111 -23q34 0 64 17.5t51 41.5t45 70t38 81.5t38 98.5q-336 811 -396 969zM381 1135l154 317h114l-184 -317h-84z" />
<glyph unicode="&#xfe;" horiz-adv-x="1011" d="M115 1546l90 19q18 -123 18 -389v-371q50 104 144 161.5t200 57.5q75 0 142.5 -30.5t120.5 -88.5t84.5 -152t31.5 -212q0 -85 -20.5 -166t-62 -151.5t-99.5 -123.5t-137.5 -83.5t-171.5 -30.5q-100 0 -232 47v-385h-90v1532q0 243 -18 366zM223 109q110 -39 217 -39 q190 0 301 135t111 342q0 176 -84 284.5t-217 108.5q-135 0 -231.5 -99.5t-96.5 -256.5v-475z" />
<glyph unicode="&#xff;" horiz-adv-x="901" d="M12 987l90 31q44 -118 353 -895l336 895l90 -29l-455 -1161q-79 -205 -244 -205q-57 0 -141 31l20 78q67 -23 111 -23q60 0 100.5 38t73.5 120l62 151q-329 794 -396 969zM178 1329q0 25 18 43.5t44 18.5q27 0 44 -18t17 -44t-17 -44.5t-44 -18.5q-26 0 -44 19t-18 44z M575 1329q0 25 17 43.5t43 18.5q27 0 44 -18t17 -44t-17 -44.5t-44 -18.5q-26 0 -43 19t-17 44z" />
<glyph unicode="&#x152;" horiz-adv-x="1826" d="M66 680q0 118 24.5 226.5t74.5 199.5t120 158t165.5 105t206.5 38q138 0 244 -62t162 -171v212h674l-13 -88h-563v-559h471l-12 -88h-459v-565h602l-12 -86h-688v223q-58 -113 -167.5 -177t-254.5 -64q-138 0 -248.5 55t-181 150.5t-108 221.5t-37.5 271zM166 684 q0 -96 16.5 -183.5t53.5 -167t91 -137.5t135.5 -92t180.5 -34q152 0 266 76t138 208q16 85 16 168v344q0 208 -100.5 329.5t-307.5 121.5q-120 0 -215 -50.5t-154 -138t-89.5 -201t-30.5 -243.5z" />
<glyph unicode="&#x153;" horiz-adv-x="1763" d="M76 498q0 142 51 259.5t154.5 191t242.5 73.5q153 0 254.5 -85.5t143.5 -227.5q50 143 154 228t235 85q164 0 263.5 -106t102.5 -316l-180 -25q-85 0 -265 -1t-265 -1q-6 -43 -6 -86q0 -210 96 -318t256 -108q91 0 161 22.5t164 70.5l31 -70q-71 -36 -111 -53.5t-110 -34 t-145 -16.5q-140 0 -244 72t-146 218q-47 -133 -146 -213t-245 -80q-114 0 -202.5 45t-140 120.5t-77.5 165.5t-26 190zM170 498q0 -85 22 -163t63.5 -141t110.5 -101t156 -38q109 0 190 60t121.5 160t40.5 225q0 68 -13.5 132t-42 121t-69.5 99t-99.5 67t-127.5 25 q-113 0 -194 -61.5t-119.5 -160.5t-38.5 -224zM979 643q422 0 604 10q-9 136 -81.5 212.5t-192.5 76.5q-119 0 -205.5 -81.5t-124.5 -217.5z" />
<glyph unicode="&#x178;" horiz-adv-x="1013" d="M-8 1382l106 9q129 -231 410 -699q165 270 401 697l111 -7q-39 -66 -206.5 -348.5t-258.5 -433.5v-600h-98v600h-2l-33 55q-45 76 -139 231.5t-165.5 276.5t-125.5 219zM252 1649q0 25 17 43t44 18q26 0 43 -18t17 -43q0 -26 -17 -45t-43 -19q-27 0 -44 19t-17 45z M647 1649q0 25 18 43t44 18t42.5 -18t16.5 -43q0 -26 -17 -45t-42 -19q-26 0 -44 19.5t-18 44.5z" />
<glyph unicode="&#x2000;" horiz-adv-x="910" />
<glyph unicode="&#x2001;" horiz-adv-x="1821" />
<glyph unicode="&#x2002;" horiz-adv-x="910" />
<glyph unicode="&#x2003;" horiz-adv-x="1821" />
<glyph unicode="&#x2004;" horiz-adv-x="607" />
<glyph unicode="&#x2005;" horiz-adv-x="455" />
<glyph unicode="&#x2006;" horiz-adv-x="303" />
<glyph unicode="&#x2007;" horiz-adv-x="303" />
<glyph unicode="&#x2008;" horiz-adv-x="227" />
<glyph unicode="&#x2009;" horiz-adv-x="364" />
<glyph unicode="&#x200a;" horiz-adv-x="101" />
<glyph unicode="&#x2010;" horiz-adv-x="526" d="M33 489l10 86h440l-10 -86h-440z" />
<glyph unicode="&#x2011;" horiz-adv-x="526" d="M33 489l10 86h440l-10 -86h-440z" />
<glyph unicode="&#x2012;" horiz-adv-x="526" d="M33 489l10 86h440l-10 -86h-440z" />
<glyph unicode="&#x2013;" horiz-adv-x="1204" d="M133 494l10 79h926l-10 -79h-926z" />
<glyph unicode="&#x2014;" horiz-adv-x="2125" d="M133 494l10 79h1848l-11 -79h-1847z" />
<glyph unicode="&#x2018;" horiz-adv-x="425" d="M113 1102l116 444h82l-100 -444h-98z" />
<glyph unicode="&#x2019;" horiz-adv-x="425" d="M113 1102l100 442h98l-114 -442h-84z" />
<glyph unicode="&#x201a;" horiz-adv-x="526" d="M143 -319l101 442h98l-117 -442h-82z" />
<glyph unicode="&#x201c;" horiz-adv-x="722" d="M117 1102l114 442h84l-100 -442h-98zM408 1102l114 442h84l-100 -442h-98z" />
<glyph unicode="&#x201d;" horiz-adv-x="722" d="M115 1102l100 444h98l-114 -444h-84zM408 1102l100 444h96l-115 -444h-81z" />
<glyph unicode="&#x201e;" horiz-adv-x="788" d="M127 -319l100 442h99l-115 -442h-84zM420 -319l100 442h96l-114 -442h-82z" />
<glyph unicode="&#x2022;" horiz-adv-x="606" d="M170 520q0 55 35.5 97t97.5 42q64 0 98.5 -40t34.5 -95q0 -57 -35.5 -98t-97.5 -41q-64 0 -98.5 40t-34.5 95z" />
<glyph unicode="&#x2026;" horiz-adv-x="1388" d="M164 53q0 29 18.5 49.5t48.5 20.5q29 0 48.5 -21t19.5 -49t-19.5 -48.5t-48.5 -20.5q-30 0 -48.5 20t-18.5 49zM627 53q0 29 18.5 49.5t48.5 20.5q29 0 48.5 -21t19.5 -49t-19.5 -48.5t-48.5 -20.5q-30 0 -48.5 20t-18.5 49zM1090 53q0 29 18.5 49.5t48.5 20.5 q29 0 48.5 -21t19.5 -49t-19.5 -48.5t-48.5 -20.5q-30 0 -48.5 20t-18.5 49z" />
<glyph unicode="&#x202f;" horiz-adv-x="364" />
<glyph unicode="&#x2039;" horiz-adv-x="651" d="M121 543l366 430l66 -49l-311 -381l311 -381l-66 -49z" />
<glyph unicode="&#x203a;" horiz-adv-x="651" d="M98 162l312 381l-312 381l66 49l364 -430l-364 -430z" />
<glyph unicode="&#x205f;" horiz-adv-x="455" />
<glyph unicode="&#x20ac;" horiz-adv-x="1427" d="M25 514l32 82h144q-6 46 -6 92q0 28 4 90h-174l32 82h154q36 152 119.5 271t220.5 192.5t307 73.5q137 0 269.5 -48.5t232.5 -152.5l-37 -82q-195 195 -463 195q-217 0 -358 -123.5t-191 -325.5h908l-31 -82h-893q-4 -50 -4 -67v-21q0 -57 6 -94h809l-31 -82h-762 q52 -200 195 -320t364 -120q226 0 445 141l12 -94q-90 -62 -218.5 -96.5t-242.5 -34.5q-258 0 -429 146t-226 378h-188z" />
<glyph unicode="&#x2122;" horiz-adv-x="1110" d="M66 696q0 155 31 284t91 225t154 150t213 54q230 0 358.5 -196t128.5 -519q0 -211 -54.5 -371t-165.5 -253t-267 -93q-150 0 -261.5 89.5t-169.5 252t-58 377.5zM168 694q0 -293 102 -460.5t283 -167.5q127 0 216.5 85t131 224.5t41.5 320.5q0 291 -101 458t-286 167 q-191 0 -289 -167t-98 -460z" />
<glyph unicode="&#xe000;" horiz-adv-x="1013" d="M0 0v1014h1014v-1014h-1014z" />
</font>
</defs>
</svg>
