<?xml version="1.0" standalone="no"?>
<!DOCTYPE svg PUBLIC "-//W3C//DTD SVG 1.1//EN" "http://www.w3.org/Graphics/SVG/1.1/DTD/svg11.dtd" >
<svg xmlns="http://www.w3.org/2000/svg">
<metadata></metadata>
<defs>
<font id="SensibilityLightItalic" horiz-adv-x="526" >
<font-face units-per-em="2048" ascent="1638" descent="-410" />
<missing-glyph horiz-adv-x="479" />
<glyph horiz-adv-x="0" />
<glyph horiz-adv-x="2048" />
<glyph unicode=" "  horiz-adv-x="479" />
<glyph unicode="&#x09;" horiz-adv-x="479" />
<glyph unicode="&#xa0;" horiz-adv-x="479" />
<glyph unicode="!" d="M172 82q0 44 29 74t71 30t72.5 -30t30.5 -74q0 -42 -30.5 -72t-72.5 -30q-41 0 -70.5 29.5t-29.5 72.5zM231 346l119 1040h164l-141 -1054z" />
<glyph unicode="&#x22;" horiz-adv-x="884" d="M317 1034l54 518h153l-73 -518h-134zM688 1034l53 518h154l-74 -518h-133z" />
<glyph unicode="#" horiz-adv-x="1280" d="M94 418l23 117h268l123 321h-324l27 115h340l154 415h118l-153 -415h245l154 415h119l-154 -415h248l-25 -115h-266l-121 -321h318l-23 -117h-338l-157 -418h-119l156 418h-244l-158 -418h-119l156 418h-248zM506 535h246l120 321h-245z" />
<glyph unicode="$" horiz-adv-x="1024" d="M115 115l65 100q64 -45 111 -69.5t102 -34.5l68 546q-50 30 -84 53t-74.5 58.5t-64 70.5t-40 83.5t-16.5 103.5q0 92 39.5 171t125 134.5t204.5 65.5l16 131h123l-18 -137q124 -20 250 -113q-10 -22 -27.5 -51t-26.5 -51q-114 81 -211 100l-63 -528q62 -36 103 -67 t84.5 -77t65 -104t21.5 -129q0 -156 -103 -262.5t-265 -120.5l-21 -172h-123l21 174q-138 21 -262 125zM319 1049q0 -83 40 -135.5t120 -100.5l58 463q-95 -7 -156.5 -71.5t-61.5 -155.5zM516 111q96 15 155.5 80.5t59.5 164.5q0 74 -38 127.5t-118 106.5z" />
<glyph unicode="%" horiz-adv-x="1822" d="M291 1010q0 165 101 284t261 119q129 0 211 -87t82 -226q0 -100 -45.5 -189.5t-131 -146.5t-191.5 -57q-129 0 -208 86t-79 217zM408 1016q0 -97 51 -152t123 -55q106 0 174.5 84.5t68.5 200.5q0 97 -52.5 156t-123.5 59q-106 0 -173.5 -87.5t-67.5 -205.5zM498 0 l882 1386h136l-885 -1386h-133zM1049 279q0 165 101 284t261 119q129 0 211 -87t82 -226q0 -74 -27.5 -145.5t-74.5 -126.5t-117 -88.5t-150 -33.5q-128 0 -207 86.5t-79 217.5zM1165 285q0 -97 51 -152t123 -55q106 0 175 84t69 200q0 97 -52.5 156.5t-123.5 59.5 q-106 0 -174 -87.5t-68 -205.5z" />
<glyph unicode="&#x26;" horiz-adv-x="1353" d="M111 387q0 163 106.5 282t292.5 152q-154 92 -154 271q0 125 105 223t276 98q184 0 340 -123l-76 -102q-136 100 -264 100q-112 0 -174.5 -59t-62.5 -144q0 -78 55.5 -145t157.5 -92l-23 -121q-16 2 -49 2q-160 0 -269.5 -88.5t-109.5 -243.5q0 -57 22.5 -108.5t66 -94 t117 -67.5t167.5 -25q162 0 265.5 79.5t103.5 191.5q0 131 -72 211q-154 -29 -154 -131q0 -42 31 -109l-113 -45q-51 77 -51 152q0 61 30.5 105t79.5 68t108 41.5t117.5 31.5t107.5 30t79.5 44t30.5 69q0 37 -25 56t-65 19q-37 0 -80 -16l-35 100q66 25 137 25 q84 0 146.5 -44.5t62.5 -133.5q0 -52 -22.5 -91.5t-66.5 -67t-85 -43.5t-102 -34q76 -98 76 -225q0 -168 -147.5 -289t-364.5 -121q-233 0 -374.5 116t-141.5 296z" />
<glyph unicode="'" horiz-adv-x="514" d="M317 1034l54 518h153l-73 -518h-134z" />
<glyph unicode="(" d="M137 360q0 286 91.5 570.5t289.5 634.5l109 -37l-6 -10q-181 -329 -267 -605.5t-86 -560.5q0 -343 125 -690l-119 -24q-137 371 -137 722z" />
<glyph unicode=")" d="M55 -326q182 334 270.5 613t88.5 563q0 343 -125 690l119 25q137 -371 137 -723q0 -286 -91.5 -570t-289.5 -634z" />
<glyph unicode="*" horiz-adv-x="1054" d="M233 1044l291 107l-262 192l66 91l243 -211q10 100 23 329h117l-49 -344l278 131l45 -108l-293 -105l262 -192l-65 -90l-244 207q-5 -57 -12 -173.5t-10 -156.5h-117l49 344l-276 -125z" />
<glyph unicode="+" horiz-adv-x="1290" d="M197 475l14 119h446l58 467h114l-57 -467h447l-15 -119h-446l-58 -467h-114l57 467h-446z" />
<glyph unicode="," d="M84 -262l158 461l157 -23l-190 -461z" />
<glyph unicode="-" d="M61 465l17 133h440l-16 -133h-441z" />
<glyph unicode="." horiz-adv-x="528" d="M172 82q0 44 29 74t71 30t72.5 -30t30.5 -74q0 -42 -30.5 -72t-72.5 -30q-41 0 -70.5 29.5t-29.5 72.5z" />
<glyph unicode="/" horiz-adv-x="823" d="M-47 -160l954 1712h133l-956 -1712h-131z" />
<glyph unicode="0" horiz-adv-x="1089" d="M115 426q0 117 39 225.5t107.5 192t171 133t222.5 49.5q193 0 315 -129t122 -338q0 -110 -41 -215t-111.5 -187t-175.5 -132t-223 -50q-190 0 -308 128t-118 323zM266 432q0 -156 81.5 -244t197.5 -88q113 0 203 63.5t138 166.5t48 223q0 158 -83.5 253t-199.5 95 q-70 0 -131.5 -25.5t-107 -70t-79 -103.5t-50.5 -128t-17 -142z" />
<glyph unicode="1" horiz-adv-x="673" d="M70 0l16 129h207l94 756q-166 -24 -211 -27l17 131q171 21 354 51l-113 -911h205l-16 -129h-553z" />
<glyph unicode="2" horiz-adv-x="927" d="M61 0l13 109l170 116q8 5 43 29t54 36.5t55 38.5t62 46t58 46.5t59 51.5q68 63 112 128t44 142q0 71 -44 116.5t-126 45.5q-139 0 -285 -86l-47 115q77 45 169 72.5t175 27.5q145 0 230.5 -75.5t85.5 -200.5q0 -182 -215 -365q-118 -102 -346 -243l-33 -21h588l-15 -129 h-807z" />
<glyph unicode="3" horiz-adv-x="815" d="M-8 -182h31q133 0 235.5 20.5t164.5 52.5t101 77t53.5 89.5t14.5 94.5q0 90 -57.5 139t-149.5 49h-182v119l164 10q107 6 192.5 77.5t85.5 174.5q0 178 -196 178q-70 0 -147.5 -23t-133.5 -53l-35 113q162 90 348 90q61 0 114.5 -14.5t99.5 -46t73 -88.5t27 -134 q0 -110 -72.5 -202t-185.5 -133q87 -14 147.5 -81.5t60.5 -172.5q0 -94 -37 -170.5t-100.5 -128t-149.5 -86.5t-181.5 -50.5t-200.5 -15.5q-47 0 -76 2z" />
<glyph unicode="4" horiz-adv-x="1091" d="M49 0l10 100l660 897h196l-110 -870h237l-14 -127h-235l-43 -334h-142l43 334h-602zM225 123h439l88 711q-84 -108 -216 -286t-222 -302z" />
<glyph unicode="5" horiz-adv-x="806" d="M-6 -213q213 43 314 81q280 106 280 304q0 57 -28 97.5t-76 60.5t-98.5 28.5t-109.5 8.5h-155l104 630h617l-19 -133h-475l-67 -372h16q67 0 127.5 -9t119 -32.5t101 -58.5t68.5 -91.5t26 -128.5q0 -242 -288 -383q-147 -70 -439 -115z" />
<glyph unicode="6" horiz-adv-x="995" d="M139 406q0 145 45 281t123.5 245.5t183 200.5t224.5 153t248 96l32 -129q-223 -54 -400 -199.5t-259 -353.5q168 134 340 134q135 0 222 -92.5t87 -254.5q0 -139 -61.5 -256.5t-171.5 -186.5t-244 -69q-75 0 -140.5 27t-117 79t-81.5 135.5t-30 189.5zM285 418 q0 -154 70.5 -237t170.5 -83q141 0 225.5 112t84.5 273q0 117 -58 173.5t-153 56.5q-76 0 -165 -41t-161 -109q-14 -60 -14 -145z" />
<glyph unicode="7" horiz-adv-x="870" d="M37 -305q453 758 729 1175h-612l16 127h772l-12 -106q-295 -439 -762 -1256z" />
<glyph unicode="8" horiz-adv-x="1034" d="M127 301q0 246 344 401q-217 119 -217 297q0 160 122.5 272.5t293.5 112.5q97 0 178.5 -36t133.5 -109t52 -170q0 -117 -73.5 -196t-237.5 -158q138 -73 200 -156t62 -192q0 -110 -65 -201t-170.5 -141t-227.5 -50q-109 0 -196.5 34.5t-143 110t-55.5 181.5zM274 313 q0 -109 73 -165t181 -56q121 0 215.5 75.5t94.5 190.5q0 97 -58.5 158.5t-195.5 126.5q-62 -25 -111 -52.5t-97 -67.5t-75 -93.5t-27 -116.5zM393 1014q0 -45 16.5 -81t52 -66t69.5 -50t90 -47q140 60 207 124.5t67 164.5t-66.5 154.5t-162.5 54.5q-108 0 -190.5 -74 t-82.5 -180z" />
<glyph unicode="9" horiz-adv-x="993" d="M121 -248q224 54 401 198t258 351q-167 -133 -340 -133q-135 0 -222 92t-87 254q0 139 61.5 256.5t171.5 186.5t244 69q75 0 140.5 -27t117 -78.5t81.5 -135t30 -189.5q0 -180 -69 -344.5t-185 -287.5t-262 -211t-307 -130zM281 518q0 -117 57.5 -173t153.5 -56 q76 0 164.5 40.5t160.5 108.5q14 60 14 146q0 154 -70.5 236.5t-170.5 82.5q-141 0 -225 -112t-84 -273z" />
<glyph unicode=":" d="M172 82q0 44 29 74t71 30t72.5 -30t30.5 -74q0 -42 -30.5 -72t-72.5 -30q-41 0 -70.5 29.5t-29.5 72.5zM268 860q0 44 29.5 74.5t71.5 30.5t72 -30.5t30 -74.5q0 -42 -30 -72t-72 -30q-41 0 -71 30t-30 72z" />
<glyph unicode=";" d="M84 -262l158 461l157 -23l-190 -461zM268 860q0 44 29.5 74.5t71.5 30.5t72 -30.5t30 -74.5q0 -42 -30 -72t-72 -30q-41 0 -71 30t-30 72z" />
<glyph unicode="&#x3c;" horiz-adv-x="1290" d="M227 432l13 94l983 414l-15 -137l-792 -324l712 -327l-18 -138z" />
<glyph unicode="=" horiz-adv-x="1290" d="M172 281l16 120h1008l-16 -120h-1008zM219 664l17 124h1007l-16 -124h-1008z" />
<glyph unicode="&#x3e;" horiz-adv-x="1290" d="M176 14l19 138l790 327l-711 324l15 137l885 -414l-13 -94z" />
<glyph unicode="?" horiz-adv-x="894" d="M236 1303q163 110 372 110q68 0 129.5 -18.5t113.5 -55t83 -101t31 -148.5q0 -47 -17 -95t-37.5 -83t-64.5 -83t-70 -73t-83.5 -77t-78.5 -71q-61 -58 -87.5 -117.5t-37.5 -154.5l-129 10q3 212 168 361q18 16 57 49t63.5 54.5t58 57t53 66t33.5 70.5t14 81q0 87 -60 139 t-143 52q-87 0 -154.5 -21.5t-160.5 -70.5zM305 82q0 44 29.5 74t71.5 30t72 -30t30 -74q0 -42 -30 -72t-72 -30t-71.5 30t-29.5 72z" />
<glyph unicode="@" horiz-adv-x="1658" d="M188 614q0 129 31.5 243.5t87 200.5t130.5 154.5t162.5 112t181 66t188.5 22.5q129 0 244 -40.5t207 -118t146 -203.5t54 -285q0 -70 -15 -139.5t-48 -135.5t-79.5 -117t-114.5 -81.5t-149 -30.5q-67 0 -120.5 32t-75.5 85q-51 -59 -116.5 -88t-127.5 -29 q-102 0 -170.5 77t-68.5 208q0 99 36.5 189t97 153t140.5 100t166 37q123 0 252 -41l-86 -508q-2 -10 -2 -26q0 -72 94 -72q106 0 178 110.5t72 276.5q0 131 -42 234t-113.5 166.5t-161.5 96.5t-191 33q-94 0 -187 -27.5t-176.5 -84.5t-147.5 -136.5t-102 -191.5t-38 -242 q0 -122 39 -233t114 -200t197.5 -142t275.5 -53q125 0 228 36.5t219 106.5l55 -111q-99 -67 -231 -108t-271 -41q-151 0 -277.5 41.5t-215 112.5t-150 166.5t-90.5 203t-29 221.5zM670 547q0 -77 38.5 -122.5t88.5 -45.5q89 0 154 61t79 142l55 313q-46 14 -110 14 q-135 0 -220 -105t-85 -257z" />
<glyph unicode="A" horiz-adv-x="1239" d="M23 0q548 1109 649 1292l-19 97l146 16l368 -1405l-159 -10l-109 424h-526q-157 -339 -191 -424zM432 539h436q-107 452 -145 596q-26 -45 -68 -131t-116.5 -242t-106.5 -223z" />
<glyph unicode="B" horiz-adv-x="1011" d="M123 0l170 1386h276q193 0 302.5 -93.5t109.5 -243.5q0 -119 -71.5 -215.5t-192.5 -137.5q111 -29 171 -108t60 -189q0 -82 -27 -148.5t-74.5 -112.5t-112.5 -77.5t-140.5 -46t-159.5 -14.5h-311zM291 127h172q140 0 237 71.5t97 200.5q0 120 -74.5 178t-202.5 58h-166z M369 754h155q133 0 214 81.5t81 200.5q0 100 -61.5 160.5t-186.5 60.5h-139z" />
<glyph unicode="C" horiz-adv-x="1093" d="M141 592q0 117 28.5 233.5t86.5 222t138.5 187t192 130t238.5 48.5q203 0 332 -82l-49 -121q-139 68 -281 68q-86 0 -161 -28t-132 -77t-102 -114.5t-73 -142t-43 -159t-15 -165.5q0 -222 96.5 -351.5t272.5 -129.5q84 0 148.5 17t146.5 52l45 -108q-190 -97 -357 -97 q-164 0 -281.5 82.5t-174 220t-56.5 314.5z" />
<glyph unicode="D" horiz-adv-x="1228" d="M123 0l170 1386h272q285 0 459 -168t174 -456q0 -121 -30.5 -234t-92 -208.5t-147 -167t-201.5 -112t-250 -40.5h-354zM293 133h190q110 0 202.5 35.5t156.5 96t108.5 141.5t65 171.5t20.5 186.5q0 141 -50.5 249.5t-157 174t-257.5 65.5h-141z" />
<glyph unicode="E" horiz-adv-x="937" d="M123 0l170 1386h665l-18 -133h-510l-59 -493h434l-19 -133h-434l-59 -494h559l-14 -133h-715z" />
<glyph unicode="F" horiz-adv-x="868" d="M123 0l170 1386h665l-18 -133h-510l-61 -522h436l-19 -133h-436l-76 -598h-151z" />
<glyph unicode="G" horiz-adv-x="1255" d="M141 592q0 117 28.5 233t87.5 222t140.5 187.5t196.5 130t246 48.5q198 0 362 -96l-51 -121q-161 82 -324 82q-86 0 -161 -28t-132 -77t-102 -114.5t-73 -142t-43 -159t-15 -165.5q0 -225 95 -353t276 -128q87 0 156.5 11t146.5 46l53 379h-323l20 133h467l-76 -584 q-229 -121 -438 -121q-253 0 -395 168t-142 449z" />
<glyph unicode="H" horiz-adv-x="1243" d="M121 -4l172 1390h153l-77 -632h649l78 632h153l-172 -1390h-153l77 633h-649l-78 -633h-153z" />
<glyph unicode="I" horiz-adv-x="442" d="M121 -4l172 1390h156l-173 -1390h-155z" />
<glyph unicode="J" horiz-adv-x="716" d="M49 25l49 118q69 -32 131 -32q82 0 138 57t69 168l117 930h-186l20 120h336l-127 -1050q-22 -174 -126.5 -265t-240.5 -91q-95 0 -180 45z" />
<glyph unicode="K" horiz-adv-x="1110" d="M117 -4l172 1390h155l-77 -628q144 124 356.5 325t323.5 314l170 -17q-52 -48 -186.5 -176.5t-241 -227.5t-193.5 -173q220 -403 459 -795l-166 -20l-410 723l-133 -109l-74 -606h-155z" />
<glyph unicode="L" horiz-adv-x="860" d="M123 0l170 1386h156l-156 -1253h495l-16 -133h-649z" />
<glyph unicode="M" horiz-adv-x="1675" d="M82 0l393 1290l-24 96l155 9q201 -840 250 -1063l516 1057h129q1 -50 10 -267t22 -547t21 -573l-149 -10q-3 128 -9.5 304t-12 306.5t-12.5 288t-9 194.5l-473 -960h-135l-217 960l-304 -1095z" />
<glyph unicode="N" horiz-adv-x="1290" d="M129 -4l162 1249l-58 119l152 35l631 -1112l135 1099h145l-170 -1380l-116 -16q-68 130 -184.5 337.5t-259 456.5t-160.5 281l-132 -1069h-145z" />
<glyph unicode="O" horiz-adv-x="1427" d="M141 592q0 96 22 194.5t63 189.5t103 171t137.5 139t172 93t201.5 34q174 0 301.5 -81t191.5 -218t64 -313q0 -116 -30.5 -233.5t-91.5 -223.5t-144 -188.5t-196 -131.5t-239 -49q-175 0 -302.5 82.5t-190 220.5t-62.5 314zM301 592q0 -218 100 -349.5t289 -131.5 q102 0 191 39t153 106t110.5 155t69.5 186.5t23 199.5q0 88 -22.5 170t-67 153.5t-122 114.5t-177.5 43q-127 0 -233 -60.5t-173 -159t-104 -219.5t-37 -247z" />
<glyph unicode="P" horiz-adv-x="1007" d="M121 -4l172 1390h309q201 0 311.5 -105t110.5 -280q0 -194 -147 -320t-365 -126q-62 0 -168 12l-72 -571h-151zM358 686q57 -8 168 -8q142 0 240 85t98 234q0 115 -68.5 191t-193.5 76h-174z" />
<glyph unicode="Q" horiz-adv-x="1427" d="M141 592q0 96 22 194.5t63 189.5t103 171t137.5 139t172 93t201.5 34q174 0 301.5 -81t191.5 -218t64 -313q0 -92 -19 -186t-62.5 -188.5t-105.5 -172t-155 -136.5t-205 -83q85 -8 278 -22.5t248 -20.5l-18 -125q-263 15 -447 41q-63 9 -103.5 15.5t-106.5 20.5t-112 29 t-104 40t-100.5 54.5t-84 71.5t-69.5 92q-90 158 -90 361zM301 592q0 -217 100.5 -346t290.5 -129q102 0 190.5 38.5t152.5 104.5t110.5 153t69 185t22.5 199q0 88 -22.5 170t-67 153.5t-122 114.5t-177.5 43q-127 0 -233 -60.5t-173 -159t-104 -219.5t-37 -247z" />
<glyph unicode="R" horiz-adv-x="997" d="M121 -4l172 1390h268q189 0 299.5 -97.5t110.5 -264.5q0 -156 -104 -277t-275 -151q21 -43 48 -93.5t47.5 -87.5t57.5 -102t54 -94t64 -109t61 -104l-160 -14q-123 201 -326 594l-92 4l-74 -594h-151zM360 705q78 -5 107 -5q156 0 252 85.5t96 232.5q0 116 -70 181 t-180 65h-137z" />
<glyph unicode="S" horiz-adv-x="921" d="M96 117l64 110q60 -42 95.5 -62.5t92 -37t121.5 -16.5q102 0 174 66.5t72 178.5q0 59 -28.5 109.5t-74.5 88.5t-101 74t-110 75t-101 82.5t-74.5 105.5t-28.5 135q0 158 114 268.5t299 110.5q161 0 334 -119q-10 -22 -32 -55t-31 -55q-173 104 -281 104q-120 0 -190 -67 t-70 -164q0 -60 29 -109t75.5 -84.5t103 -69.5t113 -72.5t103 -84t75.5 -114t29 -153.5q0 -164 -115.5 -271t-283.5 -107q-102 0 -200.5 37.5t-172.5 95.5z" />
<glyph unicode="T" horiz-adv-x="1028" d="M188 1251l17 135h917l-16 -135h-381l-156 -1255h-155l155 1255h-381z" />
<glyph unicode="U" horiz-adv-x="1222" d="M178 406q0 44 6 94l109 886h156l-113 -911q-4 -37 -4 -65q0 -133 70 -217t206 -84q309 0 353 360l112 917h156l-119 -927q-62 -486 -508 -486q-203 0 -313.5 116t-110.5 317z" />
<glyph unicode="V" horiz-adv-x="1157" d="M158 1380l159 13q26 -135 71 -332.5t119 -503.5t81 -334l549 1170l159 -13l-686 -1405l-108 -10q-268 1072 -344 1415z" />
<glyph unicode="W" horiz-adv-x="1724" d="M168 1380l158 13q39 -237 98 -639.5t78 -522.5l401 1037l-18 112l153 9q27 -166 91.5 -607t84.5 -563l478 1174l157 -13l-596 -1382l-135 -12q-53 282 -178 1050l-403 -1038l-140 -10q-36 216 -113 691t-116 701z" />
<glyph unicode="X" horiz-adv-x="1161" d="M16 12l541 686l-369 678l158 25l307 -586l447 586l162 -25l-539 -678l395 -698l-170 -10l-323 590l-451 -590z" />
<glyph unicode="Y" horiz-adv-x="1054" d="M154 1380l165 15q84 -210 283 -629q170 234 424 627l172 -13l-534 -753l-78 -631h-158l78 631q-285 597 -352 753z" />
<glyph unicode="Z" horiz-adv-x="1134" d="M90 0l8 74l813 1179h-667l16 133h901l-6 -47l-831 -1206h694l-14 -133h-914z" />
<glyph unicode="[" d="M59 -350l234 1902h317l-12 -104h-190l-207 -1692h190l-14 -106h-318z" />
<glyph unicode="\" horiz-adv-x="823" d="M160 1552h133l536 -1706h-133z" />
<glyph unicode="]" d="M61 -350l13 106h188l207 1692h-188l12 104h317l-231 -1902h-318z" />
<glyph unicode="^" horiz-adv-x="1173" d="M145 469l560 905h86l348 -905h-140l-270 733l-446 -733h-138z" />
<glyph unicode="_" horiz-adv-x="1173" d="M-31 -274l15 110h1167l-14 -110h-1168z" />
<glyph unicode="a" horiz-adv-x="1021" d="M113 330q0 155 47.5 287t128 219.5t185.5 136.5t220 49q133 0 248 -59l-98 -783v-6q-1 -7 -1.5 -16.5t-0.5 -18.5q0 -43 24 -43q49 0 156 82l49 -76q-53 -49 -121.5 -88t-126.5 -39q-109 0 -112 152q0 18 2.5 51.5t3.5 44.5q-74 -108 -168.5 -177t-196.5 -69 q-111 0 -175 101t-64 252zM252 350q0 -107 37 -177.5t100 -70.5q66 0 154 67.5t184 197.5l76 514q-74 22 -135 22q-76 0 -142.5 -29.5t-116 -81t-85.5 -121t-54 -151.5t-18 -170z" />
<glyph unicode="b" horiz-adv-x="966" d="M131 96l180 1458h142l-99 -757q100 113 181 171t153 58q50 0 96.5 -19.5t88.5 -60t67 -114.5t25 -173q0 -129 -38.5 -251t-107.5 -219t-174.5 -155.5t-230.5 -58.5q-91 0 -166.5 31.5t-116.5 89.5zM274 164q60 -66 158 -66q69 0 128.5 25t101.5 68t74 98t51 119 t28.5 126.5t9.5 124.5q0 124 -47 182t-108 58q-125 0 -328 -242z" />
<glyph unicode="c" horiz-adv-x="768" d="M117 403q0 92 22.5 182t68 169t107.5 139.5t147 95.5t181 35q115 0 221 -61l-47 -113q-92 47 -182 47q-116 0 -204 -71t-130.5 -178.5t-42.5 -229.5q0 -151 55.5 -234.5t149.5 -83.5q126 0 268 109l53 -84q-76 -69 -164 -109.5t-174 -40.5q-150 0 -239.5 121t-89.5 307z " />
<glyph unicode="d" horiz-adv-x="1024" d="M115 342q0 191 66.5 345t192.5 245.5t290 93.5q62 0 147 -20l61 548h142l-172 -1394q0 -2 -1 -10t-1 -15q0 -13 7.5 -26t18.5 -13q12 0 27.5 5.5t34.5 16.5t33.5 20t34 22.5t26.5 17.5l49 -76q-53 -49 -121.5 -88t-126.5 -39q-63 0 -91 39t-30 113q0 44 11 86 q-72 -102 -166 -169t-195 -67q-75 0 -130.5 57t-81 138t-25.5 170zM254 342q0 -37 7 -76t22 -77t42.5 -62.5t63.5 -24.5q68 0 156 65.5t188 199.5l70 514q-81 22 -156 22q-123 -1 -213 -74.5t-135 -199t-45 -287.5z" />
<glyph unicode="e" horiz-adv-x="851" d="M111 395q0 133 44.5 251.5t117 200.5t165.5 129.5t189 47.5q112 0 178.5 -70.5t66.5 -169.5q0 -58 -23 -108t-59 -86t-90.5 -66.5t-106.5 -50t-119 -36t-115 -25.5t-107 -17q0 -143 65.5 -221t161.5 -78q131 0 264 121l54 -84q-73 -76 -161 -116t-175 -40 q-148 0 -249 110t-101 308zM252 500q42 4 85.5 11.5t101.5 21t107 35.5t92 50.5t68 70.5t25 91q0 54 -34.5 90.5t-92.5 36.5q-70 0 -132.5 -37.5t-106 -98t-73 -130.5t-40.5 -141z" />
<glyph unicode="f" horiz-adv-x="516" d="M-80 -375l10 117q25 0 35 2q168 25 203 328l96 813h-139l14 98l140 14l32 238q21 155 108.5 242.5t211.5 87.5q45 0 82 -11l-15 -120q-16 2 -47 2q-88 0 -137.5 -48t-62.5 -155l-31 -236h196l-16 -112h-194l-105 -846q-27 -213 -120 -314.5t-230 -101.5q-5 0 -15.5 1 t-15.5 1z" />
<glyph unicode="g" horiz-adv-x="946" d="M45 -172q0 75 63 133t193 115q-72 37 -72 92q0 54 60 102q5 4 17.5 14.5t23 18.5t20.5 14q-84 33 -141 108t-57 185q0 75 28.5 148t80 132t131 95.5t173.5 36.5q128 0 221 -72l218 64l26 -121l-160 -39q39 -67 39 -147q0 -57 -15 -111.5t-47.5 -106t-79.5 -91 t-116.5 -65.5t-152.5 -32q-23 -13 -86 -57q-33 -26 -33 -49q0 -30 49 -35l170 -21q155 -19 230 -71.5t75 -141.5q0 -124 -142 -212.5t-358 -88.5q-171 0 -264.5 52t-93.5 151zM186 -156q0 -55 55 -78.5t183 -23.5q137 0 235.5 49t98.5 119q0 42 -37.5 67t-132.5 35l-164 19 q-238 -99 -238 -187zM289 612q0 -101 56.5 -150.5t141.5 -49.5q123 0 201 79.5t78 210.5q0 100 -59.5 152.5t-147.5 52.5q-126 0 -198 -87t-72 -208z" />
<glyph unicode="h" horiz-adv-x="1036" d="M121 -4l190 1558h142l-97 -763q44 49 77.5 82.5t82 72t99 58.5t102.5 20q76 0 128 -44t73.5 -109t21.5 -144q0 -43 -8 -121l-55 -448q-3 -21 -3 -33t8 -20.5t19 -8.5q39 0 156 82l49 -76q-57 -53 -130.5 -90t-125.5 -37q-113 0 -113 152q0 24 4 74l54 434q4 27 4 76 q0 94 -32.5 142t-88.5 48q-73 0 -165 -72.5t-169 -169.5l-80 -663h-143z" />
<glyph unicode="i" horiz-adv-x="456" d="M135 135l2 41l101 821h141l-105 -837q-2 -17 -2 -35q0 -29 27 -29q19 0 41.5 9.5t37.5 19t41 28.5t36 25l49 -76q-58 -55 -120.5 -91t-113.5 -36q-68 0 -101.5 43.5t-33.5 116.5zM254 1327q0 41 28 69.5t68 28.5t68 -28.5t28 -69.5t-28 -69.5t-68 -28.5t-68 28.5 t-28 69.5z" />
<glyph unicode="j" horiz-adv-x="389" d="M-61 -264q165 44 184 215l129 1046h141l-125 -1017q-38 -308 -299 -357zM268 1327q0 41 28.5 69.5t68.5 28.5t68 -28.5t28 -69.5t-28 -69.5t-68 -28.5t-68.5 28.5t-28.5 69.5z" />
<glyph unicode="k" horiz-adv-x="886" d="M121 -4l190 1558h142l-125 -1017q163 134 514 475l102 -80l-434 -383q117 -254 162 -334q22 -40 36 -61.5t35 -40.5t41 -19q42 0 107 51l49 -75q-108 -99 -197 -99q-57 0 -96 40t-90 134q-40 73 -162 330l-78 -53l-55 -426h-141z" />
<glyph unicode="l" horiz-adv-x="456" d="M135 135l2 41l166 1378h141l-170 -1394q-2 -17 -2 -35q0 -29 27 -29q23 0 56.5 18t99.5 64l49 -76q-58 -55 -120.5 -91t-113.5 -36q-68 0 -101.5 43.5t-33.5 116.5z" />
<glyph unicode="m" horiz-adv-x="1630" d="M123 -4l123 1001h131l-21 -200q8 7 41.5 40.5t47.5 46t46.5 40.5t54 40.5t52 29.5t60 23.5t59.5 6.5q94 0 149 -63.5t68 -161.5q115 112 201.5 168.5t175.5 56.5q76 0 128 -44t73.5 -109t21.5 -144q0 -43 -8 -121l-56 -448q-2 -14 -2 -33q0 -12 8 -20.5t19 -8.5 q39 0 156 82l49 -76q-57 -53 -130.5 -90t-125.5 -37q-55 0 -84 37.5t-29 93.5q0 5 6 80l52 449q4 54 4 76q0 94 -32.5 142t-88.5 48q-39 0 -79.5 -16.5t-70 -36.5t-69.5 -59.5t-58.5 -60.5t-56.5 -66l-80 -666h-141l78 639q4 27 4 76q0 94 -32.5 142t-88.5 48 q-74 0 -169.5 -77t-162.5 -162l-82 -666h-141z" />
<glyph unicode="n" horiz-adv-x="1036" d="M123 -4l123 1001h131l-23 -198q115 115 196.5 170t166.5 55q76 0 128 -44t73.5 -109t21.5 -144q0 -43 -8 -121l-55 -448q-3 -21 -3 -33t8 -20.5t19 -8.5q39 0 156 82l49 -76q-57 -53 -130.5 -90t-125.5 -37q-59 0 -86 38.5t-27 86.5q0 26 4 76l54 459q4 27 4 76 q0 94 -32.5 142t-88.5 48q-129 0 -332 -239l-82 -666h-141z" />
<glyph unicode="o" horiz-adv-x="974" d="M113 408q0 114 39.5 225t107 197.5t165 140t206.5 53.5q165 0 255.5 -119.5t90.5 -312.5q0 -153 -66 -294t-187 -232t-265 -91q-165 0 -255.5 120t-90.5 313zM260 391q0 -148 63 -222.5t154 -74.5q147 0 249.5 146.5t102.5 367.5q0 148 -63 222.5t-154 74.5 q-147 0 -249.5 -146.5t-102.5 -367.5z" />
<glyph unicode="p" horiz-adv-x="995" d="M92 -350l160 1347h131l-21 -221q91 118 188.5 184t180.5 66q46 0 90.5 -19.5t85 -60t65.5 -115t25 -172.5q0 -155 -50 -286.5t-130.5 -216t-179.5 -132t-201 -47.5q-80 0 -157 29l-43 -356h-144zM289 121q18 -9 63.5 -18t81.5 -9q124 1 221 75t150 202t53 288 q0 124 -47.5 182t-108.5 58q-68 0 -158.5 -60t-189.5 -182z" />
<glyph unicode="q" horiz-adv-x="1021" d="M115 340q0 155 50 286.5t130.5 217t179.5 133t201 47.5q76 0 167 -21.5t130 -44.5l-158 -1308h-141l74 553q-210 -230 -357 -230q-50 0 -96.5 19.5t-88 60t-66.5 114.5t-25 173zM254 340q0 -124 47.5 -182t108.5 -58q137 0 344 224l69 555q-17 9 -62 15.5t-83 6.5 q-124 -1 -221 -74t-150 -200t-53 -287z" />
<glyph unicode="r" horiz-adv-x="583" d="M115 -4l123 1001h131l-31 -254q44 73 137.5 161t175.5 126l35 -133q-177 -92 -293 -225q-40 -45 -54 -81.5t-26 -129.5l-57 -465h-141z" />
<glyph unicode="s" horiz-adv-x="681" d="M92 72l47 100q111 -78 217 -78q71 0 122.5 47t51.5 121q0 47 -28 82t-82 70q-19 12 -60 36t-65 39t-57.5 42.5t-52 53t-32.5 63t-14 79.5q0 130 87.5 213.5t222.5 83.5q72 0 149.5 -29t118.5 -61l-53 -105q-44 28 -105.5 52t-116.5 24q-73 0 -121.5 -39t-48.5 -112 q0 -82 99 -150q22 -15 62 -38.5t68 -40t62 -43.5t55 -54t35.5 -65.5t14.5 -83.5q0 -130 -91.5 -217t-226.5 -87q-75 0 -146.5 29t-111.5 68z" />
<glyph unicode="t" horiz-adv-x="604" d="M129 885l18 96l158 16l35 275l143 18l-37 -293h216l-19 -112h-211l-80 -662q-6 -42 -6 -69q0 -52 51 -52q7 0 15 1.5t17.5 5t17 6t19.5 9t18.5 10t20.5 12t18.5 11t19.5 12t18 11.5l45 -82q-54 -45 -129 -81.5t-135 -36.5q-70 0 -104.5 40.5t-34.5 112.5q0 6 0.5 16.5 t1 18t0.5 8.5l86 709h-162z" />
<glyph unicode="u" horiz-adv-x="1019" d="M135 266q0 43 8 121l76 610h139l-77 -639q-5 -34 -5 -75q0 -94 34.5 -142.5t95.5 -48.5q67 0 139 49t184 176l82 680h141l-102 -837q0 -1 -1 -12.5t-1 -18.5q0 -13 7 -25t22 -12q12 0 25.5 4.5t23.5 9t27.5 15.5t24.5 16.5t27 21t25 19.5l49 -76q-60 -55 -124 -91 t-115 -36q-67 0 -95 47t-28 156q-74 -93 -164 -148t-166 -55q-109 0 -180.5 75t-71.5 216z" />
<glyph unicode="v" horiz-adv-x="890" d="M137 987l137 25q33 -130 99 -412.5t96 -392.5q276 556 387 803l139 -23l-503 -1003h-99q-39 138 -138 533.5t-118 469.5z" />
<glyph unicode="w" horiz-adv-x="1454" d="M143 997l148 15q100 -482 176 -805l291 663q-3 12 -8.5 33.5t-18.5 77.5l148 16l165 -802l377 815l138 -25l-484 -1003h-112l-164 718l-314 -718h-102z" />
<glyph unicode="x" horiz-adv-x="937" d="M84 35l385 475l-272 469l125 45l235 -403l328 403l114 -63l-372 -457l280 -475l-129 -49l-241 413l-347 -422z" />
<glyph unicode="y" horiz-adv-x="880" d="M31 -362l30 118q28 -4 54 -4q133 0 239 209l35 70l-260 956l150 27l204 -795q40 84 173.5 381t191.5 414l141 -27l-522 -1079q-70 -143 -161.5 -214t-190.5 -71q-54 0 -84 15z" />
<glyph unicode="z" horiz-adv-x="833" d="M78 0l6 80l592 807h-475l12 110h655l-10 -79l-588 -797h498l-12 -121h-678z" />
<glyph unicode="{" horiz-adv-x="499" d="M162 -186q0 31 2 47l59 497q4 46 4 68q0 97 -53 160q53 47 74 92.5t31 134.5l67 553q9 77 56 131.5t114 54.5h150l-13 -104h-45q-68 0 -99.5 -23t-39.5 -96l-68 -551q-9 -77 -30 -117t-70 -75q31 -26 44 -55t13 -72q0 -14 -4 -64l-61 -520q-2 -12 -2 -35q0 -46 24.5 -65 t81.5 -19h49l-12 -106h-129q-59 0 -101 43t-42 121z" />
<glyph unicode="|" horiz-adv-x="585" d="M207 -158l213 1710h131l-213 -1710h-131z" />
<glyph unicode="}" horiz-adv-x="483" d="M-23 -350l13 104h45q68 0 99.5 23t39.5 96l62 514q9 77 30 117.5t70 75.5q-31 26 -44 55t-13 72q0 13 4 63l67 557q2 12 2 35q0 46 -24.5 65t-81.5 19h-49l12 106h129q60 0 101.5 -42.5t41.5 -120.5q0 -32 -2 -48l-65 -534q-4 -46 -4 -68q0 -96 53 -159q-52 -47 -73 -93 t-32 -135l-61 -516q-9 -77 -56 -131.5t-114 -54.5h-150z" />
<glyph unicode="~" horiz-adv-x="1173" d="M170 510q49 77 120.5 126.5t149.5 49.5q56 0 114 -23t99 -50.5t93 -50.5t98 -23q15 0 29.5 3.5t29.5 11t27.5 15t27 20t24 21t23.5 23.5t19.5 21.5t18 21t14.5 16.5l51 -96q-49 -77 -119.5 -126.5t-148.5 -49.5q-60 0 -119.5 23t-99.5 50.5t-90.5 50.5t-94.5 23 q-13 0 -27 -3.5t-26 -8t-26 -13.5t-24 -15.5t-24 -19.5l-21 -19.5t-20.5 -21t-17.5 -19t-16.5 -18.5t-12.5 -15z" />
<glyph unicode="&#xa1;" d="M135 -350l139 1024l142 -15l-117 -1009h-164zM272 924q0 42 30.5 72t72.5 30q41 0 70.5 -29.5t29.5 -72.5q0 -44 -29.5 -74.5t-70.5 -30.5q-42 0 -72.5 30.5t-30.5 74.5z" />
<glyph unicode="&#xa2;" horiz-adv-x="874" d="M115 412q0 104 34 205t94.5 184.5t152.5 142t200 74.5l22 182h119l-26 -182q92 -3 184 -55l-47 -113q-80 38 -152 43l-100 -784q76 13 158 49l39 -109q-122 -52 -207 -65l-21 -168h-119l23 164q-155 6 -254.5 119.5t-99.5 312.5zM256 414q0 -133 62.5 -217.5t170.5 -94.5 l93 787q-98 -22 -173.5 -94.5t-114 -171.5t-38.5 -209z" />
<glyph unicode="&#xa3;" horiz-adv-x="1024" d="M98 8q117 289 185 555h-185l17 127h202l95 348q52 189 169 282t271 93q117 0 246 -55l-49 -127q-132 51 -220 51q-204 0 -272 -264l-88 -328h307l-16 -127h-326q-32 -137 -135 -436h639l-14 -127h-824z" />
<glyph unicode="&#xa4;" horiz-adv-x="1024" d="M59 106l201 183q-42 63 -50 142t14.5 151.5t68.5 130.5l-139 159l86 82l139 -163q95 61 217 61q126 0 211 -68l190 170l78 -82l-194 -176q38 -65 40.5 -143.5t-23.5 -147.5t-73 -124l156 -175l-86 -81l-158 182q-90 -55 -196 -55q-121 0 -201 55l-203 -182zM346 440 q5 -82 53.5 -135t137.5 -53q73 0 132 42.5t90 112t27 148.5q-3 85 -51.5 141t-136.5 56q-73 0 -133 -45t-91.5 -116.5t-27.5 -150.5z" />
<glyph unicode="&#xa5;" horiz-adv-x="1169" d="M205 324l14 110h346l21 160h-346l14 115h309l-338 677h156l293 -600l426 600h170l-504 -677h319l-14 -115h-340l-20 -160h340l-15 -110h-340l-37 -324h-145l37 324h-346z" />
<glyph unicode="&#xa6;" horiz-adv-x="585" d="M207 -158l84 676h131l-84 -676h-131zM334 872l82 674h131l-82 -674h-131z" />
<glyph unicode="&#xa7;" horiz-adv-x="1173" d="M246 563q0 123 61 235t168 189q-88 91 -88 217q0 145 113 251t268 106q82 0 147 -20t152 -62l-55 -115q-8 3 -41 18t-41.5 18t-35.5 13t-43.5 12.5t-42.5 5.5t-54 3q-92 0 -164 -61.5t-72 -153.5q0 -50 26 -95.5t79 -74.5q33 -19 88.5 -42t100 -40t95.5 -48t85.5 -66 t57.5 -93t23 -131q0 -122 -61 -232.5t-168 -191.5q88 -91 88 -217q0 -145 -113 -251t-268 -106q-162 0 -297 74l53 115q57 -25 83.5 -35t72.5 -18.5t102 -8.5q96 0 166 61t70 154q0 50 -26 95.5t-79 74.5q-33 19 -88.5 42t-100 40t-95.5 48t-85.5 66t-57.5 93t-23 131z M373 584q0 -51 17 -92t42 -66.5t66.5 -49.5t76.5 -37.5t87.5 -34t85.5 -36.5q86 52 142 146t56 194q0 51 -17 92t-42 66.5t-66.5 49.5t-76.5 37.5t-87.5 34t-85.5 36.5q-86 -52 -142 -146t-56 -194z" />
<glyph unicode="&#xa9;" horiz-adv-x="1636" d="M176 692q0 136 46 261t133.5 226.5t229 162.5t316.5 61q141 0 260.5 -40t203.5 -108.5t143 -159.5t87.5 -193t28.5 -210t-28.5 -211t-88 -195t-143.5 -161t-203.5 -109.5t-259.5 -40.5t-259.5 40.5t-204 109.5t-144.5 161t-88.5 195t-28.5 211zM305 692q0 -91 23.5 -178 t73 -163.5t119 -134t167.5 -91t213 -33.5t213 33.5t167.5 91t119 134t73 163.5t23.5 178q0 90 -23.5 175t-72.5 161t-118.5 133t-167.5 90t-214 33t-214.5 -33.5t-168 -90t-118.5 -132.5t-72 -161t-23 -175zM449 672q0 95 31.5 185t88 161.5t144.5 115.5t192 44 q97 0 238 -54l-37 -118q-42 17 -66.5 25t-63.5 15t-83 7q-90 0 -163 -55.5t-110.5 -141.5t-37.5 -182q0 -156 92.5 -254t243.5 -98q83 0 188 55l35 -109h4q-127 -67 -238 -67q-208 0 -333 133t-125 338z" />
<glyph unicode="&#xaa;" horiz-adv-x="722" d="M156 1059q0 218 121 352.5t290 134.5q102 0 181 -43l-62 -502q-8 -70 -8 -77q0 -21 10 -21q32 0 111 58l41 -62q-36 -35 -87.5 -63.5t-93.5 -28.5q-50 0 -71 28t-23 85q0 18 2 30q-112 -143 -235 -143q-83 0 -129.5 72t-46.5 180zM268 1073q0 -71 23.5 -118.5t62.5 -47.5 q46 0 107 46t123 134q11 75 23.5 153.5t19 121t10.5 76.5q-44 12 -88 12q-127 0 -204 -110.5t-77 -266.5z" />
<glyph unicode="&#xab;" horiz-adv-x="1073" d="M186 543l439 442l86 -82l-342 -368l249 -369l-102 -66zM582 543l438 442l86 -82l-342 -368l250 -369l-103 -66z" />
<glyph unicode="&#xac;" horiz-adv-x="1290" d="M219 473l14 123h965l-57 -467h-127l43 344h-838z" />
<glyph unicode="&#xad;" d="M61 465l17 133h440l-16 -133h-441z" />
<glyph unicode="&#xae;" horiz-adv-x="1636" d="M176 692q0 136 46 261t133.5 226.5t229 162.5t316.5 61q141 0 260.5 -40t203.5 -108.5t143 -159.5t87.5 -193t28.5 -210t-28.5 -211t-88 -195t-143.5 -161t-203.5 -109.5t-259.5 -40.5t-259.5 40.5t-204 109.5t-144.5 161t-88.5 195t-28.5 211zM305 692q0 -91 23.5 -178 t73 -163.5t119 -134t167.5 -91t213 -33.5t213 33.5t167.5 91t119 134t73 163.5t23.5 178q0 90 -23.5 175t-72.5 161t-118.5 133t-167.5 90t-214 33t-214.5 -33.5t-168 -90t-118.5 -132.5t-72 -161t-23 -175zM666 221v946h229q145 0 222 -68t77 -188q0 -100 -62.5 -179 t-160.5 -99q136 -220 266 -393l-131 -27q-115 152 -264 401l-51 4v-397h-125zM791 715h90q77 0 128.5 52t51.5 138q0 73 -43 115.5t-113 42.5h-114v-348z" />
<glyph unicode="&#xb0;" horiz-adv-x="935" d="M309 1112q0 129 83 203t194 74t195.5 -74t84.5 -203q0 -130 -84 -203t-196 -73q-111 0 -194 73.5t-83 202.5zM432 1112q0 -75 45 -115.5t109 -40.5t109.5 41t45.5 115t-45.5 116t-109.5 42q-63 0 -108.5 -42t-45.5 -116z" />
<glyph unicode="&#xb1;" horiz-adv-x="1290" d="M139 8l15 119h1007l-14 -119h-1008zM225 707l15 114h446l55 463h115l-55 -463h446l-14 -114h-447l-57 -463h-115l58 463h-447z" />
<glyph unicode="&#xb2;" horiz-adv-x="856" d="M180 612l8 86q117 86 273 228q48 44 82.5 80t76.5 89t64.5 108.5t22.5 109.5q0 61 -37.5 101t-100.5 40q-97 0 -227 -90l-57 90q158 107 303 107q109 0 175 -69t66 -179q0 -67 -29.5 -138t-71 -128.5t-107 -122.5t-115.5 -107t-119 -96h410l-13 -109h-604z" />
<glyph unicode="&#xb3;" horiz-adv-x="757" d="M203 686l59 86q103 -67 189 -67q92 0 155.5 55t63.5 139q0 61 -44.5 102t-109.5 41h-151l4 107h149q78 0 129 51.5t51 124.5q0 63 -39.5 99t-99.5 36q-96 0 -201 -63l-49 90q55 37 126.5 57.5t127.5 20.5q111 0 184.5 -64.5t77.5 -169.5q0 -77 -44.5 -139t-116.5 -94 q57 -21 95 -78.5t38 -130.5q0 -87 -51.5 -154.5t-129 -101t-163.5 -33.5q-137 0 -250 86z" />
<glyph unicode="&#xb5;" horiz-adv-x="1081" d="M80 -350q92 554 117 753l71 594h144l-72 -591q-4 -40 -4 -62q0 -110 56.5 -175t168.5 -65q125 0 198 83t89 219l72 591h143l-90 -739q-12 -81 -12 -108q0 -28 18.5 -43t46.5 -15q21 0 70 17l18 -86q-27 -17 -69 -28t-76 -11q-67 0 -108.5 39t-41.5 129 q-68 -92 -135.5 -134.5t-155.5 -42.5q-93 0 -156 41t-106 134l-43 -500h-143z" />
<glyph unicode="&#xb6;" horiz-adv-x="1173" d="M147 920q0 136 74.5 243.5t197 165t267.5 57.5h606l-14 -112h-152l-200 -1624h-131l200 1624h-192l-201 -1624h-131l107 866q-107 0 -192 34.5t-135.5 92.5t-77 128.5t-26.5 148.5z" />
<glyph unicode="&#xb7;" horiz-adv-x="528" d="M225 690q0 43 30 74t71 31t70.5 -31t29.5 -74t-29.5 -72.5t-70.5 -29.5q-42 0 -71.5 30t-29.5 72z" />
<glyph unicode="&#xb9;" horiz-adv-x="565" d="M197 612l12 109h192l91 704q-32 -5 -197 -22l22 108q278 41 324 48l-109 -838h179l-13 -109h-501z" />
<glyph unicode="&#xba;" horiz-adv-x="878" d="M266 1112q0 108 47.5 207.5t134 164t189.5 64.5q119 0 183.5 -84t64.5 -221q0 -108 -47.5 -207.5t-133.5 -164t-188 -64.5q-120 0 -185 84.5t-65 220.5zM385 1102q0 -100 42 -149.5t103 -49.5q98 0 167 100t69 250q0 101 -41 150t-102 49q-98 0 -168 -100t-70 -250z" />
<glyph unicode="&#xbb;" horiz-adv-x="1073" d="M98 180l342 369l-250 369l101 67l332 -442l-441 -443zM494 180l342 369l-250 369l100 67l332 -442l-440 -443z" />
<glyph unicode="&#xbc;" horiz-adv-x="1734" d="M180 612l13 109h192l90 704q-34 -5 -196 -22l22 108q278 41 324 48l-109 -838h178l-12 -109h-502zM397 0l977 1544h133l-979 -1544h-131zM983 236l12 75l488 619h133l-74 -590h154l-15 -104h-151l-29 -236h-123l25 236h-420zM1145 340h274l47 405z" />
<glyph unicode="&#xbd;" horiz-adv-x="1734" d="M172 612l12 109h193l90 704q-90 -12 -197 -22l23 108q266 39 323 48l-108 -838h178l-12 -109h-502zM389 0l977 1544h133l-979 -1544h-131zM1077 0l8 86q122 90 273 227q48 44 82.5 80t76.5 89t64.5 108.5t22.5 109.5q0 62 -37.5 102t-100.5 40q-97 0 -227 -90l-57 90 q156 106 303 106q109 0 175 -69t66 -179q0 -67 -29.5 -138t-71 -128t-107 -122.5t-115.5 -107t-119 -95.5h410l-13 -109h-604z" />
<glyph unicode="&#xbe;" horiz-adv-x="1734" d="M203 686l59 86q103 -67 189 -67q92 0 155.5 55t63.5 139q0 61 -44.5 102t-109.5 41h-151l4 107h149q78 0 129 51.5t51 124.5q0 63 -39.5 99t-99.5 36q-96 0 -201 -63l-49 90q55 37 126.5 57.5t127.5 20.5q111 0 184.5 -64.5t77.5 -169.5q0 -77 -44.5 -139t-116.5 -94 q57 -21 95 -78.5t38 -130.5q0 -87 -51.5 -154.5t-129 -101t-163.5 -33.5q-137 0 -250 86zM473 0l977 1544h133l-979 -1544h-131zM1059 236l12 75l488 619h133l-74 -590h154l-15 -104h-151l-29 -236h-127l29 236h-420zM1221 340h270l53 414z" />
<glyph unicode="&#xbf;" horiz-adv-x="894" d="M74 -68q0 40 10 79t33 77t45 68.5t60 69t63.5 62.5t71 65t67.5 61q64 61 90.5 113t36.5 143l129 -11q-1 -106 -42 -185.5t-128 -158.5q-18 -16 -57 -49t-63.5 -54.5t-58 -57t-53 -66t-33.5 -70.5t-14 -81q0 -86 60 -131.5t145 -45.5q86 0 154 22t162 71l53 -119 q-165 -111 -373 -111q-69 0 -130 16t-113.5 50.5t-83.5 96.5t-31 146zM532 924q0 42 30.5 72t72.5 30q41 0 70.5 -29.5t29.5 -72.5q0 -44 -29.5 -74.5t-70.5 -30.5q-42 0 -72.5 30.5t-30.5 74.5z" />
<glyph unicode="&#xc0;" horiz-adv-x="1239" d="M-35 0q548 1109 649 1292l-18 97l145 16l369 -1405l-160 -10l-108 424h-527q-149 -323 -190 -424zM375 539h436q-107 452 -145 596q-26 -45 -68 -131t-116.5 -242t-106.5 -223zM434 1821h178l105 -318h-123z" />
<glyph unicode="&#xc1;" horiz-adv-x="1239" d="M-35 0q548 1109 649 1292l-18 97l145 16l369 -1405l-160 -10l-108 424h-527q-149 -323 -190 -424zM375 539h436q-107 452 -145 596q-26 -45 -68 -131t-116.5 -242t-106.5 -223zM666 1503l182 318h178l-238 -318h-122z" />
<glyph unicode="&#xc2;" horiz-adv-x="1239" d="M-35 0q548 1109 649 1292l-18 97l145 16l369 -1405l-160 -10l-108 424h-527q-149 -323 -190 -424zM375 539h436q-107 452 -145 596q-26 -45 -68 -131t-116.5 -242t-106.5 -223zM471 1503l221 318h150l143 -318h-113l-118 207l-168 -207h-115z" />
<glyph unicode="&#xc3;" horiz-adv-x="1239" d="M-35 0q548 1109 649 1292l-18 97l145 16l369 -1405l-160 -10l-108 424h-527q-149 -323 -190 -424zM375 539h436q-107 452 -145 596q-26 -45 -68 -131t-116.5 -242t-106.5 -223zM440 1530q7 88 60 158.5t143 70.5q45 0 85 -17t63 -37t50 -37t50 -17q24 0 39.5 20.5 t21 43.5t6.5 48h111q-12 -103 -61 -168t-140 -65q-41 0 -77 17t-56.5 37t-48 37t-55.5 17q-13 0 -23.5 -3t-18.5 -11t-13 -13.5t-10 -19t-6.5 -19t-5.5 -22.5t-5 -20h-109z" />
<glyph unicode="&#xc4;" horiz-adv-x="1239" d="M-35 0q548 1109 649 1292l-18 97l145 16l369 -1405l-160 -10l-108 424h-527q-149 -323 -190 -424zM375 539h436q-107 452 -145 596q-26 -45 -68 -131t-116.5 -242t-106.5 -223zM451 1642q0 37 25.5 63t62.5 26q35 0 60.5 -26t25.5 -63t-25.5 -64.5t-60.5 -27.5 q-36 0 -62 27.5t-26 64.5zM827 1642q0 37 25.5 63t60.5 26t60.5 -26t25.5 -63t-25.5 -64.5t-60.5 -27.5t-60.5 27.5t-25.5 64.5z" />
<glyph unicode="&#xc5;" horiz-adv-x="1239" d="M-35 0q548 1109 649 1292l-18 97l145 16l369 -1405l-160 -10l-108 424h-527q-149 -323 -190 -424zM375 539h436q-107 452 -145 596q-26 -45 -68 -131t-116.5 -242t-106.5 -223zM526 1642q0 90 61.5 140.5t141.5 50.5t137.5 -50t57.5 -141q-3 -90 -64 -140t-141 -50 q-79 0 -136 49t-57 141zM625 1638q0 -48 28 -74t68 -26t70.5 27.5t31.5 76.5q0 50 -28 77.5t-68 27.5q-41 0 -71.5 -28.5t-30.5 -80.5z" />
<glyph unicode="&#xc6;" horiz-adv-x="1646" d="M6 0l965 1348l10 38h739l-18 -133h-512l-60 -493h404l-18 -133h-404l-59 -494h544l-14 -133h-700l51 434h-449l-309 -446zM567 553h381l82 666z" />
<glyph unicode="&#xc7;" horiz-adv-x="1093" d="M141 592q0 117 28.5 233.5t86.5 222t138.5 187t192 130t238.5 48.5q203 0 332 -82l-49 -121q-139 68 -281 68q-86 0 -161 -28t-132 -77t-102 -114.5t-73 -142t-43 -159t-15 -165.5q0 -222 96.5 -351.5t272.5 -129.5q84 0 148.5 17t146.5 52l45 -108q-175 -87 -328 -95 l-23 -43q75 -14 115.5 -47t40.5 -102q0 -77 -66.5 -118.5t-162.5 -41.5q-127 0 -203 43l53 92q73 -39 162 -39q40 0 65 17t25 43q0 18 -9.5 32t-22 22t-34 14t-38 8.5t-41 6t-35.5 5.5l61 113q-206 30 -317 196.5t-111 413.5z" />
<glyph unicode="&#xc8;" horiz-adv-x="937" d="M123 0l170 1386h665l-18 -133h-510l-59 -493h434l-19 -133h-434l-59 -494h559l-14 -133h-715zM475 1821h178l105 -318h-123z" />
<glyph unicode="&#xc9;" horiz-adv-x="937" d="M123 0l170 1386h665l-18 -133h-510l-59 -493h434l-19 -133h-434l-59 -494h559l-14 -133h-715zM600 1503l182 318h179l-238 -318h-123z" />
<glyph unicode="&#xca;" horiz-adv-x="937" d="M123 0l170 1386h665l-18 -133h-510l-59 -493h434l-19 -133h-434l-59 -494h559l-14 -133h-715zM395 1503l221 318h150l143 -318h-112l-119 207l-168 -207h-115z" />
<glyph unicode="&#xcb;" horiz-adv-x="937" d="M123 0l170 1386h665l-18 -133h-510l-59 -493h434l-19 -133h-434l-59 -494h559l-14 -133h-715zM381 1642q0 37 25.5 63t62.5 26q35 0 60.5 -26t25.5 -63t-25.5 -64.5t-60.5 -27.5q-36 0 -62 27.5t-26 64.5zM758 1642q0 37 25.5 63t60.5 26t60.5 -26t25.5 -63t-25.5 -64.5 t-60.5 -27.5t-60.5 27.5t-25.5 64.5z" />
<glyph unicode="&#xcc;" horiz-adv-x="442" d="M121 -4l172 1390h156l-173 -1390h-155zM174 1821h178l105 -318h-123z" />
<glyph unicode="&#xcd;" horiz-adv-x="442" d="M121 -4l172 1390h156l-173 -1390h-155zM319 1503l183 318h178l-238 -318h-123z" />
<glyph unicode="&#xce;" horiz-adv-x="442" d="M121 -4l172 1390h156l-173 -1390h-155zM147 1503l222 318h149l144 -318h-113l-119 207l-168 -207h-115z" />
<glyph unicode="&#xcf;" horiz-adv-x="442" d="M121 -4l172 1390h156l-173 -1390h-155zM127 1649q0 37 25.5 62.5t62.5 25.5q35 0 60.5 -25.5t25.5 -62.5t-25.5 -65t-60.5 -28q-36 0 -62 28t-26 65zM504 1649q0 37 25.5 62.5t60.5 25.5t60.5 -25.5t25.5 -62.5t-25.5 -65t-60.5 -28t-60.5 28t-25.5 65z" />
<glyph unicode="&#xd0;" horiz-adv-x="1241" d="M51 643l15 123h147l78 620h309q277 0 439.5 -154.5t162.5 -430.5q0 -114 -27.5 -226t-87 -216.5t-144.5 -183.5t-209 -127t-271 -48h-340l76 643h-148zM291 133h196q104 0 194.5 37.5t155 102.5t110.5 150.5t68.5 181.5t22.5 196q0 213 -119 332.5t-344 119.5h-147 l-59 -487h204l-14 -123h-205z" />
<glyph unicode="&#xd1;" horiz-adv-x="1290" d="M129 -4l162 1249l-58 119l152 35l631 -1112l135 1099h145l-170 -1380l-116 -16q-68 130 -184.5 337.5t-259 456.5t-160.5 281l-132 -1069h-145zM502 1524q7 88 60 158.5t143 70.5q45 0 84.5 -17t62.5 -37t50 -37t50 -17q34 0 50 35.5t18 76.5h110q-12 -103 -60.5 -168 t-139.5 -65q-41 0 -77 17t-57 37t-48.5 37t-55.5 17q-13 0 -23.5 -3t-18.5 -11t-13 -13.5t-10 -19t-6.5 -19t-5.5 -22.5t-5 -20h-108z" />
<glyph unicode="&#xd2;" horiz-adv-x="1427" d="M141 592q0 96 22 194.5t63 189.5t103 171t137.5 139t172 93t201.5 34q174 0 301.5 -81t191.5 -218t64 -313q0 -116 -30.5 -233.5t-91.5 -223.5t-144 -188.5t-196 -131.5t-239 -49q-175 0 -302.5 82.5t-190 220.5t-62.5 314zM301 592q0 -218 100 -349.5t289 -131.5 q102 0 191 39t153 106t110.5 155t69.5 186.5t23 199.5q0 88 -22.5 170t-67 153.5t-122 114.5t-177.5 43q-127 0 -233 -60.5t-173 -159t-104 -219.5t-37 -247zM664 1821h178l104 -318h-123z" />
<glyph unicode="&#xd3;" horiz-adv-x="1427" d="M141 592q0 96 22 194.5t63 189.5t103 171t137.5 139t172 93t201.5 34q174 0 301.5 -81t191.5 -218t64 -313q0 -116 -30.5 -233.5t-91.5 -223.5t-144 -188.5t-196 -131.5t-239 -49q-175 0 -302.5 82.5t-190 220.5t-62.5 314zM301 592q0 -218 100 -349.5t289 -131.5 q102 0 191 39t153 106t110.5 155t69.5 186.5t23 199.5q0 88 -22.5 170t-67 153.5t-122 114.5t-177.5 43q-127 0 -233 -60.5t-173 -159t-104 -219.5t-37 -247zM799 1503l182 318h178l-237 -318h-123z" />
<glyph unicode="&#xd4;" horiz-adv-x="1427" d="M141 592q0 96 22 194.5t63 189.5t103 171t137.5 139t172 93t201.5 34q174 0 301.5 -81t191.5 -218t64 -313q0 -116 -30.5 -233.5t-91.5 -223.5t-144 -188.5t-196 -131.5t-239 -49q-175 0 -302.5 82.5t-190 220.5t-62.5 314zM301 592q0 -218 100 -349.5t289 -131.5 q102 0 191 39t153 106t110.5 155t69.5 186.5t23 199.5q0 88 -22.5 170t-67 153.5t-122 114.5t-177.5 43q-127 0 -233 -60.5t-173 -159t-104 -219.5t-37 -247zM602 1503l221 318h150l143 -318h-112l-119 207l-168 -207h-115z" />
<glyph unicode="&#xd5;" horiz-adv-x="1427" d="M141 592q0 96 22 194.5t63 189.5t103 171t137.5 139t172 93t201.5 34q174 0 301.5 -81t191.5 -218t64 -313q0 -116 -30.5 -233.5t-91.5 -223.5t-144 -188.5t-196 -131.5t-239 -49q-175 0 -302.5 82.5t-190 220.5t-62.5 314zM301 592q0 -218 100 -349.5t289 -131.5 q102 0 191 39t153 106t110.5 155t69.5 186.5t23 199.5q0 88 -22.5 170t-67 153.5t-122 114.5t-177.5 43q-127 0 -233 -60.5t-173 -159t-104 -219.5t-37 -247zM571 1528q7 88 60 158.5t143 70.5q45 0 85 -17t63 -37t50 -37t50 -17q34 0 50 35.5t18 76.5h110 q-12 -103 -61 -168t-140 -65q-41 0 -77 17t-56.5 37t-48 37t-55.5 17q-13 0 -23.5 -3t-18.5 -11t-13 -13.5t-10 -19t-6.5 -19t-5.5 -22.5t-5 -20h-109z" />
<glyph unicode="&#xd6;" horiz-adv-x="1427" d="M141 592q0 96 22 194.5t63 189.5t103 171t137.5 139t172 93t201.5 34q174 0 301.5 -81t191.5 -218t64 -313q0 -116 -30.5 -233.5t-91.5 -223.5t-144 -188.5t-196 -131.5t-239 -49q-175 0 -302.5 82.5t-190 220.5t-62.5 314zM301 592q0 -218 100 -349.5t289 -131.5 q102 0 191 39t153 106t110.5 155t69.5 186.5t23 199.5q0 88 -22.5 170t-67 153.5t-122 114.5t-177.5 43q-127 0 -233 -60.5t-173 -159t-104 -219.5t-37 -247zM600 1649q0 37 25.5 62.5t62.5 25.5q35 0 60.5 -25.5t25.5 -62.5t-25.5 -65t-60.5 -28q-36 0 -62 28t-26 65z M977 1649q0 37 25.5 62.5t60.5 25.5t60.5 -25.5t25.5 -62.5t-25.5 -65t-60.5 -28t-60.5 28t-25.5 65z" />
<glyph unicode="&#xd7;" horiz-adv-x="1290" d="M197 154l428 387l-334 379l86 81l332 -385l426 385l77 -81l-428 -388l334 -378l-86 -82l-332 385l-426 -385z" />
<glyph unicode="&#xd8;" horiz-adv-x="1386" d="M137 8l131 162q-127 165 -127 422q0 96 22 194.5t63 189.5t103 171t137.5 139t172 93t201.5 34q201 0 346 -113l117 146l96 -66l-131 -163q129 -163 129 -416q0 -116 -30.5 -233.5t-91.5 -223.5t-144 -188.5t-196 -131.5t-239 -49q-204 0 -344 111l-123 -154zM301 592 q9 -176 70 -295l721 889q-99 92 -244 92q-127 0 -233 -60.5t-173 -159t-104 -219.5t-37 -247zM444 199q98 -88 246 -88q102 0 191 39t153 106t110.5 155t69.5 186.5t23 199.5q0 167 -72 293z" />
<glyph unicode="&#xd9;" horiz-adv-x="1222" d="M178 406q0 44 6 94l109 886h156l-113 -911q-4 -37 -4 -65q0 -133 70 -216t206 -83q309 0 353 358l112 917h156l-119 -927q-62 -484 -508 -484q-203 0 -313.5 115t-110.5 316zM557 1821h178l105 -318h-123z" />
<glyph unicode="&#xda;" horiz-adv-x="1222" d="M178 406q0 44 6 94l109 886h156l-113 -911q-4 -37 -4 -65q0 -133 70 -216t206 -83q309 0 353 358l112 917h156l-119 -927q-62 -484 -508 -484q-203 0 -313.5 115t-110.5 316zM715 1503l182 318h178l-237 -318h-123z" />
<glyph unicode="&#xdb;" horiz-adv-x="1222" d="M178 406q0 44 6 94l109 886h156l-113 -911q-4 -37 -4 -65q0 -133 70 -216t206 -83q309 0 353 358l112 917h156l-119 -927q-62 -484 -508 -484q-203 0 -313.5 115t-110.5 316zM516 1503l221 318h150l143 -318h-112l-119 207l-168 -207h-115z" />
<glyph unicode="&#xdc;" horiz-adv-x="1181" d="M178 406q0 44 6 94l109 886h156l-113 -911q-4 -37 -4 -65q0 -133 70 -217t206 -84q309 0 353 360l112 917h156l-119 -927q-62 -486 -508 -486q-203 0 -313.5 116t-110.5 317zM514 1642q0 37 25.5 63t62.5 26q35 0 60.5 -26t25.5 -63t-25.5 -64.5t-60.5 -27.5 q-36 0 -62 27.5t-26 64.5zM891 1642q0 37 25.5 63t60.5 26t60.5 -26t25.5 -63t-25.5 -64.5t-60.5 -27.5t-60.5 27.5t-25.5 64.5z" />
<glyph unicode="&#xdd;" horiz-adv-x="1054" d="M154 1380l165 15q84 -210 283 -629q170 234 424 627l172 -13l-534 -753l-78 -631h-158l78 631q-285 597 -352 753zM639 1501l182 318h178l-237 -318h-123z" />
<glyph unicode="&#xde;" horiz-adv-x="1062" d="M123 0l168 1386h155l-32 -266h211q182 0 299.5 -111t117.5 -284q0 -186 -138.5 -314t-356.5 -128h-238l-30 -283h-156zM326 414h235q137 0 225 87t88 224q0 121 -71 192.5t-189 71.5h-217z" />
<glyph unicode="&#xdf;" horiz-adv-x="1044" d="M-111 -367l17 127q17 -2 31 -2q69 0 117 61t61 169l149 1220q11 88 53.5 157.5t102.5 110.5t127 62t135 21q156 0 240 -90.5t84 -225.5q0 -73 -31 -135.5t-75 -104.5t-87.5 -78t-74.5 -71.5t-31 -69.5q0 -35 35 -71.5t85 -71t100 -74t85 -96.5t35 -123 q0 -171 -113.5 -267.5t-302.5 -96.5q-137 0 -262 73l57 113q118 -64 205 -64q126 0 198 65t72 175q0 41 -25 78.5t-62 64.5t-81 58.5t-81 61.5t-62 74t-25 95q0 43 21.5 82.5t54.5 68.5t70.5 63t70.5 66t54.5 78.5t21.5 98.5q0 94 -53.5 143t-134.5 49q-102 0 -178 -65.5 t-89 -177.5l-149 -1198q-22 -180 -107 -268.5t-198 -88.5q-28 0 -60 4z" />
<glyph unicode="&#xe0;" horiz-adv-x="1021" d="M113 330q0 155 47.5 287t128 219.5t185.5 136.5t220 49q133 0 248 -59l-98 -783v-6q-1 -7 -1.5 -16.5t-0.5 -18.5q0 -43 24 -43q49 0 156 82l49 -76q-53 -49 -121.5 -88t-126.5 -39q-109 0 -112 152q0 18 2.5 51.5t3.5 44.5q-74 -108 -168.5 -177t-196.5 -69 q-111 0 -175 101t-64 252zM252 350q0 -107 37 -177.5t100 -70.5q66 0 154 67.5t184 197.5l76 514q-74 22 -135 22q-76 0 -142.5 -29.5t-116 -81t-85.5 -121t-54 -151.5t-18 -170zM453 1452h178l104 -317h-123z" />
<glyph unicode="&#xe1;" horiz-adv-x="1021" d="M113 330q0 155 47.5 287t128 219.5t185.5 136.5t220 49q133 0 248 -59l-98 -783v-6q-1 -7 -1.5 -16.5t-0.5 -18.5q0 -43 24 -43q49 0 156 82l49 -76q-53 -49 -121.5 -88t-126.5 -39q-109 0 -112 152q0 18 2.5 51.5t3.5 44.5q-74 -108 -168.5 -177t-196.5 -69 q-111 0 -175 101t-64 252zM252 350q0 -107 37 -177.5t100 -70.5q66 0 154 67.5t184 197.5l76 514q-74 22 -135 22q-76 0 -142.5 -29.5t-116 -81t-85.5 -121t-54 -151.5t-18 -170zM578 1135l182 317h178l-238 -317h-122z" />
<glyph unicode="&#xe2;" horiz-adv-x="1021" d="M113 330q0 155 47.5 287t128 219.5t185.5 136.5t220 49q133 0 248 -59l-98 -783v-6q-1 -7 -1.5 -16.5t-0.5 -18.5q0 -43 24 -43q49 0 156 82l49 -76q-53 -49 -121.5 -88t-126.5 -39q-109 0 -112 152q0 18 2.5 51.5t3.5 44.5q-74 -108 -168.5 -177t-196.5 -69 q-111 0 -175 101t-64 252zM252 350q0 -107 37 -177.5t100 -70.5q66 0 154 67.5t184 197.5l76 514q-74 22 -135 22q-76 0 -142.5 -29.5t-116 -81t-85.5 -121t-54 -151.5t-18 -170zM389 1137l221 317h150l143 -317h-112l-119 206l-168 -206h-115z" />
<glyph unicode="&#xe3;" horiz-adv-x="1021" d="M113 330q0 155 47.5 287t128 219.5t185.5 136.5t220 49q133 0 248 -59l-98 -783v-6q-1 -7 -1.5 -16.5t-0.5 -18.5q0 -43 24 -43q49 0 156 82l49 -76q-53 -49 -121.5 -88t-126.5 -39q-109 0 -112 152q0 18 2.5 51.5t3.5 44.5q-74 -108 -168.5 -177t-196.5 -69 q-111 0 -175 101t-64 252zM252 350q0 -107 37 -177.5t100 -70.5q66 0 154 67.5t184 197.5l76 514q-74 22 -135 22q-76 0 -142.5 -29.5t-116 -81t-85.5 -121t-54 -151.5t-18 -170zM346 1165q7 88 60 159t143 71q45 0 85 -17t63 -37.5t50 -37.5t50 -17q24 0 39.5 21t21 44 t6.5 48h111q-12 -103 -61 -168.5t-140 -65.5q-41 0 -77 17t-56.5 37.5t-48 37.5t-55.5 17q-13 0 -23.5 -3t-18.5 -11t-13 -13.5t-9.5 -19.5t-6.5 -19.5t-6 -22t-5 -20.5h-109z" />
<glyph unicode="&#xe4;" horiz-adv-x="1021" d="M113 330q0 155 47.5 287t128 219.5t185.5 136.5t220 49q133 0 248 -59l-98 -783v-6q-1 -7 -1.5 -16.5t-0.5 -18.5q0 -43 24 -43q49 0 156 82l49 -76q-53 -49 -121.5 -88t-126.5 -39q-109 0 -112 152q0 18 2.5 51.5t3.5 44.5q-74 -108 -168.5 -177t-196.5 -69 q-111 0 -175 101t-64 252zM252 350q0 -107 37 -177.5t100 -70.5q66 0 154 67.5t184 197.5l76 514q-74 22 -135 22q-76 0 -142.5 -29.5t-116 -81t-85.5 -121t-54 -151.5t-18 -170zM397 1294q0 37 25.5 62.5t62.5 25.5q35 0 60.5 -25.5t25.5 -62.5t-25.5 -64.5t-60.5 -27.5 q-36 0 -62 27.5t-26 64.5zM774 1294q0 37 25.5 62.5t60.5 25.5t60.5 -25.5t25.5 -62.5t-25.5 -64.5t-60.5 -27.5t-60.5 27.5t-25.5 64.5z" />
<glyph unicode="&#xe5;" horiz-adv-x="1021" d="M113 330q0 155 47.5 287t128 219.5t185.5 136.5t220 49q133 0 248 -59l-98 -783v-6q-1 -7 -1.5 -16.5t-0.5 -18.5q0 -43 24 -43q49 0 156 82l49 -76q-53 -49 -121.5 -88t-126.5 -39q-109 0 -112 152q0 18 2.5 51.5t3.5 44.5q-74 -108 -168.5 -177t-196.5 -69 q-111 0 -175 101t-64 252zM252 350q0 -107 37 -177.5t100 -70.5q66 0 154 67.5t184 197.5l76 514q-74 22 -135 22q-76 0 -142.5 -29.5t-116 -81t-85.5 -121t-54 -151.5t-18 -170zM449 1278q0 90 61 140t141 50t137.5 -49.5t57.5 -140.5q-3 -90 -64 -140.5t-141 -50.5 q-79 0 -135.5 49.5t-56.5 141.5zM547 1274q0 -48 28 -74t68 -26t70.5 27.5t31.5 76.5q0 50 -28 77t-68 27q-41 0 -71.5 -28t-30.5 -80z" />
<glyph unicode="&#xe6;" horiz-adv-x="1388" d="M113 330q0 153 47 284t128 220.5t191 139.5t234 50q155 0 256 -45q88 45 188 45q108 0 176 -62t68 -178q0 -310 -619 -395q0 -131 56.5 -210t142.5 -79q61 0 140 39t145 99l53 -84q-76 -79 -174 -128t-182 -49q-115 0 -191 64t-110 172q-156 -236 -324 -236 q-110 0 -167.5 99.5t-57.5 253.5zM252 350q0 -111 31 -180.5t92 -69.5q55 0 128 74t136 178v31q0 146 54.5 280.5t150.5 227.5q-70 18 -135 18q-107 0 -195 -46t-144.5 -124t-87 -178t-30.5 -211zM782 494q235 24 356.5 101t121.5 177q0 67 -34 102t-91 35q-50 0 -105.5 -28 t-106.5 -78.5t-89.5 -131.5t-51.5 -177z" />
<glyph unicode="&#xe7;" horiz-adv-x="768" d="M117 403q0 92 22.5 182t68 169t107.5 139.5t147 95.5t181 35q115 0 221 -61l-47 -113q-92 47 -182 47q-116 0 -204 -71t-130.5 -178.5t-42.5 -229.5q0 -151 55.5 -234.5t149.5 -83.5q126 0 268 109l53 -84q-136 -124 -288 -145l-25 -46q75 -14 115.5 -47t40.5 -102 q0 -77 -67 -118.5t-163 -41.5q-126 0 -202 43l53 92q73 -39 162 -39q40 0 65 17t25 43q0 18 -9.5 32t-22.5 22t-34.5 14t-38 8.5t-41 6t-35.5 5.5l62 113q-123 26 -193.5 141.5t-70.5 279.5z" />
<glyph unicode="&#xe8;" horiz-adv-x="851" d="M111 395q0 133 44.5 251.5t117 200.5t165.5 129.5t189 47.5q112 0 178.5 -70.5t66.5 -169.5q0 -58 -23 -108t-59 -86t-90.5 -66.5t-106.5 -50t-119 -36t-115 -25.5t-107 -17q0 -143 65.5 -221t161.5 -78q131 0 264 121l54 -84q-73 -76 -161 -116t-175 -40 q-148 0 -249 110t-101 308zM252 500q42 4 85.5 11.5t101.5 21t107 35.5t92 50.5t68 70.5t25 91q0 54 -34.5 90.5t-92.5 36.5q-70 0 -132.5 -37.5t-106 -98t-73 -130.5t-40.5 -141zM424 1452h178l105 -317h-123z" />
<glyph unicode="&#xe9;" horiz-adv-x="851" d="M111 395q0 133 44.5 251.5t117 200.5t165.5 129.5t189 47.5q112 0 178.5 -70.5t66.5 -169.5q0 -58 -23 -108t-59 -86t-90.5 -66.5t-106.5 -50t-119 -36t-115 -25.5t-107 -17q0 -143 65.5 -221t161.5 -78q131 0 264 121l54 -84q-73 -76 -161 -116t-175 -40 q-148 0 -249 110t-101 308zM252 500q42 4 85.5 11.5t101.5 21t107 35.5t92 50.5t68 70.5t25 91q0 54 -34.5 90.5t-92.5 36.5q-70 0 -132.5 -37.5t-106 -98t-73 -130.5t-40.5 -141zM528 1135l183 317h178l-238 -317h-123z" />
<glyph unicode="&#xea;" horiz-adv-x="851" d="M111 395q0 133 44.5 251.5t117 200.5t165.5 129.5t189 47.5q112 0 178.5 -70.5t66.5 -169.5q0 -58 -23 -108t-59 -86t-90.5 -66.5t-106.5 -50t-119 -36t-115 -25.5t-107 -17q0 -143 65.5 -221t161.5 -78q131 0 264 121l54 -84q-73 -76 -161 -116t-175 -40 q-148 0 -249 110t-101 308zM252 500q42 4 85.5 11.5t101.5 21t107 35.5t92 50.5t68 70.5t25 91q0 54 -34.5 90.5t-92.5 36.5q-70 0 -132.5 -37.5t-106 -98t-73 -130.5t-40.5 -141zM360 1137l222 317h149l143 -317h-112l-119 206l-168 -206h-115z" />
<glyph unicode="&#xeb;" horiz-adv-x="851" d="M111 395q0 133 44.5 251.5t117 200.5t165.5 129.5t189 47.5q112 0 178.5 -70.5t66.5 -169.5q0 -58 -23 -108t-59 -86t-90.5 -66.5t-106.5 -50t-119 -36t-115 -25.5t-107 -17q0 -143 65.5 -221t161.5 -78q131 0 264 121l54 -84q-73 -76 -161 -116t-175 -40 q-148 0 -249 110t-101 308zM252 500q42 4 85.5 11.5t101.5 21t107 35.5t92 50.5t68 70.5t25 91q0 54 -34.5 90.5t-92.5 36.5q-70 0 -132.5 -37.5t-106 -98t-73 -130.5t-40.5 -141zM334 1294q0 37 25.5 62.5t62.5 25.5q35 0 60.5 -25.5t25.5 -62.5t-25.5 -64.5t-60.5 -27.5 q-36 0 -62 27.5t-26 64.5zM711 1294q0 37 25.5 62.5t60.5 25.5t60.5 -25.5t25.5 -62.5t-25.5 -64.5t-60.5 -27.5t-60.5 27.5t-25.5 64.5z" />
<glyph unicode="&#xec;" horiz-adv-x="456" d="M98 1452h178l105 -317h-123zM135 135l2 41l101 821h141l-105 -837q0 -2 -1 -10t-1 -15q0 -13 8 -26t19 -13q12 0 27.5 5.5t34.5 16.5t33.5 20t34 22.5t26.5 17.5l49 -76q-37 -35 -66.5 -58t-75.5 -46t-86 -23q-71 0 -105 43t-36 117z" />
<glyph unicode="&#xed;" horiz-adv-x="456" d="M135 135l2 41l101 821h141l-105 -837q0 -2 -1 -10t-1 -15q0 -13 8 -26t19 -13q12 0 27.5 5.5t34.5 16.5t33.5 20t34 22.5t26.5 17.5l49 -76q-37 -35 -66.5 -58t-75.5 -46t-86 -23q-71 0 -105 43t-36 117zM248 1135l182 317h178l-237 -317h-123z" />
<glyph unicode="&#xee;" horiz-adv-x="456" d="M59 1137l222 317h149l143 -317h-112l-119 206l-168 -206h-115zM135 135l2 41l101 821h141l-105 -837q0 -2 -1 -10t-1 -15q0 -13 8 -26t19 -13q12 0 27.5 5.5t34.5 16.5t33.5 20t34 22.5t26.5 17.5l49 -76q-37 -35 -66.5 -58t-75.5 -46t-86 -23q-71 0 -105 43t-36 117z " />
<glyph unicode="&#xef;" horiz-adv-x="456" d="M78 1294q0 37 25.5 62.5t62.5 25.5q35 0 60.5 -25.5t25.5 -62.5t-25.5 -64.5t-60.5 -27.5q-36 0 -62 27.5t-26 64.5zM135 135l2 41l101 821h141l-105 -837q0 -2 -1 -10t-1 -15q0 -13 8 -26t19 -13q12 0 27.5 5.5t34.5 16.5t33.5 20t34 22.5t26.5 17.5l49 -76 q-37 -35 -66.5 -58t-75.5 -46t-86 -23q-71 0 -105 43t-36 117zM455 1294q0 37 25.5 62.5t60.5 25.5t60.5 -25.5t25.5 -62.5t-25.5 -64.5t-60.5 -27.5t-60.5 27.5t-25.5 64.5z" />
<glyph unicode="&#xf0;" horiz-adv-x="1099" d="M141 442q0 100 36.5 200t101 181.5t162.5 132t210 50.5q92 0 158 -35.5t119 -118.5q-13 133 -60.5 236t-113.5 169l-226 -114l-57 94l184 92q-68 41 -134.5 58t-186.5 26l22 113q140 0 240 -34.5t190 -96.5l199 102l53 -98l-161 -80q97 -114 142.5 -274.5t45.5 -339.5 q0 -153 -35 -285.5t-100 -231.5t-165 -156t-222 -57q-100 0 -179.5 41t-126.5 109t-71.5 149t-24.5 168zM287 430q0 -65 15 -123t45 -106t81.5 -76.5t118.5 -28.5t127 28.5t103.5 76t76 109t48.5 128t16 131.5q0 64 -15.5 119.5t-46 101.5t-82.5 72.5t-119 26.5 q-83 0 -154 -41t-117 -107.5t-71.5 -147.5t-25.5 -163z" />
<glyph unicode="&#xf1;" horiz-adv-x="1019" d="M115 -4l123 1001h131l-23 -198q115 115 196.5 170t166.5 55q76 0 128 -44t73.5 -109t21.5 -144q0 -43 -8 -121l-56 -448q-2 -14 -2 -33q0 -12 8 -20.5t19 -8.5q39 0 156 82l49 -76q-57 -53 -130.5 -90t-125.5 -37q-59 0 -86 38.5t-27 86.5q0 26 4 76l53 459q5 34 5 76 q0 94 -32.5 142t-88.5 48q-129 0 -332 -239l-82 -666h-141zM326 1165q7 88 59.5 159t142.5 71q45 0 85 -17t63 -37.5t50 -37.5t50 -17q24 0 40 21t21.5 44t6.5 48h110q-12 -103 -60.5 -168.5t-139.5 -65.5q-41 0 -77 17t-57 37.5t-48.5 37.5t-55.5 17q-13 0 -23.5 -3 t-18.5 -11t-13 -13.5t-9.5 -19.5t-6.5 -19.5t-6 -22t-5 -20.5h-108z" />
<glyph unicode="&#xf2;" horiz-adv-x="974" d="M113 408q0 114 39.5 225t107 197.5t165 140t206.5 53.5q165 0 255.5 -119.5t90.5 -312.5q0 -153 -66 -294t-187 -232t-265 -91q-165 0 -255.5 120t-90.5 313zM260 391q0 -148 63 -222.5t154 -74.5q147 0 249.5 146.5t102.5 367.5q0 148 -63 222.5t-154 74.5 q-147 0 -249.5 -146.5t-102.5 -367.5zM432 1452h178l105 -317h-123z" />
<glyph unicode="&#xf3;" horiz-adv-x="974" d="M113 408q0 114 39.5 225t107 197.5t165 140t206.5 53.5q165 0 255.5 -119.5t90.5 -312.5q0 -153 -66 -294t-187 -232t-265 -91q-165 0 -255.5 120t-90.5 313zM260 391q0 -148 63 -222.5t154 -74.5q147 0 249.5 146.5t102.5 367.5q0 148 -63 222.5t-154 74.5 q-147 0 -249.5 -146.5t-102.5 -367.5zM578 1135l182 317h178l-238 -317h-122z" />
<glyph unicode="&#xf4;" horiz-adv-x="974" d="M113 408q0 114 39.5 225t107 197.5t165 140t206.5 53.5q165 0 255.5 -119.5t90.5 -312.5q0 -153 -66 -294t-187 -232t-265 -91q-165 0 -255.5 120t-90.5 313zM260 391q0 -148 63 -222.5t154 -74.5q147 0 249.5 146.5t102.5 367.5q0 148 -63 222.5t-154 74.5 q-147 0 -249.5 -146.5t-102.5 -367.5zM375 1137l221 317h149l144 -317h-113l-119 206l-168 -206h-114z" />
<glyph unicode="&#xf5;" horiz-adv-x="974" d="M113 408q0 114 39.5 225t107 197.5t165 140t206.5 53.5q165 0 255.5 -119.5t90.5 -312.5q0 -153 -66 -294t-187 -232t-265 -91q-165 0 -255.5 120t-90.5 313zM260 391q0 -148 63 -222.5t154 -74.5q147 0 249.5 146.5t102.5 367.5q0 148 -63 222.5t-154 74.5 q-147 0 -249.5 -146.5t-102.5 -367.5zM330 1165q7 88 59.5 159t142.5 71q45 0 85 -17t63 -37.5t50 -37.5t50 -17q24 0 40 21t21.5 44t6.5 48h110q-12 -103 -60.5 -168.5t-139.5 -65.5q-41 0 -77 17t-57 37.5t-48.5 37.5t-55.5 17q-13 0 -23.5 -3t-18.5 -11t-13 -13.5 t-9.5 -19.5t-6.5 -19.5t-6 -22t-5 -20.5h-108z" />
<glyph unicode="&#xf6;" horiz-adv-x="974" d="M113 408q0 114 39.5 225t107 197.5t165 140t206.5 53.5q165 0 255.5 -119.5t90.5 -312.5q0 -153 -66 -294t-187 -232t-265 -91q-165 0 -255.5 120t-90.5 313zM260 391q0 -148 63 -222.5t154 -74.5q147 0 249.5 146.5t102.5 367.5q0 148 -63 222.5t-154 74.5 q-147 0 -249.5 -146.5t-102.5 -367.5zM377 1294q0 37 25.5 62.5t62.5 25.5q35 0 60.5 -25.5t25.5 -62.5t-25.5 -64.5t-60.5 -27.5q-36 0 -62 27.5t-26 64.5zM754 1294q0 37 25.5 62.5t60.5 25.5t60.5 -25.5t25.5 -62.5t-25.5 -64.5t-60.5 -27.5t-60.5 27.5t-25.5 64.5z" />
<glyph unicode="&#xf7;" horiz-adv-x="1290" d="M199 473l14 119h1008l-15 -119h-1007zM565 150q0 41 29 70.5t70 29.5t70.5 -29.5t29.5 -70.5t-29.5 -70t-70.5 -29t-70 29t-29 70zM655 913q0 41 29 71t70 30t70.5 -30t29.5 -71t-29.5 -69.5t-70.5 -28.5t-70 28.5t-29 69.5z" />
<glyph unicode="&#xf8;" horiz-adv-x="974" d="M76 8l100 125q-63 108 -63 275q0 114 39.5 225t107 197.5t165 140t206.5 53.5q126 0 213 -74l82 101l84 -66l-99 -121q66 -114 66 -272q0 -153 -66 -294t-187 -232t-265 -91q-123 0 -211 72l-84 -104zM260 391q0 -73 19 -135l477 586q-60 63 -144 63 q-147 0 -249.5 -146.5t-102.5 -367.5zM336 154q57 -60 141 -60q147 0 249.5 146.5t102.5 367.5q0 78 -18 133z" />
<glyph unicode="&#xf9;" horiz-adv-x="1019" d="M135 266q0 43 8 121l76 610h139l-77 -639q-5 -34 -5 -75q0 -94 34.5 -142.5t95.5 -48.5q67 0 139 49t184 176l82 680h141l-102 -837q0 -1 -1 -12.5t-1 -18.5q0 -13 7 -25t22 -12q12 0 25.5 4.5t23.5 9t27.5 15.5t24.5 16.5t27 21t25 19.5l49 -76q-60 -55 -124 -91 t-115 -36q-67 0 -95 47t-28 156q-74 -93 -164 -148t-166 -55q-109 0 -180.5 75t-71.5 216zM420 1452h178l104 -317h-122z" />
<glyph unicode="&#xfa;" horiz-adv-x="1019" d="M135 266q0 43 8 121l76 610h139l-77 -639q-5 -34 -5 -75q0 -94 34.5 -142.5t95.5 -48.5q67 0 139 49t184 176l82 680h141l-102 -837q0 -1 -1 -12.5t-1 -18.5q0 -13 7 -25t22 -12q12 0 25.5 4.5t23.5 9t27.5 15.5t24.5 16.5t27 21t25 19.5l49 -76q-60 -55 -124 -91 t-115 -36q-67 0 -95 47t-28 156q-74 -93 -164 -148t-166 -55q-109 0 -180.5 75t-71.5 216zM516 1135l182 317h179l-238 -317h-123z" />
<glyph unicode="&#xfb;" horiz-adv-x="1019" d="M135 266q0 43 8 121l76 610h139l-77 -639q-5 -34 -5 -75q0 -94 34.5 -142.5t95.5 -48.5q67 0 139 49t184 176l82 680h141l-102 -837q0 -1 -1 -12.5t-1 -18.5q0 -13 7 -25t22 -12q12 0 25.5 4.5t23.5 9t27.5 15.5t24.5 16.5t27 21t25 19.5l49 -76q-60 -55 -124 -91 t-115 -36q-67 0 -95 47t-28 156q-74 -93 -164 -148t-166 -55q-109 0 -180.5 75t-71.5 216zM348 1137l221 317h150l143 -317h-112l-119 206l-168 -206h-115z" />
<glyph unicode="&#xfc;" horiz-adv-x="1019" d="M135 266q0 43 8 121l76 610h139l-77 -639q-5 -34 -5 -75q0 -94 34.5 -142.5t95.5 -48.5q67 0 139 49t184 176l82 680h141l-102 -837q0 -1 -1 -12.5t-1 -18.5q0 -13 7 -25t22 -12q12 0 25.5 4.5t23.5 9t27.5 15.5t24.5 16.5t27 21t25 19.5l49 -76q-60 -55 -124 -91 t-115 -36q-67 0 -95 47t-28 156q-74 -93 -164 -148t-166 -55q-109 0 -180.5 75t-71.5 216zM342 1294q0 37 25.5 62.5t62.5 25.5q35 0 60.5 -25.5t25.5 -62.5t-25.5 -64.5t-60.5 -27.5q-36 0 -62 27.5t-26 64.5zM719 1294q0 37 25.5 62.5t60.5 25.5t60.5 -25.5t25.5 -62.5 t-25.5 -64.5t-60.5 -27.5t-60.5 27.5t-25.5 64.5z" />
<glyph unicode="&#xfd;" horiz-adv-x="880" d="M31 -362l30 118q28 -4 54 -4q133 0 239 209l35 70l-260 956l150 27l204 -795q40 84 173.5 381t191.5 414l141 -27l-522 -1079q-70 -143 -161.5 -214t-190.5 -71q-54 0 -84 15zM514 1135l182 317h178l-237 -317h-123z" />
<glyph unicode="&#xfe;" horiz-adv-x="995" d="M90 -350l227 1904h142l-94 -778q90 117 185 183.5t171 66.5q50 0 96.5 -19.5t88 -60t66.5 -114.5t25 -173q0 -155 -50 -286.5t-130.5 -216t-179.5 -132t-201 -47.5q-80 0 -157 29l-46 -356h-143zM289 121q18 -9 63.5 -18t81.5 -9q124 1 221 75t150 202t53 288 q0 124 -47.5 182t-108.5 58q-68 0 -158.5 -60t-189.5 -182z" />
<glyph unicode="&#xff;" horiz-adv-x="880" d="M31 -362l30 118q28 -4 54 -4q133 0 239 209l35 70l-260 956l150 27l204 -795q40 84 173.5 381t191.5 414l141 -27l-522 -1079q-70 -143 -161.5 -214t-190.5 -71q-54 0 -84 15zM319 1294q0 37 26 62.5t63 25.5q35 0 60.5 -25.5t25.5 -62.5t-25.5 -64.5t-60.5 -27.5 q-36 0 -62.5 27.5t-26.5 64.5zM696 1294q0 37 25.5 62.5t60.5 25.5t60.5 -25.5t25.5 -62.5t-25.5 -64.5t-60.5 -27.5t-60.5 27.5t-25.5 64.5z" />
<glyph unicode="&#x152;" horiz-adv-x="1695" d="M141 592q0 96 22 193.5t63 187.5t103 168.5t137.5 136.5t172 91.5t201.5 33.5q107 0 211 -17h696l-18 -133h-541l-60 -493h414l-18 -133h-414l-59 -494h555l-15 -133h-710q-15 -1 -83.5 -7.5t-101.5 -6.5q-176 0 -303 79.5t-189.5 215t-62.5 311.5zM301 592 q0 -217 99.5 -344t289.5 -127q113 0 205 14l139 1110q-77 23 -186 23q-127 0 -233 -59t-173 -155.5t-104 -216t-37 -245.5z" />
<glyph unicode="&#x153;" horiz-adv-x="1566" d="M113 408q0 114 39.5 225t107 197.5t165 140t206.5 53.5q234 0 305 -248q75 117 189 182.5t223 65.5q106 0 170.5 -62t64.5 -178q0 -150 -146.5 -247.5t-469.5 -141.5q0 -149 65 -224t162 -75q131 0 264 121l53 -84q-73 -76 -164.5 -116t-179.5 -40q-112 0 -196.5 60.5 t-120.5 177.5q-71 -111 -170.5 -175.5t-220.5 -64.5q-165 0 -255.5 120t-90.5 313zM260 391q0 -148 63 -222.5t154 -74.5q147 0 249.5 146.5t102.5 367.5q0 148 -63 222.5t-154 74.5q-147 0 -249.5 -146.5t-102.5 -367.5zM967 500q236 24 355.5 98t119.5 174 q0 68 -30.5 102.5t-86.5 34.5q-51 0 -107 -27t-108 -76.5t-91 -129.5t-52 -176z" />
<glyph unicode="&#x178;" horiz-adv-x="1054" d="M154 1380l165 15q84 -210 283 -629q170 234 424 627l172 -13l-534 -753l-78 -631h-158l78 631q-285 597 -352 753zM412 1655q0 37 25.5 62.5t62.5 25.5q35 0 60.5 -25.5t25.5 -62.5t-25.5 -64.5t-60.5 -27.5q-36 0 -62 27.5t-26 64.5zM788 1655q0 37 25.5 62.5t60.5 25.5 q36 0 61.5 -25.5t25.5 -62.5t-26 -64.5t-61 -27.5t-60.5 27.5t-25.5 64.5z" />
<glyph unicode="&#x2000;" horiz-adv-x="916" />
<glyph unicode="&#x2001;" horiz-adv-x="1833" />
<glyph unicode="&#x2002;" horiz-adv-x="916" />
<glyph unicode="&#x2003;" horiz-adv-x="1833" />
<glyph unicode="&#x2004;" horiz-adv-x="611" />
<glyph unicode="&#x2005;" horiz-adv-x="458" />
<glyph unicode="&#x2006;" horiz-adv-x="305" />
<glyph unicode="&#x2007;" horiz-adv-x="305" />
<glyph unicode="&#x2008;" horiz-adv-x="229" />
<glyph unicode="&#x2009;" horiz-adv-x="366" />
<glyph unicode="&#x200a;" horiz-adv-x="101" />
<glyph unicode="&#x2010;" d="M61 465l17 133h440l-16 -133h-441z" />
<glyph unicode="&#x2011;" d="M61 465l17 133h440l-16 -133h-441z" />
<glyph unicode="&#x2012;" d="M61 465l17 133h440l-16 -133h-441z" />
<glyph unicode="&#x2013;" horiz-adv-x="1009" d="M61 475l15 119h925l-14 -119h-926z" />
<glyph unicode="&#x2014;" horiz-adv-x="1931" d="M61 475l15 119h1847l-14 -119h-1848z" />
<glyph unicode="&#x2018;" d="M272 1110l177 442l118 -14l-145 -442z" />
<glyph unicode="&#x2019;" horiz-adv-x="446" d="M233 1110l144 440l147 -14l-174 -442z" />
<glyph unicode="&#x201a;" d="M100 -250l148 443l160 -13l-179 -442z" />
<glyph unicode="&#x201c;" horiz-adv-x="790" d="M254 1106l176 442l119 -8l-146 -442zM565 1106l174 442l119 -8l-143 -442z" />
<glyph unicode="&#x201d;" horiz-adv-x="788" d="M252 1110l145 442l150 -12l-176 -442zM563 1110l146 442l147 -12l-174 -442z" />
<glyph unicode="&#x201e;" horiz-adv-x="788" d="M84 -248l147 443l146 -15l-178 -442zM395 -248l148 443l143 -15l-176 -442z" />
<glyph unicode="&#x2022;" horiz-adv-x="606" d="M143 518q0 93 59.5 163.5t162.5 70.5q106 0 163.5 -67.5t57.5 -160.5t-58.5 -161t-162.5 -68q-106 0 -164 65.5t-58 157.5z" />
<glyph unicode="&#x2026;" horiz-adv-x="1585" d="M174 82q0 43 29.5 73.5t70.5 30.5t71 -30.5t30 -73.5q0 -42 -29.5 -72t-71.5 -30q-41 0 -70.5 29.5t-29.5 72.5zM702 82q0 43 30 73.5t71 30.5t70.5 -30.5t29.5 -73.5t-29.5 -72.5t-70.5 -29.5t-71 30t-30 72zM1231 82q0 43 29.5 73.5t70.5 30.5t71 -30.5t30 -73.5 q0 -42 -30 -72t-71 -30t-70.5 29.5t-29.5 72.5z" />
<glyph unicode="&#x202f;" horiz-adv-x="366" />
<glyph unicode="&#x2039;" horiz-adv-x="679" d="M186 543l441 442l88 -74l-342 -368l252 -369l-107 -74z" />
<glyph unicode="&#x203a;" horiz-adv-x="679" d="M94 174l342 369l-252 368l109 74l330 -442l-439 -443z" />
<glyph unicode="&#x205f;" horiz-adv-x="458" />
<glyph unicode="&#x20ac;" horiz-adv-x="1419" d="M76 483l63 125h158q3 66 20 150h-206l65 125h170q37 109 95.5 202t137 166t180.5 115t216 43q262 0 457 -207l-64 -121q-188 197 -407 197q-108 0 -200.5 -55.5t-154 -142t-100.5 -197.5h754l-62 -125h-725q-17 -84 -20 -150h653l-64 -125h-579q27 -167 122.5 -270.5 t258.5 -103.5q56 0 110 12.5t103 36t78.5 41t68.5 43.5l62 -109q-227 -158 -420 -158q-100 0 -184.5 26t-145.5 72t-106.5 110.5t-71.5 139.5t-35 160h-227z" />
<glyph unicode="&#x2122;" horiz-adv-x="1165" d="M158 553q0 89 14 183.5t42.5 192t76 183.5t109 154t147.5 107.5t186 39.5q91 0 165 -32t123 -86.5t82 -128t47.5 -153.5t14.5 -167q0 -90 -14 -185.5t-42.5 -194.5t-76.5 -186t-110 -156t-149.5 -109t-188.5 -40q-90 0 -163.5 34t-121.5 90.5t-80.5 132t-46.5 156 t-14 165.5zM315 532q0 -69 12 -136t40 -136t84.5 -111.5t134.5 -42.5q73 0 135 31.5t104 82t75.5 119.5t52.5 140t31.5 148t17 137.5t4.5 114.5q0 201 -72.5 302t-198.5 101q-92 0 -166.5 -51t-120.5 -130.5t-77 -182t-43.5 -198.5t-12.5 -188z" />
<glyph unicode="&#xe000;" horiz-adv-x="1024" d="M0 0v1024h1024v-1024h-1024z" />
</font>
</defs>
</svg>
